%TF.GenerationSoftware,KiCad,Pcbnew,8.0.3*%
%TF.CreationDate,2024-07-04T19:57:10+02:00*%
%TF.ProjectId,MacNugget,4d61634e-7567-4676-9574-2e6b69636164,1.0*%
%TF.SameCoordinates,Original*%
%TF.FileFunction,Soldermask,Bot*%
%TF.FilePolarity,Negative*%
%FSLAX46Y46*%
G04 Gerber Fmt 4.6, Leading zero omitted, Abs format (unit mm)*
G04 Created by KiCad (PCBNEW 8.0.3) date 2024-07-04 19:57:10*
%MOMM*%
%LPD*%
G01*
G04 APERTURE LIST*
%ADD10C,1.500000*%
%ADD11R,1.700000X1.700000*%
%ADD12O,1.700000X1.700000*%
G04 APERTURE END LIST*
D10*
%TO.C,Y1*%
X129450000Y-74930000D03*
X124570000Y-74930000D03*
%TD*%
D11*
%TO.C,J2*%
X140040000Y-115440000D03*
D12*
X137500000Y-115440000D03*
X140040000Y-112900000D03*
X137500000Y-112900000D03*
X140040000Y-110360000D03*
X137500000Y-110360000D03*
X140040000Y-107820000D03*
X137500000Y-107820000D03*
X140040000Y-105280000D03*
X137500000Y-105280000D03*
X140040000Y-102740000D03*
X137500000Y-102740000D03*
X140040000Y-100200000D03*
X137500000Y-100200000D03*
X140040000Y-97660000D03*
X137500000Y-97660000D03*
X140040000Y-95120000D03*
X137500000Y-95120000D03*
X140040000Y-92580000D03*
X137500000Y-92580000D03*
X140040000Y-90040000D03*
X137500000Y-90040000D03*
X140040000Y-87500000D03*
X137500000Y-87500000D03*
X140040000Y-84960000D03*
X137500000Y-84960000D03*
X140040000Y-82420000D03*
X137500000Y-82420000D03*
X140040000Y-79880000D03*
X137500000Y-79880000D03*
X140040000Y-77340000D03*
X137500000Y-77340000D03*
X140040000Y-74800000D03*
X137500000Y-74800000D03*
X140040000Y-72260000D03*
X137500000Y-72260000D03*
X140040000Y-69720000D03*
X137500000Y-69720000D03*
X140040000Y-67180000D03*
X137500000Y-67180000D03*
X140040000Y-64640000D03*
X137500000Y-64640000D03*
X140040000Y-62100000D03*
X137500000Y-62100000D03*
X140040000Y-59560000D03*
X137500000Y-59560000D03*
X140040000Y-57020000D03*
X137500000Y-57020000D03*
X140040000Y-54480000D03*
X137500000Y-54480000D03*
%TD*%
%TO.C,J4*%
X129540000Y-100218000D03*
X129540000Y-97678000D03*
D11*
X129540000Y-95138000D03*
%TD*%
M02*
