%TF.GenerationSoftware,KiCad,Pcbnew,8.0.3*%
%TF.CreationDate,2024-07-04T19:57:10+02:00*%
%TF.ProjectId,MacNugget,4d61634e-7567-4676-9574-2e6b69636164,1.0*%
%TF.SameCoordinates,Original*%
%TF.FileFunction,Legend,Top*%
%TF.FilePolarity,Positive*%
%FSLAX46Y46*%
G04 Gerber Fmt 4.6, Leading zero omitted, Abs format (unit mm)*
G04 Created by KiCad (PCBNEW 8.0.3) date 2024-07-04 19:57:10*
%MOMM*%
%LPD*%
G01*
G04 APERTURE LIST*
%ADD10C,0.100000*%
%ADD11C,0.150000*%
%ADD12C,0.120000*%
%ADD13C,0.000000*%
G04 APERTURE END LIST*
D10*
X141478000Y-83058000D02*
X142748000Y-83058000D01*
X142748000Y-86614000D01*
X141478000Y-86614000D01*
X141478000Y-83058000D01*
G36*
X141478000Y-83058000D02*
G01*
X142748000Y-83058000D01*
X142748000Y-86614000D01*
X141478000Y-86614000D01*
X141478000Y-83058000D01*
G37*
D11*
X121104819Y-71540666D02*
X120628628Y-71873999D01*
X121104819Y-72112094D02*
X120104819Y-72112094D01*
X120104819Y-72112094D02*
X120104819Y-71731142D01*
X120104819Y-71731142D02*
X120152438Y-71635904D01*
X120152438Y-71635904D02*
X120200057Y-71588285D01*
X120200057Y-71588285D02*
X120295295Y-71540666D01*
X120295295Y-71540666D02*
X120438152Y-71540666D01*
X120438152Y-71540666D02*
X120533390Y-71588285D01*
X120533390Y-71588285D02*
X120581009Y-71635904D01*
X120581009Y-71635904D02*
X120628628Y-71731142D01*
X120628628Y-71731142D02*
X120628628Y-72112094D01*
X120104819Y-71207332D02*
X120104819Y-70588285D01*
X120104819Y-70588285D02*
X120485771Y-70921618D01*
X120485771Y-70921618D02*
X120485771Y-70778761D01*
X120485771Y-70778761D02*
X120533390Y-70683523D01*
X120533390Y-70683523D02*
X120581009Y-70635904D01*
X120581009Y-70635904D02*
X120676247Y-70588285D01*
X120676247Y-70588285D02*
X120914342Y-70588285D01*
X120914342Y-70588285D02*
X121009580Y-70635904D01*
X121009580Y-70635904D02*
X121057200Y-70683523D01*
X121057200Y-70683523D02*
X121104819Y-70778761D01*
X121104819Y-70778761D02*
X121104819Y-71064475D01*
X121104819Y-71064475D02*
X121057200Y-71159713D01*
X121057200Y-71159713D02*
X121009580Y-71207332D01*
X121771580Y-105068666D02*
X121819200Y-105116285D01*
X121819200Y-105116285D02*
X121866819Y-105259142D01*
X121866819Y-105259142D02*
X121866819Y-105354380D01*
X121866819Y-105354380D02*
X121819200Y-105497237D01*
X121819200Y-105497237D02*
X121723961Y-105592475D01*
X121723961Y-105592475D02*
X121628723Y-105640094D01*
X121628723Y-105640094D02*
X121438247Y-105687713D01*
X121438247Y-105687713D02*
X121295390Y-105687713D01*
X121295390Y-105687713D02*
X121104914Y-105640094D01*
X121104914Y-105640094D02*
X121009676Y-105592475D01*
X121009676Y-105592475D02*
X120914438Y-105497237D01*
X120914438Y-105497237D02*
X120866819Y-105354380D01*
X120866819Y-105354380D02*
X120866819Y-105259142D01*
X120866819Y-105259142D02*
X120914438Y-105116285D01*
X120914438Y-105116285D02*
X120962057Y-105068666D01*
X120866819Y-104211523D02*
X120866819Y-104401999D01*
X120866819Y-104401999D02*
X120914438Y-104497237D01*
X120914438Y-104497237D02*
X120962057Y-104544856D01*
X120962057Y-104544856D02*
X121104914Y-104640094D01*
X121104914Y-104640094D02*
X121295390Y-104687713D01*
X121295390Y-104687713D02*
X121676342Y-104687713D01*
X121676342Y-104687713D02*
X121771580Y-104640094D01*
X121771580Y-104640094D02*
X121819200Y-104592475D01*
X121819200Y-104592475D02*
X121866819Y-104497237D01*
X121866819Y-104497237D02*
X121866819Y-104306761D01*
X121866819Y-104306761D02*
X121819200Y-104211523D01*
X121819200Y-104211523D02*
X121771580Y-104163904D01*
X121771580Y-104163904D02*
X121676342Y-104116285D01*
X121676342Y-104116285D02*
X121438247Y-104116285D01*
X121438247Y-104116285D02*
X121343009Y-104163904D01*
X121343009Y-104163904D02*
X121295390Y-104211523D01*
X121295390Y-104211523D02*
X121247771Y-104306761D01*
X121247771Y-104306761D02*
X121247771Y-104497237D01*
X121247771Y-104497237D02*
X121295390Y-104592475D01*
X121295390Y-104592475D02*
X121343009Y-104640094D01*
X121343009Y-104640094D02*
X121438247Y-104687713D01*
X125073580Y-93638666D02*
X125121200Y-93686285D01*
X125121200Y-93686285D02*
X125168819Y-93829142D01*
X125168819Y-93829142D02*
X125168819Y-93924380D01*
X125168819Y-93924380D02*
X125121200Y-94067237D01*
X125121200Y-94067237D02*
X125025961Y-94162475D01*
X125025961Y-94162475D02*
X124930723Y-94210094D01*
X124930723Y-94210094D02*
X124740247Y-94257713D01*
X124740247Y-94257713D02*
X124597390Y-94257713D01*
X124597390Y-94257713D02*
X124406914Y-94210094D01*
X124406914Y-94210094D02*
X124311676Y-94162475D01*
X124311676Y-94162475D02*
X124216438Y-94067237D01*
X124216438Y-94067237D02*
X124168819Y-93924380D01*
X124168819Y-93924380D02*
X124168819Y-93829142D01*
X124168819Y-93829142D02*
X124216438Y-93686285D01*
X124216438Y-93686285D02*
X124264057Y-93638666D01*
X124168819Y-92733904D02*
X124168819Y-93210094D01*
X124168819Y-93210094D02*
X124645009Y-93257713D01*
X124645009Y-93257713D02*
X124597390Y-93210094D01*
X124597390Y-93210094D02*
X124549771Y-93114856D01*
X124549771Y-93114856D02*
X124549771Y-92876761D01*
X124549771Y-92876761D02*
X124597390Y-92781523D01*
X124597390Y-92781523D02*
X124645009Y-92733904D01*
X124645009Y-92733904D02*
X124740247Y-92686285D01*
X124740247Y-92686285D02*
X124978342Y-92686285D01*
X124978342Y-92686285D02*
X125073580Y-92733904D01*
X125073580Y-92733904D02*
X125121200Y-92781523D01*
X125121200Y-92781523D02*
X125168819Y-92876761D01*
X125168819Y-92876761D02*
X125168819Y-93114856D01*
X125168819Y-93114856D02*
X125121200Y-93210094D01*
X125121200Y-93210094D02*
X125073580Y-93257713D01*
X132947580Y-79414666D02*
X132995200Y-79462285D01*
X132995200Y-79462285D02*
X133042819Y-79605142D01*
X133042819Y-79605142D02*
X133042819Y-79700380D01*
X133042819Y-79700380D02*
X132995200Y-79843237D01*
X132995200Y-79843237D02*
X132899961Y-79938475D01*
X132899961Y-79938475D02*
X132804723Y-79986094D01*
X132804723Y-79986094D02*
X132614247Y-80033713D01*
X132614247Y-80033713D02*
X132471390Y-80033713D01*
X132471390Y-80033713D02*
X132280914Y-79986094D01*
X132280914Y-79986094D02*
X132185676Y-79938475D01*
X132185676Y-79938475D02*
X132090438Y-79843237D01*
X132090438Y-79843237D02*
X132042819Y-79700380D01*
X132042819Y-79700380D02*
X132042819Y-79605142D01*
X132042819Y-79605142D02*
X132090438Y-79462285D01*
X132090438Y-79462285D02*
X132138057Y-79414666D01*
X132376152Y-78557523D02*
X133042819Y-78557523D01*
X131995200Y-78795618D02*
X132709485Y-79033713D01*
X132709485Y-79033713D02*
X132709485Y-78414666D01*
X121009580Y-69508666D02*
X121057200Y-69556285D01*
X121057200Y-69556285D02*
X121104819Y-69699142D01*
X121104819Y-69699142D02*
X121104819Y-69794380D01*
X121104819Y-69794380D02*
X121057200Y-69937237D01*
X121057200Y-69937237D02*
X120961961Y-70032475D01*
X120961961Y-70032475D02*
X120866723Y-70080094D01*
X120866723Y-70080094D02*
X120676247Y-70127713D01*
X120676247Y-70127713D02*
X120533390Y-70127713D01*
X120533390Y-70127713D02*
X120342914Y-70080094D01*
X120342914Y-70080094D02*
X120247676Y-70032475D01*
X120247676Y-70032475D02*
X120152438Y-69937237D01*
X120152438Y-69937237D02*
X120104819Y-69794380D01*
X120104819Y-69794380D02*
X120104819Y-69699142D01*
X120104819Y-69699142D02*
X120152438Y-69556285D01*
X120152438Y-69556285D02*
X120200057Y-69508666D01*
X120104819Y-69175332D02*
X120104819Y-68556285D01*
X120104819Y-68556285D02*
X120485771Y-68889618D01*
X120485771Y-68889618D02*
X120485771Y-68746761D01*
X120485771Y-68746761D02*
X120533390Y-68651523D01*
X120533390Y-68651523D02*
X120581009Y-68603904D01*
X120581009Y-68603904D02*
X120676247Y-68556285D01*
X120676247Y-68556285D02*
X120914342Y-68556285D01*
X120914342Y-68556285D02*
X121009580Y-68603904D01*
X121009580Y-68603904D02*
X121057200Y-68651523D01*
X121057200Y-68651523D02*
X121104819Y-68746761D01*
X121104819Y-68746761D02*
X121104819Y-69032475D01*
X121104819Y-69032475D02*
X121057200Y-69127713D01*
X121057200Y-69127713D02*
X121009580Y-69175332D01*
X132947580Y-71794666D02*
X132995200Y-71842285D01*
X132995200Y-71842285D02*
X133042819Y-71985142D01*
X133042819Y-71985142D02*
X133042819Y-72080380D01*
X133042819Y-72080380D02*
X132995200Y-72223237D01*
X132995200Y-72223237D02*
X132899961Y-72318475D01*
X132899961Y-72318475D02*
X132804723Y-72366094D01*
X132804723Y-72366094D02*
X132614247Y-72413713D01*
X132614247Y-72413713D02*
X132471390Y-72413713D01*
X132471390Y-72413713D02*
X132280914Y-72366094D01*
X132280914Y-72366094D02*
X132185676Y-72318475D01*
X132185676Y-72318475D02*
X132090438Y-72223237D01*
X132090438Y-72223237D02*
X132042819Y-72080380D01*
X132042819Y-72080380D02*
X132042819Y-71985142D01*
X132042819Y-71985142D02*
X132090438Y-71842285D01*
X132090438Y-71842285D02*
X132138057Y-71794666D01*
X132138057Y-71413713D02*
X132090438Y-71366094D01*
X132090438Y-71366094D02*
X132042819Y-71270856D01*
X132042819Y-71270856D02*
X132042819Y-71032761D01*
X132042819Y-71032761D02*
X132090438Y-70937523D01*
X132090438Y-70937523D02*
X132138057Y-70889904D01*
X132138057Y-70889904D02*
X132233295Y-70842285D01*
X132233295Y-70842285D02*
X132328533Y-70842285D01*
X132328533Y-70842285D02*
X132471390Y-70889904D01*
X132471390Y-70889904D02*
X133042819Y-71461332D01*
X133042819Y-71461332D02*
X133042819Y-70842285D01*
X134725580Y-71794666D02*
X134773200Y-71842285D01*
X134773200Y-71842285D02*
X134820819Y-71985142D01*
X134820819Y-71985142D02*
X134820819Y-72080380D01*
X134820819Y-72080380D02*
X134773200Y-72223237D01*
X134773200Y-72223237D02*
X134677961Y-72318475D01*
X134677961Y-72318475D02*
X134582723Y-72366094D01*
X134582723Y-72366094D02*
X134392247Y-72413713D01*
X134392247Y-72413713D02*
X134249390Y-72413713D01*
X134249390Y-72413713D02*
X134058914Y-72366094D01*
X134058914Y-72366094D02*
X133963676Y-72318475D01*
X133963676Y-72318475D02*
X133868438Y-72223237D01*
X133868438Y-72223237D02*
X133820819Y-72080380D01*
X133820819Y-72080380D02*
X133820819Y-71985142D01*
X133820819Y-71985142D02*
X133868438Y-71842285D01*
X133868438Y-71842285D02*
X133916057Y-71794666D01*
X134820819Y-70842285D02*
X134820819Y-71413713D01*
X134820819Y-71127999D02*
X133820819Y-71127999D01*
X133820819Y-71127999D02*
X133963676Y-71223237D01*
X133963676Y-71223237D02*
X134058914Y-71318475D01*
X134058914Y-71318475D02*
X134106533Y-71413713D01*
X134820819Y-69762666D02*
X134344628Y-70095999D01*
X134820819Y-70334094D02*
X133820819Y-70334094D01*
X133820819Y-70334094D02*
X133820819Y-69953142D01*
X133820819Y-69953142D02*
X133868438Y-69857904D01*
X133868438Y-69857904D02*
X133916057Y-69810285D01*
X133916057Y-69810285D02*
X134011295Y-69762666D01*
X134011295Y-69762666D02*
X134154152Y-69762666D01*
X134154152Y-69762666D02*
X134249390Y-69810285D01*
X134249390Y-69810285D02*
X134297009Y-69857904D01*
X134297009Y-69857904D02*
X134344628Y-69953142D01*
X134344628Y-69953142D02*
X134344628Y-70334094D01*
X134820819Y-68810285D02*
X134820819Y-69381713D01*
X134820819Y-69095999D02*
X133820819Y-69095999D01*
X133820819Y-69095999D02*
X133963676Y-69191237D01*
X133963676Y-69191237D02*
X134058914Y-69286475D01*
X134058914Y-69286475D02*
X134106533Y-69381713D01*
X120612819Y-96773904D02*
X121422342Y-96773904D01*
X121422342Y-96773904D02*
X121517580Y-96726285D01*
X121517580Y-96726285D02*
X121565200Y-96678666D01*
X121565200Y-96678666D02*
X121612819Y-96583428D01*
X121612819Y-96583428D02*
X121612819Y-96392952D01*
X121612819Y-96392952D02*
X121565200Y-96297714D01*
X121565200Y-96297714D02*
X121517580Y-96250095D01*
X121517580Y-96250095D02*
X121422342Y-96202476D01*
X121422342Y-96202476D02*
X120612819Y-96202476D01*
X120708057Y-95773904D02*
X120660438Y-95726285D01*
X120660438Y-95726285D02*
X120612819Y-95631047D01*
X120612819Y-95631047D02*
X120612819Y-95392952D01*
X120612819Y-95392952D02*
X120660438Y-95297714D01*
X120660438Y-95297714D02*
X120708057Y-95250095D01*
X120708057Y-95250095D02*
X120803295Y-95202476D01*
X120803295Y-95202476D02*
X120898533Y-95202476D01*
X120898533Y-95202476D02*
X121041390Y-95250095D01*
X121041390Y-95250095D02*
X121612819Y-95821523D01*
X121612819Y-95821523D02*
X121612819Y-95202476D01*
D12*
%TO.C,J1*%
X120852000Y-53346000D02*
X120852000Y-54746000D01*
X120852000Y-53346000D02*
X134672000Y-53346000D01*
X120852000Y-63046000D02*
X120852000Y-57266000D01*
X120852000Y-65566000D02*
X120852000Y-68066000D01*
X120852000Y-68066000D02*
X134672000Y-68066000D01*
X134672000Y-53346000D02*
X134672000Y-54746000D01*
X134672000Y-57266000D02*
X134672000Y-63046000D01*
X134672000Y-65566000D02*
X134672000Y-68066000D01*
%TO.C,Y1*%
X130210000Y-77455000D02*
X123810000Y-77455000D01*
X130210000Y-72405000D02*
X123810000Y-72405000D01*
X130210000Y-72405000D02*
G75*
G02*
X130210000Y-77455000I0J-2525000D01*
G01*
X123810000Y-77455000D02*
G75*
G02*
X123810000Y-72405000I0J2525000D01*
G01*
%TO.C,R3*%
X122698742Y-70851500D02*
X123173258Y-70851500D01*
X122698742Y-71896500D02*
X123173258Y-71896500D01*
%TO.C,C6*%
X124213252Y-105637000D02*
X123690748Y-105637000D01*
X124213252Y-104167000D02*
X123690748Y-104167000D01*
%TO.C,C5*%
X122261252Y-94207000D02*
X121738748Y-94207000D01*
X122261252Y-92737000D02*
X121738748Y-92737000D01*
%TO.C,C4*%
X130554000Y-79388580D02*
X130554000Y-79107420D01*
X131574000Y-79388580D02*
X131574000Y-79107420D01*
%TO.C,C3*%
X123076580Y-69086000D02*
X122795420Y-69086000D01*
X123076580Y-70106000D02*
X122795420Y-70106000D01*
%TO.C,C2*%
X125843420Y-70864000D02*
X126124580Y-70864000D01*
X125843420Y-71884000D02*
X126124580Y-71884000D01*
%TO.C,C1*%
X129399420Y-70864000D02*
X129680580Y-70864000D01*
X129399420Y-71884000D02*
X129680580Y-71884000D01*
%TO.C,R1*%
X129302742Y-70118500D02*
X129777258Y-70118500D01*
X129302742Y-69073500D02*
X129777258Y-69073500D01*
%TO.C,D1*%
X125238000Y-70556000D02*
X127923000Y-70556000D01*
X127923000Y-68636000D02*
X125238000Y-68636000D01*
X127923000Y-70556000D02*
X127923000Y-68636000D01*
%TO.C,U2*%
X120690000Y-102130000D02*
X120360000Y-102370000D01*
X120360000Y-101890000D01*
X120690000Y-102130000D01*
G36*
X120690000Y-102130000D02*
G01*
X120360000Y-102370000D01*
X120360000Y-101890000D01*
X120690000Y-102130000D01*
G37*
X127410000Y-97090000D02*
X126150000Y-97090000D01*
X120590000Y-97090000D02*
X121850000Y-97090000D01*
X127410000Y-100850000D02*
X127410000Y-97090000D01*
X120590000Y-100850000D02*
X120590000Y-97090000D01*
%TO.C,U1*%
X130130000Y-80140000D02*
X129660000Y-79800000D01*
X130130000Y-79460000D01*
X130130000Y-80140000D01*
G36*
X130130000Y-80140000D02*
G01*
X129660000Y-79800000D01*
X130130000Y-79460000D01*
X130130000Y-80140000D01*
G37*
X122890000Y-87610000D02*
X123340000Y-87610000D01*
X130110000Y-87610000D02*
X129660000Y-87610000D01*
X122890000Y-87160000D02*
X122890000Y-87610000D01*
X130110000Y-87160000D02*
X130110000Y-87610000D01*
X122890000Y-80840000D02*
X122890000Y-80390000D01*
X130110000Y-80840000D02*
X130110000Y-80390000D01*
X122890000Y-80390000D02*
X123340000Y-80390000D01*
X130110000Y-80390000D02*
X129660000Y-80390000D01*
%TO.C,J2*%
X141370000Y-116770000D02*
X140040000Y-116770000D01*
X141370000Y-115440000D02*
X141370000Y-116770000D01*
X141370000Y-114170000D02*
X141370000Y-53150000D01*
X141370000Y-114170000D02*
X138770000Y-114170000D01*
X141370000Y-53150000D02*
X136170000Y-53150000D01*
X138770000Y-116770000D02*
X136170000Y-116770000D01*
X138770000Y-114170000D02*
X138770000Y-116770000D01*
X136170000Y-116770000D02*
X136170000Y-53150000D01*
D13*
%TO.C,G\u002A\u002A\u002A*%
G36*
X129827336Y-104679495D02*
G01*
X130680707Y-104795782D01*
X131235048Y-105089013D01*
X131554770Y-105640529D01*
X131704288Y-106531672D01*
X131748014Y-107843786D01*
X131750340Y-108623844D01*
X131731740Y-110139696D01*
X131633192Y-111197566D01*
X131390575Y-111879665D01*
X130939770Y-112268204D01*
X130216654Y-112445395D01*
X129157109Y-112493448D01*
X128731049Y-112494979D01*
X127603791Y-112466954D01*
X126881700Y-112365173D01*
X126431586Y-112163078D01*
X126252858Y-112000830D01*
X126043439Y-111659042D01*
X125908457Y-111119252D01*
X125834158Y-110277027D01*
X125806788Y-109027934D01*
X125805659Y-108605406D01*
X125810602Y-107917510D01*
X126063454Y-107917510D01*
X126083907Y-109108730D01*
X126138384Y-110239694D01*
X126223521Y-111172990D01*
X126335953Y-111771204D01*
X126400127Y-111900511D01*
X126848496Y-112075899D01*
X127660633Y-112184071D01*
X128664080Y-112225026D01*
X129686376Y-112198764D01*
X130555061Y-112105286D01*
X131097676Y-111944590D01*
X131155872Y-111900511D01*
X131307212Y-111480628D01*
X131413316Y-110662256D01*
X131474184Y-109585433D01*
X131489815Y-108390198D01*
X131460211Y-107216590D01*
X131385371Y-106204649D01*
X131265295Y-105494413D01*
X131155872Y-105253277D01*
X130699135Y-105077897D01*
X129796783Y-104965923D01*
X128617760Y-104929021D01*
X127470054Y-104950042D01*
X126757476Y-105025578D01*
X126375918Y-105174344D01*
X126239888Y-105356440D01*
X126138080Y-105903952D01*
X126080390Y-106803446D01*
X126063454Y-107917510D01*
X125810602Y-107917510D01*
X125816668Y-107073329D01*
X125888373Y-106000036D01*
X126078794Y-105303892D01*
X126445947Y-104903261D01*
X127047853Y-104716508D01*
X127942529Y-104661999D01*
X128610521Y-104658809D01*
X129827336Y-104679495D01*
G37*
G36*
X131074808Y-108441787D02*
G01*
X131074808Y-110468383D01*
X128841292Y-110546933D01*
X127667604Y-110565354D01*
X126938252Y-110512490D01*
X126560450Y-110376690D01*
X126527517Y-110333277D01*
X126616298Y-110333277D01*
X128778000Y-110333277D01*
X130939702Y-110333277D01*
X130939702Y-108441787D01*
X130939702Y-106550298D01*
X128778000Y-106550298D01*
X126616298Y-106550298D01*
X126616298Y-108441787D01*
X126616298Y-110333277D01*
X126527517Y-110333277D01*
X126463022Y-110248260D01*
X126399353Y-109792962D01*
X126378571Y-108985644D01*
X126392229Y-108441787D01*
X126399729Y-108143114D01*
X126481191Y-106415191D01*
X128778000Y-106415191D01*
X131074808Y-106415191D01*
X131074808Y-108441787D01*
G37*
G36*
X129279980Y-109447935D02*
G01*
X129411781Y-109590191D01*
X129068894Y-109761356D01*
X128778000Y-109792851D01*
X128290100Y-109698361D01*
X128144218Y-109590191D01*
X128281454Y-109446197D01*
X128778000Y-109387532D01*
X129279980Y-109447935D01*
G37*
G36*
X129017170Y-107596249D02*
G01*
X129048207Y-108163030D01*
X129048212Y-108171574D01*
X128983447Y-108740940D01*
X128827420Y-108982157D01*
X128824799Y-108982213D01*
X128702928Y-108751385D01*
X128717184Y-108193790D01*
X128720361Y-108171574D01*
X128833897Y-107603321D01*
X128942104Y-107361037D01*
X128943775Y-107360936D01*
X129017170Y-107596249D01*
G37*
G36*
X127877290Y-107451007D02*
G01*
X127909630Y-107771686D01*
X127877290Y-107811291D01*
X127716649Y-107774199D01*
X127697149Y-107631149D01*
X127796015Y-107408733D01*
X127877290Y-107451007D01*
G37*
G36*
X129768780Y-107451007D02*
G01*
X129801119Y-107771686D01*
X129768780Y-107811291D01*
X129608139Y-107774199D01*
X129588638Y-107631149D01*
X129687505Y-107408733D01*
X129768780Y-107451007D01*
G37*
D12*
%TO.C,J4*%
X130870000Y-96408000D02*
X130870000Y-101548000D01*
X130870000Y-93808000D02*
X130870000Y-95138000D01*
X129540000Y-93808000D02*
X130870000Y-93808000D01*
X128210000Y-101548000D02*
X130870000Y-101548000D01*
X128210000Y-96408000D02*
X130870000Y-96408000D01*
X128210000Y-96408000D02*
X128210000Y-101548000D01*
%TD*%
M02*
