M48
; DRILL file {KiCad 8.0.3} date 2024-07-04T23:02:59+0200
; FORMAT={-:-/ absolute / inch / decimal}
; #@! TF.CreationDate,2024-07-04T23:02:59+02:00
; #@! TF.GenerationSoftware,Kicad,Pcbnew,8.0.3
; #@! TF.FileFunction,Plated,1,2,PTH
FMAT,2
INCH
; #@! TA.AperFunction,Plated,PTH,ViaDrill
T1C0.0118
; #@! TA.AperFunction,Plated,PTH,ComponentDrill
T2C0.0315
; #@! TA.AperFunction,Plated,PTH,ComponentDrill
T3C0.0394
%
G90
G05
T1
X4.74Y-2.6
X4.74Y-3.52
X4.75Y-2.13
X4.75Y-3.3
X4.77Y-3.62
X4.7992Y-3.09
X4.7992Y-3.1732
X4.8Y-3.4614
X4.8001Y-3.56
X4.81Y-2.68
X4.81Y-2.85
X4.83Y-2.96
X4.84Y-3.84
X4.84Y-4.08
X4.85Y-3.03
X4.85Y-4.19
X4.85Y-4.42
X4.87Y-2.42
X4.87Y-2.89
X4.88Y-3.21
X4.88Y-3.3209
X4.8819Y-3.3858
X4.9Y-2.37
X4.9Y-2.68
X4.9198Y-2.3945
X4.93Y-3.68
X4.93Y-3.84
X4.94Y-3.03
X4.9421Y-3.0905
X4.97Y-2.7
X4.98Y-3.27
X4.98Y-3.3209
X4.98Y-3.41
X4.9867Y-2.4172
X5.0Y-2.83
X5.0Y-2.97
X5.0Y-3.2
X5.0Y-3.76
X5.0Y-3.94
X5.025Y-4.075
X5.05Y-3.07
X5.0636Y-3.297
X5.065Y-3.39
X5.0733Y-2.3936
X5.0787Y-3.2283
X5.1Y-3.68
X5.12Y-2.41
X5.12Y-3.5197
X5.15Y-2.87
X5.16Y-2.37
X5.16Y-2.91
X5.16Y-3.49
X5.16Y-4.11
X5.1683Y-3.7
X5.18Y-2.74
X5.18Y-3.05
X5.1929Y-3.2283
X5.1929Y-3.2677
X5.1969Y-3.4252
X5.2Y-3.75
X5.2Y-4.0157
X5.22Y-4.06
X5.2232Y-3.4079
X5.23Y-3.96
X5.2362Y-3.6343
X5.24Y-4.18
X5.2441Y-3.7959
X5.25Y-2.31
X5.25Y-4.35
X5.2598Y-4.21
X5.27Y-2.43
X5.29Y-2.6
X5.2912Y-4.2299
X5.3Y-2.12
X5.315Y-3.9
X5.33Y-4.13
X5.33Y-4.31
X5.33Y-4.42
X5.34Y-2.77
X5.36Y-4.5764
T2
X4.9043Y-2.95
X5.0965Y-2.95
T3
X5.1Y-3.7456
X5.1Y-3.8456
X5.1Y-3.9456
X5.4134Y-2.1449
X5.4134Y-2.2449
X5.4134Y-2.3449
X5.4134Y-2.4449
X5.4134Y-2.5449
X5.4134Y-2.6449
X5.4134Y-2.7449
X5.4134Y-2.8449
X5.4134Y-2.9449
X5.4134Y-3.0449
X5.4134Y-3.1449
X5.4134Y-3.2449
X5.4134Y-3.3449
X5.4134Y-3.4449
X5.4134Y-3.5449
X5.4134Y-3.6449
X5.4134Y-3.7449
X5.4134Y-3.8449
X5.4134Y-3.9449
X5.4134Y-4.0449
X5.4134Y-4.1449
X5.4134Y-4.2449
X5.4134Y-4.3449
X5.4134Y-4.4449
X5.4134Y-4.5449
X5.5134Y-2.1449
X5.5134Y-2.2449
X5.5134Y-2.3449
X5.5134Y-2.4449
X5.5134Y-2.5449
X5.5134Y-2.6449
X5.5134Y-2.7449
X5.5134Y-2.8449
X5.5134Y-2.9449
X5.5134Y-3.0449
X5.5134Y-3.1449
X5.5134Y-3.2449
X5.5134Y-3.3449
X5.5134Y-3.4449
X5.5134Y-3.5449
X5.5134Y-3.6449
X5.5134Y-3.7449
X5.5134Y-3.8449
X5.5134Y-3.9449
X5.5134Y-4.0449
X5.5134Y-4.1449
X5.5134Y-4.2449
X5.5134Y-4.3449
X5.5134Y-4.4449
X5.5134Y-4.5449
M30
