%TF.GenerationSoftware,KiCad,Pcbnew,8.0.3*%
%TF.CreationDate,2024-07-04T19:46:49+02:00*%
%TF.ProjectId,MacNugget,4d61634e-7567-4676-9574-2e6b69636164,1.0*%
%TF.SameCoordinates,Original*%
%TF.FileFunction,Paste,Top*%
%TF.FilePolarity,Positive*%
%FSLAX46Y46*%
G04 Gerber Fmt 4.6, Leading zero omitted, Abs format (unit mm)*
G04 Created by KiCad (PCBNEW 8.0.3) date 2024-07-04 19:46:49*
%MOMM*%
%LPD*%
G01*
G04 APERTURE LIST*
G04 Aperture macros list*
%AMRoundRect*
0 Rectangle with rounded corners*
0 $1 Rounding radius*
0 $2 $3 $4 $5 $6 $7 $8 $9 X,Y pos of 4 corners*
0 Add a 4 corners polygon primitive as box body*
4,1,4,$2,$3,$4,$5,$6,$7,$8,$9,$2,$3,0*
0 Add four circle primitives for the rounded corners*
1,1,$1+$1,$2,$3*
1,1,$1+$1,$4,$5*
1,1,$1+$1,$6,$7*
1,1,$1+$1,$8,$9*
0 Add four rect primitives between the rounded corners*
20,1,$1+$1,$2,$3,$4,$5,0*
20,1,$1+$1,$4,$5,$6,$7,0*
20,1,$1+$1,$6,$7,$8,$9,0*
20,1,$1+$1,$8,$9,$2,$3,0*%
G04 Aperture macros list end*
%ADD10R,0.800000X1.500000*%
%ADD11RoundRect,0.362500X-0.362500X-0.637500X0.362500X-0.637500X0.362500X0.637500X-0.362500X0.637500X0*%
%ADD12RoundRect,0.200000X-0.200000X-0.275000X0.200000X-0.275000X0.200000X0.275000X-0.200000X0.275000X0*%
%ADD13RoundRect,0.250000X0.250000X0.475000X-0.250000X0.475000X-0.250000X-0.475000X0.250000X-0.475000X0*%
%ADD14RoundRect,0.225000X0.250000X-0.225000X0.250000X0.225000X-0.250000X0.225000X-0.250000X-0.225000X0*%
%ADD15RoundRect,0.225000X0.225000X0.250000X-0.225000X0.250000X-0.225000X-0.250000X0.225000X-0.250000X0*%
%ADD16RoundRect,0.225000X-0.225000X-0.250000X0.225000X-0.250000X0.225000X0.250000X-0.225000X0.250000X0*%
%ADD17RoundRect,0.243750X0.243750X0.456250X-0.243750X0.456250X-0.243750X-0.456250X0.243750X-0.456250X0*%
%ADD18RoundRect,0.375000X0.375000X-0.625000X0.375000X0.625000X-0.375000X0.625000X-0.375000X-0.625000X0*%
%ADD19RoundRect,0.500000X1.400000X-0.500000X1.400000X0.500000X-1.400000X0.500000X-1.400000X-0.500000X0*%
%ADD20RoundRect,0.075000X-0.662500X0.075000X-0.662500X-0.075000X0.662500X-0.075000X0.662500X0.075000X0*%
%ADD21RoundRect,0.075000X-0.075000X0.662500X-0.075000X-0.662500X0.075000X-0.662500X0.075000X0.662500X0*%
G04 APERTURE END LIST*
D10*
%TO.C,J1*%
X124557000Y-58606000D03*
X125657000Y-58606000D03*
X126757000Y-58606000D03*
X127857000Y-58606000D03*
X128957000Y-58606000D03*
X130057000Y-58606000D03*
X131157000Y-58606000D03*
X132257000Y-58606000D03*
D11*
X120887000Y-56006000D03*
X120887000Y-64306000D03*
X134637000Y-56006000D03*
X134637000Y-64306000D03*
%TD*%
D12*
%TO.C,R3*%
X122111000Y-71374000D03*
X123761000Y-71374000D03*
%TD*%
D13*
%TO.C,C6*%
X124902000Y-104902000D03*
X123002000Y-104902000D03*
%TD*%
%TO.C,C5*%
X122950000Y-93472000D03*
X121050000Y-93472000D03*
%TD*%
D14*
%TO.C,C4*%
X131064000Y-80023000D03*
X131064000Y-78473000D03*
%TD*%
D15*
%TO.C,C3*%
X122161000Y-69596000D03*
X123711000Y-69596000D03*
%TD*%
D16*
%TO.C,C2*%
X125209000Y-71374000D03*
X126759000Y-71374000D03*
%TD*%
%TO.C,C1*%
X128765000Y-71374000D03*
X130315000Y-71374000D03*
%TD*%
D12*
%TO.C,R1*%
X130365000Y-69596000D03*
X128715000Y-69596000D03*
%TD*%
D17*
%TO.C,D1*%
X125300500Y-69596000D03*
X127175500Y-69596000D03*
%TD*%
D18*
%TO.C,U2*%
X126300000Y-102150000D03*
D19*
X124000000Y-95850000D03*
D18*
X124000000Y-102150000D03*
X121700000Y-102150000D03*
%TD*%
D20*
%TO.C,U1*%
X130662500Y-81250000D03*
X130662500Y-81750000D03*
X130662500Y-82250000D03*
X130662500Y-82750000D03*
X130662500Y-83250000D03*
X130662500Y-83750000D03*
X130662500Y-84250000D03*
X130662500Y-84750000D03*
X130662500Y-85250000D03*
X130662500Y-85750000D03*
X130662500Y-86250000D03*
X130662500Y-86750000D03*
D21*
X129250000Y-88162500D03*
X128750000Y-88162500D03*
X128250000Y-88162500D03*
X127750000Y-88162500D03*
X127250000Y-88162500D03*
X126750000Y-88162500D03*
X126250000Y-88162500D03*
X125750000Y-88162500D03*
X125250000Y-88162500D03*
X124750000Y-88162500D03*
X124250000Y-88162500D03*
X123750000Y-88162500D03*
D20*
X122337500Y-86750000D03*
X122337500Y-86250000D03*
X122337500Y-85750000D03*
X122337500Y-85250000D03*
X122337500Y-84750000D03*
X122337500Y-84250000D03*
X122337500Y-83750000D03*
X122337500Y-83250000D03*
X122337500Y-82750000D03*
X122337500Y-82250000D03*
X122337500Y-81750000D03*
X122337500Y-81250000D03*
D21*
X123750000Y-79837500D03*
X124250000Y-79837500D03*
X124750000Y-79837500D03*
X125250000Y-79837500D03*
X125750000Y-79837500D03*
X126250000Y-79837500D03*
X126750000Y-79837500D03*
X127250000Y-79837500D03*
X127750000Y-79837500D03*
X128250000Y-79837500D03*
X128750000Y-79837500D03*
X129250000Y-79837500D03*
%TD*%
M02*
