%TF.GenerationSoftware,KiCad,Pcbnew,8.0.3*%
%TF.CreationDate,2024-07-04T19:46:49+02:00*%
%TF.ProjectId,MacNugget,4d61634e-7567-4676-9574-2e6b69636164,1.0*%
%TF.SameCoordinates,Original*%
%TF.FileFunction,Copper,L1,Top*%
%TF.FilePolarity,Positive*%
%FSLAX46Y46*%
G04 Gerber Fmt 4.6, Leading zero omitted, Abs format (unit mm)*
G04 Created by KiCad (PCBNEW 8.0.3) date 2024-07-04 19:46:49*
%MOMM*%
%LPD*%
G01*
G04 APERTURE LIST*
G04 Aperture macros list*
%AMRoundRect*
0 Rectangle with rounded corners*
0 $1 Rounding radius*
0 $2 $3 $4 $5 $6 $7 $8 $9 X,Y pos of 4 corners*
0 Add a 4 corners polygon primitive as box body*
4,1,4,$2,$3,$4,$5,$6,$7,$8,$9,$2,$3,0*
0 Add four circle primitives for the rounded corners*
1,1,$1+$1,$2,$3*
1,1,$1+$1,$4,$5*
1,1,$1+$1,$6,$7*
1,1,$1+$1,$8,$9*
0 Add four rect primitives between the rounded corners*
20,1,$1+$1,$2,$3,$4,$5,0*
20,1,$1+$1,$4,$5,$6,$7,0*
20,1,$1+$1,$6,$7,$8,$9,0*
20,1,$1+$1,$8,$9,$2,$3,0*%
G04 Aperture macros list end*
%ADD10C,0.300000*%
%TA.AperFunction,NonConductor*%
%ADD11C,0.300000*%
%TD*%
%TA.AperFunction,SMDPad,CuDef*%
%ADD12R,0.800000X1.500000*%
%TD*%
%TA.AperFunction,SMDPad,CuDef*%
%ADD13RoundRect,0.362500X-0.362500X-0.637500X0.362500X-0.637500X0.362500X0.637500X-0.362500X0.637500X0*%
%TD*%
%TA.AperFunction,ComponentPad*%
%ADD14C,1.500000*%
%TD*%
%TA.AperFunction,SMDPad,CuDef*%
%ADD15RoundRect,0.200000X-0.200000X-0.275000X0.200000X-0.275000X0.200000X0.275000X-0.200000X0.275000X0*%
%TD*%
%TA.AperFunction,SMDPad,CuDef*%
%ADD16RoundRect,0.250000X0.250000X0.475000X-0.250000X0.475000X-0.250000X-0.475000X0.250000X-0.475000X0*%
%TD*%
%TA.AperFunction,SMDPad,CuDef*%
%ADD17RoundRect,0.225000X0.250000X-0.225000X0.250000X0.225000X-0.250000X0.225000X-0.250000X-0.225000X0*%
%TD*%
%TA.AperFunction,SMDPad,CuDef*%
%ADD18RoundRect,0.225000X0.225000X0.250000X-0.225000X0.250000X-0.225000X-0.250000X0.225000X-0.250000X0*%
%TD*%
%TA.AperFunction,SMDPad,CuDef*%
%ADD19RoundRect,0.225000X-0.225000X-0.250000X0.225000X-0.250000X0.225000X0.250000X-0.225000X0.250000X0*%
%TD*%
%TA.AperFunction,SMDPad,CuDef*%
%ADD20RoundRect,0.243750X0.243750X0.456250X-0.243750X0.456250X-0.243750X-0.456250X0.243750X-0.456250X0*%
%TD*%
%TA.AperFunction,SMDPad,CuDef*%
%ADD21RoundRect,0.375000X0.375000X-0.625000X0.375000X0.625000X-0.375000X0.625000X-0.375000X-0.625000X0*%
%TD*%
%TA.AperFunction,SMDPad,CuDef*%
%ADD22RoundRect,0.500000X1.400000X-0.500000X1.400000X0.500000X-1.400000X0.500000X-1.400000X-0.500000X0*%
%TD*%
%TA.AperFunction,SMDPad,CuDef*%
%ADD23RoundRect,0.075000X-0.662500X0.075000X-0.662500X-0.075000X0.662500X-0.075000X0.662500X0.075000X0*%
%TD*%
%TA.AperFunction,SMDPad,CuDef*%
%ADD24RoundRect,0.075000X-0.075000X0.662500X-0.075000X-0.662500X0.075000X-0.662500X0.075000X0.662500X0*%
%TD*%
%TA.AperFunction,ComponentPad*%
%ADD25R,1.700000X1.700000*%
%TD*%
%TA.AperFunction,ComponentPad*%
%ADD26O,1.700000X1.700000*%
%TD*%
%TA.AperFunction,ViaPad*%
%ADD27C,0.600000*%
%TD*%
%TA.AperFunction,Conductor*%
%ADD28C,0.200000*%
%TD*%
%TA.AperFunction,Conductor*%
%ADD29C,0.500000*%
%TD*%
%TA.AperFunction,Conductor*%
%ADD30C,1.000000*%
%TD*%
G04 APERTURE END LIST*
D10*
D11*
X122982510Y-114862828D02*
X122982510Y-113362828D01*
X122982510Y-113362828D02*
X123482510Y-114434257D01*
X123482510Y-114434257D02*
X123982510Y-113362828D01*
X123982510Y-113362828D02*
X123982510Y-114862828D01*
X125339654Y-114862828D02*
X125339654Y-114077114D01*
X125339654Y-114077114D02*
X125268225Y-113934257D01*
X125268225Y-113934257D02*
X125125368Y-113862828D01*
X125125368Y-113862828D02*
X124839654Y-113862828D01*
X124839654Y-113862828D02*
X124696796Y-113934257D01*
X125339654Y-114791400D02*
X125196796Y-114862828D01*
X125196796Y-114862828D02*
X124839654Y-114862828D01*
X124839654Y-114862828D02*
X124696796Y-114791400D01*
X124696796Y-114791400D02*
X124625368Y-114648542D01*
X124625368Y-114648542D02*
X124625368Y-114505685D01*
X124625368Y-114505685D02*
X124696796Y-114362828D01*
X124696796Y-114362828D02*
X124839654Y-114291400D01*
X124839654Y-114291400D02*
X125196796Y-114291400D01*
X125196796Y-114291400D02*
X125339654Y-114219971D01*
X126696797Y-114791400D02*
X126553939Y-114862828D01*
X126553939Y-114862828D02*
X126268225Y-114862828D01*
X126268225Y-114862828D02*
X126125368Y-114791400D01*
X126125368Y-114791400D02*
X126053939Y-114719971D01*
X126053939Y-114719971D02*
X125982511Y-114577114D01*
X125982511Y-114577114D02*
X125982511Y-114148542D01*
X125982511Y-114148542D02*
X126053939Y-114005685D01*
X126053939Y-114005685D02*
X126125368Y-113934257D01*
X126125368Y-113934257D02*
X126268225Y-113862828D01*
X126268225Y-113862828D02*
X126553939Y-113862828D01*
X126553939Y-113862828D02*
X126696797Y-113934257D01*
X127339653Y-114862828D02*
X127339653Y-113362828D01*
X127339653Y-113362828D02*
X128196796Y-114862828D01*
X128196796Y-114862828D02*
X128196796Y-113362828D01*
X129553940Y-113862828D02*
X129553940Y-114862828D01*
X128911082Y-113862828D02*
X128911082Y-114648542D01*
X128911082Y-114648542D02*
X128982511Y-114791400D01*
X128982511Y-114791400D02*
X129125368Y-114862828D01*
X129125368Y-114862828D02*
X129339654Y-114862828D01*
X129339654Y-114862828D02*
X129482511Y-114791400D01*
X129482511Y-114791400D02*
X129553940Y-114719971D01*
X130911083Y-113862828D02*
X130911083Y-115077114D01*
X130911083Y-115077114D02*
X130839654Y-115219971D01*
X130839654Y-115219971D02*
X130768225Y-115291400D01*
X130768225Y-115291400D02*
X130625368Y-115362828D01*
X130625368Y-115362828D02*
X130411083Y-115362828D01*
X130411083Y-115362828D02*
X130268225Y-115291400D01*
X130911083Y-114791400D02*
X130768225Y-114862828D01*
X130768225Y-114862828D02*
X130482511Y-114862828D01*
X130482511Y-114862828D02*
X130339654Y-114791400D01*
X130339654Y-114791400D02*
X130268225Y-114719971D01*
X130268225Y-114719971D02*
X130196797Y-114577114D01*
X130196797Y-114577114D02*
X130196797Y-114148542D01*
X130196797Y-114148542D02*
X130268225Y-114005685D01*
X130268225Y-114005685D02*
X130339654Y-113934257D01*
X130339654Y-113934257D02*
X130482511Y-113862828D01*
X130482511Y-113862828D02*
X130768225Y-113862828D01*
X130768225Y-113862828D02*
X130911083Y-113934257D01*
X132268226Y-113862828D02*
X132268226Y-115077114D01*
X132268226Y-115077114D02*
X132196797Y-115219971D01*
X132196797Y-115219971D02*
X132125368Y-115291400D01*
X132125368Y-115291400D02*
X131982511Y-115362828D01*
X131982511Y-115362828D02*
X131768226Y-115362828D01*
X131768226Y-115362828D02*
X131625368Y-115291400D01*
X132268226Y-114791400D02*
X132125368Y-114862828D01*
X132125368Y-114862828D02*
X131839654Y-114862828D01*
X131839654Y-114862828D02*
X131696797Y-114791400D01*
X131696797Y-114791400D02*
X131625368Y-114719971D01*
X131625368Y-114719971D02*
X131553940Y-114577114D01*
X131553940Y-114577114D02*
X131553940Y-114148542D01*
X131553940Y-114148542D02*
X131625368Y-114005685D01*
X131625368Y-114005685D02*
X131696797Y-113934257D01*
X131696797Y-113934257D02*
X131839654Y-113862828D01*
X131839654Y-113862828D02*
X132125368Y-113862828D01*
X132125368Y-113862828D02*
X132268226Y-113934257D01*
X133553940Y-114791400D02*
X133411083Y-114862828D01*
X133411083Y-114862828D02*
X133125369Y-114862828D01*
X133125369Y-114862828D02*
X132982511Y-114791400D01*
X132982511Y-114791400D02*
X132911083Y-114648542D01*
X132911083Y-114648542D02*
X132911083Y-114077114D01*
X132911083Y-114077114D02*
X132982511Y-113934257D01*
X132982511Y-113934257D02*
X133125369Y-113862828D01*
X133125369Y-113862828D02*
X133411083Y-113862828D01*
X133411083Y-113862828D02*
X133553940Y-113934257D01*
X133553940Y-113934257D02*
X133625369Y-114077114D01*
X133625369Y-114077114D02*
X133625369Y-114219971D01*
X133625369Y-114219971D02*
X132911083Y-114362828D01*
X134053940Y-113862828D02*
X134625368Y-113862828D01*
X134268225Y-113362828D02*
X134268225Y-114648542D01*
X134268225Y-114648542D02*
X134339654Y-114791400D01*
X134339654Y-114791400D02*
X134482511Y-114862828D01*
X134482511Y-114862828D02*
X134625368Y-114862828D01*
D12*
%TO.P,J1,1,DAT2*%
%TO.N,unconnected-(J1-DAT2-Pad1)*%
X124557000Y-58606000D03*
%TO.P,J1,2,DAT3/CD*%
%TO.N,SD_CS*%
X125657000Y-58606000D03*
%TO.P,J1,3,CMD*%
%TO.N,SD_MOSI*%
X126757000Y-58606000D03*
%TO.P,J1,4,VDD*%
%TO.N,+3V*%
X127857000Y-58606000D03*
%TO.P,J1,5,CLK*%
%TO.N,SD_CLK*%
X128957000Y-58606000D03*
%TO.P,J1,6,VSS*%
%TO.N,GND*%
X130057000Y-58606000D03*
%TO.P,J1,7,DAT0*%
%TO.N,SD_MISO*%
X131157000Y-58606000D03*
%TO.P,J1,8,DAT1*%
%TO.N,unconnected-(J1-DAT1-Pad8)*%
X132257000Y-58606000D03*
D13*
%TO.P,J1,9,SHIELD*%
%TO.N,GND*%
X120887000Y-56006000D03*
X120887000Y-64306000D03*
X134637000Y-56006000D03*
X134637000Y-64306000D03*
%TD*%
D14*
%TO.P,Y1,1,1*%
%TO.N,OSCIN*%
X129450000Y-74930000D03*
%TO.P,Y1,2,2*%
%TO.N,OSCOUT*%
X124570000Y-74930000D03*
%TD*%
D15*
%TO.P,R3,1*%
%TO.N,RESET*%
X122111000Y-71374000D03*
%TO.P,R3,2*%
%TO.N,+3V*%
X123761000Y-71374000D03*
%TD*%
D16*
%TO.P,C6,1*%
%TO.N,+5V*%
X124902000Y-104902000D03*
%TO.P,C6,2*%
%TO.N,GND*%
X123002000Y-104902000D03*
%TD*%
%TO.P,C5,1*%
%TO.N,+3V*%
X122950000Y-93472000D03*
%TO.P,C5,2*%
%TO.N,GND*%
X121050000Y-93472000D03*
%TD*%
D17*
%TO.P,C4,1*%
%TO.N,+3V*%
X131064000Y-80023000D03*
%TO.P,C4,2*%
%TO.N,GND*%
X131064000Y-78473000D03*
%TD*%
D18*
%TO.P,C3,2*%
%TO.N,GND*%
X122161000Y-69596000D03*
%TO.P,C3,1*%
%TO.N,+3V*%
X123711000Y-69596000D03*
%TD*%
D19*
%TO.P,C2,1*%
%TO.N,OSCOUT*%
X125209000Y-71374000D03*
%TO.P,C2,2*%
%TO.N,GND*%
X126759000Y-71374000D03*
%TD*%
%TO.P,C1,1*%
%TO.N,OSCIN*%
X128765000Y-71374000D03*
%TO.P,C1,2*%
%TO.N,GND*%
X130315000Y-71374000D03*
%TD*%
D15*
%TO.P,R1,2*%
%TO.N,Net-(U1-PC13)*%
X130365000Y-69596000D03*
%TO.P,R1,1*%
%TO.N,Net-(D1-K)*%
X128715000Y-69596000D03*
%TD*%
D20*
%TO.P,D1,2,A*%
%TO.N,+3V*%
X125300500Y-69596000D03*
%TO.P,D1,1,K*%
%TO.N,Net-(D1-K)*%
X127175500Y-69596000D03*
%TD*%
D21*
%TO.P,U2,3,VI*%
%TO.N,+5V*%
X126300000Y-102150000D03*
D22*
%TO.P,U2,2,VO*%
%TO.N,+3V*%
X124000000Y-95850000D03*
D21*
X124000000Y-102150000D03*
%TO.P,U2,1,GND*%
%TO.N,GND*%
X121700000Y-102150000D03*
%TD*%
D23*
%TO.P,U1,48,VDD*%
%TO.N,+3V*%
X130662500Y-81250000D03*
%TO.P,U1,47,VSS*%
%TO.N,GND*%
X130662500Y-81750000D03*
%TO.P,U1,46,PB9*%
%TO.N,SCSI_D1*%
X130662500Y-82250000D03*
%TO.P,U1,45,PB8*%
%TO.N,SCSI_D0*%
X130662500Y-82750000D03*
%TO.P,U1,44,BOOT0*%
%TO.N,GND*%
X130662500Y-83250000D03*
%TO.P,U1,43,PB7*%
%TO.N,SCSI_IO*%
X130662500Y-83750000D03*
%TO.P,U1,42,PB6*%
%TO.N,SCSI_REQ*%
X130662500Y-84250000D03*
%TO.P,U1,41,PB5*%
%TO.N,SCSI_CD*%
X130662500Y-84750000D03*
%TO.P,U1,40,PB4*%
%TO.N,SCSI_SEL*%
X130662500Y-85250000D03*
%TO.P,U1,39,PB3*%
%TO.N,SCSI_MSG*%
X130662500Y-85750000D03*
%TO.P,U1,38,PA15*%
%TO.N,unconnected-(U1-PA15-Pad38)*%
X130662500Y-86250000D03*
%TO.P,U1,37,PA14*%
%TO.N,SWCLK*%
X130662500Y-86750000D03*
D24*
%TO.P,U1,36,VDD*%
%TO.N,+3V*%
X129250000Y-88162500D03*
%TO.P,U1,35,VSS*%
%TO.N,GND*%
X128750000Y-88162500D03*
%TO.P,U1,34,PA13*%
%TO.N,SWDIO*%
X128250000Y-88162500D03*
%TO.P,U1,33,PA12*%
%TO.N,unconnected-(U1-PA12-Pad33)*%
X127750000Y-88162500D03*
%TO.P,U1,32,PA11*%
%TO.N,SCSI_RST*%
X127250000Y-88162500D03*
%TO.P,U1,31,PA10*%
%TO.N,SCSI_ACK*%
X126750000Y-88162500D03*
%TO.P,U1,30,PA9*%
%TO.N,SCSI_BSY*%
X126250000Y-88162500D03*
%TO.P,U1,29,PA8*%
%TO.N,SCSI_ATN*%
X125750000Y-88162500D03*
%TO.P,U1,28,PB15*%
%TO.N,SCSI_D7*%
X125250000Y-88162500D03*
%TO.P,U1,27,PB14*%
%TO.N,SCSI_D6*%
X124750000Y-88162500D03*
%TO.P,U1,26,PB13*%
%TO.N,SCSI_D5*%
X124250000Y-88162500D03*
%TO.P,U1,25,PB12*%
%TO.N,SCSI_D4*%
X123750000Y-88162500D03*
D23*
%TO.P,U1,24,VDD*%
%TO.N,+3V*%
X122337500Y-86750000D03*
%TO.P,U1,23,VSS*%
%TO.N,GND*%
X122337500Y-86250000D03*
%TO.P,U1,22,PB11*%
%TO.N,SCSI_D3*%
X122337500Y-85750000D03*
%TO.P,U1,21,PB10*%
%TO.N,SCSI_D2*%
X122337500Y-85250000D03*
%TO.P,U1,20,PB2*%
%TO.N,GND*%
X122337500Y-84750000D03*
%TO.P,U1,19,PB1*%
%TO.N,unconnected-(U1-PB1-Pad19)*%
X122337500Y-84250000D03*
%TO.P,U1,18,PB0*%
%TO.N,SCSI_DP*%
X122337500Y-83750000D03*
%TO.P,U1,17,PA7*%
%TO.N,SD_MOSI*%
X122337500Y-83250000D03*
%TO.P,U1,16,PA6*%
%TO.N,SD_MISO*%
X122337500Y-82750000D03*
%TO.P,U1,15,PA5*%
%TO.N,SD_CLK*%
X122337500Y-82250000D03*
%TO.P,U1,14,PA4*%
%TO.N,SD_CS*%
X122337500Y-81750000D03*
%TO.P,U1,13,PA3*%
%TO.N,unconnected-(U1-PA3-Pad13)*%
X122337500Y-81250000D03*
D24*
%TO.P,U1,12,PA2*%
%TO.N,unconnected-(U1-PA2-Pad12)*%
X123750000Y-79837500D03*
%TO.P,U1,11,PA1*%
%TO.N,unconnected-(U1-PA1-Pad11)*%
X124250000Y-79837500D03*
%TO.P,U1,10,PA0*%
%TO.N,unconnected-(U1-PA0-Pad10)*%
X124750000Y-79837500D03*
%TO.P,U1,9,VDDA*%
%TO.N,+3V*%
X125250000Y-79837500D03*
%TO.P,U1,8,VSSA*%
%TO.N,GND*%
X125750000Y-79837500D03*
%TO.P,U1,7,NRST*%
%TO.N,RESET*%
X126250000Y-79837500D03*
%TO.P,U1,6,PD1*%
%TO.N,OSCOUT*%
X126750000Y-79837500D03*
%TO.P,U1,5,PD0*%
%TO.N,OSCIN*%
X127250000Y-79837500D03*
%TO.P,U1,4,PC15*%
%TO.N,unconnected-(U1-PC15-Pad4)*%
X127750000Y-79837500D03*
%TO.P,U1,3,PC14*%
%TO.N,unconnected-(U1-PC14-Pad3)*%
X128250000Y-79837500D03*
%TO.P,U1,2,PC13*%
%TO.N,Net-(U1-PC13)*%
X128750000Y-79837500D03*
%TO.P,U1,1,VBAT*%
%TO.N,+3V*%
X129250000Y-79837500D03*
%TD*%
D25*
%TO.P,J2,1,Pin_1*%
%TO.N,GND*%
X140040000Y-115440000D03*
D26*
%TO.P,J2,2,Pin_2*%
%TO.N,SCSI_D0*%
X137500000Y-115440000D03*
%TO.P,J2,3,Pin_3*%
%TO.N,GND*%
X140040000Y-112900000D03*
%TO.P,J2,4,Pin_4*%
%TO.N,SCSI_D1*%
X137500000Y-112900000D03*
%TO.P,J2,5,Pin_5*%
%TO.N,GND*%
X140040000Y-110360000D03*
%TO.P,J2,6,Pin_6*%
%TO.N,SCSI_D2*%
X137500000Y-110360000D03*
%TO.P,J2,7,Pin_7*%
%TO.N,GND*%
X140040000Y-107820000D03*
%TO.P,J2,8,Pin_8*%
%TO.N,SCSI_D3*%
X137500000Y-107820000D03*
%TO.P,J2,9,Pin_9*%
%TO.N,GND*%
X140040000Y-105280000D03*
%TO.P,J2,10,Pin_10*%
%TO.N,SCSI_D4*%
X137500000Y-105280000D03*
%TO.P,J2,11,Pin_11*%
%TO.N,GND*%
X140040000Y-102740000D03*
%TO.P,J2,12,Pin_12*%
%TO.N,SCSI_D5*%
X137500000Y-102740000D03*
%TO.P,J2,13,Pin_13*%
%TO.N,GND*%
X140040000Y-100200000D03*
%TO.P,J2,14,Pin_14*%
%TO.N,SCSI_D6*%
X137500000Y-100200000D03*
%TO.P,J2,15,Pin_15*%
%TO.N,GND*%
X140040000Y-97660000D03*
%TO.P,J2,16,Pin_16*%
%TO.N,SCSI_D7*%
X137500000Y-97660000D03*
%TO.P,J2,17,Pin_17*%
%TO.N,GND*%
X140040000Y-95120000D03*
%TO.P,J2,18,Pin_18*%
%TO.N,SCSI_DP*%
X137500000Y-95120000D03*
%TO.P,J2,19,Pin_19*%
%TO.N,GND*%
X140040000Y-92580000D03*
%TO.P,J2,20,Pin_20*%
X137500000Y-92580000D03*
%TO.P,J2,21,Pin_21*%
X140040000Y-90040000D03*
%TO.P,J2,22,Pin_22*%
X137500000Y-90040000D03*
%TO.P,J2,23,Pin_23*%
X140040000Y-87500000D03*
%TO.P,J2,24,Pin_24*%
X137500000Y-87500000D03*
%TO.P,J2,25,Pin_25*%
%TO.N,unconnected-(J2-Pin_25-Pad25)*%
X140040000Y-84960000D03*
%TO.P,J2,26,Pin_26*%
%TO.N,+5V*%
X137500000Y-84960000D03*
%TO.P,J2,27,Pin_27*%
%TO.N,GND*%
X140040000Y-82420000D03*
%TO.P,J2,28,Pin_28*%
X137500000Y-82420000D03*
%TO.P,J2,29,Pin_29*%
X140040000Y-79880000D03*
%TO.P,J2,30,Pin_30*%
X137500000Y-79880000D03*
%TO.P,J2,31,Pin_31*%
X140040000Y-77340000D03*
%TO.P,J2,32,Pin_32*%
%TO.N,SCSI_ATN*%
X137500000Y-77340000D03*
%TO.P,J2,33,Pin_33*%
%TO.N,GND*%
X140040000Y-74800000D03*
%TO.P,J2,34,Pin_34*%
%TO.N,unconnected-(J2-Pin_34-Pad34)*%
X137500000Y-74800000D03*
%TO.P,J2,35,Pin_35*%
%TO.N,GND*%
X140040000Y-72260000D03*
%TO.P,J2,36,Pin_36*%
%TO.N,SCSI_BSY*%
X137500000Y-72260000D03*
%TO.P,J2,37,Pin_37*%
%TO.N,GND*%
X140040000Y-69720000D03*
%TO.P,J2,38,Pin_38*%
%TO.N,SCSI_ACK*%
X137500000Y-69720000D03*
%TO.P,J2,39,Pin_39*%
%TO.N,GND*%
X140040000Y-67180000D03*
%TO.P,J2,40,Pin_40*%
%TO.N,SCSI_RST*%
X137500000Y-67180000D03*
%TO.P,J2,41,Pin_41*%
%TO.N,GND*%
X140040000Y-64640000D03*
%TO.P,J2,42,Pin_42*%
%TO.N,SCSI_MSG*%
X137500000Y-64640000D03*
%TO.P,J2,43,Pin_43*%
%TO.N,GND*%
X140040000Y-62100000D03*
%TO.P,J2,44,Pin_44*%
%TO.N,SCSI_SEL*%
X137500000Y-62100000D03*
%TO.P,J2,45,Pin_45*%
%TO.N,GND*%
X140040000Y-59560000D03*
%TO.P,J2,46,Pin_46*%
%TO.N,SCSI_CD*%
X137500000Y-59560000D03*
%TO.P,J2,47,Pin_47*%
%TO.N,GND*%
X140040000Y-57020000D03*
%TO.P,J2,48,Pin_48*%
%TO.N,SCSI_REQ*%
X137500000Y-57020000D03*
%TO.P,J2,49,Pin_49*%
%TO.N,GND*%
X140040000Y-54480000D03*
%TO.P,J2,50,Pin_50*%
%TO.N,SCSI_IO*%
X137500000Y-54480000D03*
%TD*%
%TO.P,J4,3,Pin_3*%
%TO.N,SWDIO*%
X129540000Y-100218000D03*
%TO.P,J4,2,Pin_2*%
%TO.N,SWCLK*%
X129540000Y-97678000D03*
D25*
%TO.P,J4,1,Pin_1*%
%TO.N,RESET*%
X129540000Y-95138000D03*
%TD*%
D27*
%TO.N,GND*%
X130048000Y-61214000D03*
%TO.N,RESET*%
X122174000Y-72390000D03*
X122682000Y-75184000D03*
%TO.N,GND*%
X133350000Y-58674000D03*
X133858000Y-61722000D03*
X134366000Y-66040000D03*
X124460000Y-68072000D03*
X126238000Y-68580000D03*
X120396000Y-66040000D03*
%TO.N,SD_MISO*%
X131064000Y-60198000D03*
X124460000Y-60198000D03*
%TO.N,SD_CLK*%
X124962000Y-60820894D03*
X128862000Y-60798000D03*
%TO.N,SD_MOSI*%
X126662000Y-61398000D03*
X123698000Y-61468000D03*
%TO.N,GND*%
X129540000Y-93472000D03*
X135636000Y-70358000D03*
X135382000Y-109474000D03*
X133350000Y-110490000D03*
X135382000Y-104902000D03*
X132588000Y-103124000D03*
X120396000Y-89408000D03*
X125222000Y-97536000D03*
X133096000Y-106172000D03*
X135382000Y-112268000D03*
X127000000Y-71882000D03*
X127000000Y-75438000D03*
X131572000Y-77470000D03*
X126492000Y-84350000D03*
X123952000Y-84350000D03*
X128650000Y-86106000D03*
X132668775Y-86560974D03*
X131064000Y-88646000D03*
X132080000Y-95250000D03*
X127000000Y-95504000D03*
X133200000Y-96414794D03*
X131064000Y-104394000D03*
X123190000Y-106426000D03*
X136144000Y-116240000D03*
X123190000Y-112268000D03*
X134620000Y-53848000D03*
X120650000Y-54102000D03*
X131572000Y-69596000D03*
X131064000Y-73914000D03*
X125476000Y-76962000D03*
X128270000Y-77978000D03*
X123190000Y-76962000D03*
X130810000Y-72898000D03*
X123698000Y-73406000D03*
X122174000Y-68072000D03*
X120650000Y-83820000D03*
X121158000Y-91948000D03*
X122936000Y-103632000D03*
X122936000Y-97536000D03*
X127000000Y-100076000D03*
X125222000Y-93472000D03*
X126492000Y-83058000D03*
X123952000Y-81534000D03*
X132842000Y-100584000D03*
%TO.N,+3V*%
X121900000Y-80600001D03*
X121900000Y-78486000D03*
%TO.N,SWDIO*%
X131274574Y-93980161D03*
X130048000Y-89400000D03*
%TO.N,RESET*%
X127000000Y-81280000D03*
%TO.N,+3V*%
X121920000Y-87920000D03*
X121921571Y-90424000D03*
%TO.N,+5V*%
X127636000Y-103504000D03*
X132080000Y-102000000D03*
X135000000Y-99060000D03*
%TO.N,SWCLK*%
X132000000Y-87000000D03*
%TO.N,GND*%
X124000000Y-86000000D03*
X126492000Y-86614000D03*
X125529498Y-78498558D03*
X129000000Y-82000000D03*
%TO.N,SCSI_DP*%
X128616000Y-83744528D03*
X133000000Y-92311472D03*
%TO.N,SCSI_D0*%
X133600000Y-106934000D03*
X131900000Y-83000000D03*
%TO.N,SCSI_D1*%
X131900000Y-82000000D03*
X134397182Y-107438967D03*
%TD*%
D28*
%TO.N,+3V*%
X129250000Y-81214000D02*
X129286000Y-81250000D01*
X129250000Y-79837500D02*
X129250000Y-81214000D01*
X129286000Y-81250000D02*
X128901471Y-81250000D01*
X129500000Y-81250000D02*
X129286000Y-81250000D01*
%TO.N,SCSI_IO*%
X131998529Y-83750000D02*
X130662500Y-83750000D01*
X132500000Y-83248529D02*
X131998529Y-83750000D01*
X132500000Y-60540000D02*
X132500000Y-83248529D01*
%TO.N,RESET*%
X125222000Y-77724000D02*
X122682000Y-75184000D01*
X125730000Y-77724000D02*
X125222000Y-77724000D01*
X126250000Y-79837500D02*
X126250000Y-78244000D01*
X126250000Y-78244000D02*
X125730000Y-77724000D01*
X122174000Y-71437000D02*
X122111000Y-71374000D01*
X122174000Y-72390000D02*
X122174000Y-71437000D01*
%TO.N,SCSI_IO*%
X135890000Y-56090000D02*
X135890000Y-57150000D01*
X137500000Y-54480000D02*
X135890000Y-56090000D01*
X135890000Y-57150000D02*
X132500000Y-60540000D01*
%TO.N,SD_MISO*%
X121315686Y-82750000D02*
X122337500Y-82750000D01*
X120500000Y-67486628D02*
X120500000Y-81934314D01*
X120500000Y-81934314D02*
X121315686Y-82750000D01*
X124362000Y-63624628D02*
X120500000Y-67486628D01*
X124362000Y-60296000D02*
X124362000Y-63624628D01*
X124460000Y-60198000D02*
X124362000Y-60296000D01*
%TO.N,SD_MOSI*%
X121250000Y-83250000D02*
X122337500Y-83250000D01*
X123698000Y-63722942D02*
X120100000Y-67320942D01*
X123698000Y-61468000D02*
X123698000Y-63722942D01*
X120100000Y-67320942D02*
X120100000Y-82100000D01*
X120100000Y-82100000D02*
X121250000Y-83250000D01*
%TO.N,SD_CLK*%
X120900000Y-67652314D02*
X124968000Y-63584314D01*
X124968000Y-60826894D02*
X124962000Y-60820894D01*
X120900000Y-81648096D02*
X120900000Y-67652314D01*
X121501904Y-82250000D02*
X120900000Y-81648096D01*
X122337500Y-82250000D02*
X121501904Y-82250000D01*
X124968000Y-63584314D02*
X124968000Y-60826894D01*
D29*
%TO.N,+3V*%
X123711000Y-69596000D02*
X125300500Y-69596000D01*
X127762000Y-64262000D02*
X125300500Y-66723500D01*
X125300500Y-66723500D02*
X125300500Y-69596000D01*
X127762000Y-58674000D02*
X127762000Y-64262000D01*
D28*
%TO.N,SD_MOSI*%
X126662000Y-61398000D02*
X126662000Y-58674000D01*
%TO.N,SD_CLK*%
X128862000Y-60798000D02*
X128862000Y-58674000D01*
%TO.N,SD_MISO*%
X131064000Y-58676000D02*
X131062000Y-58674000D01*
X131064000Y-60198000D02*
X131064000Y-58676000D01*
%TO.N,SD_CLK*%
X128862000Y-58020000D02*
X128862000Y-58674000D01*
%TO.N,SD_MOSI*%
X126662000Y-58674000D02*
X126662000Y-58058000D01*
%TO.N,SD_CS*%
X125562000Y-63556000D02*
X125562000Y-58674000D01*
X121300000Y-67818000D02*
X125562000Y-63556000D01*
X121300000Y-68326000D02*
X121300000Y-67818000D01*
X121300000Y-81482410D02*
X121300000Y-68326000D01*
%TO.N,SCSI_REQ*%
X133000000Y-61520000D02*
X133000000Y-61976000D01*
X137500000Y-57020000D02*
X133000000Y-61520000D01*
X133000000Y-83328429D02*
X133000000Y-61976000D01*
X137290000Y-57020000D02*
X137500000Y-57020000D01*
X132078429Y-84250000D02*
X133000000Y-83328429D01*
X130662500Y-84250000D02*
X132078429Y-84250000D01*
%TO.N,SCSI_MSG*%
X132275486Y-85750000D02*
X130662500Y-85750000D01*
X134500000Y-83525486D02*
X132275486Y-85750000D01*
X134500000Y-67938000D02*
X134500000Y-83525486D01*
X137500000Y-64938000D02*
X134500000Y-67938000D01*
X137500000Y-64640000D02*
X137500000Y-64938000D01*
%TO.N,SCSI_CD*%
X132144114Y-84750000D02*
X130662500Y-84750000D01*
X133500000Y-83394114D02*
X132144114Y-84750000D01*
X133500000Y-63065685D02*
X133500000Y-83394114D01*
X137005685Y-59560000D02*
X133500000Y-63065685D01*
X137500000Y-59560000D02*
X137005685Y-59560000D01*
%TO.N,SCSI_SEL*%
X134000000Y-83459800D02*
X132209800Y-85250000D01*
X132209800Y-85250000D02*
X130662500Y-85250000D01*
X134000000Y-67574314D02*
X134000000Y-83459800D01*
X136000000Y-65574314D02*
X134000000Y-67574314D01*
X136000000Y-63600000D02*
X136000000Y-65574314D01*
X137500000Y-62100000D02*
X136000000Y-63600000D01*
%TO.N,Net-(U1-PC13)*%
X130365000Y-69596000D02*
X132000000Y-71231000D01*
X132000000Y-75540795D02*
X132000000Y-71882000D01*
X132000000Y-71231000D02*
X132000000Y-71882000D01*
%TO.N,Net-(D1-K)*%
X127175500Y-69596000D02*
X128715000Y-69596000D01*
%TO.N,OSCIN*%
X128765000Y-74245000D02*
X129450000Y-74930000D01*
X128765000Y-71374000D02*
X128765000Y-74245000D01*
%TO.N,OSCOUT*%
X125209000Y-74291000D02*
X124570000Y-74930000D01*
X125209000Y-71374000D02*
X125209000Y-74291000D01*
%TO.N,OSCIN*%
X129527000Y-74853000D02*
X129450000Y-74930000D01*
D29*
%TO.N,+3V*%
X123761000Y-69646000D02*
X123711000Y-69596000D01*
X123761000Y-71374000D02*
X123761000Y-69646000D01*
X123761000Y-72073000D02*
X123761000Y-71374000D01*
X121920000Y-73914000D02*
X123761000Y-72073000D01*
X121920000Y-78466000D02*
X121900000Y-78486000D01*
X121920000Y-73914000D02*
X121920000Y-78466000D01*
D28*
%TO.N,GND*%
X128750000Y-87392590D02*
X128750000Y-88162500D01*
X126492000Y-86614000D02*
X127971410Y-86614000D01*
X127971410Y-86614000D02*
X128750000Y-87392590D01*
X127000000Y-86106000D02*
X126492000Y-86614000D01*
X128650000Y-86106000D02*
X127000000Y-86106000D01*
X133200000Y-96414794D02*
X132080000Y-95294794D01*
X132080000Y-95294794D02*
X132080000Y-95250000D01*
%TO.N,SCSI_D0*%
X137500000Y-114894000D02*
X137500000Y-115440000D01*
X136144000Y-113538000D02*
X137500000Y-114894000D01*
X133797182Y-109762868D02*
X136144000Y-112109686D01*
X133797182Y-107131182D02*
X133797182Y-109762868D01*
X136144000Y-112109686D02*
X136144000Y-113538000D01*
X133600000Y-106934000D02*
X133797182Y-107131182D01*
D30*
%TO.N,+5V*%
X127636000Y-103504000D02*
X126300000Y-103504000D01*
X135000000Y-101000000D02*
X135000000Y-99060000D01*
X132080000Y-102000000D02*
X134000000Y-102000000D01*
X134000000Y-102000000D02*
X135000000Y-101000000D01*
D28*
%TO.N,SD_CS*%
X121567590Y-81750000D02*
X121300000Y-81482410D01*
X122337500Y-81750000D02*
X121567590Y-81750000D01*
%TO.N,OSCOUT*%
X126750000Y-77110000D02*
X124570000Y-74930000D01*
X126750000Y-79837500D02*
X126750000Y-77110000D01*
%TO.N,OSCIN*%
X127250000Y-77130000D02*
X127250000Y-79837500D01*
X129450000Y-74930000D02*
X127250000Y-77130000D01*
%TO.N,SCSI_D1*%
X134200000Y-108618529D02*
X134200000Y-109600000D01*
X134397182Y-108421347D02*
X134200000Y-108618529D01*
X134200000Y-109600000D02*
X136686827Y-112086827D01*
X134397182Y-107438967D02*
X134397182Y-108421347D01*
X136633000Y-112033000D02*
X137500000Y-112900000D01*
%TO.N,GND*%
X129892590Y-83250000D02*
X129000000Y-82357410D01*
X129000000Y-82357410D02*
X129000000Y-82000000D01*
X130662500Y-83250000D02*
X129892590Y-83250000D01*
X121567590Y-84750000D02*
X120650000Y-83832410D01*
X120650000Y-83832410D02*
X120650000Y-83820000D01*
X122337500Y-84750000D02*
X121567590Y-84750000D01*
X123552000Y-84750000D02*
X123952000Y-84350000D01*
X122337500Y-84750000D02*
X123552000Y-84750000D01*
D29*
%TO.N,+3V*%
X121900000Y-80600001D02*
X121920000Y-80580001D01*
X121920000Y-80580001D02*
X121920000Y-80073000D01*
D30*
X122337500Y-87502500D02*
X122337500Y-87100000D01*
X121920000Y-87920000D02*
X122337500Y-87502500D01*
D28*
%TO.N,SCSI_D4*%
X123750000Y-89762744D02*
X123750000Y-88162500D01*
X126787256Y-92800000D02*
X123750000Y-89762744D01*
X130942942Y-92800000D02*
X126787256Y-92800000D01*
X135480000Y-97337058D02*
X130942942Y-92800000D01*
X135950000Y-98867718D02*
X135480000Y-98397718D01*
X135480000Y-98397718D02*
X135480000Y-97337058D01*
X137500000Y-104480000D02*
X135950000Y-102930000D01*
X135950000Y-102930000D02*
X135950000Y-98867718D01*
X137500000Y-105280000D02*
X137500000Y-104480000D01*
%TO.N,GND*%
X132668775Y-87179754D02*
X132668775Y-86560974D01*
X131202529Y-88646000D02*
X132668775Y-87179754D01*
X131064000Y-88646000D02*
X131202529Y-88646000D01*
%TO.N,Net-(U1-PC13)*%
X128750000Y-78790795D02*
X132000000Y-75540795D01*
X128750000Y-79837500D02*
X128750000Y-78790795D01*
%TO.N,SCSI_DP*%
X128616000Y-83744528D02*
X128610528Y-83750000D01*
X128610528Y-83750000D02*
X122337500Y-83750000D01*
%TO.N,SCSI_D3*%
X136385686Y-107820000D02*
X137500000Y-107820000D01*
X131568686Y-103003000D02*
X136385686Y-107820000D01*
X129927000Y-103003000D02*
X131568686Y-103003000D01*
X128270000Y-94848430D02*
X128270000Y-101346000D01*
X122221570Y-88800000D02*
X128270000Y-94848430D01*
X121668630Y-88800000D02*
X122221570Y-88800000D01*
X121000000Y-88131370D02*
X121668630Y-88800000D01*
X121000000Y-86317590D02*
X121000000Y-88131370D01*
X128270000Y-101346000D02*
X129927000Y-103003000D01*
X121567590Y-85750000D02*
X121000000Y-86317590D01*
X122337500Y-85750000D02*
X121567590Y-85750000D01*
%TO.N,+3V*%
X129286000Y-84714000D02*
X129000000Y-85000000D01*
X129286000Y-83566000D02*
X129286000Y-84714000D01*
X128000000Y-82280000D02*
X129286000Y-83566000D01*
X128000000Y-82151471D02*
X128000000Y-82280000D01*
%TO.N,SCSI_D2*%
X120600000Y-86151904D02*
X121501904Y-85250000D01*
X120600000Y-88297056D02*
X120600000Y-86151904D01*
X121501904Y-85250000D02*
X122337500Y-85250000D01*
X127870000Y-95014116D02*
X122055884Y-89200000D01*
X129761314Y-103403000D02*
X127870000Y-101511686D01*
X121502944Y-89200000D02*
X120600000Y-88297056D01*
X131403000Y-103403000D02*
X129761314Y-103403000D01*
X127870000Y-101511686D02*
X127870000Y-95014116D01*
X122055884Y-89200000D02*
X121502944Y-89200000D01*
X135820000Y-107820000D02*
X131403000Y-103403000D01*
X135820000Y-108680000D02*
X135820000Y-107820000D01*
X137500000Y-110360000D02*
X135820000Y-108680000D01*
D30*
%TO.N,+3V*%
X124000000Y-93472000D02*
X124000000Y-95850000D01*
X124000000Y-92275486D02*
X124000000Y-93472000D01*
X124000000Y-93472000D02*
X122950000Y-93472000D01*
X122148514Y-90424000D02*
X124000000Y-92275486D01*
X121921571Y-90424000D02*
X122148514Y-90424000D01*
D28*
%TO.N,SWDIO*%
X131274574Y-98483426D02*
X129540000Y-100218000D01*
X131274574Y-93980161D02*
X131274574Y-98483426D01*
D30*
%TO.N,GND*%
X121700000Y-103600000D02*
X121700000Y-102150000D01*
X123002000Y-104902000D02*
X121700000Y-103600000D01*
%TO.N,+5V*%
X126300000Y-103504000D02*
X124902000Y-104902000D01*
X126300000Y-102150000D02*
X126300000Y-103504000D01*
D29*
%TO.N,+3V*%
X131064000Y-80748500D02*
X130662500Y-81150000D01*
X131064000Y-80023000D02*
X131064000Y-80748500D01*
D28*
%TO.N,GND*%
X125750000Y-78719060D02*
X125750000Y-79837500D01*
X125529498Y-78498558D02*
X125750000Y-78719060D01*
%TO.N,+3V*%
X123193000Y-78800000D02*
X121920000Y-80073000D01*
X124982410Y-78800000D02*
X123193000Y-78800000D01*
X125250000Y-79067590D02*
X124982410Y-78800000D01*
X125250000Y-79837500D02*
X125250000Y-79067590D01*
%TO.N,SWDIO*%
X128250000Y-88932410D02*
X128250000Y-88162500D01*
X128717590Y-89400000D02*
X128250000Y-88932410D01*
X130048000Y-89400000D02*
X128717590Y-89400000D01*
%TO.N,RESET*%
X126250000Y-80607410D02*
X126922590Y-81280000D01*
X126922590Y-81280000D02*
X127000000Y-81280000D01*
X126250000Y-79837500D02*
X126250000Y-80607410D01*
%TO.N,+3V*%
X125250000Y-80607410D02*
X125250000Y-79837500D01*
X126794061Y-82151471D02*
X125250000Y-80607410D01*
X128000000Y-82151471D02*
X126794061Y-82151471D01*
X128901471Y-81250000D02*
X128000000Y-82151471D01*
%TO.N,SCSI_D5*%
X126952942Y-92400000D02*
X124250000Y-89697058D01*
X135880000Y-97171372D02*
X131108628Y-92400000D01*
X135880000Y-98232032D02*
X135880000Y-97171372D01*
X136350000Y-98702032D02*
X135880000Y-98232032D01*
X131108628Y-92400000D02*
X126952942Y-92400000D01*
X124250000Y-89697058D02*
X124250000Y-88162500D01*
X136350000Y-101590000D02*
X136350000Y-98702032D01*
X137500000Y-102740000D02*
X136350000Y-101590000D01*
%TO.N,SCSI_D6*%
X124750000Y-89631372D02*
X124750000Y-88162500D01*
X127118628Y-92000000D02*
X124750000Y-89631372D01*
X136280000Y-97005686D02*
X131274314Y-92000000D01*
X136280000Y-98066346D02*
X136280000Y-97005686D01*
X131274314Y-92000000D02*
X127118628Y-92000000D01*
X137500000Y-99286346D02*
X136280000Y-98066346D01*
X137500000Y-100200000D02*
X137500000Y-99286346D01*
%TO.N,SCSI_D7*%
X125250000Y-89512744D02*
X125250000Y-88162500D01*
X127337256Y-91600000D02*
X125250000Y-89512744D01*
X131440000Y-91600000D02*
X127337256Y-91600000D01*
X137500000Y-97660000D02*
X131440000Y-91600000D01*
%TO.N,SCSI_ATN*%
X125750000Y-89447058D02*
X125750000Y-88162500D01*
X132497058Y-91200000D02*
X127502942Y-91200000D01*
X136350000Y-87347058D02*
X132497058Y-91200000D01*
X136350000Y-78490000D02*
X136350000Y-87347058D01*
X137500000Y-77340000D02*
X136350000Y-78490000D01*
X127502942Y-91200000D02*
X125750000Y-89447058D01*
%TO.N,SCSI_BSY*%
X132331372Y-90800000D02*
X127668628Y-90800000D01*
X135950000Y-87181372D02*
X132331372Y-90800000D01*
X135950000Y-73810000D02*
X135950000Y-87181372D01*
X126250000Y-89381372D02*
X126250000Y-88162500D01*
X137500000Y-72260000D02*
X135950000Y-73810000D01*
X127668628Y-90800000D02*
X126250000Y-89381372D01*
%TO.N,SCSI_ACK*%
X126750000Y-89315686D02*
X126750000Y-88162500D01*
X127834314Y-90400000D02*
X126750000Y-89315686D01*
X135500000Y-87065686D02*
X132165686Y-90400000D01*
X132165686Y-90400000D02*
X127834314Y-90400000D01*
X135500000Y-71720000D02*
X135500000Y-87065686D01*
X137500000Y-69720000D02*
X135500000Y-71720000D01*
%TO.N,SCSI_RST*%
X127250000Y-89250000D02*
X127250000Y-88162500D01*
X128000000Y-90000000D02*
X127250000Y-89250000D01*
X132000000Y-90000000D02*
X128000000Y-90000000D01*
X135000000Y-87000000D02*
X132000000Y-90000000D01*
X135000000Y-69680000D02*
X135000000Y-87000000D01*
X137500000Y-67180000D02*
X135000000Y-69680000D01*
D30*
%TO.N,+3V*%
X124000000Y-102150000D02*
X124000000Y-95850000D01*
D28*
%TO.N,SWCLK*%
X130912500Y-87000000D02*
X130662500Y-86750000D01*
X132000000Y-87000000D02*
X130912500Y-87000000D01*
%TO.N,GND*%
X123750000Y-86250000D02*
X122337500Y-86250000D01*
X124000000Y-86000000D02*
X123750000Y-86250000D01*
%TO.N,+3V*%
X127000000Y-85000000D02*
X125250000Y-86750000D01*
X125250000Y-86750000D02*
X122337500Y-86750000D01*
X129000000Y-85000000D02*
X127000000Y-85000000D01*
%TO.N,GND*%
X129250000Y-81750000D02*
X129000000Y-82000000D01*
X130662500Y-81750000D02*
X129250000Y-81750000D01*
%TO.N,+3V*%
X129250000Y-85250000D02*
X129250000Y-88162500D01*
X129000000Y-85000000D02*
X129250000Y-85250000D01*
%TO.N,SCSI_DP*%
X133000000Y-92594314D02*
X133000000Y-92311472D01*
X135525686Y-95120000D02*
X133000000Y-92594314D01*
X137500000Y-95120000D02*
X135525686Y-95120000D01*
%TO.N,SCSI_D0*%
X131650000Y-82750000D02*
X131900000Y-83000000D01*
X130662500Y-82750000D02*
X131650000Y-82750000D01*
%TO.N,SCSI_D1*%
X131650000Y-82250000D02*
X130662500Y-82250000D01*
X131900000Y-82000000D02*
X131650000Y-82250000D01*
%TO.N,SCSI_IO*%
X132012744Y-83750000D02*
X130662500Y-83750000D01*
X132500000Y-83262744D02*
X132012744Y-83750000D01*
%TO.N,SCSI_D4*%
X123700000Y-88212500D02*
X123750000Y-88162500D01*
%TO.N,+3V*%
X129500000Y-81250000D02*
X130662500Y-81250000D01*
X122337500Y-86750000D02*
X123107410Y-86750000D01*
X122337500Y-86750000D02*
X123041724Y-86750000D01*
X123041724Y-86750000D02*
X123091724Y-86700000D01*
%TO.N,SCSI_D6*%
X124750000Y-88162500D02*
X124750000Y-88932410D01*
D30*
%TO.N,GND*%
X121700000Y-102150000D02*
X121050000Y-101500000D01*
X121050000Y-101500000D02*
X121050000Y-93000000D01*
%TD*%
%TA.AperFunction,Conductor*%
%TO.N,GND*%
G36*
X120139703Y-82706541D02*
G01*
X120146181Y-82712573D01*
X120925179Y-83491571D01*
X120925189Y-83491582D01*
X121004088Y-83570481D01*
X121034573Y-83588081D01*
X121065059Y-83605682D01*
X121065061Y-83605683D01*
X121095411Y-83623206D01*
X121095412Y-83623206D01*
X121095413Y-83623207D01*
X121197273Y-83650501D01*
X121197275Y-83650501D01*
X121205123Y-83652604D01*
X121204378Y-83655382D01*
X121255570Y-83678021D01*
X121294048Y-83736341D01*
X121299500Y-83772704D01*
X121299500Y-83860636D01*
X121304925Y-83897871D01*
X121310134Y-83933625D01*
X121315960Y-83945542D01*
X121327717Y-84014416D01*
X121315960Y-84054456D01*
X121310134Y-84066375D01*
X121299500Y-84139364D01*
X121299500Y-84360636D01*
X121310134Y-84433625D01*
X121310134Y-84433626D01*
X121310135Y-84433628D01*
X121365172Y-84546210D01*
X121371145Y-84554575D01*
X121369825Y-84555517D01*
X121370277Y-84556344D01*
X121372324Y-84554665D01*
X121422842Y-84616221D01*
X121434639Y-84619685D01*
X121450627Y-84632568D01*
X121457303Y-84637335D01*
X121460963Y-84642001D01*
X121461054Y-84642092D01*
X121461043Y-84642102D01*
X121500426Y-84692309D01*
X121506982Y-84761871D01*
X121474890Y-84823934D01*
X121417346Y-84858028D01*
X121347316Y-84876793D01*
X121347314Y-84876793D01*
X121347314Y-84876794D01*
X121255991Y-84929520D01*
X121255988Y-84929522D01*
X120279522Y-85905988D01*
X120279520Y-85905991D01*
X120226793Y-85997314D01*
X120199500Y-86099177D01*
X120199500Y-88349782D01*
X120226793Y-88451645D01*
X120250126Y-88492057D01*
X120279520Y-88542969D01*
X120279521Y-88542970D01*
X120279522Y-88542971D01*
X121178123Y-89441571D01*
X121178133Y-89441582D01*
X121257032Y-89520481D01*
X121268343Y-89527011D01*
X121334958Y-89565471D01*
X121334959Y-89565472D01*
X121348353Y-89573205D01*
X121348357Y-89573207D01*
X121373550Y-89579957D01*
X121433210Y-89616321D01*
X121463740Y-89679168D01*
X121455446Y-89748543D01*
X121415160Y-89797335D01*
X121415990Y-89798347D01*
X121411278Y-89802213D01*
X121299784Y-89913707D01*
X121299781Y-89913711D01*
X121212180Y-90044814D01*
X121212173Y-90044827D01*
X121151835Y-90190498D01*
X121151832Y-90190510D01*
X121121071Y-90345153D01*
X121121071Y-90502846D01*
X121151832Y-90657489D01*
X121151835Y-90657501D01*
X121212173Y-90803172D01*
X121212180Y-90803185D01*
X121299781Y-90934288D01*
X121299784Y-90934292D01*
X121411278Y-91045786D01*
X121411282Y-91045789D01*
X121542385Y-91133390D01*
X121542398Y-91133397D01*
X121651653Y-91178651D01*
X121688074Y-91193737D01*
X121773641Y-91210757D01*
X121835548Y-91243140D01*
X121837128Y-91244692D01*
X122827255Y-92234819D01*
X122860740Y-92296142D01*
X122855756Y-92365834D01*
X122813884Y-92421767D01*
X122748420Y-92446184D01*
X122739574Y-92446500D01*
X122656898Y-92446500D01*
X122617853Y-92451188D01*
X122568438Y-92457122D01*
X122427656Y-92512639D01*
X122307077Y-92604077D01*
X122215639Y-92724656D01*
X122160122Y-92865438D01*
X122154484Y-92912393D01*
X122149500Y-92953898D01*
X122149500Y-93990102D01*
X122152524Y-94015283D01*
X122160122Y-94078561D01*
X122160122Y-94078563D01*
X122160123Y-94078564D01*
X122174584Y-94115235D01*
X122215639Y-94219343D01*
X122307077Y-94339922D01*
X122361690Y-94381336D01*
X122403214Y-94437528D01*
X122407765Y-94507250D01*
X122373900Y-94568364D01*
X122327721Y-94597181D01*
X122250479Y-94624209D01*
X122097737Y-94720184D01*
X121970184Y-94847737D01*
X121874211Y-95000476D01*
X121814631Y-95170745D01*
X121814630Y-95170750D01*
X121799500Y-95305039D01*
X121799500Y-96394960D01*
X121814630Y-96529249D01*
X121814631Y-96529254D01*
X121874211Y-96699523D01*
X121915068Y-96764546D01*
X121970184Y-96852262D01*
X122097738Y-96979816D01*
X122188080Y-97036582D01*
X122240860Y-97069746D01*
X122250478Y-97075789D01*
X122388554Y-97124104D01*
X122420745Y-97135368D01*
X122420750Y-97135369D01*
X122511246Y-97145565D01*
X122555040Y-97150499D01*
X122555043Y-97150500D01*
X122555046Y-97150500D01*
X123075500Y-97150500D01*
X123142539Y-97170185D01*
X123188294Y-97222989D01*
X123199500Y-97274500D01*
X123199500Y-100943837D01*
X123179815Y-101010876D01*
X123163181Y-101031518D01*
X123089351Y-101105347D01*
X123089348Y-101105351D01*
X123004488Y-101245727D01*
X123004485Y-101245736D01*
X122955687Y-101402335D01*
X122955685Y-101402343D01*
X122949500Y-101470406D01*
X122949500Y-102829594D01*
X122955685Y-102897657D01*
X122955686Y-102897662D01*
X122955687Y-102897664D01*
X123004485Y-103054263D01*
X123004488Y-103054272D01*
X123089348Y-103194648D01*
X123089351Y-103194652D01*
X123205347Y-103310648D01*
X123205351Y-103310651D01*
X123345727Y-103395511D01*
X123345730Y-103395512D01*
X123502343Y-103444315D01*
X123570406Y-103450500D01*
X123570409Y-103450500D01*
X124429591Y-103450500D01*
X124429594Y-103450500D01*
X124497657Y-103444315D01*
X124654270Y-103395512D01*
X124729557Y-103350000D01*
X124794648Y-103310651D01*
X124794647Y-103310651D01*
X124794653Y-103310648D01*
X124910648Y-103194653D01*
X124995512Y-103054270D01*
X125014383Y-102993711D01*
X125031615Y-102938413D01*
X125070352Y-102880265D01*
X125134377Y-102852291D01*
X125203363Y-102863373D01*
X125255406Y-102909991D01*
X125268385Y-102938413D01*
X125304485Y-103054264D01*
X125304488Y-103054271D01*
X125372217Y-103166309D01*
X125390053Y-103233863D01*
X125368535Y-103300337D01*
X125353781Y-103318139D01*
X124831741Y-103840181D01*
X124770418Y-103873666D01*
X124744060Y-103876500D01*
X124608898Y-103876500D01*
X124569853Y-103881188D01*
X124520438Y-103887122D01*
X124379656Y-103942639D01*
X124259077Y-104034077D01*
X124167639Y-104154656D01*
X124112122Y-104295438D01*
X124106673Y-104340819D01*
X124101500Y-104383898D01*
X124101500Y-105420102D01*
X124106483Y-105461600D01*
X124112122Y-105508561D01*
X124167639Y-105649343D01*
X124259077Y-105769922D01*
X124379656Y-105861360D01*
X124379657Y-105861360D01*
X124379658Y-105861361D01*
X124520436Y-105916877D01*
X124608898Y-105927500D01*
X124608903Y-105927500D01*
X125195097Y-105927500D01*
X125195102Y-105927500D01*
X125283564Y-105916877D01*
X125424342Y-105861361D01*
X125544922Y-105769922D01*
X125636361Y-105649342D01*
X125691877Y-105508564D01*
X125702500Y-105420102D01*
X125702500Y-105284940D01*
X125722185Y-105217901D01*
X125738819Y-105197259D01*
X126595259Y-104340819D01*
X126656582Y-104307334D01*
X126682940Y-104304500D01*
X127714844Y-104304500D01*
X127714845Y-104304499D01*
X127869497Y-104273737D01*
X127982166Y-104227067D01*
X128015172Y-104213397D01*
X128015172Y-104213396D01*
X128015179Y-104213394D01*
X128146289Y-104125789D01*
X128257789Y-104014289D01*
X128345394Y-103883179D01*
X128405737Y-103737497D01*
X128436500Y-103582842D01*
X128436500Y-103425158D01*
X128436500Y-103425155D01*
X128436499Y-103425153D01*
X128421203Y-103348255D01*
X128405737Y-103270503D01*
X128405735Y-103270498D01*
X128345397Y-103124827D01*
X128345390Y-103124814D01*
X128257789Y-102993711D01*
X128257786Y-102993707D01*
X128146292Y-102882213D01*
X128146288Y-102882210D01*
X128015185Y-102794609D01*
X128015172Y-102794602D01*
X127869501Y-102734264D01*
X127869489Y-102734261D01*
X127714845Y-102703500D01*
X127714842Y-102703500D01*
X127474500Y-102703500D01*
X127407461Y-102683815D01*
X127361706Y-102631011D01*
X127350500Y-102579500D01*
X127350500Y-101857941D01*
X127370185Y-101790902D01*
X127422989Y-101745147D01*
X127492147Y-101735203D01*
X127555703Y-101764228D01*
X127562181Y-101770260D01*
X129515401Y-103723480D01*
X129581097Y-103761410D01*
X129603419Y-103774298D01*
X129606726Y-103776207D01*
X129708587Y-103803500D01*
X131185745Y-103803500D01*
X131252784Y-103823185D01*
X131273426Y-103839819D01*
X133565287Y-106131680D01*
X133598772Y-106193003D01*
X133593788Y-106262695D01*
X133551916Y-106318628D01*
X133493793Y-106342300D01*
X133443238Y-106348956D01*
X133443237Y-106348956D01*
X133297160Y-106409463D01*
X133171718Y-106505718D01*
X133075463Y-106631160D01*
X133014956Y-106777237D01*
X133014955Y-106777239D01*
X132994318Y-106933998D01*
X132994318Y-106934001D01*
X133014955Y-107090760D01*
X133014956Y-107090762D01*
X133075464Y-107236841D01*
X133171718Y-107362282D01*
X133297159Y-107458536D01*
X133320133Y-107468052D01*
X133374536Y-107511890D01*
X133396603Y-107578184D01*
X133396682Y-107582613D01*
X133396682Y-109710141D01*
X133396682Y-109815595D01*
X133408410Y-109859364D01*
X133423975Y-109917457D01*
X133436883Y-109939813D01*
X133476702Y-110008781D01*
X133476704Y-110008783D01*
X135707181Y-112239260D01*
X135740666Y-112300583D01*
X135743500Y-112326941D01*
X135743500Y-113590726D01*
X135770793Y-113692589D01*
X135797156Y-113738250D01*
X135823520Y-113783913D01*
X136239515Y-114199908D01*
X136593524Y-114553916D01*
X136627009Y-114615239D01*
X136622025Y-114684930D01*
X136604797Y-114716324D01*
X136517632Y-114831746D01*
X136422596Y-115022605D01*
X136422596Y-115022607D01*
X136364244Y-115227689D01*
X136350671Y-115374174D01*
X136344571Y-115440000D01*
X136364244Y-115652310D01*
X136417675Y-115840099D01*
X136422596Y-115857392D01*
X136422596Y-115857394D01*
X136517632Y-116048253D01*
X136646127Y-116218406D01*
X136761807Y-116323863D01*
X136798088Y-116383575D01*
X136796327Y-116453422D01*
X136757083Y-116511230D01*
X136692816Y-116538644D01*
X136678268Y-116539500D01*
X120058500Y-116539500D01*
X119991461Y-116519815D01*
X119945706Y-116467011D01*
X119934500Y-116415500D01*
X119934500Y-115820053D01*
X122525849Y-115820053D01*
X135080868Y-115820053D01*
X135080868Y-112904803D01*
X122525849Y-112904803D01*
X122525849Y-115820053D01*
X119934500Y-115820053D01*
X119934500Y-105431196D01*
X122302001Y-105431196D01*
X122304851Y-105461606D01*
X122349653Y-105589645D01*
X122430207Y-105698792D01*
X122539354Y-105779346D01*
X122667397Y-105824149D01*
X122697779Y-105826998D01*
X122697807Y-105826999D01*
X123252000Y-105826999D01*
X123306196Y-105826999D01*
X123336606Y-105824148D01*
X123464645Y-105779346D01*
X123573792Y-105698792D01*
X123654346Y-105589645D01*
X123699149Y-105461604D01*
X123699149Y-105461600D01*
X123702000Y-105431206D01*
X123702000Y-105152000D01*
X123252000Y-105152000D01*
X123252000Y-105826999D01*
X122697807Y-105826999D01*
X122751999Y-105826998D01*
X122752000Y-105826998D01*
X122752000Y-105152000D01*
X122302001Y-105152000D01*
X122302001Y-105431196D01*
X119934500Y-105431196D01*
X119934500Y-104372793D01*
X122302000Y-104372793D01*
X122302000Y-104652000D01*
X122752000Y-104652000D01*
X123252000Y-104652000D01*
X123701999Y-104652000D01*
X123701999Y-104372803D01*
X123699148Y-104342393D01*
X123654346Y-104214354D01*
X123573792Y-104105207D01*
X123464645Y-104024653D01*
X123336602Y-103979850D01*
X123306207Y-103977000D01*
X123252000Y-103977000D01*
X123252000Y-104652000D01*
X122752000Y-104652000D01*
X122752000Y-103977000D01*
X122751999Y-103976999D01*
X122697804Y-103977000D01*
X122667393Y-103979851D01*
X122539354Y-104024653D01*
X122430207Y-104105207D01*
X122349653Y-104214354D01*
X122304850Y-104342395D01*
X122304850Y-104342399D01*
X122302000Y-104372793D01*
X119934500Y-104372793D01*
X119934500Y-102812697D01*
X120750000Y-102812697D01*
X120764800Y-102925104D01*
X120764801Y-102925108D01*
X120822736Y-103064978D01*
X120914905Y-103185094D01*
X121035021Y-103277263D01*
X121174891Y-103335198D01*
X121174895Y-103335199D01*
X121287302Y-103349999D01*
X121287317Y-103350000D01*
X121450000Y-103350000D01*
X121950000Y-103350000D01*
X122112683Y-103350000D01*
X122112697Y-103349999D01*
X122225104Y-103335199D01*
X122225108Y-103335198D01*
X122364978Y-103277263D01*
X122485094Y-103185094D01*
X122577263Y-103064978D01*
X122635198Y-102925108D01*
X122635199Y-102925104D01*
X122649999Y-102812697D01*
X122650000Y-102812683D01*
X122650000Y-102400000D01*
X121950000Y-102400000D01*
X121950000Y-103350000D01*
X121450000Y-103350000D01*
X121450000Y-102400000D01*
X120750000Y-102400000D01*
X120750000Y-102812697D01*
X119934500Y-102812697D01*
X119934500Y-101487302D01*
X120750000Y-101487302D01*
X120750000Y-101900000D01*
X121450000Y-101900000D01*
X121950000Y-101900000D01*
X122650000Y-101900000D01*
X122650000Y-101487316D01*
X122649999Y-101487302D01*
X122635199Y-101374895D01*
X122635198Y-101374891D01*
X122577263Y-101235021D01*
X122485094Y-101114905D01*
X122364978Y-101022736D01*
X122225108Y-100964801D01*
X122225104Y-100964800D01*
X122112697Y-100950000D01*
X121950000Y-100950000D01*
X121950000Y-101900000D01*
X121450000Y-101900000D01*
X121450000Y-100950000D01*
X121287302Y-100950000D01*
X121174895Y-100964800D01*
X121174891Y-100964801D01*
X121035021Y-101022736D01*
X120914905Y-101114905D01*
X120822736Y-101235021D01*
X120764801Y-101374891D01*
X120764800Y-101374895D01*
X120750000Y-101487302D01*
X119934500Y-101487302D01*
X119934500Y-94001196D01*
X120350001Y-94001196D01*
X120352851Y-94031606D01*
X120397653Y-94159645D01*
X120478207Y-94268792D01*
X120587354Y-94349346D01*
X120715397Y-94394149D01*
X120745779Y-94396998D01*
X120745807Y-94396999D01*
X121300000Y-94396999D01*
X121354196Y-94396999D01*
X121384606Y-94394148D01*
X121512645Y-94349346D01*
X121621792Y-94268792D01*
X121702346Y-94159645D01*
X121747149Y-94031604D01*
X121747149Y-94031600D01*
X121750000Y-94001206D01*
X121750000Y-93722000D01*
X121300000Y-93722000D01*
X121300000Y-94396999D01*
X120745807Y-94396999D01*
X120799999Y-94396998D01*
X120800000Y-94396998D01*
X120800000Y-93722000D01*
X120350001Y-93722000D01*
X120350001Y-94001196D01*
X119934500Y-94001196D01*
X119934500Y-92942793D01*
X120350000Y-92942793D01*
X120350000Y-93222000D01*
X120800000Y-93222000D01*
X121300000Y-93222000D01*
X121749999Y-93222000D01*
X121749999Y-92942803D01*
X121747148Y-92912393D01*
X121702346Y-92784354D01*
X121621792Y-92675207D01*
X121512645Y-92594653D01*
X121384602Y-92549850D01*
X121354207Y-92547000D01*
X121300000Y-92547000D01*
X121300000Y-93222000D01*
X120800000Y-93222000D01*
X120800000Y-92547000D01*
X120799999Y-92546999D01*
X120745804Y-92547000D01*
X120715393Y-92549851D01*
X120587354Y-92594653D01*
X120478207Y-92675207D01*
X120397653Y-92784354D01*
X120352850Y-92912395D01*
X120352850Y-92912399D01*
X120350000Y-92942793D01*
X119934500Y-92942793D01*
X119934500Y-82800254D01*
X119954185Y-82733215D01*
X120006989Y-82687460D01*
X120076147Y-82677516D01*
X120139703Y-82706541D01*
G37*
%TD.AperFunction*%
%TA.AperFunction,Conductor*%
G36*
X139437789Y-53406185D02*
G01*
X139483544Y-53458989D01*
X139493488Y-53528147D01*
X139464463Y-53591703D01*
X139449415Y-53606353D01*
X139293944Y-53733944D01*
X139162732Y-53893826D01*
X139162728Y-53893833D01*
X139065233Y-54076233D01*
X139018590Y-54230000D01*
X139606988Y-54230000D01*
X139574075Y-54287007D01*
X139540000Y-54414174D01*
X139540000Y-54545826D01*
X139574075Y-54672993D01*
X139606988Y-54730000D01*
X139018590Y-54730000D01*
X139065233Y-54883766D01*
X139162728Y-55066166D01*
X139162732Y-55066173D01*
X139293944Y-55226055D01*
X139453826Y-55357267D01*
X139453833Y-55357271D01*
X139636233Y-55454766D01*
X139790000Y-55501410D01*
X139790000Y-54913012D01*
X139847007Y-54945925D01*
X139974174Y-54980000D01*
X140105826Y-54980000D01*
X140232993Y-54945925D01*
X140290000Y-54913012D01*
X140290000Y-55501410D01*
X140443766Y-55454766D01*
X140626166Y-55357271D01*
X140626173Y-55357267D01*
X140786055Y-55226055D01*
X140917267Y-55066173D01*
X140917269Y-55066170D01*
X140944141Y-55015896D01*
X140993103Y-54966051D01*
X141061241Y-54950590D01*
X141126921Y-54974421D01*
X141169290Y-55029978D01*
X141177500Y-55074348D01*
X141177500Y-56425651D01*
X141157815Y-56492690D01*
X141105011Y-56538445D01*
X141035853Y-56548389D01*
X140972297Y-56519364D01*
X140944142Y-56484104D01*
X140917271Y-56433833D01*
X140917267Y-56433826D01*
X140786055Y-56273944D01*
X140626173Y-56142732D01*
X140626166Y-56142728D01*
X140443763Y-56045232D01*
X140290000Y-55998587D01*
X140290000Y-56586988D01*
X140232993Y-56554075D01*
X140105826Y-56520000D01*
X139974174Y-56520000D01*
X139847007Y-56554075D01*
X139790000Y-56586988D01*
X139790000Y-55998587D01*
X139636236Y-56045232D01*
X139453833Y-56142728D01*
X139453826Y-56142732D01*
X139293944Y-56273944D01*
X139162732Y-56433826D01*
X139162728Y-56433833D01*
X139065233Y-56616233D01*
X139018590Y-56770000D01*
X139606988Y-56770000D01*
X139574075Y-56827007D01*
X139540000Y-56954174D01*
X139540000Y-57085826D01*
X139574075Y-57212993D01*
X139606988Y-57270000D01*
X139018590Y-57270000D01*
X139065233Y-57423766D01*
X139162728Y-57606166D01*
X139162732Y-57606173D01*
X139293944Y-57766055D01*
X139453826Y-57897267D01*
X139453833Y-57897271D01*
X139636233Y-57994766D01*
X139790000Y-58041410D01*
X139790000Y-57453012D01*
X139847007Y-57485925D01*
X139974174Y-57520000D01*
X140105826Y-57520000D01*
X140232993Y-57485925D01*
X140290000Y-57453012D01*
X140290000Y-58041410D01*
X140443766Y-57994766D01*
X140626166Y-57897271D01*
X140626173Y-57897267D01*
X140786055Y-57766055D01*
X140917267Y-57606173D01*
X140917269Y-57606170D01*
X140944141Y-57555896D01*
X140993103Y-57506051D01*
X141061241Y-57490590D01*
X141126921Y-57514421D01*
X141169290Y-57569978D01*
X141177500Y-57614348D01*
X141177500Y-58965651D01*
X141157815Y-59032690D01*
X141105011Y-59078445D01*
X141035853Y-59088389D01*
X140972297Y-59059364D01*
X140944142Y-59024104D01*
X140917271Y-58973833D01*
X140917267Y-58973826D01*
X140786055Y-58813944D01*
X140626173Y-58682732D01*
X140626166Y-58682728D01*
X140443763Y-58585232D01*
X140290000Y-58538587D01*
X140290000Y-59126988D01*
X140232993Y-59094075D01*
X140105826Y-59060000D01*
X139974174Y-59060000D01*
X139847007Y-59094075D01*
X139790000Y-59126988D01*
X139790000Y-58538587D01*
X139636236Y-58585232D01*
X139453833Y-58682728D01*
X139453826Y-58682732D01*
X139293944Y-58813944D01*
X139162732Y-58973826D01*
X139162728Y-58973833D01*
X139065233Y-59156233D01*
X139018590Y-59310000D01*
X139606988Y-59310000D01*
X139574075Y-59367007D01*
X139540000Y-59494174D01*
X139540000Y-59625826D01*
X139574075Y-59752993D01*
X139606988Y-59810000D01*
X139018590Y-59810000D01*
X139065233Y-59963766D01*
X139162728Y-60146166D01*
X139162732Y-60146173D01*
X139293944Y-60306055D01*
X139453826Y-60437267D01*
X139453833Y-60437271D01*
X139636233Y-60534766D01*
X139790000Y-60581410D01*
X139790000Y-59993012D01*
X139847007Y-60025925D01*
X139974174Y-60060000D01*
X140105826Y-60060000D01*
X140232993Y-60025925D01*
X140290000Y-59993012D01*
X140290000Y-60581410D01*
X140443766Y-60534766D01*
X140626166Y-60437271D01*
X140626173Y-60437267D01*
X140786055Y-60306055D01*
X140917267Y-60146173D01*
X140917269Y-60146170D01*
X140944141Y-60095896D01*
X140993103Y-60046051D01*
X141061241Y-60030590D01*
X141126921Y-60054421D01*
X141169290Y-60109978D01*
X141177500Y-60154348D01*
X141177500Y-61505651D01*
X141157815Y-61572690D01*
X141105011Y-61618445D01*
X141035853Y-61628389D01*
X140972297Y-61599364D01*
X140944142Y-61564104D01*
X140917271Y-61513833D01*
X140917267Y-61513826D01*
X140786055Y-61353944D01*
X140626173Y-61222732D01*
X140626166Y-61222728D01*
X140443763Y-61125232D01*
X140290000Y-61078587D01*
X140290000Y-61666988D01*
X140232993Y-61634075D01*
X140105826Y-61600000D01*
X139974174Y-61600000D01*
X139847007Y-61634075D01*
X139790000Y-61666988D01*
X139790000Y-61078587D01*
X139636236Y-61125232D01*
X139453833Y-61222728D01*
X139453826Y-61222732D01*
X139293944Y-61353944D01*
X139162732Y-61513826D01*
X139162728Y-61513833D01*
X139065233Y-61696233D01*
X139018590Y-61850000D01*
X139606988Y-61850000D01*
X139574075Y-61907007D01*
X139540000Y-62034174D01*
X139540000Y-62165826D01*
X139574075Y-62292993D01*
X139606988Y-62350000D01*
X139018590Y-62350000D01*
X139065233Y-62503766D01*
X139162728Y-62686166D01*
X139162732Y-62686173D01*
X139293944Y-62846055D01*
X139453826Y-62977267D01*
X139453833Y-62977271D01*
X139636233Y-63074766D01*
X139790000Y-63121410D01*
X139790000Y-62533012D01*
X139847007Y-62565925D01*
X139974174Y-62600000D01*
X140105826Y-62600000D01*
X140232993Y-62565925D01*
X140290000Y-62533012D01*
X140290000Y-63121410D01*
X140443766Y-63074766D01*
X140626166Y-62977271D01*
X140626173Y-62977267D01*
X140786055Y-62846055D01*
X140917267Y-62686173D01*
X140917269Y-62686170D01*
X140944141Y-62635896D01*
X140993103Y-62586051D01*
X141061241Y-62570590D01*
X141126921Y-62594421D01*
X141169290Y-62649978D01*
X141177500Y-62694348D01*
X141177500Y-64045651D01*
X141157815Y-64112690D01*
X141105011Y-64158445D01*
X141035853Y-64168389D01*
X140972297Y-64139364D01*
X140944142Y-64104104D01*
X140917271Y-64053833D01*
X140917267Y-64053826D01*
X140786055Y-63893944D01*
X140626173Y-63762732D01*
X140626166Y-63762728D01*
X140443763Y-63665232D01*
X140290000Y-63618587D01*
X140290000Y-64206988D01*
X140232993Y-64174075D01*
X140105826Y-64140000D01*
X139974174Y-64140000D01*
X139847007Y-64174075D01*
X139790000Y-64206988D01*
X139790000Y-63618587D01*
X139636236Y-63665232D01*
X139453833Y-63762728D01*
X139453826Y-63762732D01*
X139293944Y-63893944D01*
X139162732Y-64053826D01*
X139162728Y-64053833D01*
X139065233Y-64236233D01*
X139018590Y-64390000D01*
X139606988Y-64390000D01*
X139574075Y-64447007D01*
X139540000Y-64574174D01*
X139540000Y-64705826D01*
X139574075Y-64832993D01*
X139606988Y-64890000D01*
X139018590Y-64890000D01*
X139065233Y-65043766D01*
X139162728Y-65226166D01*
X139162732Y-65226173D01*
X139293944Y-65386055D01*
X139453826Y-65517267D01*
X139453833Y-65517271D01*
X139636233Y-65614766D01*
X139790000Y-65661410D01*
X139790000Y-65073012D01*
X139847007Y-65105925D01*
X139974174Y-65140000D01*
X140105826Y-65140000D01*
X140232993Y-65105925D01*
X140290000Y-65073012D01*
X140290000Y-65661410D01*
X140443766Y-65614766D01*
X140626166Y-65517271D01*
X140626173Y-65517267D01*
X140786055Y-65386055D01*
X140917267Y-65226173D01*
X140917269Y-65226170D01*
X140944141Y-65175896D01*
X140993103Y-65126051D01*
X141061241Y-65110590D01*
X141126921Y-65134421D01*
X141169290Y-65189978D01*
X141177500Y-65234348D01*
X141177500Y-66585651D01*
X141157815Y-66652690D01*
X141105011Y-66698445D01*
X141035853Y-66708389D01*
X140972297Y-66679364D01*
X140944142Y-66644104D01*
X140917271Y-66593833D01*
X140917267Y-66593826D01*
X140786055Y-66433944D01*
X140626173Y-66302732D01*
X140626166Y-66302728D01*
X140443763Y-66205232D01*
X140290000Y-66158587D01*
X140290000Y-66746988D01*
X140232993Y-66714075D01*
X140105826Y-66680000D01*
X139974174Y-66680000D01*
X139847007Y-66714075D01*
X139790000Y-66746988D01*
X139790000Y-66158587D01*
X139636236Y-66205232D01*
X139453833Y-66302728D01*
X139453826Y-66302732D01*
X139293944Y-66433944D01*
X139162732Y-66593826D01*
X139162728Y-66593833D01*
X139065233Y-66776233D01*
X139018590Y-66930000D01*
X139606988Y-66930000D01*
X139574075Y-66987007D01*
X139540000Y-67114174D01*
X139540000Y-67245826D01*
X139574075Y-67372993D01*
X139606988Y-67430000D01*
X139018590Y-67430000D01*
X139065233Y-67583766D01*
X139162728Y-67766166D01*
X139162732Y-67766173D01*
X139293944Y-67926055D01*
X139453826Y-68057267D01*
X139453833Y-68057271D01*
X139636233Y-68154766D01*
X139790000Y-68201410D01*
X139790000Y-67613012D01*
X139847007Y-67645925D01*
X139974174Y-67680000D01*
X140105826Y-67680000D01*
X140232993Y-67645925D01*
X140290000Y-67613012D01*
X140290000Y-68201410D01*
X140443766Y-68154766D01*
X140626166Y-68057271D01*
X140626173Y-68057267D01*
X140786055Y-67926055D01*
X140917267Y-67766173D01*
X140917269Y-67766170D01*
X140944141Y-67715896D01*
X140993103Y-67666051D01*
X141061241Y-67650590D01*
X141126921Y-67674421D01*
X141169290Y-67729978D01*
X141177500Y-67774348D01*
X141177500Y-69125651D01*
X141157815Y-69192690D01*
X141105011Y-69238445D01*
X141035853Y-69248389D01*
X140972297Y-69219364D01*
X140944142Y-69184104D01*
X140917271Y-69133833D01*
X140917267Y-69133826D01*
X140786055Y-68973944D01*
X140626173Y-68842732D01*
X140626166Y-68842728D01*
X140443763Y-68745232D01*
X140290000Y-68698587D01*
X140290000Y-69286988D01*
X140232993Y-69254075D01*
X140105826Y-69220000D01*
X139974174Y-69220000D01*
X139847007Y-69254075D01*
X139790000Y-69286988D01*
X139790000Y-68698587D01*
X139636236Y-68745232D01*
X139453833Y-68842728D01*
X139453826Y-68842732D01*
X139293944Y-68973944D01*
X139162732Y-69133826D01*
X139162728Y-69133833D01*
X139065233Y-69316233D01*
X139018590Y-69470000D01*
X139606988Y-69470000D01*
X139574075Y-69527007D01*
X139540000Y-69654174D01*
X139540000Y-69785826D01*
X139574075Y-69912993D01*
X139606988Y-69970000D01*
X139018590Y-69970000D01*
X139065233Y-70123766D01*
X139162728Y-70306166D01*
X139162732Y-70306173D01*
X139293944Y-70466055D01*
X139453826Y-70597267D01*
X139453833Y-70597271D01*
X139636233Y-70694766D01*
X139790000Y-70741410D01*
X139790000Y-70153012D01*
X139847007Y-70185925D01*
X139974174Y-70220000D01*
X140105826Y-70220000D01*
X140232993Y-70185925D01*
X140290000Y-70153012D01*
X140290000Y-70741410D01*
X140443766Y-70694766D01*
X140626166Y-70597271D01*
X140626173Y-70597267D01*
X140786055Y-70466055D01*
X140917267Y-70306173D01*
X140917269Y-70306170D01*
X140944141Y-70255896D01*
X140993103Y-70206051D01*
X141061241Y-70190590D01*
X141126921Y-70214421D01*
X141169290Y-70269978D01*
X141177500Y-70314348D01*
X141177500Y-71665651D01*
X141157815Y-71732690D01*
X141105011Y-71778445D01*
X141035853Y-71788389D01*
X140972297Y-71759364D01*
X140944142Y-71724104D01*
X140917271Y-71673833D01*
X140917267Y-71673826D01*
X140786055Y-71513944D01*
X140626173Y-71382732D01*
X140626166Y-71382728D01*
X140443763Y-71285232D01*
X140290000Y-71238587D01*
X140290000Y-71826988D01*
X140232993Y-71794075D01*
X140105826Y-71760000D01*
X139974174Y-71760000D01*
X139847007Y-71794075D01*
X139790000Y-71826988D01*
X139790000Y-71238587D01*
X139636236Y-71285232D01*
X139453833Y-71382728D01*
X139453826Y-71382732D01*
X139293944Y-71513944D01*
X139162732Y-71673826D01*
X139162728Y-71673833D01*
X139065233Y-71856233D01*
X139018590Y-72010000D01*
X139606988Y-72010000D01*
X139574075Y-72067007D01*
X139540000Y-72194174D01*
X139540000Y-72325826D01*
X139574075Y-72452993D01*
X139606988Y-72510000D01*
X139018590Y-72510000D01*
X139065233Y-72663766D01*
X139162728Y-72846166D01*
X139162732Y-72846173D01*
X139293944Y-73006055D01*
X139453826Y-73137267D01*
X139453833Y-73137271D01*
X139636233Y-73234766D01*
X139790000Y-73281410D01*
X139790000Y-72693012D01*
X139847007Y-72725925D01*
X139974174Y-72760000D01*
X140105826Y-72760000D01*
X140232993Y-72725925D01*
X140290000Y-72693012D01*
X140290000Y-73281410D01*
X140443766Y-73234766D01*
X140626166Y-73137271D01*
X140626173Y-73137267D01*
X140786055Y-73006055D01*
X140917267Y-72846173D01*
X140917269Y-72846170D01*
X140944141Y-72795896D01*
X140993103Y-72746051D01*
X141061241Y-72730590D01*
X141126921Y-72754421D01*
X141169290Y-72809978D01*
X141177500Y-72854348D01*
X141177500Y-74205651D01*
X141157815Y-74272690D01*
X141105011Y-74318445D01*
X141035853Y-74328389D01*
X140972297Y-74299364D01*
X140944142Y-74264104D01*
X140917271Y-74213833D01*
X140917267Y-74213826D01*
X140786055Y-74053944D01*
X140626173Y-73922732D01*
X140626166Y-73922728D01*
X140443763Y-73825232D01*
X140290000Y-73778587D01*
X140290000Y-74366988D01*
X140232993Y-74334075D01*
X140105826Y-74300000D01*
X139974174Y-74300000D01*
X139847007Y-74334075D01*
X139790000Y-74366988D01*
X139790000Y-73778587D01*
X139636236Y-73825232D01*
X139453833Y-73922728D01*
X139453826Y-73922732D01*
X139293944Y-74053944D01*
X139162732Y-74213826D01*
X139162728Y-74213833D01*
X139065233Y-74396233D01*
X139018590Y-74550000D01*
X139606988Y-74550000D01*
X139574075Y-74607007D01*
X139540000Y-74734174D01*
X139540000Y-74865826D01*
X139574075Y-74992993D01*
X139606988Y-75050000D01*
X139018590Y-75050000D01*
X139065233Y-75203766D01*
X139162728Y-75386166D01*
X139162732Y-75386173D01*
X139293944Y-75546055D01*
X139453826Y-75677267D01*
X139453833Y-75677271D01*
X139636233Y-75774766D01*
X139790000Y-75821410D01*
X139790000Y-75233012D01*
X139847007Y-75265925D01*
X139974174Y-75300000D01*
X140105826Y-75300000D01*
X140232993Y-75265925D01*
X140290000Y-75233012D01*
X140290000Y-75821410D01*
X140443766Y-75774766D01*
X140626166Y-75677271D01*
X140626173Y-75677267D01*
X140786055Y-75546055D01*
X140917267Y-75386173D01*
X140917269Y-75386170D01*
X140944141Y-75335896D01*
X140993103Y-75286051D01*
X141061241Y-75270590D01*
X141126921Y-75294421D01*
X141169290Y-75349978D01*
X141177500Y-75394348D01*
X141177500Y-76745651D01*
X141157815Y-76812690D01*
X141105011Y-76858445D01*
X141035853Y-76868389D01*
X140972297Y-76839364D01*
X140944142Y-76804104D01*
X140917271Y-76753833D01*
X140917267Y-76753826D01*
X140786055Y-76593944D01*
X140626173Y-76462732D01*
X140626166Y-76462728D01*
X140443763Y-76365232D01*
X140290000Y-76318587D01*
X140290000Y-76906988D01*
X140232993Y-76874075D01*
X140105826Y-76840000D01*
X139974174Y-76840000D01*
X139847007Y-76874075D01*
X139790000Y-76906988D01*
X139790000Y-76318587D01*
X139636236Y-76365232D01*
X139453833Y-76462728D01*
X139453826Y-76462732D01*
X139293944Y-76593944D01*
X139162732Y-76753826D01*
X139162728Y-76753833D01*
X139065233Y-76936233D01*
X139018590Y-77090000D01*
X139606988Y-77090000D01*
X139574075Y-77147007D01*
X139540000Y-77274174D01*
X139540000Y-77405826D01*
X139574075Y-77532993D01*
X139606988Y-77590000D01*
X139018590Y-77590000D01*
X139065233Y-77743766D01*
X139162728Y-77926166D01*
X139162732Y-77926173D01*
X139293944Y-78086055D01*
X139453826Y-78217267D01*
X139453833Y-78217271D01*
X139636233Y-78314766D01*
X139790000Y-78361410D01*
X139790000Y-77773012D01*
X139847007Y-77805925D01*
X139974174Y-77840000D01*
X140105826Y-77840000D01*
X140232993Y-77805925D01*
X140290000Y-77773012D01*
X140290000Y-78361410D01*
X140443766Y-78314766D01*
X140626166Y-78217271D01*
X140626173Y-78217267D01*
X140786055Y-78086055D01*
X140917267Y-77926173D01*
X140917269Y-77926170D01*
X140944141Y-77875896D01*
X140993103Y-77826051D01*
X141061241Y-77810590D01*
X141126921Y-77834421D01*
X141169290Y-77889978D01*
X141177500Y-77934348D01*
X141177500Y-79285651D01*
X141157815Y-79352690D01*
X141105011Y-79398445D01*
X141035853Y-79408389D01*
X140972297Y-79379364D01*
X140944142Y-79344104D01*
X140917271Y-79293833D01*
X140917267Y-79293826D01*
X140786055Y-79133944D01*
X140626173Y-79002732D01*
X140626166Y-79002728D01*
X140443763Y-78905232D01*
X140290000Y-78858587D01*
X140290000Y-79446988D01*
X140232993Y-79414075D01*
X140105826Y-79380000D01*
X139974174Y-79380000D01*
X139847007Y-79414075D01*
X139790000Y-79446988D01*
X139790000Y-78858587D01*
X139636236Y-78905232D01*
X139453833Y-79002728D01*
X139453826Y-79002732D01*
X139293944Y-79133944D01*
X139162732Y-79293826D01*
X139162728Y-79293833D01*
X139065233Y-79476233D01*
X139018590Y-79630000D01*
X139606988Y-79630000D01*
X139574075Y-79687007D01*
X139540000Y-79814174D01*
X139540000Y-79945826D01*
X139574075Y-80072993D01*
X139606988Y-80130000D01*
X139018590Y-80130000D01*
X139065233Y-80283766D01*
X139162728Y-80466166D01*
X139162732Y-80466173D01*
X139293944Y-80626055D01*
X139453826Y-80757267D01*
X139453833Y-80757271D01*
X139636233Y-80854766D01*
X139790000Y-80901410D01*
X139790000Y-80313012D01*
X139847007Y-80345925D01*
X139974174Y-80380000D01*
X140105826Y-80380000D01*
X140232993Y-80345925D01*
X140290000Y-80313012D01*
X140290000Y-80901410D01*
X140443766Y-80854766D01*
X140626166Y-80757271D01*
X140626173Y-80757267D01*
X140786055Y-80626055D01*
X140917267Y-80466173D01*
X140917269Y-80466170D01*
X140944141Y-80415896D01*
X140993103Y-80366051D01*
X141061241Y-80350590D01*
X141126921Y-80374421D01*
X141169290Y-80429978D01*
X141177500Y-80474348D01*
X141177500Y-81825651D01*
X141157815Y-81892690D01*
X141105011Y-81938445D01*
X141035853Y-81948389D01*
X140972297Y-81919364D01*
X140944142Y-81884104D01*
X140917271Y-81833833D01*
X140917267Y-81833826D01*
X140786055Y-81673944D01*
X140626173Y-81542732D01*
X140626166Y-81542728D01*
X140443763Y-81445232D01*
X140290000Y-81398587D01*
X140290000Y-81986988D01*
X140232993Y-81954075D01*
X140105826Y-81920000D01*
X139974174Y-81920000D01*
X139847007Y-81954075D01*
X139790000Y-81986988D01*
X139790000Y-81398587D01*
X139636236Y-81445232D01*
X139453833Y-81542728D01*
X139453826Y-81542732D01*
X139293944Y-81673944D01*
X139162732Y-81833826D01*
X139162728Y-81833833D01*
X139065233Y-82016233D01*
X139018590Y-82170000D01*
X139606988Y-82170000D01*
X139574075Y-82227007D01*
X139540000Y-82354174D01*
X139540000Y-82485826D01*
X139574075Y-82612993D01*
X139606988Y-82670000D01*
X139018590Y-82670000D01*
X139065233Y-82823766D01*
X139162728Y-83006166D01*
X139162732Y-83006173D01*
X139293944Y-83166055D01*
X139453826Y-83297267D01*
X139453833Y-83297271D01*
X139636233Y-83394766D01*
X139790000Y-83441410D01*
X139790000Y-82853012D01*
X139847007Y-82885925D01*
X139974174Y-82920000D01*
X140105826Y-82920000D01*
X140232993Y-82885925D01*
X140290000Y-82853012D01*
X140290000Y-83441410D01*
X140443766Y-83394766D01*
X140626166Y-83297271D01*
X140626173Y-83297267D01*
X140786055Y-83166055D01*
X140917267Y-83006173D01*
X140917269Y-83006170D01*
X140948580Y-82947590D01*
X140997542Y-82897745D01*
X141065679Y-82882284D01*
X141131359Y-82906115D01*
X141173729Y-82961672D01*
X141177157Y-82971938D01*
X141188110Y-83010226D01*
X141188667Y-83012236D01*
X141198056Y-83047276D01*
X141198555Y-83048426D01*
X141199361Y-83050327D01*
X141199817Y-83051428D01*
X141199968Y-83051680D01*
X141199969Y-83051682D01*
X141208785Y-83066375D01*
X141218487Y-83082545D01*
X141219544Y-83084342D01*
X141238159Y-83116585D01*
X141244512Y-83125921D01*
X141610765Y-83736341D01*
X141764387Y-83992379D01*
X141921829Y-84254781D01*
X141939500Y-84318579D01*
X141939500Y-85353419D01*
X141921829Y-85417217D01*
X141244510Y-86546081D01*
X141238159Y-86555415D01*
X141219539Y-86587666D01*
X141218484Y-86589459D01*
X141199813Y-86620577D01*
X141199341Y-86621719D01*
X141198530Y-86623633D01*
X141198054Y-86624727D01*
X141188672Y-86659741D01*
X141188117Y-86661743D01*
X141178125Y-86696675D01*
X141177968Y-86697873D01*
X141177675Y-86699959D01*
X141177500Y-86701134D01*
X141177500Y-86737454D01*
X141177482Y-86739541D01*
X141176855Y-86776740D01*
X141177500Y-86788018D01*
X141177500Y-86905651D01*
X141157815Y-86972690D01*
X141105011Y-87018445D01*
X141035853Y-87028389D01*
X140972297Y-86999364D01*
X140944142Y-86964104D01*
X140917271Y-86913833D01*
X140917267Y-86913826D01*
X140786055Y-86753944D01*
X140626173Y-86622732D01*
X140626166Y-86622728D01*
X140443763Y-86525232D01*
X140290000Y-86478587D01*
X140290000Y-87066988D01*
X140232993Y-87034075D01*
X140105826Y-87000000D01*
X139974174Y-87000000D01*
X139847007Y-87034075D01*
X139790000Y-87066988D01*
X139790000Y-86478587D01*
X139636236Y-86525232D01*
X139453833Y-86622728D01*
X139453826Y-86622732D01*
X139293944Y-86753944D01*
X139162732Y-86913826D01*
X139162728Y-86913833D01*
X139065233Y-87096233D01*
X139018590Y-87250000D01*
X139606988Y-87250000D01*
X139574075Y-87307007D01*
X139540000Y-87434174D01*
X139540000Y-87565826D01*
X139574075Y-87692993D01*
X139606988Y-87750000D01*
X139018590Y-87750000D01*
X139065233Y-87903766D01*
X139162728Y-88086166D01*
X139162732Y-88086173D01*
X139293944Y-88246055D01*
X139453826Y-88377267D01*
X139453833Y-88377271D01*
X139636233Y-88474766D01*
X139790000Y-88521410D01*
X139790000Y-87933012D01*
X139847007Y-87965925D01*
X139974174Y-88000000D01*
X140105826Y-88000000D01*
X140232993Y-87965925D01*
X140290000Y-87933012D01*
X140290000Y-88521410D01*
X140443766Y-88474766D01*
X140626166Y-88377271D01*
X140626173Y-88377267D01*
X140786055Y-88246055D01*
X140917267Y-88086173D01*
X140917269Y-88086170D01*
X140944141Y-88035896D01*
X140993103Y-87986051D01*
X141061241Y-87970590D01*
X141126921Y-87994421D01*
X141169290Y-88049978D01*
X141177500Y-88094348D01*
X141177500Y-89445651D01*
X141157815Y-89512690D01*
X141105011Y-89558445D01*
X141035853Y-89568389D01*
X140972297Y-89539364D01*
X140944142Y-89504104D01*
X140917271Y-89453833D01*
X140917267Y-89453826D01*
X140786055Y-89293944D01*
X140626173Y-89162732D01*
X140626166Y-89162728D01*
X140443763Y-89065232D01*
X140290000Y-89018587D01*
X140290000Y-89606988D01*
X140232993Y-89574075D01*
X140105826Y-89540000D01*
X139974174Y-89540000D01*
X139847007Y-89574075D01*
X139790000Y-89606988D01*
X139790000Y-89018587D01*
X139636236Y-89065232D01*
X139453833Y-89162728D01*
X139453826Y-89162732D01*
X139293944Y-89293944D01*
X139162732Y-89453826D01*
X139162728Y-89453833D01*
X139065233Y-89636233D01*
X139018590Y-89790000D01*
X139606988Y-89790000D01*
X139574075Y-89847007D01*
X139540000Y-89974174D01*
X139540000Y-90105826D01*
X139574075Y-90232993D01*
X139606988Y-90290000D01*
X139018590Y-90290000D01*
X139065233Y-90443766D01*
X139162728Y-90626166D01*
X139162732Y-90626173D01*
X139293944Y-90786055D01*
X139453826Y-90917267D01*
X139453833Y-90917271D01*
X139636233Y-91014766D01*
X139790000Y-91061410D01*
X139790000Y-90473012D01*
X139847007Y-90505925D01*
X139974174Y-90540000D01*
X140105826Y-90540000D01*
X140232993Y-90505925D01*
X140290000Y-90473012D01*
X140290000Y-91061410D01*
X140443766Y-91014766D01*
X140626166Y-90917271D01*
X140626173Y-90917267D01*
X140786055Y-90786055D01*
X140917267Y-90626173D01*
X140917269Y-90626170D01*
X140944141Y-90575896D01*
X140993103Y-90526051D01*
X141061241Y-90510590D01*
X141126921Y-90534421D01*
X141169290Y-90589978D01*
X141177500Y-90634348D01*
X141177500Y-91985651D01*
X141157815Y-92052690D01*
X141105011Y-92098445D01*
X141035853Y-92108389D01*
X140972297Y-92079364D01*
X140944142Y-92044104D01*
X140917271Y-91993833D01*
X140917267Y-91993826D01*
X140786055Y-91833944D01*
X140626173Y-91702732D01*
X140626166Y-91702728D01*
X140443763Y-91605232D01*
X140290000Y-91558587D01*
X140290000Y-92146988D01*
X140232993Y-92114075D01*
X140105826Y-92080000D01*
X139974174Y-92080000D01*
X139847007Y-92114075D01*
X139790000Y-92146988D01*
X139790000Y-91558587D01*
X139636236Y-91605232D01*
X139453833Y-91702728D01*
X139453826Y-91702732D01*
X139293944Y-91833944D01*
X139162732Y-91993826D01*
X139162728Y-91993833D01*
X139065233Y-92176233D01*
X139018590Y-92330000D01*
X139606988Y-92330000D01*
X139574075Y-92387007D01*
X139540000Y-92514174D01*
X139540000Y-92645826D01*
X139574075Y-92772993D01*
X139606988Y-92830000D01*
X139018590Y-92830000D01*
X139065233Y-92983766D01*
X139162728Y-93166166D01*
X139162732Y-93166173D01*
X139293944Y-93326055D01*
X139453826Y-93457267D01*
X139453833Y-93457271D01*
X139636233Y-93554766D01*
X139790000Y-93601410D01*
X139790000Y-93013012D01*
X139847007Y-93045925D01*
X139974174Y-93080000D01*
X140105826Y-93080000D01*
X140232993Y-93045925D01*
X140290000Y-93013012D01*
X140290000Y-93601410D01*
X140443766Y-93554766D01*
X140626166Y-93457271D01*
X140626173Y-93457267D01*
X140786055Y-93326055D01*
X140917267Y-93166173D01*
X140917269Y-93166170D01*
X140944141Y-93115896D01*
X140993103Y-93066051D01*
X141061241Y-93050590D01*
X141126921Y-93074421D01*
X141169290Y-93129978D01*
X141177500Y-93174348D01*
X141177500Y-94525651D01*
X141157815Y-94592690D01*
X141105011Y-94638445D01*
X141035853Y-94648389D01*
X140972297Y-94619364D01*
X140944142Y-94584104D01*
X140917271Y-94533833D01*
X140917267Y-94533826D01*
X140786055Y-94373944D01*
X140626173Y-94242732D01*
X140626166Y-94242728D01*
X140443763Y-94145232D01*
X140290000Y-94098587D01*
X140290000Y-94686988D01*
X140232993Y-94654075D01*
X140105826Y-94620000D01*
X139974174Y-94620000D01*
X139847007Y-94654075D01*
X139790000Y-94686988D01*
X139790000Y-94098587D01*
X139636236Y-94145232D01*
X139453833Y-94242728D01*
X139453826Y-94242732D01*
X139293944Y-94373944D01*
X139162732Y-94533826D01*
X139162728Y-94533833D01*
X139065233Y-94716233D01*
X139018590Y-94870000D01*
X139606988Y-94870000D01*
X139574075Y-94927007D01*
X139540000Y-95054174D01*
X139540000Y-95185826D01*
X139574075Y-95312993D01*
X139606988Y-95370000D01*
X139018590Y-95370000D01*
X139065233Y-95523766D01*
X139162728Y-95706166D01*
X139162732Y-95706173D01*
X139293944Y-95866055D01*
X139453826Y-95997267D01*
X139453833Y-95997271D01*
X139636233Y-96094766D01*
X139790000Y-96141410D01*
X139790000Y-95553012D01*
X139847007Y-95585925D01*
X139974174Y-95620000D01*
X140105826Y-95620000D01*
X140232993Y-95585925D01*
X140290000Y-95553012D01*
X140290000Y-96141410D01*
X140443766Y-96094766D01*
X140626166Y-95997271D01*
X140626173Y-95997267D01*
X140786055Y-95866055D01*
X140917267Y-95706173D01*
X140917269Y-95706170D01*
X140944141Y-95655896D01*
X140993103Y-95606051D01*
X141061241Y-95590590D01*
X141126921Y-95614421D01*
X141169290Y-95669978D01*
X141177500Y-95714348D01*
X141177500Y-97065651D01*
X141157815Y-97132690D01*
X141105011Y-97178445D01*
X141035853Y-97188389D01*
X140972297Y-97159364D01*
X140944142Y-97124104D01*
X140917271Y-97073833D01*
X140917267Y-97073826D01*
X140786055Y-96913944D01*
X140626173Y-96782732D01*
X140626166Y-96782728D01*
X140443763Y-96685232D01*
X140290000Y-96638587D01*
X140290000Y-97226988D01*
X140232993Y-97194075D01*
X140105826Y-97160000D01*
X139974174Y-97160000D01*
X139847007Y-97194075D01*
X139790000Y-97226988D01*
X139790000Y-96638587D01*
X139636236Y-96685232D01*
X139453833Y-96782728D01*
X139453826Y-96782732D01*
X139293944Y-96913944D01*
X139162732Y-97073826D01*
X139162728Y-97073833D01*
X139065233Y-97256233D01*
X139018590Y-97410000D01*
X139606988Y-97410000D01*
X139574075Y-97467007D01*
X139540000Y-97594174D01*
X139540000Y-97725826D01*
X139574075Y-97852993D01*
X139606988Y-97910000D01*
X139018590Y-97910000D01*
X139065233Y-98063766D01*
X139162728Y-98246166D01*
X139162732Y-98246173D01*
X139293944Y-98406055D01*
X139453826Y-98537267D01*
X139453833Y-98537271D01*
X139636233Y-98634766D01*
X139790000Y-98681410D01*
X139790000Y-98093012D01*
X139847007Y-98125925D01*
X139974174Y-98160000D01*
X140105826Y-98160000D01*
X140232993Y-98125925D01*
X140290000Y-98093012D01*
X140290000Y-98681410D01*
X140443766Y-98634766D01*
X140626166Y-98537271D01*
X140626173Y-98537267D01*
X140786055Y-98406055D01*
X140917267Y-98246173D01*
X140917269Y-98246170D01*
X140944141Y-98195896D01*
X140993103Y-98146051D01*
X141061241Y-98130590D01*
X141126921Y-98154421D01*
X141169290Y-98209978D01*
X141177500Y-98254348D01*
X141177500Y-99605651D01*
X141157815Y-99672690D01*
X141105011Y-99718445D01*
X141035853Y-99728389D01*
X140972297Y-99699364D01*
X140944142Y-99664104D01*
X140917271Y-99613833D01*
X140917267Y-99613826D01*
X140786055Y-99453944D01*
X140626173Y-99322732D01*
X140626166Y-99322728D01*
X140443763Y-99225232D01*
X140290000Y-99178587D01*
X140290000Y-99766988D01*
X140232993Y-99734075D01*
X140105826Y-99700000D01*
X139974174Y-99700000D01*
X139847007Y-99734075D01*
X139790000Y-99766988D01*
X139790000Y-99178587D01*
X139636236Y-99225232D01*
X139453833Y-99322728D01*
X139453826Y-99322732D01*
X139293944Y-99453944D01*
X139162732Y-99613826D01*
X139162728Y-99613833D01*
X139065233Y-99796233D01*
X139018590Y-99950000D01*
X139606988Y-99950000D01*
X139574075Y-100007007D01*
X139540000Y-100134174D01*
X139540000Y-100265826D01*
X139574075Y-100392993D01*
X139606988Y-100450000D01*
X139018590Y-100450000D01*
X139065233Y-100603766D01*
X139162728Y-100786166D01*
X139162732Y-100786173D01*
X139293944Y-100946055D01*
X139453826Y-101077267D01*
X139453833Y-101077271D01*
X139636233Y-101174766D01*
X139790000Y-101221410D01*
X139790000Y-100633012D01*
X139847007Y-100665925D01*
X139974174Y-100700000D01*
X140105826Y-100700000D01*
X140232993Y-100665925D01*
X140290000Y-100633012D01*
X140290000Y-101221410D01*
X140443766Y-101174766D01*
X140626166Y-101077271D01*
X140626173Y-101077267D01*
X140786055Y-100946055D01*
X140917267Y-100786173D01*
X140917269Y-100786170D01*
X140944141Y-100735896D01*
X140993103Y-100686051D01*
X141061241Y-100670590D01*
X141126921Y-100694421D01*
X141169290Y-100749978D01*
X141177500Y-100794348D01*
X141177500Y-102145651D01*
X141157815Y-102212690D01*
X141105011Y-102258445D01*
X141035853Y-102268389D01*
X140972297Y-102239364D01*
X140944142Y-102204104D01*
X140917271Y-102153833D01*
X140917267Y-102153826D01*
X140786055Y-101993944D01*
X140626173Y-101862732D01*
X140626166Y-101862728D01*
X140443763Y-101765232D01*
X140290000Y-101718587D01*
X140290000Y-102306988D01*
X140232993Y-102274075D01*
X140105826Y-102240000D01*
X139974174Y-102240000D01*
X139847007Y-102274075D01*
X139790000Y-102306988D01*
X139790000Y-101718587D01*
X139636236Y-101765232D01*
X139453833Y-101862728D01*
X139453826Y-101862732D01*
X139293944Y-101993944D01*
X139162732Y-102153826D01*
X139162728Y-102153833D01*
X139065233Y-102336233D01*
X139018590Y-102490000D01*
X139606988Y-102490000D01*
X139574075Y-102547007D01*
X139540000Y-102674174D01*
X139540000Y-102805826D01*
X139574075Y-102932993D01*
X139606988Y-102990000D01*
X139018590Y-102990000D01*
X139065233Y-103143766D01*
X139162728Y-103326166D01*
X139162732Y-103326173D01*
X139293944Y-103486055D01*
X139453826Y-103617267D01*
X139453833Y-103617271D01*
X139636233Y-103714766D01*
X139790000Y-103761410D01*
X139790000Y-103173012D01*
X139847007Y-103205925D01*
X139974174Y-103240000D01*
X140105826Y-103240000D01*
X140232993Y-103205925D01*
X140290000Y-103173012D01*
X140290000Y-103761410D01*
X140443766Y-103714766D01*
X140626166Y-103617271D01*
X140626173Y-103617267D01*
X140786055Y-103486055D01*
X140917267Y-103326173D01*
X140917269Y-103326170D01*
X140944141Y-103275896D01*
X140993103Y-103226051D01*
X141061241Y-103210590D01*
X141126921Y-103234421D01*
X141169290Y-103289978D01*
X141177500Y-103334348D01*
X141177500Y-104685651D01*
X141157815Y-104752690D01*
X141105011Y-104798445D01*
X141035853Y-104808389D01*
X140972297Y-104779364D01*
X140944142Y-104744104D01*
X140917271Y-104693833D01*
X140917267Y-104693826D01*
X140786055Y-104533944D01*
X140626173Y-104402732D01*
X140626166Y-104402728D01*
X140443763Y-104305232D01*
X140290000Y-104258587D01*
X140290000Y-104846988D01*
X140232993Y-104814075D01*
X140105826Y-104780000D01*
X139974174Y-104780000D01*
X139847007Y-104814075D01*
X139790000Y-104846988D01*
X139790000Y-104258587D01*
X139636236Y-104305232D01*
X139453833Y-104402728D01*
X139453826Y-104402732D01*
X139293944Y-104533944D01*
X139162732Y-104693826D01*
X139162728Y-104693833D01*
X139065233Y-104876233D01*
X139018590Y-105030000D01*
X139606988Y-105030000D01*
X139574075Y-105087007D01*
X139540000Y-105214174D01*
X139540000Y-105345826D01*
X139574075Y-105472993D01*
X139606988Y-105530000D01*
X139018590Y-105530000D01*
X139065233Y-105683766D01*
X139162728Y-105866166D01*
X139162732Y-105866173D01*
X139293944Y-106026055D01*
X139453826Y-106157267D01*
X139453833Y-106157271D01*
X139636233Y-106254766D01*
X139790000Y-106301410D01*
X139790000Y-105713012D01*
X139847007Y-105745925D01*
X139974174Y-105780000D01*
X140105826Y-105780000D01*
X140232993Y-105745925D01*
X140290000Y-105713012D01*
X140290000Y-106301410D01*
X140443766Y-106254766D01*
X140626166Y-106157271D01*
X140626173Y-106157267D01*
X140786055Y-106026055D01*
X140917267Y-105866173D01*
X140917269Y-105866170D01*
X140944141Y-105815896D01*
X140993103Y-105766051D01*
X141061241Y-105750590D01*
X141126921Y-105774421D01*
X141169290Y-105829978D01*
X141177500Y-105874348D01*
X141177500Y-107225651D01*
X141157815Y-107292690D01*
X141105011Y-107338445D01*
X141035853Y-107348389D01*
X140972297Y-107319364D01*
X140944142Y-107284104D01*
X140917271Y-107233833D01*
X140917267Y-107233826D01*
X140786055Y-107073944D01*
X140626173Y-106942732D01*
X140626166Y-106942728D01*
X140443763Y-106845232D01*
X140290000Y-106798587D01*
X140290000Y-107386988D01*
X140232993Y-107354075D01*
X140105826Y-107320000D01*
X139974174Y-107320000D01*
X139847007Y-107354075D01*
X139790000Y-107386988D01*
X139790000Y-106798587D01*
X139636236Y-106845232D01*
X139453833Y-106942728D01*
X139453826Y-106942732D01*
X139293944Y-107073944D01*
X139162732Y-107233826D01*
X139162728Y-107233833D01*
X139065233Y-107416233D01*
X139018590Y-107570000D01*
X139606988Y-107570000D01*
X139574075Y-107627007D01*
X139540000Y-107754174D01*
X139540000Y-107885826D01*
X139574075Y-108012993D01*
X139606988Y-108070000D01*
X139018590Y-108070000D01*
X139065233Y-108223766D01*
X139162728Y-108406166D01*
X139162732Y-108406173D01*
X139293944Y-108566055D01*
X139453826Y-108697267D01*
X139453833Y-108697271D01*
X139636233Y-108794766D01*
X139790000Y-108841410D01*
X139790000Y-108253012D01*
X139847007Y-108285925D01*
X139974174Y-108320000D01*
X140105826Y-108320000D01*
X140232993Y-108285925D01*
X140290000Y-108253012D01*
X140290000Y-108841410D01*
X140443766Y-108794766D01*
X140626166Y-108697271D01*
X140626173Y-108697267D01*
X140786055Y-108566055D01*
X140917267Y-108406173D01*
X140917269Y-108406170D01*
X140944141Y-108355896D01*
X140993103Y-108306051D01*
X141061241Y-108290590D01*
X141126921Y-108314421D01*
X141169290Y-108369978D01*
X141177500Y-108414348D01*
X141177500Y-109765651D01*
X141157815Y-109832690D01*
X141105011Y-109878445D01*
X141035853Y-109888389D01*
X140972297Y-109859364D01*
X140944142Y-109824104D01*
X140917271Y-109773833D01*
X140917267Y-109773826D01*
X140786055Y-109613944D01*
X140626173Y-109482732D01*
X140626166Y-109482728D01*
X140443763Y-109385232D01*
X140290000Y-109338587D01*
X140290000Y-109926988D01*
X140232993Y-109894075D01*
X140105826Y-109860000D01*
X139974174Y-109860000D01*
X139847007Y-109894075D01*
X139790000Y-109926988D01*
X139790000Y-109338587D01*
X139636236Y-109385232D01*
X139453833Y-109482728D01*
X139453826Y-109482732D01*
X139293944Y-109613944D01*
X139162732Y-109773826D01*
X139162728Y-109773833D01*
X139065233Y-109956233D01*
X139018590Y-110110000D01*
X139606988Y-110110000D01*
X139574075Y-110167007D01*
X139540000Y-110294174D01*
X139540000Y-110425826D01*
X139574075Y-110552993D01*
X139606988Y-110610000D01*
X139018590Y-110610000D01*
X139065233Y-110763766D01*
X139162728Y-110946166D01*
X139162732Y-110946173D01*
X139293944Y-111106055D01*
X139453826Y-111237267D01*
X139453833Y-111237271D01*
X139636233Y-111334766D01*
X139790000Y-111381410D01*
X139790000Y-110793012D01*
X139847007Y-110825925D01*
X139974174Y-110860000D01*
X140105826Y-110860000D01*
X140232993Y-110825925D01*
X140290000Y-110793012D01*
X140290000Y-111381410D01*
X140443766Y-111334766D01*
X140626166Y-111237271D01*
X140626173Y-111237267D01*
X140786055Y-111106055D01*
X140917267Y-110946173D01*
X140917269Y-110946170D01*
X140944141Y-110895896D01*
X140993103Y-110846051D01*
X141061241Y-110830590D01*
X141126921Y-110854421D01*
X141169290Y-110909978D01*
X141177500Y-110954348D01*
X141177500Y-112305651D01*
X141157815Y-112372690D01*
X141105011Y-112418445D01*
X141035853Y-112428389D01*
X140972297Y-112399364D01*
X140944142Y-112364104D01*
X140917271Y-112313833D01*
X140917267Y-112313826D01*
X140786055Y-112153944D01*
X140626173Y-112022732D01*
X140626166Y-112022728D01*
X140443763Y-111925232D01*
X140290000Y-111878587D01*
X140290000Y-112466988D01*
X140232993Y-112434075D01*
X140105826Y-112400000D01*
X139974174Y-112400000D01*
X139847007Y-112434075D01*
X139790000Y-112466988D01*
X139790000Y-111878587D01*
X139636236Y-111925232D01*
X139453833Y-112022728D01*
X139453826Y-112022732D01*
X139293944Y-112153944D01*
X139162732Y-112313826D01*
X139162728Y-112313833D01*
X139065233Y-112496233D01*
X139018590Y-112650000D01*
X139606988Y-112650000D01*
X139574075Y-112707007D01*
X139540000Y-112834174D01*
X139540000Y-112965826D01*
X139574075Y-113092993D01*
X139606988Y-113150000D01*
X139018590Y-113150000D01*
X139065233Y-113303766D01*
X139162728Y-113486166D01*
X139162732Y-113486173D01*
X139293944Y-113646055D01*
X139453826Y-113777267D01*
X139453833Y-113777271D01*
X139636233Y-113874766D01*
X139790000Y-113921410D01*
X139790000Y-113333012D01*
X139847007Y-113365925D01*
X139974174Y-113400000D01*
X140105826Y-113400000D01*
X140232993Y-113365925D01*
X140290000Y-113333012D01*
X140290000Y-113921410D01*
X140443766Y-113874766D01*
X140626166Y-113777271D01*
X140626173Y-113777267D01*
X140786055Y-113646055D01*
X140917267Y-113486173D01*
X140917269Y-113486170D01*
X140944141Y-113435896D01*
X140993103Y-113386051D01*
X141061241Y-113370590D01*
X141126921Y-113394421D01*
X141169290Y-113449978D01*
X141177500Y-113494348D01*
X141177500Y-114309576D01*
X141157815Y-114376615D01*
X141105011Y-114422370D01*
X141035853Y-114432314D01*
X140984610Y-114412678D01*
X140968037Y-114401604D01*
X140968033Y-114401602D01*
X140909702Y-114390000D01*
X140290000Y-114390000D01*
X140290000Y-115006988D01*
X140232993Y-114974075D01*
X140105826Y-114940000D01*
X139974174Y-114940000D01*
X139847007Y-114974075D01*
X139790000Y-115006988D01*
X139790000Y-114390000D01*
X139170297Y-114390000D01*
X139111966Y-114401602D01*
X139111965Y-114401603D01*
X139045808Y-114445808D01*
X139001603Y-114511965D01*
X139001602Y-114511966D01*
X138990000Y-114570297D01*
X138990000Y-115190000D01*
X139606988Y-115190000D01*
X139574075Y-115247007D01*
X139540000Y-115374174D01*
X139540000Y-115505826D01*
X139574075Y-115632993D01*
X139606988Y-115690000D01*
X138990000Y-115690000D01*
X138990000Y-116309702D01*
X139001602Y-116368033D01*
X139001607Y-116368043D01*
X139001609Y-116368066D01*
X139003986Y-116380014D01*
X139002917Y-116380226D01*
X139009079Y-116437512D01*
X138977806Y-116499993D01*
X138917718Y-116535647D01*
X138887048Y-116539500D01*
X138321732Y-116539500D01*
X138254693Y-116519815D01*
X138208938Y-116467011D01*
X138198994Y-116397853D01*
X138228019Y-116334297D01*
X138238193Y-116323863D01*
X138253727Y-116309702D01*
X138353872Y-116218407D01*
X138482366Y-116048255D01*
X138536270Y-115940000D01*
X138577403Y-115857394D01*
X138577403Y-115857393D01*
X138577405Y-115857389D01*
X138635756Y-115652310D01*
X138655429Y-115440000D01*
X138635756Y-115227690D01*
X138577405Y-115022611D01*
X138577403Y-115022606D01*
X138577403Y-115022605D01*
X138482367Y-114831746D01*
X138353872Y-114661593D01*
X138303024Y-114615239D01*
X138196302Y-114517948D01*
X138015019Y-114405702D01*
X138015017Y-114405701D01*
X137915608Y-114367190D01*
X137816198Y-114328679D01*
X137619385Y-114291888D01*
X137557106Y-114260221D01*
X137521833Y-114199908D01*
X137524767Y-114130100D01*
X137564976Y-114072960D01*
X137619384Y-114048111D01*
X137816198Y-114011321D01*
X138015019Y-113934298D01*
X138196302Y-113822052D01*
X138353872Y-113678407D01*
X138482366Y-113508255D01*
X138543216Y-113386051D01*
X138577403Y-113317394D01*
X138577403Y-113317393D01*
X138577405Y-113317389D01*
X138635756Y-113112310D01*
X138655429Y-112900000D01*
X138635756Y-112687690D01*
X138577405Y-112482611D01*
X138577403Y-112482606D01*
X138577403Y-112482605D01*
X138482367Y-112291746D01*
X138353872Y-112121593D01*
X138245427Y-112022732D01*
X138196302Y-111977948D01*
X138015019Y-111865702D01*
X138015017Y-111865701D01*
X137836412Y-111796510D01*
X137816198Y-111788679D01*
X137619385Y-111751888D01*
X137557106Y-111720221D01*
X137521833Y-111659908D01*
X137524767Y-111590100D01*
X137564976Y-111532960D01*
X137619384Y-111508111D01*
X137816198Y-111471321D01*
X138015019Y-111394298D01*
X138196302Y-111282052D01*
X138353872Y-111138407D01*
X138482366Y-110968255D01*
X138543216Y-110846051D01*
X138577403Y-110777394D01*
X138577403Y-110777393D01*
X138577405Y-110777389D01*
X138635756Y-110572310D01*
X138655429Y-110360000D01*
X138635756Y-110147690D01*
X138577405Y-109942611D01*
X138577403Y-109942606D01*
X138577403Y-109942605D01*
X138482367Y-109751746D01*
X138353872Y-109581593D01*
X138245427Y-109482732D01*
X138196302Y-109437948D01*
X138015019Y-109325702D01*
X138015017Y-109325701D01*
X137836412Y-109256510D01*
X137816198Y-109248679D01*
X137619385Y-109211888D01*
X137557106Y-109180221D01*
X137521833Y-109119908D01*
X137524767Y-109050100D01*
X137564976Y-108992960D01*
X137619384Y-108968111D01*
X137816198Y-108931321D01*
X138015019Y-108854298D01*
X138196302Y-108742052D01*
X138353872Y-108598407D01*
X138482366Y-108428255D01*
X138550360Y-108291704D01*
X138577403Y-108237394D01*
X138577403Y-108237393D01*
X138577405Y-108237389D01*
X138635756Y-108032310D01*
X138655429Y-107820000D01*
X138635756Y-107607690D01*
X138577405Y-107402611D01*
X138577403Y-107402606D01*
X138577403Y-107402605D01*
X138482367Y-107211746D01*
X138353872Y-107041593D01*
X138245427Y-106942732D01*
X138196302Y-106897948D01*
X138015019Y-106785702D01*
X138015017Y-106785701D01*
X137879474Y-106733192D01*
X137816198Y-106708679D01*
X137619385Y-106671888D01*
X137557106Y-106640221D01*
X137521833Y-106579908D01*
X137524767Y-106510100D01*
X137564976Y-106452960D01*
X137619384Y-106428111D01*
X137816198Y-106391321D01*
X138015019Y-106314298D01*
X138196302Y-106202052D01*
X138353872Y-106058407D01*
X138482366Y-105888255D01*
X138493365Y-105866166D01*
X138577403Y-105697394D01*
X138577403Y-105697393D01*
X138577405Y-105697389D01*
X138635756Y-105492310D01*
X138655429Y-105280000D01*
X138635756Y-105067690D01*
X138577405Y-104862611D01*
X138577403Y-104862606D01*
X138577403Y-104862605D01*
X138482367Y-104671746D01*
X138353872Y-104501593D01*
X138245427Y-104402732D01*
X138196302Y-104357948D01*
X138015019Y-104245702D01*
X138015017Y-104245701D01*
X137816199Y-104168679D01*
X137816194Y-104168678D01*
X137778758Y-104161679D01*
X137716478Y-104130009D01*
X137713865Y-104127472D01*
X137663665Y-104077272D01*
X137630180Y-104015949D01*
X137635164Y-103946257D01*
X137677036Y-103890324D01*
X137728557Y-103867703D01*
X137816198Y-103851321D01*
X138015019Y-103774298D01*
X138196302Y-103662052D01*
X138353872Y-103518407D01*
X138482366Y-103348255D01*
X138511384Y-103289978D01*
X138577403Y-103157394D01*
X138577403Y-103157393D01*
X138577405Y-103157389D01*
X138635756Y-102952310D01*
X138655429Y-102740000D01*
X138654897Y-102734264D01*
X138649329Y-102674174D01*
X138635756Y-102527690D01*
X138577405Y-102322611D01*
X138577403Y-102322606D01*
X138577403Y-102322605D01*
X138482367Y-102131746D01*
X138353872Y-101961593D01*
X138309517Y-101921158D01*
X138196302Y-101817948D01*
X138015019Y-101705702D01*
X138015017Y-101705701D01*
X137836412Y-101636510D01*
X137816198Y-101628679D01*
X137619385Y-101591888D01*
X137557106Y-101560221D01*
X137521833Y-101499908D01*
X137524767Y-101430100D01*
X137564976Y-101372960D01*
X137619384Y-101348111D01*
X137816198Y-101311321D01*
X138015019Y-101234298D01*
X138196302Y-101122052D01*
X138353872Y-100978407D01*
X138482366Y-100808255D01*
X138518396Y-100735896D01*
X138577403Y-100617394D01*
X138577403Y-100617393D01*
X138577405Y-100617389D01*
X138635756Y-100412310D01*
X138655429Y-100200000D01*
X138635756Y-99987690D01*
X138577405Y-99782611D01*
X138577403Y-99782606D01*
X138577403Y-99782605D01*
X138482367Y-99591746D01*
X138353872Y-99421593D01*
X138245427Y-99322732D01*
X138196302Y-99277948D01*
X138015019Y-99165702D01*
X138015017Y-99165701D01*
X138015007Y-99165696D01*
X137898338Y-99120498D01*
X137842936Y-99077925D01*
X137835745Y-99066873D01*
X137820480Y-99040433D01*
X137759231Y-98979184D01*
X137725746Y-98917861D01*
X137730730Y-98848169D01*
X137772602Y-98792236D01*
X137812991Y-98772233D01*
X137816187Y-98771322D01*
X137816198Y-98771321D01*
X138015019Y-98694298D01*
X138196302Y-98582052D01*
X138353872Y-98438407D01*
X138482366Y-98268255D01*
X138511384Y-98209978D01*
X138577403Y-98077394D01*
X138577403Y-98077393D01*
X138577405Y-98077389D01*
X138635756Y-97872310D01*
X138655429Y-97660000D01*
X138635756Y-97447690D01*
X138577405Y-97242611D01*
X138577403Y-97242606D01*
X138577403Y-97242605D01*
X138482367Y-97051746D01*
X138353872Y-96881593D01*
X138196302Y-96737948D01*
X138015019Y-96625702D01*
X138015017Y-96625701D01*
X137862664Y-96566680D01*
X137816198Y-96548679D01*
X137619385Y-96511888D01*
X137557106Y-96480221D01*
X137521833Y-96419908D01*
X137524767Y-96350100D01*
X137564976Y-96292960D01*
X137619384Y-96268111D01*
X137816198Y-96231321D01*
X138015019Y-96154298D01*
X138196302Y-96042052D01*
X138353872Y-95898407D01*
X138482366Y-95728255D01*
X138545648Y-95601166D01*
X138577403Y-95537394D01*
X138577403Y-95537393D01*
X138577405Y-95537389D01*
X138635756Y-95332310D01*
X138655429Y-95120000D01*
X138635756Y-94907690D01*
X138577405Y-94702611D01*
X138577403Y-94702606D01*
X138577403Y-94702605D01*
X138482367Y-94511746D01*
X138353872Y-94341593D01*
X138289601Y-94283002D01*
X138196302Y-94197948D01*
X138015019Y-94085702D01*
X138015017Y-94085701D01*
X137820031Y-94010164D01*
X137816198Y-94008679D01*
X137606610Y-93969500D01*
X137393390Y-93969500D01*
X137183802Y-94008679D01*
X137183799Y-94008679D01*
X137183799Y-94008680D01*
X136984982Y-94085701D01*
X136984980Y-94085702D01*
X136803699Y-94197947D01*
X136646127Y-94341593D01*
X136517632Y-94511746D01*
X136448407Y-94650771D01*
X136400904Y-94702009D01*
X136337407Y-94719500D01*
X135742941Y-94719500D01*
X135675902Y-94699815D01*
X135655260Y-94683181D01*
X133601239Y-92629160D01*
X133567754Y-92567837D01*
X133572738Y-92498145D01*
X133574326Y-92494107D01*
X133585044Y-92468234D01*
X133603243Y-92330000D01*
X136478590Y-92330000D01*
X137066988Y-92330000D01*
X137034075Y-92387007D01*
X137000000Y-92514174D01*
X137000000Y-92645826D01*
X137034075Y-92772993D01*
X137066988Y-92830000D01*
X136478590Y-92830000D01*
X136525233Y-92983766D01*
X136622728Y-93166166D01*
X136622732Y-93166173D01*
X136753944Y-93326055D01*
X136913826Y-93457267D01*
X136913833Y-93457271D01*
X137096233Y-93554766D01*
X137250000Y-93601410D01*
X137250000Y-93013012D01*
X137307007Y-93045925D01*
X137434174Y-93080000D01*
X137565826Y-93080000D01*
X137692993Y-93045925D01*
X137750000Y-93013012D01*
X137750000Y-93601410D01*
X137903766Y-93554766D01*
X138086166Y-93457271D01*
X138086173Y-93457267D01*
X138246055Y-93326055D01*
X138377267Y-93166173D01*
X138377271Y-93166166D01*
X138474766Y-92983766D01*
X138521410Y-92830000D01*
X137933012Y-92830000D01*
X137965925Y-92772993D01*
X138000000Y-92645826D01*
X138000000Y-92514174D01*
X137965925Y-92387007D01*
X137933012Y-92330000D01*
X138521410Y-92330000D01*
X138474766Y-92176233D01*
X138377271Y-91993833D01*
X138377267Y-91993826D01*
X138246055Y-91833944D01*
X138086173Y-91702732D01*
X138086166Y-91702728D01*
X137903763Y-91605232D01*
X137750000Y-91558587D01*
X137750000Y-92146988D01*
X137692993Y-92114075D01*
X137565826Y-92080000D01*
X137434174Y-92080000D01*
X137307007Y-92114075D01*
X137250000Y-92146988D01*
X137250000Y-91558587D01*
X137096236Y-91605232D01*
X136913833Y-91702728D01*
X136913826Y-91702732D01*
X136753944Y-91833944D01*
X136622732Y-91993826D01*
X136622728Y-91993833D01*
X136525233Y-92176233D01*
X136478590Y-92330000D01*
X133603243Y-92330000D01*
X133605682Y-92311472D01*
X133595590Y-92234819D01*
X133588360Y-92179901D01*
X133585044Y-92154710D01*
X133524536Y-92008631D01*
X133428282Y-91883190D01*
X133302841Y-91786936D01*
X133156762Y-91726428D01*
X133156760Y-91726427D01*
X133000001Y-91705790D01*
X132999999Y-91705790D01*
X132852762Y-91725174D01*
X132783727Y-91714408D01*
X132731471Y-91668028D01*
X132712586Y-91600759D01*
X132733067Y-91533959D01*
X132748891Y-91514559D01*
X134473450Y-89790000D01*
X136478590Y-89790000D01*
X137066988Y-89790000D01*
X137034075Y-89847007D01*
X137000000Y-89974174D01*
X137000000Y-90105826D01*
X137034075Y-90232993D01*
X137066988Y-90290000D01*
X136478590Y-90290000D01*
X136525233Y-90443766D01*
X136622728Y-90626166D01*
X136622732Y-90626173D01*
X136753944Y-90786055D01*
X136913826Y-90917267D01*
X136913833Y-90917271D01*
X137096233Y-91014766D01*
X137250000Y-91061410D01*
X137250000Y-90473012D01*
X137307007Y-90505925D01*
X137434174Y-90540000D01*
X137565826Y-90540000D01*
X137692993Y-90505925D01*
X137750000Y-90473012D01*
X137750000Y-91061410D01*
X137903766Y-91014766D01*
X138086166Y-90917271D01*
X138086173Y-90917267D01*
X138246055Y-90786055D01*
X138377267Y-90626173D01*
X138377271Y-90626166D01*
X138474766Y-90443766D01*
X138521410Y-90290000D01*
X137933012Y-90290000D01*
X137965925Y-90232993D01*
X138000000Y-90105826D01*
X138000000Y-89974174D01*
X137965925Y-89847007D01*
X137933012Y-89790000D01*
X138521410Y-89790000D01*
X138474766Y-89636233D01*
X138377271Y-89453833D01*
X138377267Y-89453826D01*
X138246055Y-89293944D01*
X138086173Y-89162732D01*
X138086166Y-89162728D01*
X137903763Y-89065232D01*
X137750000Y-89018587D01*
X137750000Y-89606988D01*
X137692993Y-89574075D01*
X137565826Y-89540000D01*
X137434174Y-89540000D01*
X137307007Y-89574075D01*
X137250000Y-89606988D01*
X137250000Y-89018587D01*
X137096236Y-89065232D01*
X136913833Y-89162728D01*
X136913826Y-89162732D01*
X136753944Y-89293944D01*
X136622732Y-89453826D01*
X136622728Y-89453833D01*
X136525233Y-89636233D01*
X136478590Y-89790000D01*
X134473450Y-89790000D01*
X136349347Y-87914103D01*
X136410666Y-87880621D01*
X136480358Y-87885605D01*
X136536291Y-87927477D01*
X136546382Y-87943333D01*
X136622730Y-88086170D01*
X136622732Y-88086173D01*
X136753944Y-88246055D01*
X136913826Y-88377267D01*
X136913833Y-88377271D01*
X137096233Y-88474766D01*
X137250000Y-88521410D01*
X137250000Y-87933012D01*
X137307007Y-87965925D01*
X137434174Y-88000000D01*
X137565826Y-88000000D01*
X137692993Y-87965925D01*
X137750000Y-87933012D01*
X137750000Y-88521410D01*
X137903766Y-88474766D01*
X138086166Y-88377271D01*
X138086173Y-88377267D01*
X138246055Y-88246055D01*
X138377267Y-88086173D01*
X138377271Y-88086166D01*
X138474766Y-87903766D01*
X138521410Y-87750000D01*
X137933012Y-87750000D01*
X137965925Y-87692993D01*
X138000000Y-87565826D01*
X138000000Y-87434174D01*
X137965925Y-87307007D01*
X137933012Y-87250000D01*
X138521410Y-87250000D01*
X138474766Y-87096233D01*
X138377271Y-86913833D01*
X138377267Y-86913826D01*
X138246055Y-86753944D01*
X138086173Y-86622732D01*
X138086166Y-86622728D01*
X137903763Y-86525232D01*
X137750000Y-86478587D01*
X137750000Y-87066988D01*
X137692993Y-87034075D01*
X137565826Y-87000000D01*
X137434174Y-87000000D01*
X137307007Y-87034075D01*
X137250000Y-87066988D01*
X137250000Y-86478587D01*
X137096240Y-86525230D01*
X136932953Y-86612509D01*
X136864550Y-86626750D01*
X136799306Y-86601750D01*
X136757936Y-86545444D01*
X136750500Y-86503150D01*
X136750500Y-86071736D01*
X136770185Y-86004697D01*
X136822989Y-85958942D01*
X136892147Y-85948998D01*
X136939776Y-85966308D01*
X136984981Y-85994298D01*
X137183802Y-86071321D01*
X137393390Y-86110500D01*
X137393392Y-86110500D01*
X137606608Y-86110500D01*
X137606610Y-86110500D01*
X137816198Y-86071321D01*
X138015019Y-85994298D01*
X138196302Y-85882052D01*
X138353872Y-85738407D01*
X138482366Y-85568255D01*
X138509858Y-85513043D01*
X138577403Y-85377394D01*
X138577403Y-85377393D01*
X138577405Y-85377389D01*
X138635756Y-85172310D01*
X138646529Y-85056047D01*
X138672315Y-84991111D01*
X138714622Y-84960804D01*
X138823130Y-84960804D01*
X138859503Y-84981668D01*
X138891693Y-85043681D01*
X138893471Y-85056048D01*
X138904244Y-85172310D01*
X138962596Y-85377392D01*
X138962596Y-85377394D01*
X139057632Y-85568253D01*
X139186127Y-85738406D01*
X139186128Y-85738407D01*
X139343698Y-85882052D01*
X139524981Y-85994298D01*
X139723802Y-86071321D01*
X139933390Y-86110500D01*
X139933392Y-86110500D01*
X140146608Y-86110500D01*
X140146610Y-86110500D01*
X140356198Y-86071321D01*
X140555019Y-85994298D01*
X140736302Y-85882052D01*
X140893872Y-85738407D01*
X141022366Y-85568255D01*
X141049858Y-85513043D01*
X141117403Y-85377394D01*
X141117403Y-85377393D01*
X141117405Y-85377389D01*
X141175756Y-85172310D01*
X141195429Y-84960000D01*
X141194853Y-84953789D01*
X141186529Y-84863951D01*
X141175756Y-84747690D01*
X141117405Y-84542611D01*
X141117403Y-84542606D01*
X141117403Y-84542605D01*
X141022367Y-84351746D01*
X140893872Y-84181593D01*
X140871763Y-84161438D01*
X140736302Y-84037948D01*
X140555019Y-83925702D01*
X140555017Y-83925701D01*
X140455608Y-83887190D01*
X140356198Y-83848679D01*
X140146610Y-83809500D01*
X139933390Y-83809500D01*
X139723802Y-83848679D01*
X139723799Y-83848679D01*
X139723799Y-83848680D01*
X139524982Y-83925701D01*
X139524980Y-83925702D01*
X139343699Y-84037947D01*
X139186127Y-84181593D01*
X139057632Y-84351746D01*
X138962596Y-84542605D01*
X138962596Y-84542607D01*
X138904244Y-84747689D01*
X138893471Y-84863951D01*
X138867685Y-84928888D01*
X138823130Y-84960804D01*
X138714622Y-84960804D01*
X138716869Y-84959194D01*
X138680497Y-84938331D01*
X138648307Y-84876318D01*
X138646529Y-84863951D01*
X138642821Y-84823934D01*
X138635756Y-84747690D01*
X138577405Y-84542611D01*
X138577403Y-84542606D01*
X138577403Y-84542605D01*
X138482367Y-84351746D01*
X138353872Y-84181593D01*
X138331763Y-84161438D01*
X138196302Y-84037948D01*
X138015019Y-83925702D01*
X138015017Y-83925701D01*
X137915608Y-83887190D01*
X137816198Y-83848679D01*
X137606610Y-83809500D01*
X137393390Y-83809500D01*
X137183802Y-83848679D01*
X137183799Y-83848679D01*
X137183799Y-83848680D01*
X136984982Y-83925701D01*
X136984978Y-83925703D01*
X136939776Y-83953691D01*
X136872415Y-83972245D01*
X136805716Y-83951437D01*
X136760855Y-83897871D01*
X136750500Y-83848263D01*
X136750500Y-83416849D01*
X136770185Y-83349810D01*
X136822989Y-83304055D01*
X136892147Y-83294111D01*
X136932953Y-83307491D01*
X137096233Y-83394766D01*
X137250000Y-83441410D01*
X137250000Y-82853012D01*
X137307007Y-82885925D01*
X137434174Y-82920000D01*
X137565826Y-82920000D01*
X137692993Y-82885925D01*
X137750000Y-82853012D01*
X137750000Y-83441410D01*
X137903766Y-83394766D01*
X138086166Y-83297271D01*
X138086173Y-83297267D01*
X138246055Y-83166055D01*
X138377267Y-83006173D01*
X138377271Y-83006166D01*
X138474766Y-82823766D01*
X138521410Y-82670000D01*
X137933012Y-82670000D01*
X137965925Y-82612993D01*
X138000000Y-82485826D01*
X138000000Y-82354174D01*
X137965925Y-82227007D01*
X137933012Y-82170000D01*
X138521410Y-82170000D01*
X138474766Y-82016233D01*
X138377271Y-81833833D01*
X138377267Y-81833826D01*
X138246055Y-81673944D01*
X138086173Y-81542732D01*
X138086166Y-81542728D01*
X137903763Y-81445232D01*
X137750000Y-81398587D01*
X137750000Y-81986988D01*
X137692993Y-81954075D01*
X137565826Y-81920000D01*
X137434174Y-81920000D01*
X137307007Y-81954075D01*
X137250000Y-81986988D01*
X137250000Y-81398587D01*
X137096240Y-81445230D01*
X136932953Y-81532509D01*
X136864550Y-81546750D01*
X136799306Y-81521750D01*
X136757936Y-81465444D01*
X136750500Y-81423150D01*
X136750500Y-80876849D01*
X136770185Y-80809810D01*
X136822989Y-80764055D01*
X136892147Y-80754111D01*
X136932953Y-80767491D01*
X137096233Y-80854766D01*
X137250000Y-80901410D01*
X137250000Y-80313012D01*
X137307007Y-80345925D01*
X137434174Y-80380000D01*
X137565826Y-80380000D01*
X137692993Y-80345925D01*
X137750000Y-80313012D01*
X137750000Y-80901410D01*
X137903766Y-80854766D01*
X138086166Y-80757271D01*
X138086173Y-80757267D01*
X138246055Y-80626055D01*
X138377267Y-80466173D01*
X138377271Y-80466166D01*
X138474766Y-80283766D01*
X138521410Y-80130000D01*
X137933012Y-80130000D01*
X137965925Y-80072993D01*
X138000000Y-79945826D01*
X138000000Y-79814174D01*
X137965925Y-79687007D01*
X137933012Y-79630000D01*
X138521410Y-79630000D01*
X138474766Y-79476233D01*
X138377271Y-79293833D01*
X138377267Y-79293826D01*
X138246055Y-79133944D01*
X138086173Y-79002732D01*
X138086166Y-79002728D01*
X137903763Y-78905232D01*
X137750000Y-78858587D01*
X137750000Y-79446988D01*
X137692993Y-79414075D01*
X137565826Y-79380000D01*
X137434174Y-79380000D01*
X137307007Y-79414075D01*
X137250000Y-79446988D01*
X137250000Y-78858587D01*
X137096240Y-78905230D01*
X136932953Y-78992509D01*
X136864550Y-79006750D01*
X136799306Y-78981750D01*
X136757936Y-78925444D01*
X136750500Y-78883150D01*
X136750500Y-78707254D01*
X136770185Y-78640215D01*
X136786819Y-78619573D01*
X136861513Y-78544879D01*
X136961807Y-78444584D01*
X137023128Y-78411101D01*
X137092819Y-78416085D01*
X137094261Y-78416633D01*
X137183802Y-78451321D01*
X137393390Y-78490500D01*
X137393392Y-78490500D01*
X137606608Y-78490500D01*
X137606610Y-78490500D01*
X137816198Y-78451321D01*
X138015019Y-78374298D01*
X138196302Y-78262052D01*
X138353872Y-78118407D01*
X138482366Y-77948255D01*
X138536270Y-77840000D01*
X138577403Y-77757394D01*
X138577403Y-77757393D01*
X138577405Y-77757389D01*
X138635756Y-77552310D01*
X138655429Y-77340000D01*
X138635756Y-77127690D01*
X138577405Y-76922611D01*
X138577403Y-76922606D01*
X138577403Y-76922605D01*
X138482367Y-76731746D01*
X138353872Y-76561593D01*
X138245427Y-76462732D01*
X138196302Y-76417948D01*
X138015019Y-76305702D01*
X138015017Y-76305701D01*
X137915608Y-76267190D01*
X137816198Y-76228679D01*
X137619385Y-76191888D01*
X137557106Y-76160221D01*
X137521833Y-76099908D01*
X137524767Y-76030100D01*
X137564976Y-75972960D01*
X137619384Y-75948111D01*
X137816198Y-75911321D01*
X138015019Y-75834298D01*
X138196302Y-75722052D01*
X138353872Y-75578407D01*
X138482366Y-75408255D01*
X138539048Y-75294421D01*
X138577403Y-75217394D01*
X138577403Y-75217393D01*
X138577405Y-75217389D01*
X138635756Y-75012310D01*
X138655429Y-74800000D01*
X138635756Y-74587690D01*
X138577405Y-74382611D01*
X138577403Y-74382606D01*
X138577403Y-74382605D01*
X138482367Y-74191746D01*
X138353872Y-74021593D01*
X138303742Y-73975893D01*
X138196302Y-73877948D01*
X138015019Y-73765702D01*
X138015017Y-73765701D01*
X137915608Y-73727190D01*
X137816198Y-73688679D01*
X137619385Y-73651888D01*
X137557106Y-73620221D01*
X137521833Y-73559908D01*
X137524767Y-73490100D01*
X137564976Y-73432960D01*
X137619384Y-73408111D01*
X137816198Y-73371321D01*
X138015019Y-73294298D01*
X138196302Y-73182052D01*
X138353872Y-73038407D01*
X138482366Y-72868255D01*
X138539048Y-72754421D01*
X138577403Y-72677394D01*
X138577403Y-72677393D01*
X138577405Y-72677389D01*
X138635756Y-72472310D01*
X138655429Y-72260000D01*
X138635756Y-72047690D01*
X138577405Y-71842611D01*
X138577403Y-71842606D01*
X138577403Y-71842605D01*
X138482367Y-71651746D01*
X138353872Y-71481593D01*
X138245427Y-71382732D01*
X138196302Y-71337948D01*
X138015019Y-71225702D01*
X138015017Y-71225701D01*
X137899528Y-71180961D01*
X137816198Y-71148679D01*
X137619385Y-71111888D01*
X137557106Y-71080221D01*
X137521833Y-71019908D01*
X137524767Y-70950100D01*
X137564976Y-70892960D01*
X137619384Y-70868111D01*
X137816198Y-70831321D01*
X138015019Y-70754298D01*
X138196302Y-70642052D01*
X138353872Y-70498407D01*
X138482366Y-70328255D01*
X138493365Y-70306166D01*
X138577403Y-70137394D01*
X138577403Y-70137393D01*
X138577405Y-70137389D01*
X138635756Y-69932310D01*
X138655429Y-69720000D01*
X138635756Y-69507690D01*
X138577405Y-69302611D01*
X138577403Y-69302606D01*
X138577403Y-69302605D01*
X138482367Y-69111746D01*
X138353872Y-68941593D01*
X138296761Y-68889529D01*
X138196302Y-68797948D01*
X138015019Y-68685702D01*
X138015017Y-68685701D01*
X137865390Y-68627736D01*
X137816198Y-68608679D01*
X137619385Y-68571888D01*
X137557106Y-68540221D01*
X137521833Y-68479908D01*
X137524767Y-68410100D01*
X137564976Y-68352960D01*
X137619384Y-68328111D01*
X137816198Y-68291321D01*
X138015019Y-68214298D01*
X138196302Y-68102052D01*
X138353872Y-67958407D01*
X138482366Y-67788255D01*
X138539048Y-67674421D01*
X138577403Y-67597394D01*
X138577403Y-67597393D01*
X138577405Y-67597389D01*
X138635756Y-67392310D01*
X138655429Y-67180000D01*
X138635756Y-66967690D01*
X138577405Y-66762611D01*
X138577403Y-66762606D01*
X138577403Y-66762605D01*
X138482367Y-66571746D01*
X138353872Y-66401593D01*
X138245427Y-66302732D01*
X138196302Y-66257948D01*
X138015019Y-66145702D01*
X138015017Y-66145701D01*
X137915608Y-66107190D01*
X137816198Y-66068679D01*
X137619385Y-66031888D01*
X137557106Y-66000221D01*
X137521833Y-65939908D01*
X137524767Y-65870100D01*
X137564976Y-65812960D01*
X137619384Y-65788111D01*
X137816198Y-65751321D01*
X138015019Y-65674298D01*
X138196302Y-65562052D01*
X138353872Y-65418407D01*
X138482366Y-65248255D01*
X138543216Y-65126051D01*
X138577403Y-65057394D01*
X138577403Y-65057393D01*
X138577405Y-65057389D01*
X138635756Y-64852310D01*
X138655429Y-64640000D01*
X138635756Y-64427690D01*
X138577405Y-64222611D01*
X138577403Y-64222606D01*
X138577403Y-64222605D01*
X138482367Y-64031746D01*
X138353872Y-63861593D01*
X138196302Y-63717948D01*
X138015019Y-63605702D01*
X138015017Y-63605701D01*
X137864195Y-63547273D01*
X137816198Y-63528679D01*
X137619385Y-63491888D01*
X137557106Y-63460221D01*
X137521833Y-63399908D01*
X137524767Y-63330100D01*
X137564976Y-63272960D01*
X137619384Y-63248111D01*
X137816198Y-63211321D01*
X138015019Y-63134298D01*
X138196302Y-63022052D01*
X138353872Y-62878407D01*
X138482366Y-62708255D01*
X138539048Y-62594421D01*
X138577403Y-62517394D01*
X138577403Y-62517393D01*
X138577405Y-62517389D01*
X138635756Y-62312310D01*
X138655429Y-62100000D01*
X138635756Y-61887690D01*
X138577405Y-61682611D01*
X138577403Y-61682606D01*
X138577403Y-61682605D01*
X138482367Y-61491746D01*
X138353872Y-61321593D01*
X138315200Y-61286339D01*
X138196302Y-61177948D01*
X138015019Y-61065702D01*
X138015017Y-61065701D01*
X137915608Y-61027190D01*
X137816198Y-60988679D01*
X137619385Y-60951888D01*
X137557106Y-60920221D01*
X137521833Y-60859908D01*
X137524767Y-60790100D01*
X137564976Y-60732960D01*
X137619384Y-60708111D01*
X137816198Y-60671321D01*
X138015019Y-60594298D01*
X138196302Y-60482052D01*
X138353872Y-60338407D01*
X138482366Y-60168255D01*
X138545612Y-60041239D01*
X138577403Y-59977394D01*
X138577403Y-59977393D01*
X138577405Y-59977389D01*
X138635756Y-59772310D01*
X138655429Y-59560000D01*
X138635756Y-59347690D01*
X138577405Y-59142611D01*
X138577403Y-59142606D01*
X138577403Y-59142605D01*
X138482367Y-58951746D01*
X138353872Y-58781593D01*
X138196302Y-58637948D01*
X138015019Y-58525702D01*
X138015017Y-58525701D01*
X137915608Y-58487190D01*
X137816198Y-58448679D01*
X137619385Y-58411888D01*
X137557106Y-58380221D01*
X137521833Y-58319908D01*
X137524767Y-58250100D01*
X137564976Y-58192960D01*
X137619384Y-58168111D01*
X137816198Y-58131321D01*
X138015019Y-58054298D01*
X138196302Y-57942052D01*
X138353872Y-57798407D01*
X138482366Y-57628255D01*
X138517142Y-57558415D01*
X138577403Y-57437394D01*
X138577403Y-57437393D01*
X138577405Y-57437389D01*
X138635756Y-57232310D01*
X138655429Y-57020000D01*
X138635756Y-56807690D01*
X138577405Y-56602611D01*
X138577403Y-56602606D01*
X138577403Y-56602605D01*
X138482367Y-56411746D01*
X138353872Y-56241593D01*
X138196302Y-56097948D01*
X138015019Y-55985702D01*
X138015017Y-55985701D01*
X137885204Y-55935412D01*
X137816198Y-55908679D01*
X137619385Y-55871888D01*
X137557106Y-55840221D01*
X137521833Y-55779908D01*
X137524767Y-55710100D01*
X137564976Y-55652960D01*
X137619384Y-55628111D01*
X137816198Y-55591321D01*
X138015019Y-55514298D01*
X138196302Y-55402052D01*
X138353872Y-55258407D01*
X138482366Y-55088255D01*
X138518396Y-55015896D01*
X138577403Y-54897394D01*
X138577403Y-54897393D01*
X138577405Y-54897389D01*
X138635756Y-54692310D01*
X138655429Y-54480000D01*
X138635756Y-54267690D01*
X138577405Y-54062611D01*
X138577403Y-54062606D01*
X138577403Y-54062605D01*
X138482367Y-53871746D01*
X138353870Y-53701590D01*
X138244775Y-53602137D01*
X138208493Y-53542426D01*
X138210254Y-53472578D01*
X138249498Y-53414771D01*
X138313764Y-53387356D01*
X138328313Y-53386500D01*
X139370750Y-53386500D01*
X139437789Y-53406185D01*
G37*
%TD.AperFunction*%
%TA.AperFunction,Conductor*%
G36*
X135102838Y-107674679D02*
G01*
X135127248Y-107693641D01*
X135383181Y-107949574D01*
X135416666Y-108010897D01*
X135419500Y-108037255D01*
X135419500Y-108732726D01*
X135446793Y-108834589D01*
X135468812Y-108872726D01*
X135499520Y-108925913D01*
X135499522Y-108925915D01*
X136391805Y-109818198D01*
X136425290Y-109879521D01*
X136423390Y-109939813D01*
X136364244Y-110147687D01*
X136344571Y-110359999D01*
X136344571Y-110360000D01*
X136364244Y-110572310D01*
X136417675Y-110760099D01*
X136422596Y-110777392D01*
X136422596Y-110777394D01*
X136517632Y-110968253D01*
X136622331Y-111106895D01*
X136647023Y-111172256D01*
X136639339Y-111208303D01*
X136657954Y-111201361D01*
X136726227Y-111216213D01*
X136750336Y-111233406D01*
X136803698Y-111282052D01*
X136984981Y-111394298D01*
X137183802Y-111471321D01*
X137380613Y-111508111D01*
X137442893Y-111539779D01*
X137478166Y-111600092D01*
X137475232Y-111669900D01*
X137435023Y-111727040D01*
X137380613Y-111751888D01*
X137183802Y-111788679D01*
X137183797Y-111788680D01*
X137094280Y-111823359D01*
X137024657Y-111829221D01*
X136962917Y-111796510D01*
X136961806Y-111795413D01*
X136579119Y-111412726D01*
X136545634Y-111351403D01*
X136549474Y-111297701D01*
X136515051Y-111305342D01*
X136449485Y-111281201D01*
X136435696Y-111269303D01*
X134636819Y-109470426D01*
X134603334Y-109409103D01*
X134600500Y-109382745D01*
X134600500Y-108835784D01*
X134620185Y-108768745D01*
X134636819Y-108748103D01*
X134655619Y-108729303D01*
X134717662Y-108667260D01*
X134757414Y-108598407D01*
X134770389Y-108575934D01*
X134797682Y-108474074D01*
X134797682Y-107945547D01*
X134817367Y-107878508D01*
X134823306Y-107870060D01*
X134825461Y-107867250D01*
X134825464Y-107867249D01*
X134921718Y-107741808D01*
X134925005Y-107733871D01*
X134968845Y-107679467D01*
X135035139Y-107657401D01*
X135102838Y-107674679D01*
G37*
%TD.AperFunction*%
%TA.AperFunction,Conductor*%
G36*
X135468833Y-101765758D02*
G01*
X135524767Y-101807630D01*
X135549184Y-101873094D01*
X135549500Y-101881940D01*
X135549500Y-102982726D01*
X135576793Y-103084589D01*
X135600018Y-103124814D01*
X135629520Y-103175913D01*
X135629522Y-103175915D01*
X136715979Y-104262372D01*
X136749464Y-104323695D01*
X136744480Y-104393387D01*
X136711837Y-104441689D01*
X136646130Y-104501590D01*
X136517632Y-104671746D01*
X136422596Y-104862605D01*
X136422596Y-104862607D01*
X136364244Y-105067689D01*
X136348873Y-105233578D01*
X136344571Y-105280000D01*
X136364244Y-105492310D01*
X136417675Y-105680099D01*
X136422596Y-105697392D01*
X136422596Y-105697394D01*
X136517632Y-105888253D01*
X136646127Y-106058406D01*
X136646128Y-106058407D01*
X136803698Y-106202052D01*
X136984981Y-106314298D01*
X137183802Y-106391321D01*
X137380613Y-106428111D01*
X137442893Y-106459779D01*
X137478166Y-106520092D01*
X137475232Y-106589900D01*
X137435023Y-106647040D01*
X137380613Y-106671888D01*
X137183802Y-106708679D01*
X137183799Y-106708679D01*
X137183799Y-106708680D01*
X136984982Y-106785701D01*
X136984980Y-106785702D01*
X136803699Y-106897947D01*
X136646127Y-107041593D01*
X136528725Y-107197058D01*
X136472616Y-107238694D01*
X136402904Y-107243385D01*
X136342090Y-107210012D01*
X132144260Y-103012181D01*
X132110775Y-102950858D01*
X132115759Y-102881166D01*
X132157631Y-102825233D01*
X132223095Y-102800816D01*
X132231941Y-102800500D01*
X134078844Y-102800500D01*
X134078845Y-102800499D01*
X134233497Y-102769737D01*
X134379179Y-102709394D01*
X134510289Y-102621789D01*
X135337819Y-101794259D01*
X135399142Y-101760774D01*
X135468833Y-101765758D01*
G37*
%TD.AperFunction*%
%TA.AperFunction,Conductor*%
G36*
X131925333Y-94348784D02*
G01*
X135043181Y-97466632D01*
X135076666Y-97527955D01*
X135079500Y-97554313D01*
X135079500Y-98135500D01*
X135059815Y-98202539D01*
X135007011Y-98248294D01*
X134955500Y-98259500D01*
X134921155Y-98259500D01*
X134766510Y-98290261D01*
X134766498Y-98290264D01*
X134620827Y-98350602D01*
X134620814Y-98350609D01*
X134489711Y-98438210D01*
X134489707Y-98438213D01*
X134378213Y-98549707D01*
X134378210Y-98549711D01*
X134290609Y-98680814D01*
X134290602Y-98680827D01*
X134230264Y-98826498D01*
X134230261Y-98826510D01*
X134199500Y-98981153D01*
X134199500Y-100617060D01*
X134179815Y-100684099D01*
X134163181Y-100704741D01*
X133704741Y-101163181D01*
X133643418Y-101196666D01*
X133617060Y-101199500D01*
X132001155Y-101199500D01*
X131846510Y-101230261D01*
X131846498Y-101230264D01*
X131700827Y-101290602D01*
X131700814Y-101290609D01*
X131569711Y-101378210D01*
X131569707Y-101378213D01*
X131458213Y-101489707D01*
X131458210Y-101489711D01*
X131370609Y-101620814D01*
X131370602Y-101620827D01*
X131310264Y-101766498D01*
X131310261Y-101766510D01*
X131279500Y-101921153D01*
X131279500Y-102078846D01*
X131310261Y-102233489D01*
X131310264Y-102233501D01*
X131370602Y-102379172D01*
X131370609Y-102379185D01*
X131390938Y-102409609D01*
X131411816Y-102476287D01*
X131393331Y-102543667D01*
X131341353Y-102590357D01*
X131287836Y-102602500D01*
X130144255Y-102602500D01*
X130077216Y-102582815D01*
X130056574Y-102566181D01*
X128979826Y-101489433D01*
X128946341Y-101428110D01*
X128951325Y-101358418D01*
X128993197Y-101302485D01*
X129058661Y-101278068D01*
X129112301Y-101286126D01*
X129177333Y-101311319D01*
X129223802Y-101329321D01*
X129433390Y-101368500D01*
X129433392Y-101368500D01*
X129646608Y-101368500D01*
X129646610Y-101368500D01*
X129856198Y-101329321D01*
X130055019Y-101252298D01*
X130236302Y-101140052D01*
X130393872Y-100996407D01*
X130522366Y-100826255D01*
X130593151Y-100684099D01*
X130617403Y-100635394D01*
X130617403Y-100635393D01*
X130617405Y-100635389D01*
X130675756Y-100430310D01*
X130695429Y-100218000D01*
X130675756Y-100005690D01*
X130617405Y-99800611D01*
X130616609Y-99797813D01*
X130617195Y-99727946D01*
X130648192Y-99676199D01*
X131595054Y-98729339D01*
X131647781Y-98638014D01*
X131675074Y-98536153D01*
X131675074Y-98430699D01*
X131675074Y-94486741D01*
X131694759Y-94419702D01*
X131700698Y-94411255D01*
X131739276Y-94360979D01*
X131795704Y-94319776D01*
X131865450Y-94315621D01*
X131925333Y-94348784D01*
G37*
%TD.AperFunction*%
%TA.AperFunction,Conductor*%
G36*
X125005703Y-92716657D02*
G01*
X125012181Y-92722689D01*
X127433181Y-95143689D01*
X127466666Y-95205012D01*
X127469500Y-95231370D01*
X127469500Y-101088730D01*
X127449815Y-101155769D01*
X127397011Y-101201524D01*
X127327853Y-101211468D01*
X127264297Y-101182443D01*
X127239383Y-101152880D01*
X127210649Y-101105348D01*
X127094652Y-100989351D01*
X127094648Y-100989348D01*
X126954272Y-100904488D01*
X126954263Y-100904485D01*
X126797664Y-100855687D01*
X126797662Y-100855686D01*
X126797657Y-100855685D01*
X126729594Y-100849500D01*
X125870406Y-100849500D01*
X125802343Y-100855685D01*
X125802339Y-100855686D01*
X125802335Y-100855687D01*
X125645736Y-100904485D01*
X125645727Y-100904488D01*
X125505351Y-100989348D01*
X125505347Y-100989351D01*
X125389351Y-101105347D01*
X125389348Y-101105351D01*
X125304488Y-101245727D01*
X125304485Y-101245736D01*
X125268385Y-101361586D01*
X125229648Y-101419734D01*
X125165622Y-101447708D01*
X125096637Y-101436626D01*
X125044594Y-101390008D01*
X125031615Y-101361586D01*
X124995514Y-101245736D01*
X124995511Y-101245727D01*
X124910651Y-101105351D01*
X124910648Y-101105347D01*
X124836819Y-101031518D01*
X124803334Y-100970195D01*
X124800500Y-100943837D01*
X124800500Y-97274500D01*
X124820185Y-97207461D01*
X124872989Y-97161706D01*
X124924500Y-97150500D01*
X125444957Y-97150500D01*
X125444958Y-97150499D01*
X125512104Y-97142934D01*
X125579249Y-97135369D01*
X125579252Y-97135368D01*
X125579255Y-97135368D01*
X125749522Y-97075789D01*
X125902262Y-96979816D01*
X126029816Y-96852262D01*
X126125789Y-96699522D01*
X126185368Y-96529255D01*
X126190125Y-96487040D01*
X126196535Y-96430146D01*
X126200500Y-96394954D01*
X126200500Y-95305046D01*
X126189229Y-95205012D01*
X126185369Y-95170750D01*
X126185368Y-95170745D01*
X126175901Y-95143689D01*
X126125789Y-95000478D01*
X126029816Y-94847738D01*
X125902262Y-94720184D01*
X125874295Y-94702611D01*
X125749523Y-94624211D01*
X125579254Y-94564631D01*
X125579249Y-94564630D01*
X125444960Y-94549500D01*
X125444954Y-94549500D01*
X124924500Y-94549500D01*
X124857461Y-94529815D01*
X124811706Y-94477011D01*
X124800500Y-94425500D01*
X124800500Y-92810370D01*
X124820185Y-92743331D01*
X124872989Y-92697576D01*
X124942147Y-92687632D01*
X125005703Y-92716657D01*
G37*
%TD.AperFunction*%
%TA.AperFunction,Conductor*%
G36*
X130792726Y-93220185D02*
G01*
X130813368Y-93236819D01*
X130905950Y-93329401D01*
X130939435Y-93390724D01*
X130934451Y-93460416D01*
X130893757Y-93515456D01*
X130846295Y-93551876D01*
X130846293Y-93551877D01*
X130846292Y-93551879D01*
X130844077Y-93554766D01*
X130750037Y-93677321D01*
X130689530Y-93823398D01*
X130689529Y-93823400D01*
X130677745Y-93912915D01*
X130649478Y-93976812D01*
X130591154Y-94015283D01*
X130521289Y-94016114D01*
X130504720Y-94010164D01*
X130459996Y-93990416D01*
X130459991Y-93990415D01*
X130434865Y-93987500D01*
X128645143Y-93987500D01*
X128645117Y-93987502D01*
X128620012Y-93990413D01*
X128620008Y-93990415D01*
X128517235Y-94035793D01*
X128437795Y-94115233D01*
X128408423Y-94181753D01*
X128363336Y-94235128D01*
X128296550Y-94255655D01*
X128229268Y-94236816D01*
X128207308Y-94219346D01*
X127400143Y-93412181D01*
X127366658Y-93350858D01*
X127371642Y-93281166D01*
X127413514Y-93225233D01*
X127478978Y-93200816D01*
X127487824Y-93200500D01*
X130725687Y-93200500D01*
X130792726Y-93220185D01*
G37*
%TD.AperFunction*%
%TA.AperFunction,Conductor*%
G36*
X134518834Y-84175559D02*
G01*
X134574767Y-84217431D01*
X134599184Y-84282895D01*
X134599500Y-84291741D01*
X134599500Y-86782745D01*
X134579815Y-86849784D01*
X134563181Y-86870426D01*
X131870426Y-89563181D01*
X131809103Y-89596666D01*
X131782745Y-89599500D01*
X130768812Y-89599500D01*
X130701773Y-89579815D01*
X130656018Y-89527011D01*
X130645873Y-89459314D01*
X130648208Y-89441582D01*
X130653682Y-89400000D01*
X130633044Y-89243238D01*
X130572536Y-89097159D01*
X130476282Y-88971718D01*
X130350841Y-88875464D01*
X130204762Y-88814956D01*
X130204760Y-88814955D01*
X130048001Y-88794318D01*
X130047999Y-88794318D01*
X129891239Y-88814955D01*
X129891238Y-88814956D01*
X129871951Y-88822945D01*
X129802482Y-88830412D01*
X129740003Y-88799137D01*
X129704351Y-88739047D01*
X129700500Y-88708383D01*
X129700500Y-87464369D01*
X129700500Y-87464364D01*
X129689866Y-87391375D01*
X129663099Y-87336621D01*
X129650500Y-87282162D01*
X129650500Y-87270753D01*
X129670185Y-87203714D01*
X129722989Y-87157959D01*
X129792147Y-87148015D01*
X129828955Y-87159351D01*
X129891375Y-87189866D01*
X129964364Y-87200500D01*
X130495245Y-87200500D01*
X130562284Y-87220185D01*
X130582926Y-87236819D01*
X130592019Y-87245912D01*
X130592020Y-87245913D01*
X130666587Y-87320480D01*
X130757913Y-87373207D01*
X130859773Y-87400500D01*
X131493420Y-87400500D01*
X131560459Y-87420185D01*
X131568907Y-87426124D01*
X131571716Y-87428279D01*
X131571718Y-87428282D01*
X131697159Y-87524536D01*
X131843238Y-87585044D01*
X131903450Y-87592971D01*
X131999999Y-87605682D01*
X132000000Y-87605682D01*
X132000001Y-87605682D01*
X132052254Y-87598802D01*
X132156762Y-87585044D01*
X132302841Y-87524536D01*
X132428282Y-87428282D01*
X132524536Y-87302841D01*
X132585044Y-87156762D01*
X132605682Y-87000000D01*
X132605598Y-86999364D01*
X132585044Y-86843239D01*
X132585044Y-86843238D01*
X132524536Y-86697159D01*
X132428282Y-86571718D01*
X132302841Y-86475464D01*
X132156762Y-86414956D01*
X132156760Y-86414955D01*
X132023707Y-86397439D01*
X131959810Y-86369173D01*
X131921339Y-86310848D01*
X131920508Y-86240983D01*
X131957580Y-86181760D01*
X132020786Y-86151981D01*
X132039892Y-86150500D01*
X132328211Y-86150500D01*
X132328213Y-86150500D01*
X132430074Y-86123207D01*
X132521399Y-86070480D01*
X134387819Y-84204060D01*
X134449142Y-84170575D01*
X134518834Y-84175559D01*
G37*
%TD.AperFunction*%
%TA.AperFunction,Conductor*%
G36*
X128792539Y-85420185D02*
G01*
X128838294Y-85472989D01*
X128849500Y-85524500D01*
X128849500Y-87194100D01*
X128829815Y-87261139D01*
X128777011Y-87306894D01*
X128707853Y-87316838D01*
X128644297Y-87287813D01*
X128637819Y-87281781D01*
X128636319Y-87280281D01*
X128620542Y-87251389D01*
X128554665Y-87197324D01*
X128555696Y-87196067D01*
X128554970Y-87195591D01*
X128554575Y-87196145D01*
X128546210Y-87190172D01*
X128433628Y-87135135D01*
X128433626Y-87135134D01*
X128433625Y-87135134D01*
X128360636Y-87124500D01*
X128139364Y-87124500D01*
X128076802Y-87133614D01*
X128066374Y-87135134D01*
X128058699Y-87138886D01*
X128054457Y-87140960D01*
X127985584Y-87152717D01*
X127945543Y-87140960D01*
X127933625Y-87135134D01*
X127860636Y-87124500D01*
X127639364Y-87124500D01*
X127576802Y-87133614D01*
X127566374Y-87135134D01*
X127558699Y-87138886D01*
X127554457Y-87140960D01*
X127485584Y-87152717D01*
X127445543Y-87140960D01*
X127433625Y-87135134D01*
X127360636Y-87124500D01*
X127139364Y-87124500D01*
X127076802Y-87133614D01*
X127066374Y-87135134D01*
X127058699Y-87138886D01*
X127054457Y-87140960D01*
X126985584Y-87152717D01*
X126945543Y-87140960D01*
X126933625Y-87135134D01*
X126860636Y-87124500D01*
X126639364Y-87124500D01*
X126576802Y-87133614D01*
X126566374Y-87135134D01*
X126558699Y-87138886D01*
X126554457Y-87140960D01*
X126485584Y-87152717D01*
X126445543Y-87140960D01*
X126433625Y-87135134D01*
X126360636Y-87124500D01*
X126139364Y-87124500D01*
X126076802Y-87133614D01*
X126066374Y-87135134D01*
X126058699Y-87138886D01*
X126054457Y-87140960D01*
X125985584Y-87152717D01*
X125945543Y-87140960D01*
X125933625Y-87135134D01*
X125860636Y-87124500D01*
X125741255Y-87124500D01*
X125674216Y-87104815D01*
X125628461Y-87052011D01*
X125618517Y-86982853D01*
X125647542Y-86919297D01*
X125653574Y-86912819D01*
X127129573Y-85436819D01*
X127190896Y-85403334D01*
X127217254Y-85400500D01*
X128725500Y-85400500D01*
X128792539Y-85420185D01*
G37*
%TD.AperFunction*%
%TA.AperFunction,Conductor*%
G36*
X128183590Y-84170185D02*
G01*
X128192037Y-84176124D01*
X128313157Y-84269063D01*
X128313158Y-84269063D01*
X128313159Y-84269064D01*
X128459238Y-84329572D01*
X128486682Y-84333185D01*
X128615999Y-84350210D01*
X128616000Y-84350210D01*
X128745316Y-84333185D01*
X128814350Y-84343950D01*
X128866606Y-84390330D01*
X128885500Y-84456124D01*
X128885500Y-84475500D01*
X128865815Y-84542539D01*
X128813011Y-84588294D01*
X128761500Y-84599500D01*
X127060339Y-84599500D01*
X127060323Y-84599499D01*
X127052727Y-84599499D01*
X126947273Y-84599499D01*
X126858796Y-84623207D01*
X126858795Y-84623206D01*
X126845414Y-84626792D01*
X126845410Y-84626794D01*
X126754085Y-84679521D01*
X125120426Y-86313181D01*
X125059103Y-86346666D01*
X125032745Y-86349500D01*
X123318867Y-86349500D01*
X123256866Y-86332886D01*
X123254268Y-86331386D01*
X123206053Y-86280819D01*
X123192831Y-86212211D01*
X123218799Y-86147347D01*
X123237608Y-86133952D01*
X123302676Y-86054659D01*
X123303950Y-86055704D01*
X123304425Y-86054978D01*
X123303856Y-86054572D01*
X123309821Y-86046215D01*
X123309826Y-86046211D01*
X123364866Y-85933625D01*
X123375500Y-85860636D01*
X123375500Y-85639364D01*
X123364866Y-85566375D01*
X123359041Y-85554460D01*
X123347281Y-85485592D01*
X123359040Y-85445541D01*
X123364866Y-85433625D01*
X123375500Y-85360636D01*
X123375500Y-85139364D01*
X123364866Y-85066375D01*
X123353772Y-85043681D01*
X123309827Y-84953789D01*
X123303855Y-84945425D01*
X123305176Y-84944481D01*
X123304727Y-84943658D01*
X123302676Y-84945342D01*
X123252160Y-84883779D01*
X123240361Y-84880315D01*
X123224368Y-84867428D01*
X123221213Y-84865175D01*
X123213493Y-84861401D01*
X123161910Y-84814274D01*
X123143995Y-84746741D01*
X123165435Y-84680242D01*
X123213493Y-84638599D01*
X123221211Y-84634826D01*
X123221213Y-84634824D01*
X123229575Y-84628855D01*
X123230644Y-84630353D01*
X123248614Y-84620540D01*
X123302676Y-84554659D01*
X123303950Y-84555704D01*
X123304425Y-84554978D01*
X123303856Y-84554572D01*
X123309821Y-84546215D01*
X123309826Y-84546211D01*
X123364866Y-84433625D01*
X123375500Y-84360636D01*
X123375500Y-84274500D01*
X123395185Y-84207461D01*
X123447989Y-84161706D01*
X123499500Y-84150500D01*
X128116551Y-84150500D01*
X128183590Y-84170185D01*
G37*
%TD.AperFunction*%
%TA.AperFunction,Conductor*%
G36*
X123496631Y-80830770D02*
G01*
X123566372Y-80864865D01*
X123566373Y-80864865D01*
X123566375Y-80864866D01*
X123639364Y-80875500D01*
X123639370Y-80875500D01*
X123860630Y-80875500D01*
X123860636Y-80875500D01*
X123933625Y-80864866D01*
X123945539Y-80859041D01*
X124014408Y-80847281D01*
X124054458Y-80859040D01*
X124066375Y-80864866D01*
X124139364Y-80875500D01*
X124139370Y-80875500D01*
X124360630Y-80875500D01*
X124360636Y-80875500D01*
X124433625Y-80864866D01*
X124445539Y-80859041D01*
X124514408Y-80847281D01*
X124554458Y-80859040D01*
X124566375Y-80864866D01*
X124639364Y-80875500D01*
X124639370Y-80875500D01*
X124860629Y-80875500D01*
X124860636Y-80875500D01*
X124878551Y-80872889D01*
X124947723Y-80882700D01*
X124984109Y-80907912D01*
X126548148Y-82471951D01*
X126639473Y-82524678D01*
X126741334Y-82551971D01*
X127654216Y-82551971D01*
X127721255Y-82571656D01*
X127741897Y-82588290D01*
X128247376Y-83093769D01*
X128280861Y-83155092D01*
X128275877Y-83224784D01*
X128235182Y-83279825D01*
X128181271Y-83321193D01*
X128179747Y-83319207D01*
X128129460Y-83346666D01*
X128103102Y-83349500D01*
X123499500Y-83349500D01*
X123432461Y-83329815D01*
X123386706Y-83277011D01*
X123375500Y-83225500D01*
X123375500Y-83139369D01*
X123375500Y-83139364D01*
X123364866Y-83066375D01*
X123359041Y-83054460D01*
X123347281Y-82985592D01*
X123359040Y-82945541D01*
X123364866Y-82933625D01*
X123375500Y-82860636D01*
X123375500Y-82639364D01*
X123364866Y-82566375D01*
X123359041Y-82554460D01*
X123347281Y-82485592D01*
X123359040Y-82445541D01*
X123364866Y-82433625D01*
X123375500Y-82360636D01*
X123375500Y-82139364D01*
X123364866Y-82066375D01*
X123359041Y-82054460D01*
X123347281Y-81985592D01*
X123359040Y-81945541D01*
X123364866Y-81933625D01*
X123375500Y-81860636D01*
X123375500Y-81639364D01*
X123364866Y-81566375D01*
X123359041Y-81554460D01*
X123347281Y-81485592D01*
X123359040Y-81445541D01*
X123364866Y-81433625D01*
X123375500Y-81360636D01*
X123375500Y-81139364D01*
X123364866Y-81066375D01*
X123364864Y-81066371D01*
X123330770Y-80996631D01*
X123319010Y-80927758D01*
X123346353Y-80863461D01*
X123404117Y-80824153D01*
X123473963Y-80822315D01*
X123496631Y-80830770D01*
G37*
%TD.AperFunction*%
%TA.AperFunction,Conductor*%
G36*
X129225677Y-81650501D02*
G01*
X129233273Y-81650501D01*
X129346323Y-81650501D01*
X129346339Y-81650500D01*
X129447273Y-81650500D01*
X129694100Y-81650500D01*
X129761139Y-81670185D01*
X129806894Y-81722989D01*
X129816838Y-81792147D01*
X129787813Y-81855703D01*
X129781781Y-81862181D01*
X129780281Y-81863681D01*
X129751388Y-81879457D01*
X129697324Y-81945336D01*
X129696065Y-81944303D01*
X129695587Y-81945032D01*
X129696143Y-81945429D01*
X129690171Y-81953792D01*
X129635135Y-82066371D01*
X129635134Y-82066373D01*
X129635134Y-82066375D01*
X129624500Y-82139364D01*
X129624500Y-82360636D01*
X129635134Y-82433625D01*
X129640960Y-82445542D01*
X129652717Y-82514416D01*
X129640960Y-82554456D01*
X129635134Y-82566375D01*
X129624500Y-82639364D01*
X129624500Y-82860636D01*
X129635134Y-82933625D01*
X129635134Y-82933626D01*
X129635135Y-82933628D01*
X129690172Y-83046210D01*
X129696145Y-83054575D01*
X129694922Y-83055447D01*
X129723010Y-83106886D01*
X129725247Y-83145402D01*
X129724633Y-83151634D01*
X129698470Y-83216420D01*
X129641434Y-83256778D01*
X129571634Y-83259892D01*
X129513549Y-83227157D01*
X129019607Y-82733215D01*
X128589806Y-82303413D01*
X128556323Y-82242093D01*
X128561307Y-82172401D01*
X128589806Y-82128056D01*
X129031044Y-81686819D01*
X129092367Y-81653334D01*
X129118725Y-81650500D01*
X129225661Y-81650500D01*
X129225677Y-81650501D01*
G37*
%TD.AperFunction*%
%TA.AperFunction,Conductor*%
G36*
X132018834Y-76190868D02*
G01*
X132074767Y-76232740D01*
X132099184Y-76298204D01*
X132099500Y-76307050D01*
X132099500Y-81279187D01*
X132079815Y-81346226D01*
X132027011Y-81391981D01*
X131959316Y-81402126D01*
X131900003Y-81394318D01*
X131899997Y-81394318D01*
X131840684Y-81402126D01*
X131771649Y-81391360D01*
X131719393Y-81344979D01*
X131700500Y-81279187D01*
X131700500Y-81139369D01*
X131700500Y-81139364D01*
X131689866Y-81066375D01*
X131680371Y-81046953D01*
X131634827Y-80953789D01*
X131628855Y-80945425D01*
X131631996Y-80943181D01*
X131607866Y-80898990D01*
X131609258Y-80840537D01*
X131614500Y-80820975D01*
X131614500Y-80741221D01*
X131634185Y-80674182D01*
X131663573Y-80642418D01*
X131689078Y-80623078D01*
X131776364Y-80507975D01*
X131829359Y-80373590D01*
X131839500Y-80289144D01*
X131839500Y-79756856D01*
X131829359Y-79672410D01*
X131776364Y-79538025D01*
X131776363Y-79538024D01*
X131776363Y-79538023D01*
X131689078Y-79422921D01*
X131573976Y-79335636D01*
X131541737Y-79322923D01*
X131505637Y-79308687D01*
X131450495Y-79265782D01*
X131427302Y-79199874D01*
X131443422Y-79131889D01*
X131493739Y-79083413D01*
X131494835Y-79082848D01*
X131566921Y-79046118D01*
X131566928Y-79046113D01*
X131662113Y-78950928D01*
X131662116Y-78950923D01*
X131723239Y-78830966D01*
X131739000Y-78731456D01*
X131739000Y-78723000D01*
X130389001Y-78723000D01*
X130389001Y-78731449D01*
X130404762Y-78830967D01*
X130465883Y-78950923D01*
X130465886Y-78950928D01*
X130561071Y-79046113D01*
X130561076Y-79046116D01*
X130633164Y-79082848D01*
X130683960Y-79130823D01*
X130700755Y-79198644D01*
X130678217Y-79264779D01*
X130623502Y-79308230D01*
X130622360Y-79308687D01*
X130554025Y-79335635D01*
X130438921Y-79422921D01*
X130351636Y-79538023D01*
X130298640Y-79672411D01*
X130293065Y-79718841D01*
X130288500Y-79756856D01*
X130288500Y-80289144D01*
X130293825Y-80333494D01*
X130298640Y-80373588D01*
X130351636Y-80507976D01*
X130361503Y-80520987D01*
X130386326Y-80586298D01*
X130371898Y-80654662D01*
X130350381Y-80683592D01*
X130270795Y-80763180D01*
X130209473Y-80796666D01*
X130183113Y-80799500D01*
X129964364Y-80799500D01*
X129915704Y-80806589D01*
X129891372Y-80810134D01*
X129836624Y-80836900D01*
X129782163Y-80849500D01*
X129774500Y-80849500D01*
X129707461Y-80829815D01*
X129661706Y-80777011D01*
X129650500Y-80725500D01*
X129650500Y-80717836D01*
X129663100Y-80663375D01*
X129665086Y-80659314D01*
X129689866Y-80608625D01*
X129700500Y-80535636D01*
X129700500Y-79139364D01*
X129689866Y-79066375D01*
X129662568Y-79010536D01*
X129634827Y-78953789D01*
X129546212Y-78865174D01*
X129497922Y-78841566D01*
X129446340Y-78794438D01*
X129428426Y-78726903D01*
X129449868Y-78660405D01*
X129464697Y-78642490D01*
X129892644Y-78214543D01*
X130389000Y-78214543D01*
X130389000Y-78223000D01*
X130814000Y-78223000D01*
X131314000Y-78223000D01*
X131738999Y-78223000D01*
X131738999Y-78214550D01*
X131723237Y-78115032D01*
X131662116Y-77995076D01*
X131662113Y-77995071D01*
X131566928Y-77899886D01*
X131566923Y-77899883D01*
X131446965Y-77838760D01*
X131446966Y-77838760D01*
X131347456Y-77823000D01*
X131314000Y-77823000D01*
X131314000Y-78223000D01*
X130814000Y-78223000D01*
X130814000Y-77822999D01*
X130780555Y-77823000D01*
X130681032Y-77838762D01*
X130561076Y-77899883D01*
X130561071Y-77899886D01*
X130465886Y-77995071D01*
X130465883Y-77995076D01*
X130404760Y-78115033D01*
X130389000Y-78214543D01*
X129892644Y-78214543D01*
X131887819Y-76219369D01*
X131949142Y-76185884D01*
X132018834Y-76190868D01*
G37*
%TD.AperFunction*%
%TA.AperFunction,Conductor*%
G36*
X122682000Y-75789682D02*
G01*
X122682001Y-75789681D01*
X122685513Y-75790144D01*
X122749409Y-75818410D01*
X122757009Y-75825402D01*
X124901519Y-77969912D01*
X124901520Y-77969913D01*
X124976087Y-78044480D01*
X125067413Y-78097207D01*
X125169273Y-78124500D01*
X125512745Y-78124500D01*
X125579784Y-78144185D01*
X125600426Y-78160819D01*
X125813181Y-78373574D01*
X125846666Y-78434897D01*
X125849500Y-78461255D01*
X125849500Y-78842180D01*
X125829815Y-78909219D01*
X125777011Y-78954974D01*
X125707853Y-78964918D01*
X125644297Y-78935893D01*
X125618113Y-78904180D01*
X125595593Y-78865174D01*
X125570480Y-78821677D01*
X125495913Y-78747110D01*
X125228323Y-78479520D01*
X125167816Y-78444586D01*
X125136999Y-78426793D01*
X125073925Y-78409893D01*
X125035137Y-78399500D01*
X123245727Y-78399500D01*
X123140273Y-78399500D01*
X123038410Y-78426793D01*
X122947087Y-78479520D01*
X122947084Y-78479522D01*
X122698041Y-78728565D01*
X122636718Y-78762050D01*
X122567026Y-78757066D01*
X122511093Y-78715194D01*
X122486676Y-78649730D01*
X122487420Y-78624709D01*
X122505682Y-78486000D01*
X122485044Y-78329238D01*
X122479937Y-78316910D01*
X122470500Y-78269461D01*
X122470500Y-75903232D01*
X122490185Y-75836193D01*
X122542989Y-75790438D01*
X122610684Y-75780293D01*
X122682000Y-75789682D01*
G37*
%TD.AperFunction*%
%TA.AperFunction,Conductor*%
G36*
X136738726Y-53406185D02*
G01*
X136784481Y-53458989D01*
X136794425Y-53528147D01*
X136765400Y-53591703D01*
X136755225Y-53602137D01*
X136646129Y-53701590D01*
X136517632Y-53871746D01*
X136422596Y-54062605D01*
X136422596Y-54062607D01*
X136364244Y-54267689D01*
X136344571Y-54479999D01*
X136344571Y-54480000D01*
X136364244Y-54692310D01*
X136423390Y-54900184D01*
X136422804Y-54970052D01*
X136391805Y-55021800D01*
X135773681Y-55639925D01*
X135712358Y-55673410D01*
X135642667Y-55668426D01*
X135586733Y-55626555D01*
X135562316Y-55561090D01*
X135562000Y-55552244D01*
X135562000Y-55331636D01*
X135561999Y-55331622D01*
X135547521Y-55221658D01*
X135547521Y-55221657D01*
X135490843Y-55084824D01*
X135400679Y-54967320D01*
X135283175Y-54877156D01*
X135146341Y-54820478D01*
X135036377Y-54806000D01*
X134887000Y-54806000D01*
X134887000Y-57206000D01*
X134968245Y-57206000D01*
X135035284Y-57225685D01*
X135081039Y-57278489D01*
X135090983Y-57347647D01*
X135061958Y-57411203D01*
X135055926Y-57417681D01*
X133169180Y-59304426D01*
X133107857Y-59337911D01*
X133038165Y-59332927D01*
X132982232Y-59291055D01*
X132957815Y-59225591D01*
X132957499Y-59216769D01*
X132957499Y-57811136D01*
X132956023Y-57798406D01*
X132954586Y-57786012D01*
X132954585Y-57786010D01*
X132954585Y-57786009D01*
X132909206Y-57683235D01*
X132829765Y-57603794D01*
X132829763Y-57603793D01*
X132726992Y-57558415D01*
X132701865Y-57555500D01*
X131812143Y-57555500D01*
X131812117Y-57555502D01*
X131787014Y-57558413D01*
X131787010Y-57558414D01*
X131757083Y-57571628D01*
X131687804Y-57580697D01*
X131656915Y-57571627D01*
X131626992Y-57558415D01*
X131601865Y-57555500D01*
X130712143Y-57555500D01*
X130712117Y-57555502D01*
X130687012Y-57558413D01*
X130687008Y-57558415D01*
X130584234Y-57603793D01*
X130584232Y-57603795D01*
X130568347Y-57619681D01*
X130507024Y-57653166D01*
X130480666Y-57656000D01*
X130307000Y-57656000D01*
X130307000Y-59556000D01*
X130480667Y-59556000D01*
X130547706Y-59575685D01*
X130568348Y-59592319D01*
X130584236Y-59608207D01*
X130591246Y-59613009D01*
X130635429Y-59667135D01*
X130643335Y-59736556D01*
X130619545Y-59790794D01*
X130539464Y-59895157D01*
X130478956Y-60041237D01*
X130478955Y-60041239D01*
X130458318Y-60197998D01*
X130458318Y-60198001D01*
X130478955Y-60354760D01*
X130478956Y-60354762D01*
X130537109Y-60495157D01*
X130539464Y-60500841D01*
X130635718Y-60626282D01*
X130761159Y-60722536D01*
X130907238Y-60783044D01*
X130960834Y-60790100D01*
X131063999Y-60803682D01*
X131064000Y-60803682D01*
X131064001Y-60803682D01*
X131116254Y-60796802D01*
X131220762Y-60783044D01*
X131366841Y-60722536D01*
X131492282Y-60626282D01*
X131588536Y-60500841D01*
X131649044Y-60354762D01*
X131669682Y-60198000D01*
X131662858Y-60146170D01*
X131651514Y-60060000D01*
X131649044Y-60041238D01*
X131588536Y-59895159D01*
X131588535Y-59895158D01*
X131588535Y-59895157D01*
X131554331Y-59850582D01*
X131529136Y-59785413D01*
X131543174Y-59716968D01*
X131591988Y-59666978D01*
X131620160Y-59655442D01*
X131626978Y-59653586D01*
X131626991Y-59653585D01*
X131656913Y-59640372D01*
X131726190Y-59631301D01*
X131757086Y-59640373D01*
X131787007Y-59653584D01*
X131787009Y-59653585D01*
X131812135Y-59656500D01*
X132517745Y-59656499D01*
X132584784Y-59676183D01*
X132630539Y-59728987D01*
X132640483Y-59798146D01*
X132611458Y-59861702D01*
X132605426Y-59868180D01*
X132179522Y-60294084D01*
X132179520Y-60294087D01*
X132126793Y-60385410D01*
X132120535Y-60408768D01*
X132102272Y-60476927D01*
X132100899Y-60482052D01*
X132099500Y-60487273D01*
X132099500Y-70464745D01*
X132079815Y-70531784D01*
X132027011Y-70577539D01*
X131957853Y-70587483D01*
X131894297Y-70558458D01*
X131887819Y-70552426D01*
X131101818Y-69766425D01*
X131068333Y-69705102D01*
X131065499Y-69678744D01*
X131065499Y-69273129D01*
X131065498Y-69273123D01*
X131062839Y-69248389D01*
X131059091Y-69213517D01*
X131057594Y-69209504D01*
X131008797Y-69078671D01*
X131008793Y-69078664D01*
X130922547Y-68963455D01*
X130922544Y-68963452D01*
X130807335Y-68877206D01*
X130807328Y-68877202D01*
X130672486Y-68826910D01*
X130672485Y-68826909D01*
X130672483Y-68826909D01*
X130612873Y-68820500D01*
X130612863Y-68820500D01*
X130117129Y-68820500D01*
X130117123Y-68820501D01*
X130057516Y-68826908D01*
X129922671Y-68877202D01*
X129922664Y-68877206D01*
X129807455Y-68963452D01*
X129807452Y-68963455D01*
X129721206Y-69078664D01*
X129721202Y-69078671D01*
X129670910Y-69213513D01*
X129670909Y-69213517D01*
X129664500Y-69273127D01*
X129664500Y-69273134D01*
X129664500Y-69273135D01*
X129664500Y-69918870D01*
X129664501Y-69918876D01*
X129670908Y-69978483D01*
X129721202Y-70113328D01*
X129721206Y-70113335D01*
X129807452Y-70228544D01*
X129807455Y-70228547D01*
X129922664Y-70314793D01*
X129922671Y-70314797D01*
X129940643Y-70321500D01*
X130057517Y-70365091D01*
X130117127Y-70371500D01*
X130522744Y-70371499D01*
X130589783Y-70391183D01*
X130610425Y-70407818D01*
X130693507Y-70490900D01*
X130726992Y-70552223D01*
X130722008Y-70621915D01*
X130680136Y-70677848D01*
X130614672Y-70702265D01*
X130586431Y-70701055D01*
X130573454Y-70699000D01*
X130565000Y-70699000D01*
X130565000Y-71124000D01*
X130964999Y-71124000D01*
X130964999Y-71090544D01*
X130962944Y-71077569D01*
X130971899Y-71008276D01*
X131016896Y-70954824D01*
X131083647Y-70934185D01*
X131150961Y-70952910D01*
X131173098Y-70970491D01*
X131563181Y-71360574D01*
X131596666Y-71421897D01*
X131599500Y-71448255D01*
X131599500Y-75323540D01*
X131579815Y-75390579D01*
X131563181Y-75411221D01*
X128429522Y-78544879D01*
X128429520Y-78544882D01*
X128376793Y-78636205D01*
X128371518Y-78655892D01*
X128368518Y-78667090D01*
X128368518Y-78667091D01*
X128368517Y-78667090D01*
X128359430Y-78701007D01*
X128357757Y-78707254D01*
X128357666Y-78707592D01*
X128321302Y-78767253D01*
X128258456Y-78797783D01*
X128237891Y-78799500D01*
X128139364Y-78799500D01*
X128076802Y-78808614D01*
X128066374Y-78810134D01*
X128058699Y-78813886D01*
X128054457Y-78815960D01*
X127985584Y-78827717D01*
X127945543Y-78815960D01*
X127933625Y-78810134D01*
X127860636Y-78799500D01*
X127860630Y-78799500D01*
X127774500Y-78799500D01*
X127707461Y-78779815D01*
X127661706Y-78727011D01*
X127650500Y-78675500D01*
X127650500Y-77347254D01*
X127670185Y-77280215D01*
X127686814Y-77259578D01*
X128989745Y-75956646D01*
X129051066Y-75923163D01*
X129113418Y-75925668D01*
X129221254Y-75958380D01*
X129244063Y-75965299D01*
X129244065Y-75965300D01*
X129262529Y-75967118D01*
X129450000Y-75985583D01*
X129655934Y-75965300D01*
X129853954Y-75905232D01*
X130036450Y-75807685D01*
X130196410Y-75676410D01*
X130327685Y-75516450D01*
X130425232Y-75333954D01*
X130485300Y-75135934D01*
X130505583Y-74930000D01*
X130485300Y-74724066D01*
X130425232Y-74526046D01*
X130327685Y-74343550D01*
X130221224Y-74213826D01*
X130196410Y-74183589D01*
X130036452Y-74052317D01*
X130036453Y-74052317D01*
X130036450Y-74052315D01*
X129853954Y-73954768D01*
X129655934Y-73894700D01*
X129655932Y-73894699D01*
X129655934Y-73894699D01*
X129466153Y-73876008D01*
X129450000Y-73874417D01*
X129449999Y-73874417D01*
X129301653Y-73889027D01*
X129233007Y-73876008D01*
X129182297Y-73827943D01*
X129165500Y-73765624D01*
X129165500Y-72204070D01*
X129185185Y-72137031D01*
X129237989Y-72091276D01*
X129243973Y-72088730D01*
X129249975Y-72086364D01*
X129365078Y-71999078D01*
X129452364Y-71883975D01*
X129479313Y-71815637D01*
X129522216Y-71760496D01*
X129588124Y-71737302D01*
X129656108Y-71753422D01*
X129704585Y-71803738D01*
X129705151Y-71804834D01*
X129741883Y-71876923D01*
X129741886Y-71876928D01*
X129837071Y-71972113D01*
X129837076Y-71972116D01*
X129957034Y-72033239D01*
X130056543Y-72048999D01*
X130056554Y-72049000D01*
X130064999Y-72048999D01*
X130565000Y-72048999D01*
X130573449Y-72048999D01*
X130672967Y-72033237D01*
X130792923Y-71972116D01*
X130792928Y-71972113D01*
X130888113Y-71876928D01*
X130888116Y-71876923D01*
X130949239Y-71756966D01*
X130965000Y-71657456D01*
X130965000Y-71624000D01*
X130565000Y-71624000D01*
X130565000Y-72048999D01*
X130064999Y-72048999D01*
X130065000Y-72048998D01*
X130065000Y-70699000D01*
X130064999Y-70699000D01*
X130056553Y-70699001D01*
X130056547Y-70699001D01*
X129957032Y-70714762D01*
X129837076Y-70775883D01*
X129837071Y-70775886D01*
X129741886Y-70871071D01*
X129741881Y-70871079D01*
X129705150Y-70943165D01*
X129657175Y-70993961D01*
X129589354Y-71010755D01*
X129523219Y-70988217D01*
X129479768Y-70933501D01*
X129479355Y-70932471D01*
X129452364Y-70864025D01*
X129452363Y-70864024D01*
X129452363Y-70864023D01*
X129365078Y-70748921D01*
X129249976Y-70661636D01*
X129149250Y-70621915D01*
X129115590Y-70608641D01*
X129115588Y-70608640D01*
X129115584Y-70608639D01*
X129058131Y-70601740D01*
X128993916Y-70574203D01*
X128954784Y-70516321D01*
X128953157Y-70446470D01*
X128989552Y-70386828D01*
X129029580Y-70362443D01*
X129157331Y-70314796D01*
X129272546Y-70228546D01*
X129358796Y-70113331D01*
X129409091Y-69978483D01*
X129415500Y-69918873D01*
X129415499Y-69273128D01*
X129409091Y-69213517D01*
X129407594Y-69209504D01*
X129358797Y-69078671D01*
X129358793Y-69078664D01*
X129272547Y-68963455D01*
X129272544Y-68963452D01*
X129157335Y-68877206D01*
X129157328Y-68877202D01*
X129022486Y-68826910D01*
X129022485Y-68826909D01*
X129022483Y-68826909D01*
X128962873Y-68820500D01*
X128962863Y-68820500D01*
X128467129Y-68820500D01*
X128467123Y-68820501D01*
X128407516Y-68826908D01*
X128272671Y-68877202D01*
X128272664Y-68877206D01*
X128157455Y-68963452D01*
X128157454Y-68963453D01*
X128144724Y-68980458D01*
X128088788Y-69022327D01*
X128019096Y-69027308D01*
X127957775Y-68993820D01*
X127930107Y-68951635D01*
X127903291Y-68883636D01*
X127898111Y-68870499D01*
X127807711Y-68751288D01*
X127688499Y-68660888D01*
X127688497Y-68660887D01*
X127549322Y-68606003D01*
X127536826Y-68604502D01*
X127461860Y-68595500D01*
X126889140Y-68595500D01*
X126823544Y-68603377D01*
X126801677Y-68606003D01*
X126662502Y-68660887D01*
X126662500Y-68660888D01*
X126543288Y-68751288D01*
X126452888Y-68870500D01*
X126452887Y-68870502D01*
X126398003Y-69009677D01*
X126398003Y-69009679D01*
X126387500Y-69097140D01*
X126387500Y-70094860D01*
X126395566Y-70162029D01*
X126398003Y-70182322D01*
X126452887Y-70321497D01*
X126452888Y-70321499D01*
X126518346Y-70407818D01*
X126543289Y-70440711D01*
X126590084Y-70476196D01*
X126631607Y-70532387D01*
X126636160Y-70602108D01*
X126602296Y-70663223D01*
X126540766Y-70696327D01*
X126515165Y-70699000D01*
X126500552Y-70699000D01*
X126401032Y-70714762D01*
X126281076Y-70775883D01*
X126281071Y-70775886D01*
X126185886Y-70871071D01*
X126185881Y-70871079D01*
X126149150Y-70943165D01*
X126101175Y-70993961D01*
X126033354Y-71010755D01*
X125967219Y-70988217D01*
X125923768Y-70933501D01*
X125923355Y-70932471D01*
X125896364Y-70864025D01*
X125896363Y-70864024D01*
X125896363Y-70864023D01*
X125829523Y-70775883D01*
X125809078Y-70748922D01*
X125809077Y-70748921D01*
X125796665Y-70739508D01*
X125755142Y-70683316D01*
X125750591Y-70613594D01*
X125784456Y-70552481D01*
X125810821Y-70532617D01*
X125813497Y-70531112D01*
X125813500Y-70531111D01*
X125932711Y-70440711D01*
X126023111Y-70321500D01*
X126077997Y-70182321D01*
X126088500Y-70094860D01*
X126088500Y-69097140D01*
X126077997Y-69009679D01*
X126028291Y-68883636D01*
X126023112Y-68870502D01*
X126023111Y-68870500D01*
X125990054Y-68826908D01*
X125932711Y-68751289D01*
X125900072Y-68726538D01*
X125858551Y-68670346D01*
X125851000Y-68627736D01*
X125851000Y-67002886D01*
X125870685Y-66935847D01*
X125887319Y-66915205D01*
X127040294Y-65762230D01*
X128202510Y-64600014D01*
X128274984Y-64474485D01*
X128312500Y-64334474D01*
X128312500Y-64189526D01*
X128312500Y-61384715D01*
X128332185Y-61317676D01*
X128384989Y-61271921D01*
X128454147Y-61261977D01*
X128511984Y-61286338D01*
X128559159Y-61322536D01*
X128705238Y-61383044D01*
X128717931Y-61384715D01*
X128861999Y-61403682D01*
X128862000Y-61403682D01*
X128862001Y-61403682D01*
X128914254Y-61396802D01*
X129018762Y-61383044D01*
X129164841Y-61322536D01*
X129290282Y-61226282D01*
X129386536Y-61100841D01*
X129447044Y-60954762D01*
X129467682Y-60798000D01*
X129456162Y-60710500D01*
X129447044Y-60641239D01*
X129447044Y-60641238D01*
X129386536Y-60495159D01*
X129386535Y-60495158D01*
X129386535Y-60495157D01*
X129288124Y-60366905D01*
X129262930Y-60301736D01*
X129262500Y-60291419D01*
X129262500Y-59780499D01*
X129282185Y-59713460D01*
X129334989Y-59667705D01*
X129386500Y-59656499D01*
X129401856Y-59656499D01*
X129401864Y-59656499D01*
X129401879Y-59656497D01*
X129401882Y-59656497D01*
X129426986Y-59653586D01*
X129426987Y-59653585D01*
X129426991Y-59653585D01*
X129529765Y-59608206D01*
X129529767Y-59608204D01*
X129545653Y-59592319D01*
X129606976Y-59558834D01*
X129633334Y-59556000D01*
X129807000Y-59556000D01*
X129807000Y-57656000D01*
X129633333Y-57656000D01*
X129566294Y-57636315D01*
X129545652Y-57619681D01*
X129529765Y-57603794D01*
X129426992Y-57558415D01*
X129401865Y-57555500D01*
X128512143Y-57555500D01*
X128512117Y-57555502D01*
X128487014Y-57558413D01*
X128487010Y-57558414D01*
X128457083Y-57571628D01*
X128387804Y-57580697D01*
X128356915Y-57571627D01*
X128326992Y-57558415D01*
X128301865Y-57555500D01*
X127412143Y-57555500D01*
X127412117Y-57555502D01*
X127387014Y-57558413D01*
X127387010Y-57558414D01*
X127357083Y-57571628D01*
X127287804Y-57580697D01*
X127256915Y-57571627D01*
X127226992Y-57558415D01*
X127201865Y-57555500D01*
X126312143Y-57555500D01*
X126312117Y-57555502D01*
X126287014Y-57558413D01*
X126287010Y-57558414D01*
X126257083Y-57571628D01*
X126187804Y-57580697D01*
X126156915Y-57571627D01*
X126126992Y-57558415D01*
X126101865Y-57555500D01*
X125212143Y-57555500D01*
X125212117Y-57555502D01*
X125187014Y-57558413D01*
X125187010Y-57558414D01*
X125157083Y-57571628D01*
X125087804Y-57580697D01*
X125056915Y-57571627D01*
X125026992Y-57558415D01*
X125001865Y-57555500D01*
X124112143Y-57555500D01*
X124112117Y-57555502D01*
X124087012Y-57558413D01*
X124087008Y-57558415D01*
X123984235Y-57603793D01*
X123904794Y-57683234D01*
X123859415Y-57786006D01*
X123859415Y-57786008D01*
X123856500Y-57811131D01*
X123856500Y-59400856D01*
X123856502Y-59400882D01*
X123859413Y-59425987D01*
X123859415Y-59425991D01*
X123904793Y-59528764D01*
X123984234Y-59608205D01*
X123988625Y-59611213D01*
X124032807Y-59665340D01*
X124040713Y-59734761D01*
X124016923Y-59788998D01*
X123935464Y-59895157D01*
X123874956Y-60041237D01*
X123874955Y-60041239D01*
X123854318Y-60197998D01*
X123854318Y-60198001D01*
X123874955Y-60354760D01*
X123874957Y-60354765D01*
X123935461Y-60500836D01*
X123935463Y-60500838D01*
X123935464Y-60500841D01*
X123935872Y-60501372D01*
X123936076Y-60501902D01*
X123939526Y-60507876D01*
X123938594Y-60508413D01*
X123961069Y-60566537D01*
X123961500Y-60576863D01*
X123961500Y-60755613D01*
X123941815Y-60822652D01*
X123889011Y-60868407D01*
X123821315Y-60878552D01*
X123698001Y-60862318D01*
X123697999Y-60862318D01*
X123541239Y-60882955D01*
X123541237Y-60882956D01*
X123395160Y-60943463D01*
X123269718Y-61039718D01*
X123173463Y-61165160D01*
X123112956Y-61311237D01*
X123112955Y-61311239D01*
X123092318Y-61467998D01*
X123092318Y-61468001D01*
X123112955Y-61624760D01*
X123112956Y-61624762D01*
X123162512Y-61744402D01*
X123173464Y-61770841D01*
X123269718Y-61896282D01*
X123269720Y-61896283D01*
X123271876Y-61899093D01*
X123297070Y-61964263D01*
X123297500Y-61974580D01*
X123297500Y-63505686D01*
X123277815Y-63572725D01*
X123261181Y-63593367D01*
X122023681Y-64830867D01*
X121962358Y-64864352D01*
X121892666Y-64859368D01*
X121836733Y-64817496D01*
X121812316Y-64752032D01*
X121812000Y-64743186D01*
X121812000Y-64556000D01*
X121137000Y-64556000D01*
X121137000Y-65506000D01*
X121155093Y-65524093D01*
X121188578Y-65585416D01*
X121183594Y-65655108D01*
X121155093Y-65699455D01*
X120146181Y-66708367D01*
X120084858Y-66741852D01*
X120015166Y-66736868D01*
X119959233Y-66694996D01*
X119934816Y-66629532D01*
X119934500Y-66620686D01*
X119934500Y-65451240D01*
X119954185Y-65384201D01*
X120006989Y-65338446D01*
X120076147Y-65328502D01*
X120133987Y-65352864D01*
X120240824Y-65434843D01*
X120377658Y-65491521D01*
X120487622Y-65505999D01*
X120487637Y-65506000D01*
X120637000Y-65506000D01*
X120637000Y-64056000D01*
X121137000Y-64056000D01*
X121812000Y-64056000D01*
X121812000Y-63631636D01*
X121811999Y-63631622D01*
X121797521Y-63521658D01*
X121797521Y-63521657D01*
X121740843Y-63384824D01*
X121650679Y-63267320D01*
X121533175Y-63177156D01*
X121396341Y-63120478D01*
X121286377Y-63106000D01*
X121137000Y-63106000D01*
X121137000Y-64056000D01*
X120637000Y-64056000D01*
X120637000Y-63106000D01*
X120487622Y-63106000D01*
X120377658Y-63120478D01*
X120377657Y-63120478D01*
X120240821Y-63177157D01*
X120133986Y-63259135D01*
X120068817Y-63284329D01*
X120000372Y-63270290D01*
X119950382Y-63221476D01*
X119934500Y-63160759D01*
X119934500Y-57151240D01*
X119954185Y-57084201D01*
X120006989Y-57038446D01*
X120076147Y-57028502D01*
X120133987Y-57052864D01*
X120240824Y-57134843D01*
X120377658Y-57191521D01*
X120487622Y-57205999D01*
X120487637Y-57206000D01*
X120637000Y-57206000D01*
X121137000Y-57206000D01*
X121286363Y-57206000D01*
X121286377Y-57205999D01*
X121396341Y-57191521D01*
X121396342Y-57191521D01*
X121533175Y-57134843D01*
X121650679Y-57044679D01*
X121740843Y-56927175D01*
X121797521Y-56790342D01*
X121797521Y-56790341D01*
X121811999Y-56680377D01*
X133712000Y-56680377D01*
X133726478Y-56790341D01*
X133726478Y-56790342D01*
X133783156Y-56927175D01*
X133873320Y-57044679D01*
X133990824Y-57134843D01*
X134127658Y-57191521D01*
X134237622Y-57205999D01*
X134237637Y-57206000D01*
X134387000Y-57206000D01*
X134387000Y-56256000D01*
X133712000Y-56256000D01*
X133712000Y-56680377D01*
X121811999Y-56680377D01*
X121812000Y-56680363D01*
X121812000Y-56256000D01*
X121137000Y-56256000D01*
X121137000Y-57206000D01*
X120637000Y-57206000D01*
X120637000Y-55756000D01*
X121137000Y-55756000D01*
X121812000Y-55756000D01*
X121812000Y-55331636D01*
X121811999Y-55331622D01*
X133712000Y-55331622D01*
X133712000Y-55756000D01*
X134387000Y-55756000D01*
X134387000Y-54806000D01*
X134237622Y-54806000D01*
X134127658Y-54820478D01*
X134127657Y-54820478D01*
X133990824Y-54877156D01*
X133873320Y-54967320D01*
X133783156Y-55084824D01*
X133726478Y-55221657D01*
X133726478Y-55221658D01*
X133712000Y-55331622D01*
X121811999Y-55331622D01*
X121797521Y-55221658D01*
X121797521Y-55221657D01*
X121740843Y-55084824D01*
X121650679Y-54967320D01*
X121533175Y-54877156D01*
X121396341Y-54820478D01*
X121286377Y-54806000D01*
X121137000Y-54806000D01*
X121137000Y-55756000D01*
X120637000Y-55756000D01*
X120637000Y-54806000D01*
X120487622Y-54806000D01*
X120377658Y-54820478D01*
X120377657Y-54820478D01*
X120240821Y-54877157D01*
X120133986Y-54959135D01*
X120068817Y-54984329D01*
X120000372Y-54970290D01*
X119950382Y-54921476D01*
X119934500Y-54860759D01*
X119934500Y-53510500D01*
X119954185Y-53443461D01*
X120006989Y-53397706D01*
X120058500Y-53386500D01*
X136671687Y-53386500D01*
X136738726Y-53406185D01*
G37*
%TD.AperFunction*%
%TA.AperFunction,Conductor*%
G36*
X125030256Y-75956649D02*
G01*
X126313181Y-77239573D01*
X126346666Y-77300896D01*
X126349500Y-77327254D01*
X126349500Y-77477745D01*
X126329815Y-77544784D01*
X126277011Y-77590539D01*
X126207853Y-77600483D01*
X126144297Y-77571458D01*
X126137819Y-77565426D01*
X125975915Y-77403522D01*
X125975913Y-77403520D01*
X125930250Y-77377156D01*
X125884589Y-77350793D01*
X125796737Y-77327254D01*
X125782727Y-77323500D01*
X125782726Y-77323500D01*
X125439255Y-77323500D01*
X125372216Y-77303815D01*
X125351574Y-77287181D01*
X124234138Y-76169745D01*
X124200653Y-76108422D01*
X124205637Y-76038730D01*
X124247509Y-75982797D01*
X124312973Y-75958380D01*
X124357814Y-75963403D01*
X124364066Y-75965300D01*
X124570000Y-75985583D01*
X124775934Y-75965300D01*
X124906581Y-75925668D01*
X124976447Y-75925046D01*
X125030256Y-75956649D01*
G37*
%TD.AperFunction*%
%TA.AperFunction,Conductor*%
G36*
X128106903Y-70178149D02*
G01*
X128144725Y-70211543D01*
X128157453Y-70228545D01*
X128157455Y-70228547D01*
X128272664Y-70314793D01*
X128272671Y-70314797D01*
X128407517Y-70365091D01*
X128415062Y-70366874D01*
X128414304Y-70370078D01*
X128464964Y-70391040D01*
X128504833Y-70448418D01*
X128507352Y-70518242D01*
X128471722Y-70578344D01*
X128421745Y-70605571D01*
X128421806Y-70605725D01*
X128420566Y-70606213D01*
X128417587Y-70607837D01*
X128414419Y-70608637D01*
X128280023Y-70661636D01*
X128164921Y-70748921D01*
X128077636Y-70864023D01*
X128024640Y-70998411D01*
X128022059Y-71019908D01*
X128014500Y-71082856D01*
X128014500Y-71665144D01*
X128018311Y-71696876D01*
X128024640Y-71749588D01*
X128077636Y-71883976D01*
X128164921Y-71999078D01*
X128241606Y-72057230D01*
X128280025Y-72086364D01*
X128285988Y-72088715D01*
X128341131Y-72131617D01*
X128364327Y-72197524D01*
X128364500Y-72204070D01*
X128364500Y-74297726D01*
X128391793Y-74399589D01*
X128418351Y-74445587D01*
X128429424Y-74464767D01*
X128444458Y-74490805D01*
X128460931Y-74558705D01*
X128455732Y-74588801D01*
X128414699Y-74724067D01*
X128394417Y-74930000D01*
X128414699Y-75135932D01*
X128454330Y-75266579D01*
X128454953Y-75336446D01*
X128423350Y-75390255D01*
X127097680Y-76715926D01*
X127036357Y-76749411D01*
X126966665Y-76744427D01*
X126922318Y-76715926D01*
X125596649Y-75390256D01*
X125563164Y-75328933D01*
X125565669Y-75266580D01*
X125605300Y-75135934D01*
X125625583Y-74930000D01*
X125605300Y-74724066D01*
X125557570Y-74566722D01*
X125556948Y-74496858D01*
X125568843Y-74468733D01*
X125582207Y-74445587D01*
X125609500Y-74343727D01*
X125609500Y-72204070D01*
X125629185Y-72137031D01*
X125681989Y-72091276D01*
X125687973Y-72088730D01*
X125693975Y-72086364D01*
X125809078Y-71999078D01*
X125896364Y-71883975D01*
X125923313Y-71815637D01*
X125966216Y-71760496D01*
X126032124Y-71737302D01*
X126100108Y-71753422D01*
X126148585Y-71803738D01*
X126149151Y-71804834D01*
X126185883Y-71876923D01*
X126185886Y-71876928D01*
X126281071Y-71972113D01*
X126281076Y-71972116D01*
X126401034Y-72033239D01*
X126500543Y-72048999D01*
X126500554Y-72049000D01*
X126508999Y-72048999D01*
X127009000Y-72048999D01*
X127017449Y-72048999D01*
X127116967Y-72033237D01*
X127236923Y-71972116D01*
X127236928Y-71972113D01*
X127332113Y-71876928D01*
X127332116Y-71876923D01*
X127393239Y-71756966D01*
X127409000Y-71657456D01*
X127409000Y-71624000D01*
X127009000Y-71624000D01*
X127009000Y-72048999D01*
X126508999Y-72048999D01*
X126509000Y-72048998D01*
X126509000Y-71248000D01*
X126528685Y-71180961D01*
X126581489Y-71135206D01*
X126633000Y-71124000D01*
X127408999Y-71124000D01*
X127408999Y-71090550D01*
X127393237Y-70991032D01*
X127332116Y-70871076D01*
X127332113Y-70871071D01*
X127269223Y-70808181D01*
X127235738Y-70746858D01*
X127240722Y-70677166D01*
X127282594Y-70621233D01*
X127348058Y-70596816D01*
X127356904Y-70596500D01*
X127461854Y-70596500D01*
X127461860Y-70596500D01*
X127549321Y-70585997D01*
X127688500Y-70531111D01*
X127807711Y-70440711D01*
X127898111Y-70321500D01*
X127930107Y-70240363D01*
X127973010Y-70185223D01*
X128038918Y-70162029D01*
X128106903Y-70178149D01*
G37*
%TD.AperFunction*%
%TA.AperFunction,Conductor*%
G36*
X124553930Y-71928473D02*
G01*
X124565050Y-71941224D01*
X124574397Y-71953550D01*
X124608923Y-71999079D01*
X124685606Y-72057230D01*
X124724025Y-72086364D01*
X124729988Y-72088715D01*
X124785131Y-72131617D01*
X124808327Y-72197524D01*
X124808500Y-72204070D01*
X124808500Y-73761094D01*
X124788815Y-73828133D01*
X124736011Y-73873888D01*
X124672346Y-73884497D01*
X124570000Y-73874417D01*
X124364067Y-73894699D01*
X124166043Y-73954769D01*
X124126524Y-73975893D01*
X123983550Y-74052315D01*
X123983548Y-74052316D01*
X123983547Y-74052317D01*
X123823589Y-74183589D01*
X123692317Y-74343547D01*
X123692315Y-74343550D01*
X123653643Y-74415898D01*
X123594769Y-74526043D01*
X123534699Y-74724067D01*
X123514417Y-74930000D01*
X123534699Y-75135934D01*
X123536597Y-75142189D01*
X123537218Y-75212055D01*
X123499968Y-75271167D01*
X123436673Y-75300756D01*
X123367429Y-75291428D01*
X123330254Y-75265861D01*
X123323402Y-75259009D01*
X123289917Y-75197686D01*
X123288144Y-75187513D01*
X123282177Y-75142189D01*
X123267044Y-75027238D01*
X123206536Y-74881159D01*
X123110282Y-74755718D01*
X122984841Y-74659464D01*
X122893499Y-74621629D01*
X122838762Y-74598956D01*
X122838760Y-74598955D01*
X122682001Y-74578318D01*
X122681997Y-74578318D01*
X122610684Y-74587706D01*
X122541649Y-74576940D01*
X122489394Y-74530560D01*
X122470500Y-74464767D01*
X122470500Y-74193387D01*
X122490185Y-74126348D01*
X122506819Y-74105706D01*
X123331115Y-73281410D01*
X124201510Y-72411015D01*
X124273984Y-72285485D01*
X124280813Y-72260000D01*
X124282098Y-72255206D01*
X124302200Y-72180182D01*
X124311500Y-72145475D01*
X124311500Y-72057230D01*
X124331185Y-71990191D01*
X124336233Y-71982920D01*
X124366982Y-71941844D01*
X124422915Y-71899972D01*
X124492607Y-71894988D01*
X124553930Y-71928473D01*
G37*
%TD.AperFunction*%
%TA.AperFunction,Conductor*%
G36*
X126167703Y-61744402D02*
G01*
X126184873Y-61762625D01*
X126233718Y-61826282D01*
X126359159Y-61922536D01*
X126505238Y-61983044D01*
X126517931Y-61984715D01*
X126661999Y-62003682D01*
X126662000Y-62003682D01*
X126662001Y-62003682D01*
X126714254Y-61996802D01*
X126818762Y-61983044D01*
X126964841Y-61922536D01*
X127012014Y-61886338D01*
X127077183Y-61861145D01*
X127145627Y-61875183D01*
X127195617Y-61923997D01*
X127211500Y-61984715D01*
X127211500Y-63982612D01*
X127191815Y-64049651D01*
X127175181Y-64070293D01*
X124859993Y-66385480D01*
X124859992Y-66385481D01*
X124859990Y-66385485D01*
X124850691Y-66401593D01*
X124845686Y-66410262D01*
X124845685Y-66410263D01*
X124787517Y-66511012D01*
X124787516Y-66511013D01*
X124771243Y-66571745D01*
X124750000Y-66651025D01*
X124750000Y-66651027D01*
X124750000Y-68627736D01*
X124730315Y-68694775D01*
X124700928Y-68726537D01*
X124668289Y-68751289D01*
X124668288Y-68751290D01*
X124577888Y-68870500D01*
X124541458Y-68962880D01*
X124498552Y-69018023D01*
X124432644Y-69041216D01*
X124364660Y-69025095D01*
X124327301Y-68992315D01*
X124318309Y-68980458D01*
X124311078Y-68970922D01*
X124311073Y-68970918D01*
X124195976Y-68883636D01*
X124061588Y-68830640D01*
X124018242Y-68825435D01*
X123977144Y-68820500D01*
X123444856Y-68820500D01*
X123406841Y-68825065D01*
X123360411Y-68830640D01*
X123226023Y-68883636D01*
X123110921Y-68970921D01*
X123023634Y-69086026D01*
X123023634Y-69086027D01*
X122996687Y-69154360D01*
X122953781Y-69209504D01*
X122887873Y-69232697D01*
X122819889Y-69216576D01*
X122771413Y-69166259D01*
X122770848Y-69165165D01*
X122734116Y-69093075D01*
X122734113Y-69093071D01*
X122638928Y-68997886D01*
X122638923Y-68997883D01*
X122518965Y-68936760D01*
X122518966Y-68936760D01*
X122419456Y-68921000D01*
X122411000Y-68921000D01*
X122411000Y-70270999D01*
X122419449Y-70270999D01*
X122518967Y-70255237D01*
X122638923Y-70194116D01*
X122638928Y-70194113D01*
X122734113Y-70098928D01*
X122734116Y-70098924D01*
X122770848Y-70026835D01*
X122818823Y-69976039D01*
X122886644Y-69959244D01*
X122952778Y-69981781D01*
X122996230Y-70036496D01*
X122996687Y-70037640D01*
X123023634Y-70105972D01*
X123023634Y-70105973D01*
X123110918Y-70221073D01*
X123110922Y-70221078D01*
X123161425Y-70259376D01*
X123202948Y-70315567D01*
X123210500Y-70358179D01*
X123210500Y-70690769D01*
X123190815Y-70757808D01*
X123185767Y-70765080D01*
X123117204Y-70856668D01*
X123117202Y-70856671D01*
X123066910Y-70991513D01*
X123066909Y-70991517D01*
X123060500Y-71051127D01*
X123060500Y-71051134D01*
X123060500Y-71051135D01*
X123060500Y-71696870D01*
X123060501Y-71696876D01*
X123066909Y-71756484D01*
X123102106Y-71850855D01*
X123107090Y-71920547D01*
X123073605Y-71981868D01*
X122908776Y-72146697D01*
X122847453Y-72180182D01*
X122777761Y-72175198D01*
X122721828Y-72133326D01*
X122706533Y-72106466D01*
X122695425Y-72079647D01*
X122697419Y-72078820D01*
X122683624Y-72021966D01*
X122706474Y-71955938D01*
X122708184Y-71953595D01*
X122754796Y-71891331D01*
X122805091Y-71756483D01*
X122811500Y-71696873D01*
X122811499Y-71051128D01*
X122805091Y-70991517D01*
X122803860Y-70988217D01*
X122754797Y-70856671D01*
X122754793Y-70856664D01*
X122668547Y-70741455D01*
X122668544Y-70741452D01*
X122553335Y-70655206D01*
X122553328Y-70655202D01*
X122418486Y-70604910D01*
X122418485Y-70604909D01*
X122418483Y-70604909D01*
X122358873Y-70598500D01*
X122358863Y-70598500D01*
X121863129Y-70598500D01*
X121863118Y-70598501D01*
X121837751Y-70601228D01*
X121768992Y-70588820D01*
X121717856Y-70541208D01*
X121700500Y-70477938D01*
X121700500Y-70384184D01*
X121720185Y-70317145D01*
X121772989Y-70271390D01*
X121842147Y-70261446D01*
X121843898Y-70261711D01*
X121902545Y-70270999D01*
X121902554Y-70271000D01*
X121910999Y-70270999D01*
X121911000Y-70270998D01*
X121911000Y-68921000D01*
X121910999Y-68921000D01*
X121902553Y-68921001D01*
X121902545Y-68921002D01*
X121843895Y-68930290D01*
X121774602Y-68921333D01*
X121721151Y-68876336D01*
X121700513Y-68809584D01*
X121700500Y-68807816D01*
X121700500Y-68035255D01*
X121720185Y-67968216D01*
X121736819Y-67947574D01*
X123744485Y-65939908D01*
X125882480Y-63801913D01*
X125935207Y-63710588D01*
X125962500Y-63608727D01*
X125962500Y-63503273D01*
X125962500Y-61838115D01*
X125982185Y-61771076D01*
X126034989Y-61725321D01*
X126104147Y-61715377D01*
X126167703Y-61744402D01*
G37*
%TD.AperFunction*%
%TA.AperFunction,Conductor*%
G36*
X137092819Y-68256085D02*
G01*
X137094261Y-68256633D01*
X137183802Y-68291321D01*
X137380613Y-68328111D01*
X137442893Y-68359779D01*
X137478166Y-68420092D01*
X137475232Y-68489900D01*
X137435023Y-68547040D01*
X137380613Y-68571888D01*
X137183802Y-68608679D01*
X137183799Y-68608679D01*
X137183799Y-68608680D01*
X136984982Y-68685701D01*
X136984980Y-68685702D01*
X136803696Y-68797949D01*
X136750330Y-68846599D01*
X136687526Y-68877216D01*
X136640393Y-68871648D01*
X136647063Y-68889529D01*
X136632211Y-68957802D01*
X136622333Y-68973102D01*
X136517632Y-69111746D01*
X136422596Y-69302605D01*
X136422596Y-69302607D01*
X136364244Y-69507689D01*
X136344571Y-69719999D01*
X136344571Y-69720000D01*
X136364244Y-69932310D01*
X136423390Y-70140184D01*
X136422804Y-70210052D01*
X136391805Y-70261800D01*
X135612181Y-71041425D01*
X135550858Y-71074910D01*
X135481167Y-71069926D01*
X135425233Y-71028054D01*
X135400816Y-70962590D01*
X135400500Y-70953744D01*
X135400500Y-69897254D01*
X135420185Y-69830215D01*
X135436814Y-69809578D01*
X136435698Y-68810693D01*
X136497021Y-68777209D01*
X136550195Y-68781011D01*
X136542831Y-68758086D01*
X136560820Y-68690572D01*
X136579111Y-68667281D01*
X136766484Y-68479908D01*
X136961807Y-68284584D01*
X137023128Y-68251101D01*
X137092819Y-68256085D01*
G37*
%TD.AperFunction*%
%TA.AperFunction,Conductor*%
G36*
X136770859Y-60463732D02*
G01*
X136798803Y-60479067D01*
X136798824Y-60479034D01*
X136799465Y-60479431D01*
X136802253Y-60480961D01*
X136803695Y-60482050D01*
X136803697Y-60482051D01*
X136803698Y-60482052D01*
X136984981Y-60594298D01*
X137183802Y-60671321D01*
X137380613Y-60708111D01*
X137442893Y-60739779D01*
X137478166Y-60800092D01*
X137475232Y-60869900D01*
X137435023Y-60927040D01*
X137380613Y-60951888D01*
X137183802Y-60988679D01*
X137183799Y-60988679D01*
X137183799Y-60988680D01*
X136984982Y-61065701D01*
X136984980Y-61065702D01*
X136803699Y-61177947D01*
X136646127Y-61321593D01*
X136517632Y-61491746D01*
X136422596Y-61682605D01*
X136422596Y-61682607D01*
X136364244Y-61887689D01*
X136344571Y-62099999D01*
X136344571Y-62100000D01*
X136364244Y-62312310D01*
X136423390Y-62520184D01*
X136422804Y-62590052D01*
X136391805Y-62641800D01*
X135679522Y-63354084D01*
X135674572Y-63360536D01*
X135672821Y-63359192D01*
X135630586Y-63399450D01*
X135561976Y-63412660D01*
X135497116Y-63386681D01*
X135475409Y-63364710D01*
X135400681Y-63267321D01*
X135283175Y-63177156D01*
X135146341Y-63120478D01*
X135036377Y-63106000D01*
X134887000Y-63106000D01*
X134887000Y-65506000D01*
X135036363Y-65506000D01*
X135036377Y-65505999D01*
X135146339Y-65491522D01*
X135202131Y-65468412D01*
X135271600Y-65460943D01*
X135334080Y-65492217D01*
X135369733Y-65552306D01*
X135367240Y-65622131D01*
X135337266Y-65670654D01*
X134112181Y-66895740D01*
X134050858Y-66929225D01*
X133981166Y-66924241D01*
X133925233Y-66882369D01*
X133900816Y-66816905D01*
X133900500Y-66808059D01*
X133900500Y-65583009D01*
X133920185Y-65515970D01*
X133972989Y-65470215D01*
X134042147Y-65460271D01*
X134071953Y-65468448D01*
X134127658Y-65491521D01*
X134237622Y-65505999D01*
X134237637Y-65506000D01*
X134387000Y-65506000D01*
X134387000Y-63106000D01*
X134325440Y-63106000D01*
X134258401Y-63086315D01*
X134212646Y-63033511D01*
X134202702Y-62964353D01*
X134231727Y-62900797D01*
X134237759Y-62894319D01*
X136639844Y-60492233D01*
X136701167Y-60458748D01*
X136770859Y-60463732D01*
G37*
%TD.AperFunction*%
%TA.AperFunction,Conductor*%
G36*
X137092820Y-58096085D02*
G01*
X137094261Y-58096632D01*
X137183802Y-58131321D01*
X137380613Y-58168111D01*
X137442893Y-58199779D01*
X137478166Y-58260092D01*
X137475232Y-58329900D01*
X137435023Y-58387040D01*
X137380613Y-58411888D01*
X137183802Y-58448679D01*
X137183799Y-58448679D01*
X137183799Y-58448680D01*
X136984982Y-58525701D01*
X136984980Y-58525702D01*
X136803699Y-58637947D01*
X136750328Y-58686601D01*
X136687523Y-58717217D01*
X136640394Y-58711648D01*
X136647063Y-58729528D01*
X136632211Y-58797801D01*
X136622333Y-58813101D01*
X136517633Y-58951746D01*
X136422596Y-59142605D01*
X136422596Y-59142607D01*
X136364244Y-59347689D01*
X136344571Y-59559999D01*
X136344571Y-59560004D01*
X136347232Y-59588729D01*
X136333816Y-59657298D01*
X136311442Y-59687848D01*
X133612181Y-62387110D01*
X133550858Y-62420595D01*
X133481166Y-62415611D01*
X133425233Y-62373739D01*
X133400816Y-62308275D01*
X133400500Y-62299429D01*
X133400500Y-61737254D01*
X133420185Y-61670215D01*
X133436814Y-61649578D01*
X136435700Y-58650691D01*
X136497021Y-58617208D01*
X136550192Y-58621010D01*
X136542829Y-58598087D01*
X136560819Y-58530572D01*
X136579104Y-58507287D01*
X136961807Y-58124584D01*
X137023128Y-58091101D01*
X137092820Y-58096085D01*
G37*
%TD.AperFunction*%
%TD*%
M02*
