%TF.GenerationSoftware,KiCad,Pcbnew,8.0.3*%
%TF.CreationDate,2024-07-04T10:48:12+02:00*%
%TF.ProjectId,MacNugget,4d61634e-7567-4676-9574-2e6b69636164,1.0*%
%TF.SameCoordinates,Original*%
%TF.FileFunction,Copper,L2,Bot*%
%TF.FilePolarity,Positive*%
%FSLAX46Y46*%
G04 Gerber Fmt 4.6, Leading zero omitted, Abs format (unit mm)*
G04 Created by KiCad (PCBNEW 8.0.3) date 2024-07-04 10:48:12*
%MOMM*%
%LPD*%
G01*
G04 APERTURE LIST*
%ADD10C,0.300000*%
%TA.AperFunction,NonConductor*%
%ADD11C,0.300000*%
%TD*%
%TA.AperFunction,ComponentPad*%
%ADD12C,1.500000*%
%TD*%
%TA.AperFunction,ComponentPad*%
%ADD13R,1.700000X1.700000*%
%TD*%
%TA.AperFunction,ComponentPad*%
%ADD14O,1.700000X1.700000*%
%TD*%
%TA.AperFunction,ViaPad*%
%ADD15C,0.600000*%
%TD*%
%TA.AperFunction,Conductor*%
%ADD16C,0.200000*%
%TD*%
%TA.AperFunction,Conductor*%
%ADD17C,1.000000*%
%TD*%
%TA.AperFunction,Conductor*%
%ADD18C,0.500000*%
%TD*%
G04 APERTURE END LIST*
D10*
D11*
X120595171Y-116031489D02*
X122095171Y-116031489D01*
X120595171Y-115174346D02*
X121452314Y-115817203D01*
X122095171Y-115174346D02*
X121238028Y-116031489D01*
X120595171Y-113888632D02*
X121380885Y-113888632D01*
X121380885Y-113888632D02*
X121523742Y-113960060D01*
X121523742Y-113960060D02*
X121595171Y-114102917D01*
X121595171Y-114102917D02*
X121595171Y-114388632D01*
X121595171Y-114388632D02*
X121523742Y-114531489D01*
X120666600Y-113888632D02*
X120595171Y-114031489D01*
X120595171Y-114031489D02*
X120595171Y-114388632D01*
X120595171Y-114388632D02*
X120666600Y-114531489D01*
X120666600Y-114531489D02*
X120809457Y-114602917D01*
X120809457Y-114602917D02*
X120952314Y-114602917D01*
X120952314Y-114602917D02*
X121095171Y-114531489D01*
X121095171Y-114531489D02*
X121166600Y-114388632D01*
X121166600Y-114388632D02*
X121166600Y-114031489D01*
X121166600Y-114031489D02*
X121238028Y-113888632D01*
X120666600Y-113245774D02*
X120595171Y-113102917D01*
X120595171Y-113102917D02*
X120595171Y-112817203D01*
X120595171Y-112817203D02*
X120666600Y-112674346D01*
X120666600Y-112674346D02*
X120809457Y-112602917D01*
X120809457Y-112602917D02*
X120880885Y-112602917D01*
X120880885Y-112602917D02*
X121023742Y-112674346D01*
X121023742Y-112674346D02*
X121095171Y-112817203D01*
X121095171Y-112817203D02*
X121095171Y-113031489D01*
X121095171Y-113031489D02*
X121166600Y-113174346D01*
X121166600Y-113174346D02*
X121309457Y-113245774D01*
X121309457Y-113245774D02*
X121380885Y-113245774D01*
X121380885Y-113245774D02*
X121523742Y-113174346D01*
X121523742Y-113174346D02*
X121595171Y-113031489D01*
X121595171Y-113031489D02*
X121595171Y-112817203D01*
X121595171Y-112817203D02*
X121523742Y-112674346D01*
X121595171Y-111960060D02*
X120095171Y-111960060D01*
X121523742Y-111960060D02*
X121595171Y-111817203D01*
X121595171Y-111817203D02*
X121595171Y-111531488D01*
X121595171Y-111531488D02*
X121523742Y-111388631D01*
X121523742Y-111388631D02*
X121452314Y-111317203D01*
X121452314Y-111317203D02*
X121309457Y-111245774D01*
X121309457Y-111245774D02*
X120880885Y-111245774D01*
X120880885Y-111245774D02*
X120738028Y-111317203D01*
X120738028Y-111317203D02*
X120666600Y-111388631D01*
X120666600Y-111388631D02*
X120595171Y-111531488D01*
X120595171Y-111531488D02*
X120595171Y-111817203D01*
X120595171Y-111817203D02*
X120666600Y-111960060D01*
X120666600Y-110031488D02*
X120595171Y-110174345D01*
X120595171Y-110174345D02*
X120595171Y-110460060D01*
X120595171Y-110460060D02*
X120666600Y-110602917D01*
X120666600Y-110602917D02*
X120809457Y-110674345D01*
X120809457Y-110674345D02*
X121380885Y-110674345D01*
X121380885Y-110674345D02*
X121523742Y-110602917D01*
X121523742Y-110602917D02*
X121595171Y-110460060D01*
X121595171Y-110460060D02*
X121595171Y-110174345D01*
X121595171Y-110174345D02*
X121523742Y-110031488D01*
X121523742Y-110031488D02*
X121380885Y-109960060D01*
X121380885Y-109960060D02*
X121238028Y-109960060D01*
X121238028Y-109960060D02*
X121095171Y-110674345D01*
X120595171Y-109317203D02*
X121595171Y-109317203D01*
X121309457Y-109317203D02*
X121452314Y-109245774D01*
X121452314Y-109245774D02*
X121523742Y-109174346D01*
X121523742Y-109174346D02*
X121595171Y-109031488D01*
X121595171Y-109031488D02*
X121595171Y-108888631D01*
X122095171Y-107460060D02*
X120595171Y-106960060D01*
X120595171Y-106960060D02*
X122095171Y-106460060D01*
X120666600Y-105388632D02*
X120595171Y-105531489D01*
X120595171Y-105531489D02*
X120595171Y-105817204D01*
X120595171Y-105817204D02*
X120666600Y-105960061D01*
X120666600Y-105960061D02*
X120809457Y-106031489D01*
X120809457Y-106031489D02*
X121380885Y-106031489D01*
X121380885Y-106031489D02*
X121523742Y-105960061D01*
X121523742Y-105960061D02*
X121595171Y-105817204D01*
X121595171Y-105817204D02*
X121595171Y-105531489D01*
X121595171Y-105531489D02*
X121523742Y-105388632D01*
X121523742Y-105388632D02*
X121380885Y-105317204D01*
X121380885Y-105317204D02*
X121238028Y-105317204D01*
X121238028Y-105317204D02*
X121095171Y-106031489D01*
X120595171Y-104674347D02*
X121595171Y-104674347D01*
X121309457Y-104674347D02*
X121452314Y-104602918D01*
X121452314Y-104602918D02*
X121523742Y-104531490D01*
X121523742Y-104531490D02*
X121595171Y-104388632D01*
X121595171Y-104388632D02*
X121595171Y-104245775D01*
X121595171Y-103888633D02*
X120595171Y-103602919D01*
X120595171Y-103602919D02*
X121309457Y-103317204D01*
X121309457Y-103317204D02*
X120595171Y-103031490D01*
X120595171Y-103031490D02*
X121595171Y-102745776D01*
X120666600Y-101602918D02*
X120595171Y-101745775D01*
X120595171Y-101745775D02*
X120595171Y-102031490D01*
X120595171Y-102031490D02*
X120666600Y-102174347D01*
X120666600Y-102174347D02*
X120809457Y-102245775D01*
X120809457Y-102245775D02*
X121380885Y-102245775D01*
X121380885Y-102245775D02*
X121523742Y-102174347D01*
X121523742Y-102174347D02*
X121595171Y-102031490D01*
X121595171Y-102031490D02*
X121595171Y-101745775D01*
X121595171Y-101745775D02*
X121523742Y-101602918D01*
X121523742Y-101602918D02*
X121380885Y-101531490D01*
X121380885Y-101531490D02*
X121238028Y-101531490D01*
X121238028Y-101531490D02*
X121095171Y-102245775D01*
X120595171Y-100888633D02*
X121595171Y-100888633D01*
X122095171Y-100888633D02*
X122023742Y-100960061D01*
X122023742Y-100960061D02*
X121952314Y-100888633D01*
X121952314Y-100888633D02*
X122023742Y-100817204D01*
X122023742Y-100817204D02*
X122095171Y-100888633D01*
X122095171Y-100888633D02*
X121952314Y-100888633D01*
X121595171Y-100174347D02*
X120309457Y-100174347D01*
X120309457Y-100174347D02*
X120166600Y-100245775D01*
X120166600Y-100245775D02*
X120095171Y-100388632D01*
X120095171Y-100388632D02*
X120095171Y-100460061D01*
X122095171Y-100174347D02*
X122023742Y-100245775D01*
X122023742Y-100245775D02*
X121952314Y-100174347D01*
X121952314Y-100174347D02*
X122023742Y-100102918D01*
X122023742Y-100102918D02*
X122095171Y-100174347D01*
X122095171Y-100174347D02*
X121952314Y-100174347D01*
X121952314Y-98388632D02*
X122023742Y-98317204D01*
X122023742Y-98317204D02*
X122095171Y-98174347D01*
X122095171Y-98174347D02*
X122095171Y-97817204D01*
X122095171Y-97817204D02*
X122023742Y-97674347D01*
X122023742Y-97674347D02*
X121952314Y-97602918D01*
X121952314Y-97602918D02*
X121809457Y-97531489D01*
X121809457Y-97531489D02*
X121666600Y-97531489D01*
X121666600Y-97531489D02*
X121452314Y-97602918D01*
X121452314Y-97602918D02*
X120595171Y-98460061D01*
X120595171Y-98460061D02*
X120595171Y-97531489D01*
X122095171Y-96602918D02*
X122095171Y-96460061D01*
X122095171Y-96460061D02*
X122023742Y-96317204D01*
X122023742Y-96317204D02*
X121952314Y-96245776D01*
X121952314Y-96245776D02*
X121809457Y-96174347D01*
X121809457Y-96174347D02*
X121523742Y-96102918D01*
X121523742Y-96102918D02*
X121166600Y-96102918D01*
X121166600Y-96102918D02*
X120880885Y-96174347D01*
X120880885Y-96174347D02*
X120738028Y-96245776D01*
X120738028Y-96245776D02*
X120666600Y-96317204D01*
X120666600Y-96317204D02*
X120595171Y-96460061D01*
X120595171Y-96460061D02*
X120595171Y-96602918D01*
X120595171Y-96602918D02*
X120666600Y-96745776D01*
X120666600Y-96745776D02*
X120738028Y-96817204D01*
X120738028Y-96817204D02*
X120880885Y-96888633D01*
X120880885Y-96888633D02*
X121166600Y-96960061D01*
X121166600Y-96960061D02*
X121523742Y-96960061D01*
X121523742Y-96960061D02*
X121809457Y-96888633D01*
X121809457Y-96888633D02*
X121952314Y-96817204D01*
X121952314Y-96817204D02*
X122023742Y-96745776D01*
X122023742Y-96745776D02*
X122095171Y-96602918D01*
X121952314Y-95531490D02*
X122023742Y-95460062D01*
X122023742Y-95460062D02*
X122095171Y-95317205D01*
X122095171Y-95317205D02*
X122095171Y-94960062D01*
X122095171Y-94960062D02*
X122023742Y-94817205D01*
X122023742Y-94817205D02*
X121952314Y-94745776D01*
X121952314Y-94745776D02*
X121809457Y-94674347D01*
X121809457Y-94674347D02*
X121666600Y-94674347D01*
X121666600Y-94674347D02*
X121452314Y-94745776D01*
X121452314Y-94745776D02*
X120595171Y-95602919D01*
X120595171Y-95602919D02*
X120595171Y-94674347D01*
X121595171Y-93388634D02*
X120595171Y-93388634D01*
X122166600Y-93745776D02*
X121095171Y-94102919D01*
X121095171Y-94102919D02*
X121095171Y-93174348D01*
D12*
%TO.P,Y1,1,1*%
%TO.N,OSCIN*%
X129450000Y-74930000D03*
%TO.P,Y1,2,2*%
%TO.N,OSCOUT*%
X124570000Y-74930000D03*
%TD*%
D13*
%TO.P,J2,1,Pin_1*%
%TO.N,GND*%
X140040000Y-115440000D03*
D14*
%TO.P,J2,2,Pin_2*%
%TO.N,SCSI_D0*%
X137500000Y-115440000D03*
%TO.P,J2,3,Pin_3*%
%TO.N,GND*%
X140040000Y-112900000D03*
%TO.P,J2,4,Pin_4*%
%TO.N,SCSI_D1*%
X137500000Y-112900000D03*
%TO.P,J2,5,Pin_5*%
%TO.N,GND*%
X140040000Y-110360000D03*
%TO.P,J2,6,Pin_6*%
%TO.N,SCSI_D2*%
X137500000Y-110360000D03*
%TO.P,J2,7,Pin_7*%
%TO.N,GND*%
X140040000Y-107820000D03*
%TO.P,J2,8,Pin_8*%
%TO.N,SCSI_D3*%
X137500000Y-107820000D03*
%TO.P,J2,9,Pin_9*%
%TO.N,GND*%
X140040000Y-105280000D03*
%TO.P,J2,10,Pin_10*%
%TO.N,SCSI_D4*%
X137500000Y-105280000D03*
%TO.P,J2,11,Pin_11*%
%TO.N,GND*%
X140040000Y-102740000D03*
%TO.P,J2,12,Pin_12*%
%TO.N,SCSI_D5*%
X137500000Y-102740000D03*
%TO.P,J2,13,Pin_13*%
%TO.N,GND*%
X140040000Y-100200000D03*
%TO.P,J2,14,Pin_14*%
%TO.N,SCSI_D6*%
X137500000Y-100200000D03*
%TO.P,J2,15,Pin_15*%
%TO.N,GND*%
X140040000Y-97660000D03*
%TO.P,J2,16,Pin_16*%
%TO.N,SCSI_D7*%
X137500000Y-97660000D03*
%TO.P,J2,17,Pin_17*%
%TO.N,GND*%
X140040000Y-95120000D03*
%TO.P,J2,18,Pin_18*%
%TO.N,SCSI_DP*%
X137500000Y-95120000D03*
%TO.P,J2,19,Pin_19*%
%TO.N,GND*%
X140040000Y-92580000D03*
%TO.P,J2,20,Pin_20*%
X137500000Y-92580000D03*
%TO.P,J2,21,Pin_21*%
X140040000Y-90040000D03*
%TO.P,J2,22,Pin_22*%
X137500000Y-90040000D03*
%TO.P,J2,23,Pin_23*%
X140040000Y-87500000D03*
%TO.P,J2,24,Pin_24*%
X137500000Y-87500000D03*
%TO.P,J2,25,Pin_25*%
%TO.N,unconnected-(J2-Pin_25-Pad25)*%
X140040000Y-84960000D03*
%TO.P,J2,26,Pin_26*%
%TO.N,+5V*%
X137500000Y-84960000D03*
%TO.P,J2,27,Pin_27*%
%TO.N,GND*%
X140040000Y-82420000D03*
%TO.P,J2,28,Pin_28*%
X137500000Y-82420000D03*
%TO.P,J2,29,Pin_29*%
X140040000Y-79880000D03*
%TO.P,J2,30,Pin_30*%
X137500000Y-79880000D03*
%TO.P,J2,31,Pin_31*%
X140040000Y-77340000D03*
%TO.P,J2,32,Pin_32*%
%TO.N,SCSI_ATN*%
X137500000Y-77340000D03*
%TO.P,J2,33,Pin_33*%
%TO.N,GND*%
X140040000Y-74800000D03*
%TO.P,J2,34,Pin_34*%
%TO.N,unconnected-(J2-Pin_34-Pad34)*%
X137500000Y-74800000D03*
%TO.P,J2,35,Pin_35*%
%TO.N,GND*%
X140040000Y-72260000D03*
%TO.P,J2,36,Pin_36*%
%TO.N,SCSI_BSY*%
X137500000Y-72260000D03*
%TO.P,J2,37,Pin_37*%
%TO.N,GND*%
X140040000Y-69720000D03*
%TO.P,J2,38,Pin_38*%
%TO.N,SCSI_ACK*%
X137500000Y-69720000D03*
%TO.P,J2,39,Pin_39*%
%TO.N,GND*%
X140040000Y-67180000D03*
%TO.P,J2,40,Pin_40*%
%TO.N,SCSI_RST*%
X137500000Y-67180000D03*
%TO.P,J2,41,Pin_41*%
%TO.N,GND*%
X140040000Y-64640000D03*
%TO.P,J2,42,Pin_42*%
%TO.N,SCSI_MSG*%
X137500000Y-64640000D03*
%TO.P,J2,43,Pin_43*%
%TO.N,GND*%
X140040000Y-62100000D03*
%TO.P,J2,44,Pin_44*%
%TO.N,SCSI_SEL*%
X137500000Y-62100000D03*
%TO.P,J2,45,Pin_45*%
%TO.N,GND*%
X140040000Y-59560000D03*
%TO.P,J2,46,Pin_46*%
%TO.N,SCSI_CD*%
X137500000Y-59560000D03*
%TO.P,J2,47,Pin_47*%
%TO.N,GND*%
X140040000Y-57020000D03*
%TO.P,J2,48,Pin_48*%
%TO.N,SCSI_REQ*%
X137500000Y-57020000D03*
%TO.P,J2,49,Pin_49*%
%TO.N,GND*%
X140040000Y-54480000D03*
%TO.P,J2,50,Pin_50*%
%TO.N,SCSI_IO*%
X137500000Y-54480000D03*
%TD*%
%TO.P,J4,3,Pin_3*%
%TO.N,SWDIO*%
X129540000Y-100218000D03*
%TO.P,J4,2,Pin_2*%
%TO.N,SWCLK*%
X129540000Y-97678000D03*
D13*
%TO.P,J4,1,Pin_1*%
%TO.N,RESET*%
X129540000Y-95138000D03*
%TD*%
D15*
%TO.N,GND*%
X129540000Y-93472000D03*
%TO.N,RESET*%
X122936000Y-69342000D03*
X122936000Y-71628000D03*
%TO.N,GND*%
X125730000Y-58928000D03*
X135382000Y-68072000D03*
X135636000Y-70358000D03*
X135382000Y-109474000D03*
X133350000Y-110490000D03*
X135382000Y-104902000D03*
X132588000Y-103124000D03*
X122174000Y-67056000D03*
X120396000Y-89408000D03*
X125222000Y-97536000D03*
X133096000Y-106172000D03*
X135382000Y-112268000D03*
X131572000Y-61976000D03*
X126238000Y-61976000D03*
X131318000Y-65024000D03*
X127254000Y-65278000D03*
X127000000Y-71882000D03*
X127000000Y-75438000D03*
X131572000Y-77470000D03*
X126492000Y-84350000D03*
X123952000Y-84350000D03*
X128650000Y-86106000D03*
X132668775Y-86560974D03*
X131064000Y-88646000D03*
X132080000Y-95250000D03*
X127000000Y-95504000D03*
X133200000Y-96414794D03*
X131064000Y-104394000D03*
X123190000Y-106426000D03*
X136144000Y-116240000D03*
X123190000Y-112268000D03*
X120396000Y-59436000D03*
X120650000Y-54102000D03*
X134874000Y-60706000D03*
X134874000Y-58420000D03*
X133858000Y-65024000D03*
X125222000Y-65278000D03*
X123190000Y-61722000D03*
X125984000Y-69342000D03*
X131318000Y-69088000D03*
X131064000Y-73914000D03*
X125476000Y-76962000D03*
X128270000Y-77978000D03*
X123190000Y-76962000D03*
X129794000Y-72898000D03*
X124206000Y-72898000D03*
X121920000Y-70358000D03*
X120650000Y-83820000D03*
X121158000Y-91948000D03*
X122936000Y-103632000D03*
X122936000Y-97536000D03*
X127000000Y-100076000D03*
X125222000Y-93472000D03*
X126492000Y-83058000D03*
X123952000Y-81534000D03*
X132842000Y-100584000D03*
X124206000Y-54864000D03*
X121666000Y-57658000D03*
X129794000Y-57404000D03*
X134112000Y-55880000D03*
%TO.N,+3V*%
X121900000Y-80600001D03*
X121900000Y-78486000D03*
X124206000Y-61214000D03*
%TO.N,SWDIO*%
X131274574Y-93980161D03*
X130048000Y-89400000D03*
%TO.N,RESET*%
X127000000Y-81280000D03*
%TO.N,+3V*%
X123500000Y-56500000D03*
X127793557Y-56777913D03*
X121920000Y-87920000D03*
X121921571Y-90424000D03*
%TO.N,+5V*%
X127636000Y-103504000D03*
X132080000Y-102000000D03*
X135000000Y-99060000D03*
%TO.N,SWCLK*%
X132000000Y-87000000D03*
%TO.N,GND*%
X124000000Y-86000000D03*
X126492000Y-86614000D03*
X125529498Y-78498558D03*
X129000000Y-82000000D03*
%TO.N,SCSI_DP*%
X128616000Y-83744528D03*
X133000000Y-92311472D03*
%TO.N,SCSI_D0*%
X133600000Y-106934000D03*
X131900000Y-83000000D03*
%TO.N,SCSI_D1*%
X131900000Y-82000000D03*
X134397182Y-107438967D03*
%TO.N,SCSI_IO*%
X132825735Y-62325735D03*
X134000000Y-59500000D03*
%TO.N,SD_MOSI*%
X124714000Y-57000000D03*
X127025000Y-57000000D03*
%TO.N,SD_CLK*%
X125233265Y-57658000D03*
X127508000Y-57658000D03*
%TO.N,SD_MISO*%
X126492000Y-58258000D03*
X124250000Y-57658000D03*
%TD*%
D16*
%TO.N,SD_MISO*%
X124250000Y-57904264D02*
X124250000Y-57658000D01*
X124603736Y-58258000D02*
X124250000Y-57904264D01*
X126492000Y-58258000D02*
X124603736Y-58258000D01*
%TO.N,SD_CLK*%
X125233265Y-57658000D02*
X127508000Y-57658000D01*
%TO.N,SD_MOSI*%
X124714000Y-57000000D02*
X127025000Y-57000000D01*
%TO.N,RESET*%
X127254000Y-92852000D02*
X129540000Y-95138000D01*
X127254000Y-81534000D02*
X127254000Y-92852000D01*
X127000000Y-81280000D02*
X127254000Y-81534000D01*
%TO.N,SCSI_D0*%
X133800000Y-84900000D02*
X131900000Y-83000000D01*
X133600000Y-106934000D02*
X133800000Y-106734000D01*
X133800000Y-106734000D02*
X133800000Y-84900000D01*
D17*
%TO.N,+5V*%
X131934000Y-102000000D02*
X132080000Y-102000000D01*
X130430000Y-103504000D02*
X131934000Y-102000000D01*
X127636000Y-103504000D02*
X130430000Y-103504000D01*
D18*
%TO.N,+3V*%
X123750000Y-56250000D02*
X123500000Y-56500000D01*
X127335661Y-56250000D02*
X123750000Y-56250000D01*
X127775000Y-56689339D02*
X127335661Y-56250000D01*
X127775000Y-56759356D02*
X127775000Y-56689339D01*
X127793557Y-56777913D02*
X127775000Y-56759356D01*
D16*
%TO.N,GND*%
X134112000Y-55880000D02*
X131318000Y-55880000D01*
X131318000Y-55880000D02*
X129794000Y-57404000D01*
%TO.N,RESET*%
X122936000Y-71628000D02*
X122936000Y-69342000D01*
D17*
%TO.N,+3V*%
X121900000Y-78486000D02*
X121900000Y-80600001D01*
D16*
%TO.N,SCSI_D1*%
X137630000Y-113030000D02*
X137668000Y-113030000D01*
X137878000Y-112522000D02*
X137922000Y-112522000D01*
X137500000Y-112900000D02*
X137878000Y-112522000D01*
D17*
%TO.N,+3V*%
X121920000Y-87920000D02*
X121920000Y-80620001D01*
X121920000Y-80620001D02*
X121900000Y-80600001D01*
X121920000Y-88076858D02*
X121920000Y-87920000D01*
X121920000Y-88076858D02*
X121921571Y-88078429D01*
D16*
%TO.N,GND*%
X132213801Y-86106000D02*
X128650000Y-86106000D01*
X132668775Y-86560974D02*
X132213801Y-86106000D01*
X132000000Y-89582000D02*
X132000000Y-95170000D01*
X131064000Y-88646000D02*
X132000000Y-89582000D01*
X132000000Y-95170000D02*
X132080000Y-95250000D01*
%TO.N,SCSI_DP*%
X133400000Y-91911472D02*
X133000000Y-92311472D01*
X133400000Y-85065686D02*
X133400000Y-91911472D01*
X132154314Y-83820000D02*
X133400000Y-85065686D01*
X128691472Y-83820000D02*
X132154314Y-83820000D01*
X128616000Y-83744528D02*
X128691472Y-83820000D01*
%TO.N,GND*%
X121920000Y-57404000D02*
X121920000Y-57150000D01*
X121666000Y-57658000D02*
X121920000Y-57404000D01*
X121920000Y-57150000D02*
X124206000Y-54864000D01*
%TO.N,SCSI_D1*%
X134397182Y-107438967D02*
X134200000Y-107241785D01*
X132000000Y-82000000D02*
X131900000Y-82000000D01*
X134200000Y-107241785D02*
X134200000Y-84200000D01*
X134200000Y-84200000D02*
X132000000Y-82000000D01*
%TO.N,SWCLK*%
X132400000Y-92062943D02*
X132400000Y-92560001D01*
X133000000Y-91462943D02*
X132400000Y-92062943D01*
X132400000Y-92560001D02*
X133400000Y-93560001D01*
X133400000Y-95200000D02*
X130922000Y-97678000D01*
X133000000Y-88000000D02*
X133000000Y-91462943D01*
X132000000Y-87000000D02*
X133000000Y-88000000D01*
X133400000Y-93560001D02*
X133400000Y-95200000D01*
X130922000Y-97678000D02*
X129540000Y-97678000D01*
D17*
%TO.N,+5V*%
X135000000Y-99060000D02*
X135000000Y-87460000D01*
X135000000Y-87460000D02*
X137500000Y-84960000D01*
%TO.N,+3V*%
X121921571Y-90424000D02*
X121921571Y-88078429D01*
D16*
%TO.N,SWDIO*%
X131274735Y-93980000D02*
X131274735Y-90626735D01*
X131274735Y-90626735D02*
X130048000Y-89400000D01*
X131274574Y-93980161D02*
X131274735Y-93980000D01*
D18*
%TO.N,+3V*%
X123500000Y-60508000D02*
X124206000Y-61214000D01*
X123500000Y-56500000D02*
X123500000Y-60508000D01*
D16*
%TO.N,GND*%
X125529498Y-78529498D02*
X129000000Y-82000000D01*
X125529498Y-78498558D02*
X125529498Y-78529498D01*
%TO.N,SCSI_IO*%
X134000000Y-61151470D02*
X132825735Y-62325735D01*
X134000000Y-59500000D02*
X134000000Y-61151470D01*
%TD*%
%TA.AperFunction,Conductor*%
%TO.N,GND*%
G36*
X136738726Y-53406185D02*
G01*
X136784481Y-53458989D01*
X136794425Y-53528147D01*
X136765400Y-53591703D01*
X136755225Y-53602137D01*
X136646129Y-53701590D01*
X136517632Y-53871746D01*
X136422596Y-54062605D01*
X136422596Y-54062607D01*
X136364244Y-54267689D01*
X136350671Y-54414174D01*
X136344571Y-54480000D01*
X136364244Y-54692310D01*
X136417675Y-54880099D01*
X136422596Y-54897392D01*
X136422596Y-54897394D01*
X136517632Y-55088253D01*
X136646127Y-55258406D01*
X136646128Y-55258407D01*
X136803698Y-55402052D01*
X136984981Y-55514298D01*
X137183802Y-55591321D01*
X137380613Y-55628111D01*
X137442893Y-55659779D01*
X137478166Y-55720092D01*
X137475232Y-55789900D01*
X137435023Y-55847040D01*
X137380613Y-55871888D01*
X137183802Y-55908679D01*
X137183799Y-55908679D01*
X137183799Y-55908680D01*
X136984982Y-55985701D01*
X136984980Y-55985702D01*
X136803699Y-56097947D01*
X136646127Y-56241593D01*
X136517632Y-56411746D01*
X136422596Y-56602605D01*
X136422596Y-56602607D01*
X136364244Y-56807689D01*
X136350671Y-56954174D01*
X136344571Y-57020000D01*
X136364244Y-57232310D01*
X136417675Y-57420099D01*
X136422596Y-57437392D01*
X136422596Y-57437394D01*
X136517632Y-57628253D01*
X136646127Y-57798406D01*
X136646128Y-57798407D01*
X136803698Y-57942052D01*
X136984981Y-58054298D01*
X137183802Y-58131321D01*
X137380613Y-58168111D01*
X137442893Y-58199779D01*
X137478166Y-58260092D01*
X137475232Y-58329900D01*
X137435023Y-58387040D01*
X137380613Y-58411888D01*
X137183802Y-58448679D01*
X137183799Y-58448679D01*
X137183799Y-58448680D01*
X136984982Y-58525701D01*
X136984980Y-58525702D01*
X136803699Y-58637947D01*
X136646127Y-58781593D01*
X136517632Y-58951746D01*
X136422596Y-59142605D01*
X136422596Y-59142607D01*
X136364244Y-59347689D01*
X136350671Y-59494174D01*
X136344571Y-59560000D01*
X136364244Y-59772310D01*
X136417675Y-59960099D01*
X136422596Y-59977392D01*
X136422596Y-59977394D01*
X136517632Y-60168253D01*
X136629429Y-60316294D01*
X136646128Y-60338407D01*
X136803698Y-60482052D01*
X136984981Y-60594298D01*
X137183802Y-60671321D01*
X137380613Y-60708111D01*
X137442893Y-60739779D01*
X137478166Y-60800092D01*
X137475232Y-60869900D01*
X137435023Y-60927040D01*
X137380613Y-60951888D01*
X137183802Y-60988679D01*
X137183799Y-60988679D01*
X137183799Y-60988680D01*
X136984982Y-61065701D01*
X136984980Y-61065702D01*
X136803699Y-61177947D01*
X136646127Y-61321593D01*
X136517632Y-61491746D01*
X136422596Y-61682605D01*
X136422596Y-61682607D01*
X136364244Y-61887689D01*
X136350671Y-62034174D01*
X136344571Y-62100000D01*
X136364244Y-62312310D01*
X136417675Y-62500099D01*
X136422596Y-62517392D01*
X136422596Y-62517394D01*
X136517632Y-62708253D01*
X136624880Y-62850271D01*
X136646128Y-62878407D01*
X136803698Y-63022052D01*
X136984981Y-63134298D01*
X137183802Y-63211321D01*
X137380613Y-63248111D01*
X137442893Y-63279779D01*
X137478166Y-63340092D01*
X137475232Y-63409900D01*
X137435023Y-63467040D01*
X137380613Y-63491888D01*
X137183802Y-63528679D01*
X137183799Y-63528679D01*
X137183799Y-63528680D01*
X136984982Y-63605701D01*
X136984980Y-63605702D01*
X136803699Y-63717947D01*
X136646127Y-63861593D01*
X136517632Y-64031746D01*
X136422596Y-64222605D01*
X136422596Y-64222607D01*
X136364244Y-64427689D01*
X136350671Y-64574174D01*
X136344571Y-64640000D01*
X136364244Y-64852310D01*
X136417675Y-65040099D01*
X136422596Y-65057392D01*
X136422596Y-65057394D01*
X136517632Y-65248253D01*
X136646127Y-65418406D01*
X136646128Y-65418407D01*
X136803698Y-65562052D01*
X136984981Y-65674298D01*
X137183802Y-65751321D01*
X137380613Y-65788111D01*
X137442893Y-65819779D01*
X137478166Y-65880092D01*
X137475232Y-65949900D01*
X137435023Y-66007040D01*
X137380613Y-66031888D01*
X137183802Y-66068679D01*
X137183799Y-66068679D01*
X137183799Y-66068680D01*
X136984982Y-66145701D01*
X136984980Y-66145702D01*
X136803699Y-66257947D01*
X136646127Y-66401593D01*
X136517632Y-66571746D01*
X136422596Y-66762605D01*
X136422596Y-66762607D01*
X136364244Y-66967689D01*
X136350671Y-67114174D01*
X136344571Y-67180000D01*
X136364244Y-67392310D01*
X136417675Y-67580099D01*
X136422596Y-67597392D01*
X136422596Y-67597394D01*
X136517632Y-67788253D01*
X136646127Y-67958406D01*
X136646128Y-67958407D01*
X136803698Y-68102052D01*
X136984981Y-68214298D01*
X137183802Y-68291321D01*
X137380613Y-68328111D01*
X137442893Y-68359779D01*
X137478166Y-68420092D01*
X137475232Y-68489900D01*
X137435023Y-68547040D01*
X137380613Y-68571888D01*
X137183802Y-68608679D01*
X137183799Y-68608679D01*
X137183799Y-68608680D01*
X136984982Y-68685701D01*
X136984980Y-68685702D01*
X136803699Y-68797947D01*
X136646127Y-68941593D01*
X136517632Y-69111746D01*
X136422596Y-69302605D01*
X136422596Y-69302607D01*
X136364244Y-69507689D01*
X136350671Y-69654174D01*
X136344571Y-69720000D01*
X136364244Y-69932310D01*
X136417675Y-70120099D01*
X136422596Y-70137392D01*
X136422596Y-70137394D01*
X136517632Y-70328253D01*
X136646127Y-70498406D01*
X136646128Y-70498407D01*
X136803698Y-70642052D01*
X136984981Y-70754298D01*
X137183802Y-70831321D01*
X137380613Y-70868111D01*
X137442893Y-70899779D01*
X137478166Y-70960092D01*
X137475232Y-71029900D01*
X137435023Y-71087040D01*
X137380613Y-71111888D01*
X137183802Y-71148679D01*
X137183799Y-71148679D01*
X137183799Y-71148680D01*
X136984982Y-71225701D01*
X136984980Y-71225702D01*
X136803699Y-71337947D01*
X136646127Y-71481593D01*
X136517632Y-71651746D01*
X136422596Y-71842605D01*
X136422596Y-71842607D01*
X136364244Y-72047689D01*
X136350671Y-72194174D01*
X136344571Y-72260000D01*
X136364244Y-72472310D01*
X136417675Y-72660099D01*
X136422596Y-72677392D01*
X136422596Y-72677394D01*
X136517632Y-72868253D01*
X136646127Y-73038406D01*
X136646128Y-73038407D01*
X136803698Y-73182052D01*
X136984981Y-73294298D01*
X137183802Y-73371321D01*
X137380613Y-73408111D01*
X137442893Y-73439779D01*
X137478166Y-73500092D01*
X137475232Y-73569900D01*
X137435023Y-73627040D01*
X137380613Y-73651888D01*
X137183802Y-73688679D01*
X137183799Y-73688679D01*
X137183799Y-73688680D01*
X136984982Y-73765701D01*
X136984980Y-73765702D01*
X136803699Y-73877947D01*
X136646127Y-74021593D01*
X136517632Y-74191746D01*
X136422596Y-74382605D01*
X136422596Y-74382607D01*
X136364244Y-74587689D01*
X136350671Y-74734174D01*
X136344571Y-74800000D01*
X136364244Y-75012310D01*
X136417675Y-75200099D01*
X136422596Y-75217392D01*
X136422596Y-75217394D01*
X136517632Y-75408253D01*
X136646127Y-75578406D01*
X136646128Y-75578407D01*
X136803698Y-75722052D01*
X136984981Y-75834298D01*
X137183802Y-75911321D01*
X137380613Y-75948111D01*
X137442893Y-75979779D01*
X137478166Y-76040092D01*
X137475232Y-76109900D01*
X137435023Y-76167040D01*
X137380613Y-76191888D01*
X137183802Y-76228679D01*
X137183799Y-76228679D01*
X137183799Y-76228680D01*
X136984982Y-76305701D01*
X136984980Y-76305702D01*
X136803699Y-76417947D01*
X136646127Y-76561593D01*
X136517632Y-76731746D01*
X136422596Y-76922605D01*
X136422596Y-76922607D01*
X136364244Y-77127689D01*
X136350671Y-77274174D01*
X136344571Y-77340000D01*
X136364244Y-77552310D01*
X136417675Y-77740099D01*
X136422596Y-77757392D01*
X136422596Y-77757394D01*
X136517632Y-77948253D01*
X136637383Y-78106827D01*
X136646128Y-78118407D01*
X136803698Y-78262052D01*
X136984981Y-78374298D01*
X137183802Y-78451321D01*
X137393390Y-78490500D01*
X137393392Y-78490500D01*
X137606608Y-78490500D01*
X137606610Y-78490500D01*
X137816198Y-78451321D01*
X138015019Y-78374298D01*
X138196302Y-78262052D01*
X138353872Y-78118407D01*
X138482366Y-77948255D01*
X138543216Y-77826051D01*
X138577403Y-77757394D01*
X138577403Y-77757393D01*
X138577405Y-77757389D01*
X138635756Y-77552310D01*
X138655429Y-77340000D01*
X138635756Y-77127690D01*
X138577405Y-76922611D01*
X138577403Y-76922606D01*
X138577403Y-76922605D01*
X138482367Y-76731746D01*
X138353872Y-76561593D01*
X138245427Y-76462732D01*
X138196302Y-76417948D01*
X138015019Y-76305702D01*
X138015017Y-76305701D01*
X137915608Y-76267190D01*
X137816198Y-76228679D01*
X137619385Y-76191888D01*
X137557106Y-76160221D01*
X137521833Y-76099908D01*
X137524767Y-76030100D01*
X137564976Y-75972960D01*
X137619384Y-75948111D01*
X137816198Y-75911321D01*
X138015019Y-75834298D01*
X138196302Y-75722052D01*
X138353872Y-75578407D01*
X138482366Y-75408255D01*
X138543216Y-75286051D01*
X138577403Y-75217394D01*
X138577403Y-75217393D01*
X138577405Y-75217389D01*
X138635756Y-75012310D01*
X138655429Y-74800000D01*
X138635756Y-74587690D01*
X138577405Y-74382611D01*
X138577403Y-74382606D01*
X138577403Y-74382605D01*
X138482367Y-74191746D01*
X138353872Y-74021593D01*
X138245427Y-73922732D01*
X138196302Y-73877948D01*
X138015019Y-73765702D01*
X138015017Y-73765701D01*
X137915608Y-73727190D01*
X137816198Y-73688679D01*
X137619385Y-73651888D01*
X137557106Y-73620221D01*
X137521833Y-73559908D01*
X137524767Y-73490100D01*
X137564976Y-73432960D01*
X137619384Y-73408111D01*
X137816198Y-73371321D01*
X138015019Y-73294298D01*
X138196302Y-73182052D01*
X138353872Y-73038407D01*
X138482366Y-72868255D01*
X138543216Y-72746051D01*
X138577403Y-72677394D01*
X138577403Y-72677393D01*
X138577405Y-72677389D01*
X138635756Y-72472310D01*
X138655429Y-72260000D01*
X138635756Y-72047690D01*
X138577405Y-71842611D01*
X138577403Y-71842606D01*
X138577403Y-71842605D01*
X138482367Y-71651746D01*
X138353872Y-71481593D01*
X138245427Y-71382732D01*
X138196302Y-71337948D01*
X138015019Y-71225702D01*
X138015017Y-71225701D01*
X137892917Y-71178400D01*
X137816198Y-71148679D01*
X137619385Y-71111888D01*
X137557106Y-71080221D01*
X137521833Y-71019908D01*
X137524767Y-70950100D01*
X137564976Y-70892960D01*
X137619384Y-70868111D01*
X137816198Y-70831321D01*
X138015019Y-70754298D01*
X138196302Y-70642052D01*
X138353872Y-70498407D01*
X138482366Y-70328255D01*
X138543216Y-70206051D01*
X138577403Y-70137394D01*
X138577403Y-70137393D01*
X138577405Y-70137389D01*
X138635756Y-69932310D01*
X138655429Y-69720000D01*
X138635756Y-69507690D01*
X138577405Y-69302611D01*
X138577403Y-69302606D01*
X138577403Y-69302605D01*
X138482367Y-69111746D01*
X138353872Y-68941593D01*
X138245427Y-68842732D01*
X138196302Y-68797948D01*
X138015019Y-68685702D01*
X138015017Y-68685701D01*
X137915608Y-68647190D01*
X137816198Y-68608679D01*
X137619385Y-68571888D01*
X137557106Y-68540221D01*
X137521833Y-68479908D01*
X137524767Y-68410100D01*
X137564976Y-68352960D01*
X137619384Y-68328111D01*
X137816198Y-68291321D01*
X138015019Y-68214298D01*
X138196302Y-68102052D01*
X138353872Y-67958407D01*
X138482366Y-67788255D01*
X138543216Y-67666051D01*
X138577403Y-67597394D01*
X138577403Y-67597393D01*
X138577405Y-67597389D01*
X138635756Y-67392310D01*
X138655429Y-67180000D01*
X138635756Y-66967690D01*
X138577405Y-66762611D01*
X138577403Y-66762606D01*
X138577403Y-66762605D01*
X138482367Y-66571746D01*
X138353872Y-66401593D01*
X138245427Y-66302732D01*
X138196302Y-66257948D01*
X138015019Y-66145702D01*
X138015017Y-66145701D01*
X137915608Y-66107190D01*
X137816198Y-66068679D01*
X137619385Y-66031888D01*
X137557106Y-66000221D01*
X137521833Y-65939908D01*
X137524767Y-65870100D01*
X137564976Y-65812960D01*
X137619384Y-65788111D01*
X137816198Y-65751321D01*
X138015019Y-65674298D01*
X138196302Y-65562052D01*
X138353872Y-65418407D01*
X138482366Y-65248255D01*
X138543216Y-65126051D01*
X138577403Y-65057394D01*
X138577403Y-65057393D01*
X138577405Y-65057389D01*
X138635756Y-64852310D01*
X138655429Y-64640000D01*
X138635756Y-64427690D01*
X138577405Y-64222611D01*
X138577403Y-64222606D01*
X138577403Y-64222605D01*
X138482367Y-64031746D01*
X138353872Y-63861593D01*
X138245427Y-63762732D01*
X138196302Y-63717948D01*
X138015019Y-63605702D01*
X138015017Y-63605701D01*
X137915608Y-63567190D01*
X137816198Y-63528679D01*
X137619385Y-63491888D01*
X137557106Y-63460221D01*
X137521833Y-63399908D01*
X137524767Y-63330100D01*
X137564976Y-63272960D01*
X137619384Y-63248111D01*
X137816198Y-63211321D01*
X138015019Y-63134298D01*
X138196302Y-63022052D01*
X138353872Y-62878407D01*
X138482366Y-62708255D01*
X138543216Y-62586051D01*
X138577403Y-62517394D01*
X138577403Y-62517393D01*
X138577405Y-62517389D01*
X138635756Y-62312310D01*
X138655429Y-62100000D01*
X138635756Y-61887690D01*
X138577405Y-61682611D01*
X138577403Y-61682606D01*
X138577403Y-61682605D01*
X138482367Y-61491746D01*
X138353872Y-61321593D01*
X138245427Y-61222732D01*
X138196302Y-61177948D01*
X138015019Y-61065702D01*
X138015017Y-61065701D01*
X137901939Y-61021895D01*
X137816198Y-60988679D01*
X137619385Y-60951888D01*
X137557106Y-60920221D01*
X137521833Y-60859908D01*
X137524767Y-60790100D01*
X137564976Y-60732960D01*
X137619384Y-60708111D01*
X137816198Y-60671321D01*
X138015019Y-60594298D01*
X138196302Y-60482052D01*
X138353872Y-60338407D01*
X138482366Y-60168255D01*
X138543216Y-60046051D01*
X138577403Y-59977394D01*
X138577403Y-59977393D01*
X138577405Y-59977389D01*
X138635756Y-59772310D01*
X138655429Y-59560000D01*
X138635756Y-59347690D01*
X138577405Y-59142611D01*
X138577403Y-59142606D01*
X138577403Y-59142605D01*
X138482367Y-58951746D01*
X138353872Y-58781593D01*
X138196302Y-58637948D01*
X138015019Y-58525702D01*
X138015017Y-58525701D01*
X137888803Y-58476806D01*
X137816198Y-58448679D01*
X137619385Y-58411888D01*
X137557106Y-58380221D01*
X137521833Y-58319908D01*
X137524767Y-58250100D01*
X137564976Y-58192960D01*
X137619384Y-58168111D01*
X137816198Y-58131321D01*
X138015019Y-58054298D01*
X138196302Y-57942052D01*
X138353872Y-57798407D01*
X138482366Y-57628255D01*
X138545612Y-57501239D01*
X138577403Y-57437394D01*
X138577403Y-57437393D01*
X138577405Y-57437389D01*
X138635756Y-57232310D01*
X138655429Y-57020000D01*
X138635756Y-56807690D01*
X138577405Y-56602611D01*
X138577403Y-56602606D01*
X138577403Y-56602605D01*
X138482367Y-56411746D01*
X138353872Y-56241593D01*
X138196302Y-56097948D01*
X138015019Y-55985702D01*
X138015017Y-55985701D01*
X137899422Y-55940920D01*
X137816198Y-55908679D01*
X137619385Y-55871888D01*
X137557106Y-55840221D01*
X137521833Y-55779908D01*
X137524767Y-55710100D01*
X137564976Y-55652960D01*
X137619384Y-55628111D01*
X137816198Y-55591321D01*
X138015019Y-55514298D01*
X138196302Y-55402052D01*
X138353872Y-55258407D01*
X138482366Y-55088255D01*
X138543216Y-54966051D01*
X138577403Y-54897394D01*
X138577403Y-54897393D01*
X138577405Y-54897389D01*
X138635756Y-54692310D01*
X138655429Y-54480000D01*
X138635756Y-54267690D01*
X138577405Y-54062611D01*
X138577403Y-54062606D01*
X138577403Y-54062605D01*
X138482367Y-53871746D01*
X138353870Y-53701590D01*
X138244775Y-53602137D01*
X138208493Y-53542426D01*
X138210254Y-53472578D01*
X138249498Y-53414771D01*
X138313764Y-53387356D01*
X138328313Y-53386500D01*
X139370750Y-53386500D01*
X139437789Y-53406185D01*
X139483544Y-53458989D01*
X139493488Y-53528147D01*
X139464463Y-53591703D01*
X139449415Y-53606353D01*
X139293944Y-53733944D01*
X139162732Y-53893826D01*
X139162728Y-53893833D01*
X139065233Y-54076233D01*
X139018590Y-54230000D01*
X139606988Y-54230000D01*
X139574075Y-54287007D01*
X139540000Y-54414174D01*
X139540000Y-54545826D01*
X139574075Y-54672993D01*
X139606988Y-54730000D01*
X139018590Y-54730000D01*
X139065233Y-54883766D01*
X139162728Y-55066166D01*
X139162732Y-55066173D01*
X139293944Y-55226055D01*
X139453826Y-55357267D01*
X139453833Y-55357271D01*
X139636233Y-55454766D01*
X139790000Y-55501410D01*
X139790000Y-54913012D01*
X139847007Y-54945925D01*
X139974174Y-54980000D01*
X140105826Y-54980000D01*
X140232993Y-54945925D01*
X140290000Y-54913012D01*
X140290000Y-55501410D01*
X140443766Y-55454766D01*
X140626166Y-55357271D01*
X140626173Y-55357267D01*
X140786055Y-55226055D01*
X140917267Y-55066173D01*
X140917269Y-55066170D01*
X140944141Y-55015896D01*
X140993103Y-54966051D01*
X141061241Y-54950590D01*
X141126921Y-54974421D01*
X141169290Y-55029978D01*
X141177500Y-55074348D01*
X141177500Y-56425651D01*
X141157815Y-56492690D01*
X141105011Y-56538445D01*
X141035853Y-56548389D01*
X140972297Y-56519364D01*
X140944142Y-56484104D01*
X140917271Y-56433833D01*
X140917267Y-56433826D01*
X140786055Y-56273944D01*
X140626173Y-56142732D01*
X140626166Y-56142728D01*
X140443763Y-56045232D01*
X140290000Y-55998587D01*
X140290000Y-56586988D01*
X140232993Y-56554075D01*
X140105826Y-56520000D01*
X139974174Y-56520000D01*
X139847007Y-56554075D01*
X139790000Y-56586988D01*
X139790000Y-55998587D01*
X139636236Y-56045232D01*
X139453833Y-56142728D01*
X139453826Y-56142732D01*
X139293944Y-56273944D01*
X139162732Y-56433826D01*
X139162728Y-56433833D01*
X139065233Y-56616233D01*
X139018590Y-56770000D01*
X139606988Y-56770000D01*
X139574075Y-56827007D01*
X139540000Y-56954174D01*
X139540000Y-57085826D01*
X139574075Y-57212993D01*
X139606988Y-57270000D01*
X139018590Y-57270000D01*
X139065233Y-57423766D01*
X139162728Y-57606166D01*
X139162732Y-57606173D01*
X139293944Y-57766055D01*
X139453826Y-57897267D01*
X139453833Y-57897271D01*
X139636233Y-57994766D01*
X139790000Y-58041410D01*
X139790000Y-57453012D01*
X139847007Y-57485925D01*
X139974174Y-57520000D01*
X140105826Y-57520000D01*
X140232993Y-57485925D01*
X140290000Y-57453012D01*
X140290000Y-58041410D01*
X140443766Y-57994766D01*
X140626166Y-57897271D01*
X140626173Y-57897267D01*
X140786055Y-57766055D01*
X140917267Y-57606173D01*
X140917269Y-57606170D01*
X140944141Y-57555896D01*
X140993103Y-57506051D01*
X141061241Y-57490590D01*
X141126921Y-57514421D01*
X141169290Y-57569978D01*
X141177500Y-57614348D01*
X141177500Y-58965651D01*
X141157815Y-59032690D01*
X141105011Y-59078445D01*
X141035853Y-59088389D01*
X140972297Y-59059364D01*
X140944142Y-59024104D01*
X140917271Y-58973833D01*
X140917267Y-58973826D01*
X140786055Y-58813944D01*
X140626173Y-58682732D01*
X140626166Y-58682728D01*
X140443763Y-58585232D01*
X140290000Y-58538587D01*
X140290000Y-59126988D01*
X140232993Y-59094075D01*
X140105826Y-59060000D01*
X139974174Y-59060000D01*
X139847007Y-59094075D01*
X139790000Y-59126988D01*
X139790000Y-58538587D01*
X139636236Y-58585232D01*
X139453833Y-58682728D01*
X139453826Y-58682732D01*
X139293944Y-58813944D01*
X139162732Y-58973826D01*
X139162728Y-58973833D01*
X139065233Y-59156233D01*
X139018590Y-59310000D01*
X139606988Y-59310000D01*
X139574075Y-59367007D01*
X139540000Y-59494174D01*
X139540000Y-59625826D01*
X139574075Y-59752993D01*
X139606988Y-59810000D01*
X139018590Y-59810000D01*
X139065233Y-59963766D01*
X139162728Y-60146166D01*
X139162732Y-60146173D01*
X139293944Y-60306055D01*
X139453826Y-60437267D01*
X139453833Y-60437271D01*
X139636233Y-60534766D01*
X139790000Y-60581410D01*
X139790000Y-59993012D01*
X139847007Y-60025925D01*
X139974174Y-60060000D01*
X140105826Y-60060000D01*
X140232993Y-60025925D01*
X140290000Y-59993012D01*
X140290000Y-60581410D01*
X140443766Y-60534766D01*
X140626166Y-60437271D01*
X140626173Y-60437267D01*
X140786055Y-60306055D01*
X140917267Y-60146173D01*
X140917269Y-60146170D01*
X140944141Y-60095896D01*
X140993103Y-60046051D01*
X141061241Y-60030590D01*
X141126921Y-60054421D01*
X141169290Y-60109978D01*
X141177500Y-60154348D01*
X141177500Y-61505651D01*
X141157815Y-61572690D01*
X141105011Y-61618445D01*
X141035853Y-61628389D01*
X140972297Y-61599364D01*
X140944142Y-61564104D01*
X140917271Y-61513833D01*
X140917267Y-61513826D01*
X140786055Y-61353944D01*
X140626173Y-61222732D01*
X140626166Y-61222728D01*
X140443763Y-61125232D01*
X140290000Y-61078587D01*
X140290000Y-61666988D01*
X140232993Y-61634075D01*
X140105826Y-61600000D01*
X139974174Y-61600000D01*
X139847007Y-61634075D01*
X139790000Y-61666988D01*
X139790000Y-61078587D01*
X139636236Y-61125232D01*
X139453833Y-61222728D01*
X139453826Y-61222732D01*
X139293944Y-61353944D01*
X139162732Y-61513826D01*
X139162728Y-61513833D01*
X139065233Y-61696233D01*
X139018590Y-61850000D01*
X139606988Y-61850000D01*
X139574075Y-61907007D01*
X139540000Y-62034174D01*
X139540000Y-62165826D01*
X139574075Y-62292993D01*
X139606988Y-62350000D01*
X139018590Y-62350000D01*
X139065233Y-62503766D01*
X139162728Y-62686166D01*
X139162732Y-62686173D01*
X139293944Y-62846055D01*
X139453826Y-62977267D01*
X139453833Y-62977271D01*
X139636233Y-63074766D01*
X139790000Y-63121410D01*
X139790000Y-62533012D01*
X139847007Y-62565925D01*
X139974174Y-62600000D01*
X140105826Y-62600000D01*
X140232993Y-62565925D01*
X140290000Y-62533012D01*
X140290000Y-63121410D01*
X140443766Y-63074766D01*
X140626166Y-62977271D01*
X140626173Y-62977267D01*
X140786055Y-62846055D01*
X140917267Y-62686173D01*
X140917269Y-62686170D01*
X140944141Y-62635896D01*
X140993103Y-62586051D01*
X141061241Y-62570590D01*
X141126921Y-62594421D01*
X141169290Y-62649978D01*
X141177500Y-62694348D01*
X141177500Y-64045651D01*
X141157815Y-64112690D01*
X141105011Y-64158445D01*
X141035853Y-64168389D01*
X140972297Y-64139364D01*
X140944142Y-64104104D01*
X140917271Y-64053833D01*
X140917267Y-64053826D01*
X140786055Y-63893944D01*
X140626173Y-63762732D01*
X140626166Y-63762728D01*
X140443763Y-63665232D01*
X140290000Y-63618587D01*
X140290000Y-64206988D01*
X140232993Y-64174075D01*
X140105826Y-64140000D01*
X139974174Y-64140000D01*
X139847007Y-64174075D01*
X139790000Y-64206988D01*
X139790000Y-63618587D01*
X139636236Y-63665232D01*
X139453833Y-63762728D01*
X139453826Y-63762732D01*
X139293944Y-63893944D01*
X139162732Y-64053826D01*
X139162728Y-64053833D01*
X139065233Y-64236233D01*
X139018590Y-64390000D01*
X139606988Y-64390000D01*
X139574075Y-64447007D01*
X139540000Y-64574174D01*
X139540000Y-64705826D01*
X139574075Y-64832993D01*
X139606988Y-64890000D01*
X139018590Y-64890000D01*
X139065233Y-65043766D01*
X139162728Y-65226166D01*
X139162732Y-65226173D01*
X139293944Y-65386055D01*
X139453826Y-65517267D01*
X139453833Y-65517271D01*
X139636233Y-65614766D01*
X139790000Y-65661410D01*
X139790000Y-65073012D01*
X139847007Y-65105925D01*
X139974174Y-65140000D01*
X140105826Y-65140000D01*
X140232993Y-65105925D01*
X140290000Y-65073012D01*
X140290000Y-65661410D01*
X140443766Y-65614766D01*
X140626166Y-65517271D01*
X140626173Y-65517267D01*
X140786055Y-65386055D01*
X140917267Y-65226173D01*
X140917269Y-65226170D01*
X140944141Y-65175896D01*
X140993103Y-65126051D01*
X141061241Y-65110590D01*
X141126921Y-65134421D01*
X141169290Y-65189978D01*
X141177500Y-65234348D01*
X141177500Y-66585651D01*
X141157815Y-66652690D01*
X141105011Y-66698445D01*
X141035853Y-66708389D01*
X140972297Y-66679364D01*
X140944142Y-66644104D01*
X140917271Y-66593833D01*
X140917267Y-66593826D01*
X140786055Y-66433944D01*
X140626173Y-66302732D01*
X140626166Y-66302728D01*
X140443763Y-66205232D01*
X140290000Y-66158587D01*
X140290000Y-66746988D01*
X140232993Y-66714075D01*
X140105826Y-66680000D01*
X139974174Y-66680000D01*
X139847007Y-66714075D01*
X139790000Y-66746988D01*
X139790000Y-66158587D01*
X139636236Y-66205232D01*
X139453833Y-66302728D01*
X139453826Y-66302732D01*
X139293944Y-66433944D01*
X139162732Y-66593826D01*
X139162728Y-66593833D01*
X139065233Y-66776233D01*
X139018590Y-66930000D01*
X139606988Y-66930000D01*
X139574075Y-66987007D01*
X139540000Y-67114174D01*
X139540000Y-67245826D01*
X139574075Y-67372993D01*
X139606988Y-67430000D01*
X139018590Y-67430000D01*
X139065233Y-67583766D01*
X139162728Y-67766166D01*
X139162732Y-67766173D01*
X139293944Y-67926055D01*
X139453826Y-68057267D01*
X139453833Y-68057271D01*
X139636233Y-68154766D01*
X139790000Y-68201410D01*
X139790000Y-67613012D01*
X139847007Y-67645925D01*
X139974174Y-67680000D01*
X140105826Y-67680000D01*
X140232993Y-67645925D01*
X140290000Y-67613012D01*
X140290000Y-68201410D01*
X140443766Y-68154766D01*
X140626166Y-68057271D01*
X140626173Y-68057267D01*
X140786055Y-67926055D01*
X140917267Y-67766173D01*
X140917269Y-67766170D01*
X140944141Y-67715896D01*
X140993103Y-67666051D01*
X141061241Y-67650590D01*
X141126921Y-67674421D01*
X141169290Y-67729978D01*
X141177500Y-67774348D01*
X141177500Y-69125651D01*
X141157815Y-69192690D01*
X141105011Y-69238445D01*
X141035853Y-69248389D01*
X140972297Y-69219364D01*
X140944142Y-69184104D01*
X140917271Y-69133833D01*
X140917267Y-69133826D01*
X140786055Y-68973944D01*
X140626173Y-68842732D01*
X140626166Y-68842728D01*
X140443763Y-68745232D01*
X140290000Y-68698587D01*
X140290000Y-69286988D01*
X140232993Y-69254075D01*
X140105826Y-69220000D01*
X139974174Y-69220000D01*
X139847007Y-69254075D01*
X139790000Y-69286988D01*
X139790000Y-68698587D01*
X139636236Y-68745232D01*
X139453833Y-68842728D01*
X139453826Y-68842732D01*
X139293944Y-68973944D01*
X139162732Y-69133826D01*
X139162728Y-69133833D01*
X139065233Y-69316233D01*
X139018590Y-69470000D01*
X139606988Y-69470000D01*
X139574075Y-69527007D01*
X139540000Y-69654174D01*
X139540000Y-69785826D01*
X139574075Y-69912993D01*
X139606988Y-69970000D01*
X139018590Y-69970000D01*
X139065233Y-70123766D01*
X139162728Y-70306166D01*
X139162732Y-70306173D01*
X139293944Y-70466055D01*
X139453826Y-70597267D01*
X139453833Y-70597271D01*
X139636233Y-70694766D01*
X139790000Y-70741410D01*
X139790000Y-70153012D01*
X139847007Y-70185925D01*
X139974174Y-70220000D01*
X140105826Y-70220000D01*
X140232993Y-70185925D01*
X140290000Y-70153012D01*
X140290000Y-70741410D01*
X140443766Y-70694766D01*
X140626166Y-70597271D01*
X140626173Y-70597267D01*
X140786055Y-70466055D01*
X140917267Y-70306173D01*
X140917269Y-70306170D01*
X140944141Y-70255896D01*
X140993103Y-70206051D01*
X141061241Y-70190590D01*
X141126921Y-70214421D01*
X141169290Y-70269978D01*
X141177500Y-70314348D01*
X141177500Y-71665651D01*
X141157815Y-71732690D01*
X141105011Y-71778445D01*
X141035853Y-71788389D01*
X140972297Y-71759364D01*
X140944142Y-71724104D01*
X140917271Y-71673833D01*
X140917267Y-71673826D01*
X140786055Y-71513944D01*
X140626173Y-71382732D01*
X140626166Y-71382728D01*
X140443763Y-71285232D01*
X140290000Y-71238587D01*
X140290000Y-71826988D01*
X140232993Y-71794075D01*
X140105826Y-71760000D01*
X139974174Y-71760000D01*
X139847007Y-71794075D01*
X139790000Y-71826988D01*
X139790000Y-71238587D01*
X139636236Y-71285232D01*
X139453833Y-71382728D01*
X139453826Y-71382732D01*
X139293944Y-71513944D01*
X139162732Y-71673826D01*
X139162728Y-71673833D01*
X139065233Y-71856233D01*
X139018590Y-72010000D01*
X139606988Y-72010000D01*
X139574075Y-72067007D01*
X139540000Y-72194174D01*
X139540000Y-72325826D01*
X139574075Y-72452993D01*
X139606988Y-72510000D01*
X139018590Y-72510000D01*
X139065233Y-72663766D01*
X139162728Y-72846166D01*
X139162732Y-72846173D01*
X139293944Y-73006055D01*
X139453826Y-73137267D01*
X139453833Y-73137271D01*
X139636233Y-73234766D01*
X139790000Y-73281410D01*
X139790000Y-72693012D01*
X139847007Y-72725925D01*
X139974174Y-72760000D01*
X140105826Y-72760000D01*
X140232993Y-72725925D01*
X140290000Y-72693012D01*
X140290000Y-73281410D01*
X140443766Y-73234766D01*
X140626166Y-73137271D01*
X140626173Y-73137267D01*
X140786055Y-73006055D01*
X140917267Y-72846173D01*
X140917269Y-72846170D01*
X140944141Y-72795896D01*
X140993103Y-72746051D01*
X141061241Y-72730590D01*
X141126921Y-72754421D01*
X141169290Y-72809978D01*
X141177500Y-72854348D01*
X141177500Y-74205651D01*
X141157815Y-74272690D01*
X141105011Y-74318445D01*
X141035853Y-74328389D01*
X140972297Y-74299364D01*
X140944142Y-74264104D01*
X140917271Y-74213833D01*
X140917267Y-74213826D01*
X140786055Y-74053944D01*
X140626173Y-73922732D01*
X140626166Y-73922728D01*
X140443763Y-73825232D01*
X140290000Y-73778587D01*
X140290000Y-74366988D01*
X140232993Y-74334075D01*
X140105826Y-74300000D01*
X139974174Y-74300000D01*
X139847007Y-74334075D01*
X139790000Y-74366988D01*
X139790000Y-73778587D01*
X139636236Y-73825232D01*
X139453833Y-73922728D01*
X139453826Y-73922732D01*
X139293944Y-74053944D01*
X139162732Y-74213826D01*
X139162728Y-74213833D01*
X139065233Y-74396233D01*
X139018590Y-74550000D01*
X139606988Y-74550000D01*
X139574075Y-74607007D01*
X139540000Y-74734174D01*
X139540000Y-74865826D01*
X139574075Y-74992993D01*
X139606988Y-75050000D01*
X139018590Y-75050000D01*
X139065233Y-75203766D01*
X139162728Y-75386166D01*
X139162732Y-75386173D01*
X139293944Y-75546055D01*
X139453826Y-75677267D01*
X139453833Y-75677271D01*
X139636233Y-75774766D01*
X139790000Y-75821410D01*
X139790000Y-75233012D01*
X139847007Y-75265925D01*
X139974174Y-75300000D01*
X140105826Y-75300000D01*
X140232993Y-75265925D01*
X140290000Y-75233012D01*
X140290000Y-75821410D01*
X140443766Y-75774766D01*
X140626166Y-75677271D01*
X140626173Y-75677267D01*
X140786055Y-75546055D01*
X140917267Y-75386173D01*
X140917269Y-75386170D01*
X140944141Y-75335896D01*
X140993103Y-75286051D01*
X141061241Y-75270590D01*
X141126921Y-75294421D01*
X141169290Y-75349978D01*
X141177500Y-75394348D01*
X141177500Y-76745651D01*
X141157815Y-76812690D01*
X141105011Y-76858445D01*
X141035853Y-76868389D01*
X140972297Y-76839364D01*
X140944142Y-76804104D01*
X140917271Y-76753833D01*
X140917267Y-76753826D01*
X140786055Y-76593944D01*
X140626173Y-76462732D01*
X140626166Y-76462728D01*
X140443763Y-76365232D01*
X140290000Y-76318587D01*
X140290000Y-76906988D01*
X140232993Y-76874075D01*
X140105826Y-76840000D01*
X139974174Y-76840000D01*
X139847007Y-76874075D01*
X139790000Y-76906988D01*
X139790000Y-76318587D01*
X139636236Y-76365232D01*
X139453833Y-76462728D01*
X139453826Y-76462732D01*
X139293944Y-76593944D01*
X139162732Y-76753826D01*
X139162728Y-76753833D01*
X139065233Y-76936233D01*
X139018590Y-77090000D01*
X139606988Y-77090000D01*
X139574075Y-77147007D01*
X139540000Y-77274174D01*
X139540000Y-77405826D01*
X139574075Y-77532993D01*
X139606988Y-77590000D01*
X139018590Y-77590000D01*
X139065233Y-77743766D01*
X139162728Y-77926166D01*
X139162732Y-77926173D01*
X139293944Y-78086055D01*
X139453826Y-78217267D01*
X139453833Y-78217271D01*
X139636233Y-78314766D01*
X139790000Y-78361410D01*
X139790000Y-77773012D01*
X139847007Y-77805925D01*
X139974174Y-77840000D01*
X140105826Y-77840000D01*
X140232993Y-77805925D01*
X140290000Y-77773012D01*
X140290000Y-78361410D01*
X140443766Y-78314766D01*
X140626166Y-78217271D01*
X140626173Y-78217267D01*
X140786055Y-78086055D01*
X140917267Y-77926173D01*
X140917269Y-77926170D01*
X140944141Y-77875896D01*
X140993103Y-77826051D01*
X141061241Y-77810590D01*
X141126921Y-77834421D01*
X141169290Y-77889978D01*
X141177500Y-77934348D01*
X141177500Y-79285651D01*
X141157815Y-79352690D01*
X141105011Y-79398445D01*
X141035853Y-79408389D01*
X140972297Y-79379364D01*
X140944142Y-79344104D01*
X140917271Y-79293833D01*
X140917267Y-79293826D01*
X140786055Y-79133944D01*
X140626173Y-79002732D01*
X140626166Y-79002728D01*
X140443763Y-78905232D01*
X140290000Y-78858587D01*
X140290000Y-79446988D01*
X140232993Y-79414075D01*
X140105826Y-79380000D01*
X139974174Y-79380000D01*
X139847007Y-79414075D01*
X139790000Y-79446988D01*
X139790000Y-78858587D01*
X139636236Y-78905232D01*
X139453833Y-79002728D01*
X139453826Y-79002732D01*
X139293944Y-79133944D01*
X139162732Y-79293826D01*
X139162728Y-79293833D01*
X139065233Y-79476233D01*
X139018590Y-79630000D01*
X139606988Y-79630000D01*
X139574075Y-79687007D01*
X139540000Y-79814174D01*
X139540000Y-79945826D01*
X139574075Y-80072993D01*
X139606988Y-80130000D01*
X139018590Y-80130000D01*
X139065233Y-80283766D01*
X139162728Y-80466166D01*
X139162732Y-80466173D01*
X139293944Y-80626055D01*
X139453826Y-80757267D01*
X139453833Y-80757271D01*
X139636233Y-80854766D01*
X139790000Y-80901410D01*
X139790000Y-80313012D01*
X139847007Y-80345925D01*
X139974174Y-80380000D01*
X140105826Y-80380000D01*
X140232993Y-80345925D01*
X140290000Y-80313012D01*
X140290000Y-80901410D01*
X140443766Y-80854766D01*
X140626166Y-80757271D01*
X140626173Y-80757267D01*
X140786055Y-80626055D01*
X140917267Y-80466173D01*
X140917269Y-80466170D01*
X140944141Y-80415896D01*
X140993103Y-80366051D01*
X141061241Y-80350590D01*
X141126921Y-80374421D01*
X141169290Y-80429978D01*
X141177500Y-80474348D01*
X141177500Y-81825651D01*
X141157815Y-81892690D01*
X141105011Y-81938445D01*
X141035853Y-81948389D01*
X140972297Y-81919364D01*
X140944142Y-81884104D01*
X140917271Y-81833833D01*
X140917267Y-81833826D01*
X140786055Y-81673944D01*
X140626173Y-81542732D01*
X140626166Y-81542728D01*
X140443763Y-81445232D01*
X140290000Y-81398587D01*
X140290000Y-81986988D01*
X140232993Y-81954075D01*
X140105826Y-81920000D01*
X139974174Y-81920000D01*
X139847007Y-81954075D01*
X139790000Y-81986988D01*
X139790000Y-81398587D01*
X139636236Y-81445232D01*
X139453833Y-81542728D01*
X139453826Y-81542732D01*
X139293944Y-81673944D01*
X139162732Y-81833826D01*
X139162728Y-81833833D01*
X139065233Y-82016233D01*
X139018590Y-82170000D01*
X139606988Y-82170000D01*
X139574075Y-82227007D01*
X139540000Y-82354174D01*
X139540000Y-82485826D01*
X139574075Y-82612993D01*
X139606988Y-82670000D01*
X139018590Y-82670000D01*
X139065233Y-82823766D01*
X139162728Y-83006166D01*
X139162732Y-83006173D01*
X139293944Y-83166055D01*
X139453826Y-83297267D01*
X139453833Y-83297271D01*
X139636233Y-83394766D01*
X139790000Y-83441410D01*
X139790000Y-82853012D01*
X139847007Y-82885925D01*
X139974174Y-82920000D01*
X140105826Y-82920000D01*
X140232993Y-82885925D01*
X140290000Y-82853012D01*
X140290000Y-83441410D01*
X140443766Y-83394766D01*
X140626166Y-83297271D01*
X140626173Y-83297267D01*
X140786055Y-83166055D01*
X140917267Y-83006173D01*
X140917269Y-83006170D01*
X140948580Y-82947590D01*
X140997542Y-82897745D01*
X141065679Y-82882284D01*
X141131359Y-82906115D01*
X141173729Y-82961672D01*
X141177157Y-82971938D01*
X141188110Y-83010226D01*
X141188667Y-83012236D01*
X141198056Y-83047276D01*
X141198555Y-83048426D01*
X141199361Y-83050327D01*
X141199817Y-83051428D01*
X141218487Y-83082545D01*
X141219544Y-83084342D01*
X141238159Y-83116585D01*
X141244512Y-83125921D01*
X141521620Y-83587767D01*
X141741410Y-83954084D01*
X141921829Y-84254781D01*
X141939500Y-84318579D01*
X141939500Y-85353419D01*
X141921829Y-85417217D01*
X141244510Y-86546081D01*
X141238159Y-86555415D01*
X141219539Y-86587666D01*
X141218484Y-86589459D01*
X141199813Y-86620577D01*
X141199341Y-86621719D01*
X141198530Y-86623633D01*
X141198054Y-86624727D01*
X141188672Y-86659741D01*
X141188117Y-86661743D01*
X141178125Y-86696675D01*
X141177968Y-86697873D01*
X141177675Y-86699959D01*
X141177500Y-86701134D01*
X141177500Y-86737454D01*
X141177482Y-86739541D01*
X141176855Y-86776740D01*
X141177500Y-86788018D01*
X141177500Y-86905651D01*
X141157815Y-86972690D01*
X141105011Y-87018445D01*
X141035853Y-87028389D01*
X140972297Y-86999364D01*
X140944142Y-86964104D01*
X140917271Y-86913833D01*
X140917267Y-86913826D01*
X140786055Y-86753944D01*
X140626173Y-86622732D01*
X140626166Y-86622728D01*
X140443763Y-86525232D01*
X140290000Y-86478587D01*
X140290000Y-87066988D01*
X140232993Y-87034075D01*
X140105826Y-87000000D01*
X139974174Y-87000000D01*
X139847007Y-87034075D01*
X139790000Y-87066988D01*
X139790000Y-86478587D01*
X139636236Y-86525232D01*
X139453833Y-86622728D01*
X139453826Y-86622732D01*
X139293944Y-86753944D01*
X139162732Y-86913826D01*
X139162728Y-86913833D01*
X139065233Y-87096233D01*
X139018590Y-87250000D01*
X139606988Y-87250000D01*
X139574075Y-87307007D01*
X139540000Y-87434174D01*
X139540000Y-87565826D01*
X139574075Y-87692993D01*
X139606988Y-87750000D01*
X139018590Y-87750000D01*
X139065233Y-87903766D01*
X139162728Y-88086166D01*
X139162732Y-88086173D01*
X139293944Y-88246055D01*
X139453826Y-88377267D01*
X139453833Y-88377271D01*
X139636233Y-88474766D01*
X139790000Y-88521410D01*
X139790000Y-87933012D01*
X139847007Y-87965925D01*
X139974174Y-88000000D01*
X140105826Y-88000000D01*
X140232993Y-87965925D01*
X140290000Y-87933012D01*
X140290000Y-88521410D01*
X140443766Y-88474766D01*
X140626166Y-88377271D01*
X140626173Y-88377267D01*
X140786055Y-88246055D01*
X140917267Y-88086173D01*
X140917269Y-88086170D01*
X140944141Y-88035896D01*
X140993103Y-87986051D01*
X141061241Y-87970590D01*
X141126921Y-87994421D01*
X141169290Y-88049978D01*
X141177500Y-88094348D01*
X141177500Y-89445651D01*
X141157815Y-89512690D01*
X141105011Y-89558445D01*
X141035853Y-89568389D01*
X140972297Y-89539364D01*
X140944142Y-89504104D01*
X140917271Y-89453833D01*
X140917267Y-89453826D01*
X140786055Y-89293944D01*
X140626173Y-89162732D01*
X140626166Y-89162728D01*
X140443763Y-89065232D01*
X140290000Y-89018587D01*
X140290000Y-89606988D01*
X140232993Y-89574075D01*
X140105826Y-89540000D01*
X139974174Y-89540000D01*
X139847007Y-89574075D01*
X139790000Y-89606988D01*
X139790000Y-89018587D01*
X139636236Y-89065232D01*
X139453833Y-89162728D01*
X139453826Y-89162732D01*
X139293944Y-89293944D01*
X139162732Y-89453826D01*
X139162728Y-89453833D01*
X139065233Y-89636233D01*
X139018590Y-89790000D01*
X139606988Y-89790000D01*
X139574075Y-89847007D01*
X139540000Y-89974174D01*
X139540000Y-90105826D01*
X139574075Y-90232993D01*
X139606988Y-90290000D01*
X139018590Y-90290000D01*
X139065233Y-90443766D01*
X139162728Y-90626166D01*
X139162732Y-90626173D01*
X139293944Y-90786055D01*
X139453826Y-90917267D01*
X139453833Y-90917271D01*
X139636233Y-91014766D01*
X139790000Y-91061410D01*
X139790000Y-90473012D01*
X139847007Y-90505925D01*
X139974174Y-90540000D01*
X140105826Y-90540000D01*
X140232993Y-90505925D01*
X140290000Y-90473012D01*
X140290000Y-91061410D01*
X140443766Y-91014766D01*
X140626166Y-90917271D01*
X140626173Y-90917267D01*
X140786055Y-90786055D01*
X140917267Y-90626173D01*
X140917269Y-90626170D01*
X140944141Y-90575896D01*
X140993103Y-90526051D01*
X141061241Y-90510590D01*
X141126921Y-90534421D01*
X141169290Y-90589978D01*
X141177500Y-90634348D01*
X141177500Y-91985651D01*
X141157815Y-92052690D01*
X141105011Y-92098445D01*
X141035853Y-92108389D01*
X140972297Y-92079364D01*
X140944142Y-92044104D01*
X140917271Y-91993833D01*
X140917267Y-91993826D01*
X140786055Y-91833944D01*
X140626173Y-91702732D01*
X140626166Y-91702728D01*
X140443763Y-91605232D01*
X140290000Y-91558587D01*
X140290000Y-92146988D01*
X140232993Y-92114075D01*
X140105826Y-92080000D01*
X139974174Y-92080000D01*
X139847007Y-92114075D01*
X139790000Y-92146988D01*
X139790000Y-91558587D01*
X139636236Y-91605232D01*
X139453833Y-91702728D01*
X139453826Y-91702732D01*
X139293944Y-91833944D01*
X139162732Y-91993826D01*
X139162728Y-91993833D01*
X139065233Y-92176233D01*
X139018590Y-92330000D01*
X139606988Y-92330000D01*
X139574075Y-92387007D01*
X139540000Y-92514174D01*
X139540000Y-92645826D01*
X139574075Y-92772993D01*
X139606988Y-92830000D01*
X139018590Y-92830000D01*
X139065233Y-92983766D01*
X139162728Y-93166166D01*
X139162732Y-93166173D01*
X139293944Y-93326055D01*
X139453826Y-93457267D01*
X139453833Y-93457271D01*
X139636233Y-93554766D01*
X139790000Y-93601410D01*
X139790000Y-93013012D01*
X139847007Y-93045925D01*
X139974174Y-93080000D01*
X140105826Y-93080000D01*
X140232993Y-93045925D01*
X140290000Y-93013012D01*
X140290000Y-93601410D01*
X140443766Y-93554766D01*
X140626166Y-93457271D01*
X140626173Y-93457267D01*
X140786055Y-93326055D01*
X140917267Y-93166173D01*
X140917269Y-93166170D01*
X140944141Y-93115896D01*
X140993103Y-93066051D01*
X141061241Y-93050590D01*
X141126921Y-93074421D01*
X141169290Y-93129978D01*
X141177500Y-93174348D01*
X141177500Y-94525651D01*
X141157815Y-94592690D01*
X141105011Y-94638445D01*
X141035853Y-94648389D01*
X140972297Y-94619364D01*
X140944142Y-94584104D01*
X140917271Y-94533833D01*
X140917267Y-94533826D01*
X140786055Y-94373944D01*
X140626173Y-94242732D01*
X140626166Y-94242728D01*
X140443763Y-94145232D01*
X140290000Y-94098587D01*
X140290000Y-94686988D01*
X140232993Y-94654075D01*
X140105826Y-94620000D01*
X139974174Y-94620000D01*
X139847007Y-94654075D01*
X139790000Y-94686988D01*
X139790000Y-94098587D01*
X139636236Y-94145232D01*
X139453833Y-94242728D01*
X139453826Y-94242732D01*
X139293944Y-94373944D01*
X139162732Y-94533826D01*
X139162728Y-94533833D01*
X139065233Y-94716233D01*
X139018590Y-94870000D01*
X139606988Y-94870000D01*
X139574075Y-94927007D01*
X139540000Y-95054174D01*
X139540000Y-95185826D01*
X139574075Y-95312993D01*
X139606988Y-95370000D01*
X139018590Y-95370000D01*
X139065233Y-95523766D01*
X139162728Y-95706166D01*
X139162732Y-95706173D01*
X139293944Y-95866055D01*
X139453826Y-95997267D01*
X139453833Y-95997271D01*
X139636233Y-96094766D01*
X139790000Y-96141410D01*
X139790000Y-95553012D01*
X139847007Y-95585925D01*
X139974174Y-95620000D01*
X140105826Y-95620000D01*
X140232993Y-95585925D01*
X140290000Y-95553012D01*
X140290000Y-96141410D01*
X140443766Y-96094766D01*
X140626166Y-95997271D01*
X140626173Y-95997267D01*
X140786055Y-95866055D01*
X140917267Y-95706173D01*
X140917269Y-95706170D01*
X140944141Y-95655896D01*
X140993103Y-95606051D01*
X141061241Y-95590590D01*
X141126921Y-95614421D01*
X141169290Y-95669978D01*
X141177500Y-95714348D01*
X141177500Y-97065651D01*
X141157815Y-97132690D01*
X141105011Y-97178445D01*
X141035853Y-97188389D01*
X140972297Y-97159364D01*
X140944142Y-97124104D01*
X140917271Y-97073833D01*
X140917267Y-97073826D01*
X140786055Y-96913944D01*
X140626173Y-96782732D01*
X140626166Y-96782728D01*
X140443763Y-96685232D01*
X140290000Y-96638587D01*
X140290000Y-97226988D01*
X140232993Y-97194075D01*
X140105826Y-97160000D01*
X139974174Y-97160000D01*
X139847007Y-97194075D01*
X139790000Y-97226988D01*
X139790000Y-96638587D01*
X139636236Y-96685232D01*
X139453833Y-96782728D01*
X139453826Y-96782732D01*
X139293944Y-96913944D01*
X139162732Y-97073826D01*
X139162728Y-97073833D01*
X139065233Y-97256233D01*
X139018590Y-97410000D01*
X139606988Y-97410000D01*
X139574075Y-97467007D01*
X139540000Y-97594174D01*
X139540000Y-97725826D01*
X139574075Y-97852993D01*
X139606988Y-97910000D01*
X139018590Y-97910000D01*
X139065233Y-98063766D01*
X139162728Y-98246166D01*
X139162732Y-98246173D01*
X139293944Y-98406055D01*
X139453826Y-98537267D01*
X139453833Y-98537271D01*
X139636233Y-98634766D01*
X139790000Y-98681410D01*
X139790000Y-98093012D01*
X139847007Y-98125925D01*
X139974174Y-98160000D01*
X140105826Y-98160000D01*
X140232993Y-98125925D01*
X140290000Y-98093012D01*
X140290000Y-98681410D01*
X140443766Y-98634766D01*
X140626166Y-98537271D01*
X140626173Y-98537267D01*
X140786055Y-98406055D01*
X140917267Y-98246173D01*
X140917269Y-98246170D01*
X140944141Y-98195896D01*
X140993103Y-98146051D01*
X141061241Y-98130590D01*
X141126921Y-98154421D01*
X141169290Y-98209978D01*
X141177500Y-98254348D01*
X141177500Y-99605651D01*
X141157815Y-99672690D01*
X141105011Y-99718445D01*
X141035853Y-99728389D01*
X140972297Y-99699364D01*
X140944142Y-99664104D01*
X140917271Y-99613833D01*
X140917267Y-99613826D01*
X140786055Y-99453944D01*
X140626173Y-99322732D01*
X140626166Y-99322728D01*
X140443763Y-99225232D01*
X140290000Y-99178587D01*
X140290000Y-99766988D01*
X140232993Y-99734075D01*
X140105826Y-99700000D01*
X139974174Y-99700000D01*
X139847007Y-99734075D01*
X139790000Y-99766988D01*
X139790000Y-99178587D01*
X139636236Y-99225232D01*
X139453833Y-99322728D01*
X139453826Y-99322732D01*
X139293944Y-99453944D01*
X139162732Y-99613826D01*
X139162728Y-99613833D01*
X139065233Y-99796233D01*
X139018590Y-99950000D01*
X139606988Y-99950000D01*
X139574075Y-100007007D01*
X139540000Y-100134174D01*
X139540000Y-100265826D01*
X139574075Y-100392993D01*
X139606988Y-100450000D01*
X139018590Y-100450000D01*
X139065233Y-100603766D01*
X139162728Y-100786166D01*
X139162732Y-100786173D01*
X139293944Y-100946055D01*
X139453826Y-101077267D01*
X139453833Y-101077271D01*
X139636233Y-101174766D01*
X139790000Y-101221410D01*
X139790000Y-100633012D01*
X139847007Y-100665925D01*
X139974174Y-100700000D01*
X140105826Y-100700000D01*
X140232993Y-100665925D01*
X140290000Y-100633012D01*
X140290000Y-101221410D01*
X140443766Y-101174766D01*
X140626166Y-101077271D01*
X140626173Y-101077267D01*
X140786055Y-100946055D01*
X140917267Y-100786173D01*
X140917269Y-100786170D01*
X140944141Y-100735896D01*
X140993103Y-100686051D01*
X141061241Y-100670590D01*
X141126921Y-100694421D01*
X141169290Y-100749978D01*
X141177500Y-100794348D01*
X141177500Y-102145651D01*
X141157815Y-102212690D01*
X141105011Y-102258445D01*
X141035853Y-102268389D01*
X140972297Y-102239364D01*
X140944142Y-102204104D01*
X140917271Y-102153833D01*
X140917267Y-102153826D01*
X140786055Y-101993944D01*
X140626173Y-101862732D01*
X140626166Y-101862728D01*
X140443763Y-101765232D01*
X140290000Y-101718587D01*
X140290000Y-102306988D01*
X140232993Y-102274075D01*
X140105826Y-102240000D01*
X139974174Y-102240000D01*
X139847007Y-102274075D01*
X139790000Y-102306988D01*
X139790000Y-101718587D01*
X139636236Y-101765232D01*
X139453833Y-101862728D01*
X139453826Y-101862732D01*
X139293944Y-101993944D01*
X139162732Y-102153826D01*
X139162728Y-102153833D01*
X139065233Y-102336233D01*
X139018590Y-102490000D01*
X139606988Y-102490000D01*
X139574075Y-102547007D01*
X139540000Y-102674174D01*
X139540000Y-102805826D01*
X139574075Y-102932993D01*
X139606988Y-102990000D01*
X139018590Y-102990000D01*
X139065233Y-103143766D01*
X139162728Y-103326166D01*
X139162732Y-103326173D01*
X139293944Y-103486055D01*
X139453826Y-103617267D01*
X139453833Y-103617271D01*
X139636233Y-103714766D01*
X139790000Y-103761410D01*
X139790000Y-103173012D01*
X139847007Y-103205925D01*
X139974174Y-103240000D01*
X140105826Y-103240000D01*
X140232993Y-103205925D01*
X140290000Y-103173012D01*
X140290000Y-103761410D01*
X140443766Y-103714766D01*
X140626166Y-103617271D01*
X140626173Y-103617267D01*
X140786055Y-103486055D01*
X140917267Y-103326173D01*
X140917269Y-103326170D01*
X140944141Y-103275896D01*
X140993103Y-103226051D01*
X141061241Y-103210590D01*
X141126921Y-103234421D01*
X141169290Y-103289978D01*
X141177500Y-103334348D01*
X141177500Y-104685651D01*
X141157815Y-104752690D01*
X141105011Y-104798445D01*
X141035853Y-104808389D01*
X140972297Y-104779364D01*
X140944142Y-104744104D01*
X140917271Y-104693833D01*
X140917267Y-104693826D01*
X140786055Y-104533944D01*
X140626173Y-104402732D01*
X140626166Y-104402728D01*
X140443763Y-104305232D01*
X140290000Y-104258587D01*
X140290000Y-104846988D01*
X140232993Y-104814075D01*
X140105826Y-104780000D01*
X139974174Y-104780000D01*
X139847007Y-104814075D01*
X139790000Y-104846988D01*
X139790000Y-104258587D01*
X139636236Y-104305232D01*
X139453833Y-104402728D01*
X139453826Y-104402732D01*
X139293944Y-104533944D01*
X139162732Y-104693826D01*
X139162728Y-104693833D01*
X139065233Y-104876233D01*
X139018590Y-105030000D01*
X139606988Y-105030000D01*
X139574075Y-105087007D01*
X139540000Y-105214174D01*
X139540000Y-105345826D01*
X139574075Y-105472993D01*
X139606988Y-105530000D01*
X139018590Y-105530000D01*
X139065233Y-105683766D01*
X139162728Y-105866166D01*
X139162732Y-105866173D01*
X139293944Y-106026055D01*
X139453826Y-106157267D01*
X139453833Y-106157271D01*
X139636233Y-106254766D01*
X139790000Y-106301410D01*
X139790000Y-105713012D01*
X139847007Y-105745925D01*
X139974174Y-105780000D01*
X140105826Y-105780000D01*
X140232993Y-105745925D01*
X140290000Y-105713012D01*
X140290000Y-106301410D01*
X140443766Y-106254766D01*
X140626166Y-106157271D01*
X140626173Y-106157267D01*
X140786055Y-106026055D01*
X140917267Y-105866173D01*
X140917269Y-105866170D01*
X140944141Y-105815896D01*
X140993103Y-105766051D01*
X141061241Y-105750590D01*
X141126921Y-105774421D01*
X141169290Y-105829978D01*
X141177500Y-105874348D01*
X141177500Y-107225651D01*
X141157815Y-107292690D01*
X141105011Y-107338445D01*
X141035853Y-107348389D01*
X140972297Y-107319364D01*
X140944142Y-107284104D01*
X140917271Y-107233833D01*
X140917267Y-107233826D01*
X140786055Y-107073944D01*
X140626173Y-106942732D01*
X140626166Y-106942728D01*
X140443763Y-106845232D01*
X140290000Y-106798587D01*
X140290000Y-107386988D01*
X140232993Y-107354075D01*
X140105826Y-107320000D01*
X139974174Y-107320000D01*
X139847007Y-107354075D01*
X139790000Y-107386988D01*
X139790000Y-106798587D01*
X139636236Y-106845232D01*
X139453833Y-106942728D01*
X139453826Y-106942732D01*
X139293944Y-107073944D01*
X139162732Y-107233826D01*
X139162728Y-107233833D01*
X139065233Y-107416233D01*
X139018590Y-107570000D01*
X139606988Y-107570000D01*
X139574075Y-107627007D01*
X139540000Y-107754174D01*
X139540000Y-107885826D01*
X139574075Y-108012993D01*
X139606988Y-108070000D01*
X139018590Y-108070000D01*
X139065233Y-108223766D01*
X139162728Y-108406166D01*
X139162732Y-108406173D01*
X139293944Y-108566055D01*
X139453826Y-108697267D01*
X139453833Y-108697271D01*
X139636233Y-108794766D01*
X139790000Y-108841410D01*
X139790000Y-108253012D01*
X139847007Y-108285925D01*
X139974174Y-108320000D01*
X140105826Y-108320000D01*
X140232993Y-108285925D01*
X140290000Y-108253012D01*
X140290000Y-108841410D01*
X140443766Y-108794766D01*
X140626166Y-108697271D01*
X140626173Y-108697267D01*
X140786055Y-108566055D01*
X140917267Y-108406173D01*
X140917269Y-108406170D01*
X140944141Y-108355896D01*
X140993103Y-108306051D01*
X141061241Y-108290590D01*
X141126921Y-108314421D01*
X141169290Y-108369978D01*
X141177500Y-108414348D01*
X141177500Y-109765651D01*
X141157815Y-109832690D01*
X141105011Y-109878445D01*
X141035853Y-109888389D01*
X140972297Y-109859364D01*
X140944142Y-109824104D01*
X140917271Y-109773833D01*
X140917267Y-109773826D01*
X140786055Y-109613944D01*
X140626173Y-109482732D01*
X140626166Y-109482728D01*
X140443763Y-109385232D01*
X140290000Y-109338587D01*
X140290000Y-109926988D01*
X140232993Y-109894075D01*
X140105826Y-109860000D01*
X139974174Y-109860000D01*
X139847007Y-109894075D01*
X139790000Y-109926988D01*
X139790000Y-109338587D01*
X139636236Y-109385232D01*
X139453833Y-109482728D01*
X139453826Y-109482732D01*
X139293944Y-109613944D01*
X139162732Y-109773826D01*
X139162728Y-109773833D01*
X139065233Y-109956233D01*
X139018590Y-110110000D01*
X139606988Y-110110000D01*
X139574075Y-110167007D01*
X139540000Y-110294174D01*
X139540000Y-110425826D01*
X139574075Y-110552993D01*
X139606988Y-110610000D01*
X139018590Y-110610000D01*
X139065233Y-110763766D01*
X139162728Y-110946166D01*
X139162732Y-110946173D01*
X139293944Y-111106055D01*
X139453826Y-111237267D01*
X139453833Y-111237271D01*
X139636233Y-111334766D01*
X139790000Y-111381410D01*
X139790000Y-110793012D01*
X139847007Y-110825925D01*
X139974174Y-110860000D01*
X140105826Y-110860000D01*
X140232993Y-110825925D01*
X140290000Y-110793012D01*
X140290000Y-111381410D01*
X140443766Y-111334766D01*
X140626166Y-111237271D01*
X140626173Y-111237267D01*
X140786055Y-111106055D01*
X140917267Y-110946173D01*
X140917269Y-110946170D01*
X140944141Y-110895896D01*
X140993103Y-110846051D01*
X141061241Y-110830590D01*
X141126921Y-110854421D01*
X141169290Y-110909978D01*
X141177500Y-110954348D01*
X141177500Y-112305651D01*
X141157815Y-112372690D01*
X141105011Y-112418445D01*
X141035853Y-112428389D01*
X140972297Y-112399364D01*
X140944142Y-112364104D01*
X140917271Y-112313833D01*
X140917267Y-112313826D01*
X140786055Y-112153944D01*
X140626173Y-112022732D01*
X140626166Y-112022728D01*
X140443763Y-111925232D01*
X140290000Y-111878587D01*
X140290000Y-112466988D01*
X140232993Y-112434075D01*
X140105826Y-112400000D01*
X139974174Y-112400000D01*
X139847007Y-112434075D01*
X139790000Y-112466988D01*
X139790000Y-111878587D01*
X139636236Y-111925232D01*
X139453833Y-112022728D01*
X139453826Y-112022732D01*
X139293944Y-112153944D01*
X139162732Y-112313826D01*
X139162728Y-112313833D01*
X139065233Y-112496233D01*
X139018590Y-112650000D01*
X139606988Y-112650000D01*
X139574075Y-112707007D01*
X139540000Y-112834174D01*
X139540000Y-112965826D01*
X139574075Y-113092993D01*
X139606988Y-113150000D01*
X139018590Y-113150000D01*
X139065233Y-113303766D01*
X139162728Y-113486166D01*
X139162732Y-113486173D01*
X139293944Y-113646055D01*
X139453826Y-113777267D01*
X139453833Y-113777271D01*
X139636233Y-113874766D01*
X139790000Y-113921410D01*
X139790000Y-113333012D01*
X139847007Y-113365925D01*
X139974174Y-113400000D01*
X140105826Y-113400000D01*
X140232993Y-113365925D01*
X140290000Y-113333012D01*
X140290000Y-113921410D01*
X140443766Y-113874766D01*
X140626166Y-113777271D01*
X140626173Y-113777267D01*
X140786055Y-113646055D01*
X140917267Y-113486173D01*
X140917269Y-113486170D01*
X140944141Y-113435896D01*
X140993103Y-113386051D01*
X141061241Y-113370590D01*
X141126921Y-113394421D01*
X141169290Y-113449978D01*
X141177500Y-113494348D01*
X141177500Y-114309576D01*
X141157815Y-114376615D01*
X141105011Y-114422370D01*
X141035853Y-114432314D01*
X140984610Y-114412678D01*
X140968037Y-114401604D01*
X140968033Y-114401602D01*
X140909702Y-114390000D01*
X140290000Y-114390000D01*
X140290000Y-115006988D01*
X140232993Y-114974075D01*
X140105826Y-114940000D01*
X139974174Y-114940000D01*
X139847007Y-114974075D01*
X139790000Y-115006988D01*
X139790000Y-114390000D01*
X139170297Y-114390000D01*
X139111966Y-114401602D01*
X139111965Y-114401603D01*
X139045808Y-114445808D01*
X139001603Y-114511965D01*
X139001602Y-114511966D01*
X138990000Y-114570297D01*
X138990000Y-115190000D01*
X139606988Y-115190000D01*
X139574075Y-115247007D01*
X139540000Y-115374174D01*
X139540000Y-115505826D01*
X139574075Y-115632993D01*
X139606988Y-115690000D01*
X138990000Y-115690000D01*
X138990000Y-116309702D01*
X139001602Y-116368033D01*
X139001607Y-116368043D01*
X139001609Y-116368066D01*
X139003986Y-116380014D01*
X139002917Y-116380226D01*
X139009079Y-116437512D01*
X138977806Y-116499993D01*
X138917718Y-116535647D01*
X138887048Y-116539500D01*
X138321732Y-116539500D01*
X138254693Y-116519815D01*
X138208938Y-116467011D01*
X138198994Y-116397853D01*
X138228019Y-116334297D01*
X138238193Y-116323863D01*
X138253727Y-116309702D01*
X138353872Y-116218407D01*
X138482366Y-116048255D01*
X138536270Y-115940000D01*
X138577403Y-115857394D01*
X138577403Y-115857393D01*
X138577405Y-115857389D01*
X138635756Y-115652310D01*
X138655429Y-115440000D01*
X138635756Y-115227690D01*
X138577405Y-115022611D01*
X138577403Y-115022606D01*
X138577403Y-115022605D01*
X138482367Y-114831746D01*
X138353872Y-114661593D01*
X138196302Y-114517948D01*
X138015019Y-114405702D01*
X138015017Y-114405701D01*
X137915608Y-114367190D01*
X137816198Y-114328679D01*
X137619385Y-114291888D01*
X137557106Y-114260221D01*
X137521833Y-114199908D01*
X137524767Y-114130100D01*
X137564976Y-114072960D01*
X137619384Y-114048111D01*
X137816198Y-114011321D01*
X138015019Y-113934298D01*
X138196302Y-113822052D01*
X138353872Y-113678407D01*
X138482366Y-113508255D01*
X138543216Y-113386051D01*
X138577403Y-113317394D01*
X138577403Y-113317393D01*
X138577405Y-113317389D01*
X138635756Y-113112310D01*
X138655429Y-112900000D01*
X138635756Y-112687690D01*
X138577405Y-112482611D01*
X138577403Y-112482606D01*
X138577403Y-112482605D01*
X138482367Y-112291746D01*
X138353872Y-112121593D01*
X138245427Y-112022732D01*
X138196302Y-111977948D01*
X138015019Y-111865702D01*
X138015017Y-111865701D01*
X137915608Y-111827190D01*
X137816198Y-111788679D01*
X137619385Y-111751888D01*
X137557106Y-111720221D01*
X137521833Y-111659908D01*
X137524767Y-111590100D01*
X137564976Y-111532960D01*
X137619384Y-111508111D01*
X137816198Y-111471321D01*
X138015019Y-111394298D01*
X138196302Y-111282052D01*
X138353872Y-111138407D01*
X138482366Y-110968255D01*
X138543216Y-110846051D01*
X138577403Y-110777394D01*
X138577403Y-110777393D01*
X138577405Y-110777389D01*
X138635756Y-110572310D01*
X138655429Y-110360000D01*
X138635756Y-110147690D01*
X138577405Y-109942611D01*
X138577403Y-109942606D01*
X138577403Y-109942605D01*
X138482367Y-109751746D01*
X138353872Y-109581593D01*
X138245427Y-109482732D01*
X138196302Y-109437948D01*
X138015019Y-109325702D01*
X138015017Y-109325701D01*
X137915608Y-109287190D01*
X137816198Y-109248679D01*
X137619385Y-109211888D01*
X137557106Y-109180221D01*
X137521833Y-109119908D01*
X137524767Y-109050100D01*
X137564976Y-108992960D01*
X137619384Y-108968111D01*
X137816198Y-108931321D01*
X138015019Y-108854298D01*
X138196302Y-108742052D01*
X138353872Y-108598407D01*
X138482366Y-108428255D01*
X138543216Y-108306051D01*
X138577403Y-108237394D01*
X138577403Y-108237393D01*
X138577405Y-108237389D01*
X138635756Y-108032310D01*
X138655429Y-107820000D01*
X138635756Y-107607690D01*
X138577405Y-107402611D01*
X138577403Y-107402606D01*
X138577403Y-107402605D01*
X138482367Y-107211746D01*
X138353872Y-107041593D01*
X138319968Y-107010685D01*
X138196302Y-106897948D01*
X138015019Y-106785702D01*
X138015017Y-106785701D01*
X137915608Y-106747190D01*
X137816198Y-106708679D01*
X137619385Y-106671888D01*
X137557106Y-106640221D01*
X137521833Y-106579908D01*
X137524767Y-106510100D01*
X137564976Y-106452960D01*
X137619384Y-106428111D01*
X137816198Y-106391321D01*
X138015019Y-106314298D01*
X138196302Y-106202052D01*
X138353872Y-106058407D01*
X138482366Y-105888255D01*
X138543216Y-105766051D01*
X138577403Y-105697394D01*
X138577403Y-105697393D01*
X138577405Y-105697389D01*
X138635756Y-105492310D01*
X138655429Y-105280000D01*
X138635756Y-105067690D01*
X138577405Y-104862611D01*
X138577403Y-104862606D01*
X138577403Y-104862605D01*
X138482367Y-104671746D01*
X138353872Y-104501593D01*
X138245427Y-104402732D01*
X138196302Y-104357948D01*
X138015019Y-104245702D01*
X138015017Y-104245701D01*
X137915608Y-104207190D01*
X137816198Y-104168679D01*
X137619385Y-104131888D01*
X137557106Y-104100221D01*
X137521833Y-104039908D01*
X137524767Y-103970100D01*
X137564976Y-103912960D01*
X137619384Y-103888111D01*
X137816198Y-103851321D01*
X138015019Y-103774298D01*
X138196302Y-103662052D01*
X138353872Y-103518407D01*
X138482366Y-103348255D01*
X138521078Y-103270510D01*
X138577403Y-103157394D01*
X138577403Y-103157393D01*
X138577405Y-103157389D01*
X138635756Y-102952310D01*
X138655429Y-102740000D01*
X138654897Y-102734264D01*
X138644475Y-102621786D01*
X138635756Y-102527690D01*
X138577405Y-102322611D01*
X138577403Y-102322606D01*
X138577403Y-102322605D01*
X138482367Y-102131746D01*
X138353872Y-101961593D01*
X138309514Y-101921155D01*
X138196302Y-101817948D01*
X138015019Y-101705702D01*
X138015017Y-101705701D01*
X137915608Y-101667190D01*
X137816198Y-101628679D01*
X137619385Y-101591888D01*
X137557106Y-101560221D01*
X137521833Y-101499908D01*
X137524767Y-101430100D01*
X137564976Y-101372960D01*
X137619384Y-101348111D01*
X137816198Y-101311321D01*
X138015019Y-101234298D01*
X138196302Y-101122052D01*
X138353872Y-100978407D01*
X138482366Y-100808255D01*
X138543216Y-100686051D01*
X138577403Y-100617394D01*
X138577403Y-100617393D01*
X138577405Y-100617389D01*
X138635756Y-100412310D01*
X138655429Y-100200000D01*
X138635756Y-99987690D01*
X138577405Y-99782611D01*
X138577403Y-99782606D01*
X138577403Y-99782605D01*
X138482367Y-99591746D01*
X138353872Y-99421593D01*
X138245427Y-99322732D01*
X138196302Y-99277948D01*
X138015019Y-99165702D01*
X138015017Y-99165701D01*
X137862664Y-99106680D01*
X137816198Y-99088679D01*
X137619385Y-99051888D01*
X137557106Y-99020221D01*
X137521833Y-98959908D01*
X137524767Y-98890100D01*
X137564976Y-98832960D01*
X137619384Y-98808111D01*
X137816198Y-98771321D01*
X138015019Y-98694298D01*
X138196302Y-98582052D01*
X138353872Y-98438407D01*
X138482366Y-98268255D01*
X138543216Y-98146051D01*
X138577403Y-98077394D01*
X138577403Y-98077393D01*
X138577405Y-98077389D01*
X138635756Y-97872310D01*
X138655429Y-97660000D01*
X138635756Y-97447690D01*
X138577405Y-97242611D01*
X138577403Y-97242606D01*
X138577403Y-97242605D01*
X138482367Y-97051746D01*
X138353872Y-96881593D01*
X138245427Y-96782732D01*
X138196302Y-96737948D01*
X138015019Y-96625702D01*
X138015017Y-96625701D01*
X137862664Y-96566680D01*
X137816198Y-96548679D01*
X137619385Y-96511888D01*
X137557106Y-96480221D01*
X137521833Y-96419908D01*
X137524767Y-96350100D01*
X137564976Y-96292960D01*
X137619384Y-96268111D01*
X137816198Y-96231321D01*
X138015019Y-96154298D01*
X138196302Y-96042052D01*
X138353872Y-95898407D01*
X138482366Y-95728255D01*
X138543216Y-95606051D01*
X138577403Y-95537394D01*
X138577403Y-95537393D01*
X138577405Y-95537389D01*
X138635756Y-95332310D01*
X138655429Y-95120000D01*
X138635756Y-94907690D01*
X138577405Y-94702611D01*
X138577403Y-94702606D01*
X138577403Y-94702605D01*
X138482367Y-94511746D01*
X138353872Y-94341593D01*
X138289599Y-94283000D01*
X138196302Y-94197948D01*
X138015019Y-94085702D01*
X138015017Y-94085701D01*
X137820031Y-94010164D01*
X137816198Y-94008679D01*
X137606610Y-93969500D01*
X137393390Y-93969500D01*
X137183802Y-94008679D01*
X137183799Y-94008679D01*
X137183799Y-94008680D01*
X136984982Y-94085701D01*
X136984980Y-94085702D01*
X136803699Y-94197947D01*
X136646127Y-94341593D01*
X136517632Y-94511746D01*
X136422596Y-94702605D01*
X136422596Y-94702607D01*
X136364244Y-94907689D01*
X136350671Y-95054174D01*
X136344571Y-95120000D01*
X136364244Y-95332310D01*
X136417675Y-95520099D01*
X136422596Y-95537392D01*
X136422596Y-95537394D01*
X136517632Y-95728253D01*
X136646127Y-95898406D01*
X136646128Y-95898407D01*
X136803698Y-96042052D01*
X136984981Y-96154298D01*
X137183802Y-96231321D01*
X137380613Y-96268111D01*
X137442893Y-96299779D01*
X137478166Y-96360092D01*
X137475232Y-96429900D01*
X137435023Y-96487040D01*
X137380613Y-96511888D01*
X137183802Y-96548679D01*
X137183799Y-96548679D01*
X137183799Y-96548680D01*
X136984982Y-96625701D01*
X136984980Y-96625702D01*
X136803699Y-96737947D01*
X136646127Y-96881593D01*
X136517632Y-97051746D01*
X136422596Y-97242605D01*
X136422596Y-97242607D01*
X136364244Y-97447689D01*
X136350671Y-97594174D01*
X136344571Y-97660000D01*
X136364244Y-97872310D01*
X136417675Y-98060099D01*
X136422596Y-98077392D01*
X136422596Y-98077394D01*
X136517632Y-98268253D01*
X136646127Y-98438406D01*
X136646128Y-98438407D01*
X136803698Y-98582052D01*
X136984981Y-98694298D01*
X137183802Y-98771321D01*
X137380613Y-98808111D01*
X137442893Y-98839779D01*
X137478166Y-98900092D01*
X137475232Y-98969900D01*
X137435023Y-99027040D01*
X137380613Y-99051888D01*
X137183802Y-99088679D01*
X137183799Y-99088679D01*
X137183799Y-99088680D01*
X136984982Y-99165701D01*
X136984980Y-99165702D01*
X136803699Y-99277947D01*
X136646127Y-99421593D01*
X136517632Y-99591746D01*
X136422596Y-99782605D01*
X136422596Y-99782607D01*
X136364244Y-99987689D01*
X136350671Y-100134174D01*
X136344571Y-100200000D01*
X136364244Y-100412310D01*
X136417675Y-100600099D01*
X136422596Y-100617392D01*
X136422596Y-100617394D01*
X136517632Y-100808253D01*
X136646127Y-100978406D01*
X136646128Y-100978407D01*
X136803698Y-101122052D01*
X136984981Y-101234298D01*
X137183802Y-101311321D01*
X137380613Y-101348111D01*
X137442893Y-101379779D01*
X137478166Y-101440092D01*
X137475232Y-101509900D01*
X137435023Y-101567040D01*
X137380613Y-101591888D01*
X137183802Y-101628679D01*
X137183799Y-101628679D01*
X137183799Y-101628680D01*
X136984982Y-101705701D01*
X136984980Y-101705702D01*
X136803699Y-101817947D01*
X136646127Y-101961593D01*
X136517632Y-102131746D01*
X136422596Y-102322605D01*
X136422596Y-102322607D01*
X136364244Y-102527689D01*
X136345103Y-102734264D01*
X136344571Y-102740000D01*
X136364244Y-102952310D01*
X136417675Y-103140099D01*
X136422596Y-103157392D01*
X136422596Y-103157394D01*
X136517632Y-103348253D01*
X136646127Y-103518406D01*
X136646128Y-103518407D01*
X136803698Y-103662052D01*
X136984981Y-103774298D01*
X137183802Y-103851321D01*
X137380613Y-103888111D01*
X137442893Y-103919779D01*
X137478166Y-103980092D01*
X137475232Y-104049900D01*
X137435023Y-104107040D01*
X137380613Y-104131888D01*
X137183802Y-104168679D01*
X137183799Y-104168679D01*
X137183799Y-104168680D01*
X136984982Y-104245701D01*
X136984980Y-104245702D01*
X136803699Y-104357947D01*
X136646127Y-104501593D01*
X136517632Y-104671746D01*
X136422596Y-104862605D01*
X136422596Y-104862607D01*
X136364244Y-105067689D01*
X136350671Y-105214174D01*
X136344571Y-105280000D01*
X136364244Y-105492310D01*
X136417675Y-105680099D01*
X136422596Y-105697392D01*
X136422596Y-105697394D01*
X136517632Y-105888253D01*
X136646127Y-106058406D01*
X136646128Y-106058407D01*
X136803698Y-106202052D01*
X136984981Y-106314298D01*
X137183802Y-106391321D01*
X137380613Y-106428111D01*
X137442893Y-106459779D01*
X137478166Y-106520092D01*
X137475232Y-106589900D01*
X137435023Y-106647040D01*
X137380613Y-106671888D01*
X137183802Y-106708679D01*
X137183799Y-106708679D01*
X137183799Y-106708680D01*
X136984982Y-106785701D01*
X136984980Y-106785702D01*
X136803699Y-106897947D01*
X136646127Y-107041593D01*
X136517632Y-107211746D01*
X136422596Y-107402605D01*
X136422596Y-107402607D01*
X136364244Y-107607689D01*
X136350671Y-107754174D01*
X136344571Y-107820000D01*
X136364244Y-108032310D01*
X136417675Y-108220099D01*
X136422596Y-108237392D01*
X136422596Y-108237394D01*
X136517632Y-108428253D01*
X136646127Y-108598406D01*
X136646128Y-108598407D01*
X136803698Y-108742052D01*
X136984981Y-108854298D01*
X137183802Y-108931321D01*
X137380613Y-108968111D01*
X137442893Y-108999779D01*
X137478166Y-109060092D01*
X137475232Y-109129900D01*
X137435023Y-109187040D01*
X137380613Y-109211888D01*
X137183802Y-109248679D01*
X137183799Y-109248679D01*
X137183799Y-109248680D01*
X136984982Y-109325701D01*
X136984980Y-109325702D01*
X136803699Y-109437947D01*
X136646127Y-109581593D01*
X136517632Y-109751746D01*
X136422596Y-109942605D01*
X136422596Y-109942607D01*
X136364244Y-110147689D01*
X136350671Y-110294174D01*
X136344571Y-110360000D01*
X136364244Y-110572310D01*
X136417675Y-110760099D01*
X136422596Y-110777392D01*
X136422596Y-110777394D01*
X136517632Y-110968253D01*
X136646127Y-111138406D01*
X136646128Y-111138407D01*
X136803698Y-111282052D01*
X136984981Y-111394298D01*
X137183802Y-111471321D01*
X137380613Y-111508111D01*
X137442893Y-111539779D01*
X137478166Y-111600092D01*
X137475232Y-111669900D01*
X137435023Y-111727040D01*
X137380613Y-111751888D01*
X137183802Y-111788679D01*
X137183799Y-111788679D01*
X137183799Y-111788680D01*
X136984982Y-111865701D01*
X136984980Y-111865702D01*
X136803699Y-111977947D01*
X136646127Y-112121593D01*
X136517632Y-112291746D01*
X136422596Y-112482605D01*
X136422596Y-112482607D01*
X136364244Y-112687689D01*
X136350671Y-112834174D01*
X136344571Y-112900000D01*
X136364244Y-113112310D01*
X136417675Y-113300099D01*
X136422596Y-113317392D01*
X136422596Y-113317394D01*
X136517632Y-113508253D01*
X136646127Y-113678406D01*
X136646128Y-113678407D01*
X136803698Y-113822052D01*
X136984981Y-113934298D01*
X137183802Y-114011321D01*
X137380613Y-114048111D01*
X137442893Y-114079779D01*
X137478166Y-114140092D01*
X137475232Y-114209900D01*
X137435023Y-114267040D01*
X137380613Y-114291888D01*
X137183802Y-114328679D01*
X137183799Y-114328679D01*
X137183799Y-114328680D01*
X136984982Y-114405701D01*
X136984980Y-114405702D01*
X136803699Y-114517947D01*
X136646127Y-114661593D01*
X136517632Y-114831746D01*
X136422596Y-115022605D01*
X136422596Y-115022607D01*
X136364244Y-115227689D01*
X136350671Y-115374174D01*
X136344571Y-115440000D01*
X136364244Y-115652310D01*
X136417675Y-115840099D01*
X136422596Y-115857392D01*
X136422596Y-115857394D01*
X136517632Y-116048253D01*
X136646127Y-116218406D01*
X136761807Y-116323863D01*
X136798088Y-116383575D01*
X136796327Y-116453422D01*
X136757083Y-116511230D01*
X136692816Y-116538644D01*
X136678268Y-116539500D01*
X122806000Y-116539500D01*
X122738961Y-116519815D01*
X122693206Y-116467011D01*
X122682000Y-116415500D01*
X122682000Y-103425153D01*
X126835500Y-103425153D01*
X126835500Y-103582846D01*
X126866261Y-103737489D01*
X126866264Y-103737501D01*
X126926602Y-103883172D01*
X126926609Y-103883185D01*
X127014210Y-104014288D01*
X127014213Y-104014292D01*
X127125707Y-104125786D01*
X127125711Y-104125789D01*
X127256814Y-104213390D01*
X127256827Y-104213397D01*
X127365927Y-104258587D01*
X127402503Y-104273737D01*
X127557153Y-104304499D01*
X127557156Y-104304500D01*
X127557158Y-104304500D01*
X130508844Y-104304500D01*
X130508845Y-104304499D01*
X130663497Y-104273737D01*
X130809179Y-104213394D01*
X130940289Y-104125789D01*
X132266907Y-102799169D01*
X132308721Y-102774130D01*
X132307868Y-102772069D01*
X132459172Y-102709397D01*
X132459172Y-102709396D01*
X132459179Y-102709394D01*
X132590289Y-102621789D01*
X132701789Y-102510289D01*
X132789394Y-102379179D01*
X132849737Y-102233497D01*
X132880500Y-102078842D01*
X132880500Y-101921158D01*
X132880500Y-101921155D01*
X132880499Y-101921153D01*
X132849738Y-101766510D01*
X132849737Y-101766503D01*
X132824552Y-101705701D01*
X132789397Y-101620827D01*
X132789390Y-101620814D01*
X132701789Y-101489711D01*
X132701786Y-101489707D01*
X132590292Y-101378213D01*
X132590288Y-101378210D01*
X132459185Y-101290609D01*
X132459172Y-101290602D01*
X132313501Y-101230264D01*
X132313489Y-101230261D01*
X132158845Y-101199500D01*
X132158842Y-101199500D01*
X132012842Y-101199500D01*
X131855157Y-101199500D01*
X131855155Y-101199500D01*
X131700508Y-101230261D01*
X131700498Y-101230264D01*
X131554827Y-101290602D01*
X131554815Y-101290609D01*
X131438245Y-101368500D01*
X131438241Y-101368503D01*
X131423711Y-101378210D01*
X130134741Y-102667181D01*
X130073418Y-102700666D01*
X130047060Y-102703500D01*
X127557155Y-102703500D01*
X127402510Y-102734261D01*
X127402498Y-102734264D01*
X127256827Y-102794602D01*
X127256814Y-102794609D01*
X127125711Y-102882210D01*
X127125707Y-102882213D01*
X127014213Y-102993707D01*
X127014210Y-102993711D01*
X126926609Y-103124814D01*
X126926602Y-103124827D01*
X126866264Y-103270498D01*
X126866261Y-103270510D01*
X126835500Y-103425153D01*
X122682000Y-103425153D01*
X122682000Y-92710000D01*
X120058500Y-92710000D01*
X119991461Y-92690315D01*
X119945706Y-92637511D01*
X119934500Y-92586000D01*
X119934500Y-78407153D01*
X121099500Y-78407153D01*
X121099500Y-78407158D01*
X121099500Y-80678843D01*
X121115100Y-80757271D01*
X121117117Y-80767408D01*
X121119500Y-80791600D01*
X121119500Y-88155705D01*
X121120097Y-88161769D01*
X121119690Y-88161809D01*
X121121071Y-88175813D01*
X121121071Y-90502846D01*
X121151832Y-90657489D01*
X121151835Y-90657501D01*
X121212173Y-90803172D01*
X121212180Y-90803185D01*
X121299781Y-90934288D01*
X121299784Y-90934292D01*
X121411278Y-91045786D01*
X121411282Y-91045789D01*
X121542385Y-91133390D01*
X121542398Y-91133397D01*
X121688069Y-91193735D01*
X121688074Y-91193737D01*
X121842724Y-91224499D01*
X121842727Y-91224500D01*
X121842729Y-91224500D01*
X122000415Y-91224500D01*
X122000416Y-91224499D01*
X122155068Y-91193737D01*
X122300750Y-91133394D01*
X122431860Y-91045789D01*
X122543360Y-90934289D01*
X122630965Y-90803179D01*
X122691308Y-90657497D01*
X122722071Y-90502842D01*
X122722071Y-87999587D01*
X122722071Y-87999586D01*
X122721474Y-87993524D01*
X122721879Y-87993484D01*
X122720500Y-87979476D01*
X122720500Y-81279998D01*
X126394318Y-81279998D01*
X126394318Y-81280001D01*
X126414955Y-81436760D01*
X126414956Y-81436762D01*
X126430986Y-81475463D01*
X126475464Y-81582841D01*
X126571718Y-81708282D01*
X126697159Y-81804536D01*
X126776953Y-81837587D01*
X126831356Y-81881427D01*
X126853421Y-81947721D01*
X126853500Y-81952148D01*
X126853500Y-92904726D01*
X126880793Y-93006589D01*
X126903504Y-93045925D01*
X126933520Y-93097913D01*
X126933522Y-93097915D01*
X128353181Y-94517574D01*
X128386666Y-94578897D01*
X128389500Y-94605255D01*
X128389500Y-96032856D01*
X128389502Y-96032882D01*
X128392413Y-96057987D01*
X128392415Y-96057991D01*
X128437793Y-96160764D01*
X128437794Y-96160765D01*
X128517235Y-96240206D01*
X128620009Y-96285585D01*
X128645135Y-96288500D01*
X129373758Y-96288499D01*
X129440795Y-96308183D01*
X129486550Y-96360987D01*
X129496494Y-96430146D01*
X129467469Y-96493702D01*
X129408691Y-96531476D01*
X129396542Y-96534388D01*
X129340116Y-96544935D01*
X129223802Y-96566679D01*
X129223800Y-96566679D01*
X129223798Y-96566680D01*
X129024982Y-96643701D01*
X129024980Y-96643702D01*
X128843699Y-96755947D01*
X128686127Y-96899593D01*
X128557632Y-97069746D01*
X128462596Y-97260605D01*
X128462596Y-97260607D01*
X128409366Y-97447690D01*
X128404244Y-97465690D01*
X128384571Y-97678000D01*
X128404244Y-97890310D01*
X128457473Y-98077389D01*
X128462596Y-98095392D01*
X128462596Y-98095394D01*
X128557632Y-98286253D01*
X128672534Y-98438406D01*
X128686128Y-98456407D01*
X128843698Y-98600052D01*
X129024981Y-98712298D01*
X129223802Y-98789321D01*
X129420613Y-98826111D01*
X129482893Y-98857779D01*
X129518166Y-98918092D01*
X129515232Y-98987900D01*
X129475023Y-99045040D01*
X129420613Y-99069888D01*
X129223802Y-99106679D01*
X129223799Y-99106679D01*
X129223799Y-99106680D01*
X129024982Y-99183701D01*
X129024980Y-99183702D01*
X128843699Y-99295947D01*
X128686127Y-99439593D01*
X128557632Y-99609746D01*
X128462596Y-99800605D01*
X128462596Y-99800607D01*
X128409366Y-99987690D01*
X128404244Y-100005690D01*
X128384571Y-100218000D01*
X128404244Y-100430310D01*
X128457473Y-100617389D01*
X128462596Y-100635392D01*
X128462596Y-100635394D01*
X128557632Y-100826253D01*
X128672534Y-100978406D01*
X128686128Y-100996407D01*
X128843698Y-101140052D01*
X129024981Y-101252298D01*
X129223802Y-101329321D01*
X129433390Y-101368500D01*
X129433392Y-101368500D01*
X129646608Y-101368500D01*
X129646610Y-101368500D01*
X129856198Y-101329321D01*
X130055019Y-101252298D01*
X130236302Y-101140052D01*
X130393872Y-100996407D01*
X130522366Y-100826255D01*
X130592179Y-100686051D01*
X130617403Y-100635394D01*
X130617403Y-100635393D01*
X130617405Y-100635389D01*
X130675756Y-100430310D01*
X130695429Y-100218000D01*
X130675756Y-100005690D01*
X130617405Y-99800611D01*
X130617403Y-99800606D01*
X130617403Y-99800605D01*
X130522367Y-99609746D01*
X130393872Y-99439593D01*
X130265682Y-99322732D01*
X130236302Y-99295948D01*
X130055019Y-99183702D01*
X130055017Y-99183701D01*
X129939221Y-99138842D01*
X129856198Y-99106679D01*
X129659385Y-99069888D01*
X129597106Y-99038221D01*
X129561833Y-98977908D01*
X129564767Y-98908100D01*
X129604976Y-98850960D01*
X129659384Y-98826111D01*
X129856198Y-98789321D01*
X130055019Y-98712298D01*
X130236302Y-98600052D01*
X130393872Y-98456407D01*
X130522366Y-98286255D01*
X130538254Y-98254348D01*
X130591593Y-98147229D01*
X130639096Y-98095991D01*
X130702593Y-98078500D01*
X130974725Y-98078500D01*
X130974727Y-98078500D01*
X131076588Y-98051207D01*
X131167913Y-97998480D01*
X133187819Y-95978574D01*
X133249142Y-95945089D01*
X133318834Y-95950073D01*
X133374767Y-95991945D01*
X133399184Y-96057409D01*
X133399500Y-96066255D01*
X133399500Y-106284218D01*
X133379815Y-106351257D01*
X133327011Y-106397012D01*
X133322954Y-106398779D01*
X133297159Y-106409463D01*
X133297158Y-106409464D01*
X133171719Y-106505716D01*
X133075463Y-106631160D01*
X133014956Y-106777237D01*
X133014955Y-106777239D01*
X132994318Y-106933998D01*
X132994318Y-106934001D01*
X133014955Y-107090760D01*
X133014956Y-107090762D01*
X133075464Y-107236841D01*
X133171718Y-107362282D01*
X133297159Y-107458536D01*
X133443238Y-107519044D01*
X133515178Y-107528515D01*
X133599999Y-107539682D01*
X133600000Y-107539682D01*
X133684819Y-107528515D01*
X133753852Y-107539280D01*
X133806108Y-107585660D01*
X133815564Y-107604001D01*
X133872645Y-107741806D01*
X133872646Y-107741808D01*
X133968900Y-107867249D01*
X134094341Y-107963503D01*
X134240420Y-108024011D01*
X134318801Y-108034330D01*
X134397181Y-108044649D01*
X134397182Y-108044649D01*
X134397183Y-108044649D01*
X134449436Y-108037769D01*
X134553944Y-108024011D01*
X134700023Y-107963503D01*
X134825464Y-107867249D01*
X134921718Y-107741808D01*
X134982226Y-107595729D01*
X135002864Y-107438967D01*
X134982226Y-107282205D01*
X134921718Y-107136126D01*
X134825464Y-107010685D01*
X134825462Y-107010684D01*
X134825462Y-107010683D01*
X134787424Y-106981496D01*
X134700023Y-106914431D01*
X134700019Y-106914429D01*
X134700018Y-106914428D01*
X134677045Y-106904912D01*
X134622642Y-106861070D01*
X134600579Y-106794775D01*
X134600500Y-106790352D01*
X134600500Y-99946555D01*
X134620185Y-99879516D01*
X134672989Y-99833761D01*
X134742147Y-99823817D01*
X134760411Y-99828840D01*
X134760676Y-99827969D01*
X134766492Y-99829732D01*
X134766503Y-99829737D01*
X134921153Y-99860499D01*
X134921156Y-99860500D01*
X134921158Y-99860500D01*
X135078844Y-99860500D01*
X135078845Y-99860499D01*
X135233497Y-99829737D01*
X135379179Y-99769394D01*
X135510289Y-99681789D01*
X135621789Y-99570289D01*
X135709394Y-99439179D01*
X135769737Y-99293497D01*
X135800500Y-99138842D01*
X135800500Y-92330000D01*
X136478590Y-92330000D01*
X137066988Y-92330000D01*
X137034075Y-92387007D01*
X137000000Y-92514174D01*
X137000000Y-92645826D01*
X137034075Y-92772993D01*
X137066988Y-92830000D01*
X136478590Y-92830000D01*
X136525233Y-92983766D01*
X136622728Y-93166166D01*
X136622732Y-93166173D01*
X136753944Y-93326055D01*
X136913826Y-93457267D01*
X136913833Y-93457271D01*
X137096233Y-93554766D01*
X137250000Y-93601410D01*
X137250000Y-93013012D01*
X137307007Y-93045925D01*
X137434174Y-93080000D01*
X137565826Y-93080000D01*
X137692993Y-93045925D01*
X137750000Y-93013012D01*
X137750000Y-93601410D01*
X137903766Y-93554766D01*
X138086166Y-93457271D01*
X138086173Y-93457267D01*
X138246055Y-93326055D01*
X138377267Y-93166173D01*
X138377271Y-93166166D01*
X138474766Y-92983766D01*
X138521410Y-92830000D01*
X137933012Y-92830000D01*
X137965925Y-92772993D01*
X138000000Y-92645826D01*
X138000000Y-92514174D01*
X137965925Y-92387007D01*
X137933012Y-92330000D01*
X138521410Y-92330000D01*
X138474766Y-92176233D01*
X138377271Y-91993833D01*
X138377267Y-91993826D01*
X138246055Y-91833944D01*
X138086173Y-91702732D01*
X138086166Y-91702728D01*
X137903763Y-91605232D01*
X137750000Y-91558587D01*
X137750000Y-92146988D01*
X137692993Y-92114075D01*
X137565826Y-92080000D01*
X137434174Y-92080000D01*
X137307007Y-92114075D01*
X137250000Y-92146988D01*
X137250000Y-91558587D01*
X137096236Y-91605232D01*
X136913833Y-91702728D01*
X136913826Y-91702732D01*
X136753944Y-91833944D01*
X136622732Y-91993826D01*
X136622728Y-91993833D01*
X136525233Y-92176233D01*
X136478590Y-92330000D01*
X135800500Y-92330000D01*
X135800500Y-89790000D01*
X136478590Y-89790000D01*
X137066988Y-89790000D01*
X137034075Y-89847007D01*
X137000000Y-89974174D01*
X137000000Y-90105826D01*
X137034075Y-90232993D01*
X137066988Y-90290000D01*
X136478590Y-90290000D01*
X136525233Y-90443766D01*
X136622728Y-90626166D01*
X136622732Y-90626173D01*
X136753944Y-90786055D01*
X136913826Y-90917267D01*
X136913833Y-90917271D01*
X137096233Y-91014766D01*
X137250000Y-91061410D01*
X137250000Y-90473012D01*
X137307007Y-90505925D01*
X137434174Y-90540000D01*
X137565826Y-90540000D01*
X137692993Y-90505925D01*
X137750000Y-90473012D01*
X137750000Y-91061410D01*
X137903766Y-91014766D01*
X138086166Y-90917271D01*
X138086173Y-90917267D01*
X138246055Y-90786055D01*
X138377267Y-90626173D01*
X138377271Y-90626166D01*
X138474766Y-90443766D01*
X138521410Y-90290000D01*
X137933012Y-90290000D01*
X137965925Y-90232993D01*
X138000000Y-90105826D01*
X138000000Y-89974174D01*
X137965925Y-89847007D01*
X137933012Y-89790000D01*
X138521410Y-89790000D01*
X138474766Y-89636233D01*
X138377271Y-89453833D01*
X138377267Y-89453826D01*
X138246055Y-89293944D01*
X138086173Y-89162732D01*
X138086166Y-89162728D01*
X137903763Y-89065232D01*
X137750000Y-89018587D01*
X137750000Y-89606988D01*
X137692993Y-89574075D01*
X137565826Y-89540000D01*
X137434174Y-89540000D01*
X137307007Y-89574075D01*
X137250000Y-89606988D01*
X137250000Y-89018587D01*
X137096236Y-89065232D01*
X136913833Y-89162728D01*
X136913826Y-89162732D01*
X136753944Y-89293944D01*
X136622732Y-89453826D01*
X136622728Y-89453833D01*
X136525233Y-89636233D01*
X136478590Y-89790000D01*
X135800500Y-89790000D01*
X135800500Y-87842939D01*
X135820185Y-87775900D01*
X135836814Y-87755263D01*
X136318813Y-87273264D01*
X136380134Y-87239781D01*
X136449826Y-87244765D01*
X136456819Y-87250000D01*
X137066988Y-87250000D01*
X137034075Y-87307007D01*
X137000000Y-87434174D01*
X137000000Y-87565826D01*
X137034075Y-87692993D01*
X137066988Y-87750000D01*
X136478590Y-87750000D01*
X136525233Y-87903766D01*
X136622728Y-88086166D01*
X136622732Y-88086173D01*
X136753944Y-88246055D01*
X136913826Y-88377267D01*
X136913833Y-88377271D01*
X137096233Y-88474766D01*
X137250000Y-88521410D01*
X137250000Y-87933012D01*
X137307007Y-87965925D01*
X137434174Y-88000000D01*
X137565826Y-88000000D01*
X137692993Y-87965925D01*
X137750000Y-87933012D01*
X137750000Y-88521410D01*
X137903766Y-88474766D01*
X138086166Y-88377271D01*
X138086173Y-88377267D01*
X138246055Y-88246055D01*
X138377267Y-88086173D01*
X138377271Y-88086166D01*
X138474766Y-87903766D01*
X138521410Y-87750000D01*
X137933012Y-87750000D01*
X137965925Y-87692993D01*
X138000000Y-87565826D01*
X138000000Y-87434174D01*
X137965925Y-87307007D01*
X137933012Y-87250000D01*
X138521410Y-87250000D01*
X138474766Y-87096233D01*
X138377271Y-86913833D01*
X138377267Y-86913826D01*
X138246055Y-86753944D01*
X138086173Y-86622732D01*
X138086166Y-86622728D01*
X137903763Y-86525232D01*
X137750000Y-86478587D01*
X137750000Y-87066988D01*
X137692993Y-87034075D01*
X137565826Y-87000000D01*
X137434174Y-87000000D01*
X137307007Y-87034075D01*
X137250000Y-87066988D01*
X137250000Y-86457012D01*
X137244961Y-86450343D01*
X137239665Y-86380674D01*
X137272876Y-86319202D01*
X137445259Y-86146819D01*
X137506582Y-86113334D01*
X137532940Y-86110500D01*
X137606608Y-86110500D01*
X137606610Y-86110500D01*
X137816198Y-86071321D01*
X138015019Y-85994298D01*
X138196302Y-85882052D01*
X138353872Y-85738407D01*
X138482366Y-85568255D01*
X138509858Y-85513043D01*
X138577403Y-85377394D01*
X138577403Y-85377393D01*
X138577405Y-85377389D01*
X138635756Y-85172310D01*
X138646529Y-85056047D01*
X138672315Y-84991111D01*
X138714622Y-84960804D01*
X138823130Y-84960804D01*
X138859503Y-84981668D01*
X138891693Y-85043681D01*
X138893471Y-85056048D01*
X138904244Y-85172310D01*
X138962596Y-85377392D01*
X138962596Y-85377394D01*
X139057632Y-85568253D01*
X139186127Y-85738406D01*
X139186128Y-85738407D01*
X139343698Y-85882052D01*
X139524981Y-85994298D01*
X139723802Y-86071321D01*
X139933390Y-86110500D01*
X139933392Y-86110500D01*
X140146608Y-86110500D01*
X140146610Y-86110500D01*
X140356198Y-86071321D01*
X140555019Y-85994298D01*
X140736302Y-85882052D01*
X140893872Y-85738407D01*
X141022366Y-85568255D01*
X141049858Y-85513043D01*
X141117403Y-85377394D01*
X141117403Y-85377393D01*
X141117405Y-85377389D01*
X141175756Y-85172310D01*
X141195429Y-84960000D01*
X141175756Y-84747690D01*
X141117405Y-84542611D01*
X141117403Y-84542606D01*
X141117403Y-84542605D01*
X141022367Y-84351746D01*
X140893872Y-84181593D01*
X140871763Y-84161438D01*
X140736302Y-84037948D01*
X140555019Y-83925702D01*
X140555017Y-83925701D01*
X140455608Y-83887190D01*
X140356198Y-83848679D01*
X140146610Y-83809500D01*
X139933390Y-83809500D01*
X139723802Y-83848679D01*
X139723799Y-83848679D01*
X139723799Y-83848680D01*
X139524982Y-83925701D01*
X139524980Y-83925702D01*
X139343699Y-84037947D01*
X139186127Y-84181593D01*
X139057632Y-84351746D01*
X138962596Y-84542605D01*
X138962596Y-84542607D01*
X138904244Y-84747689D01*
X138893471Y-84863951D01*
X138867685Y-84928888D01*
X138823130Y-84960804D01*
X138714622Y-84960804D01*
X138716869Y-84959194D01*
X138680497Y-84938331D01*
X138648307Y-84876318D01*
X138646529Y-84863951D01*
X138645849Y-84856613D01*
X138635756Y-84747690D01*
X138577405Y-84542611D01*
X138577403Y-84542606D01*
X138577403Y-84542605D01*
X138482367Y-84351746D01*
X138353872Y-84181593D01*
X138331763Y-84161438D01*
X138196302Y-84037948D01*
X138015019Y-83925702D01*
X138015017Y-83925701D01*
X137915608Y-83887190D01*
X137816198Y-83848679D01*
X137606610Y-83809500D01*
X137393390Y-83809500D01*
X137183802Y-83848679D01*
X137183799Y-83848679D01*
X137183799Y-83848680D01*
X136984982Y-83925701D01*
X136984980Y-83925702D01*
X136803699Y-84037947D01*
X136646127Y-84181593D01*
X136517632Y-84351746D01*
X136422596Y-84542605D01*
X136422596Y-84542607D01*
X136364244Y-84747689D01*
X136346317Y-84941153D01*
X136320531Y-85006090D01*
X136310527Y-85017393D01*
X134812181Y-86515740D01*
X134750858Y-86549225D01*
X134681166Y-86544241D01*
X134625233Y-86502369D01*
X134600816Y-86436905D01*
X134600500Y-86428059D01*
X134600500Y-84147275D01*
X134600500Y-84147273D01*
X134573207Y-84045413D01*
X134573207Y-84045412D01*
X134520480Y-83954087D01*
X132736393Y-82170000D01*
X136478590Y-82170000D01*
X137066988Y-82170000D01*
X137034075Y-82227007D01*
X137000000Y-82354174D01*
X137000000Y-82485826D01*
X137034075Y-82612993D01*
X137066988Y-82670000D01*
X136478590Y-82670000D01*
X136525233Y-82823766D01*
X136622728Y-83006166D01*
X136622732Y-83006173D01*
X136753944Y-83166055D01*
X136913826Y-83297267D01*
X136913833Y-83297271D01*
X137096233Y-83394766D01*
X137250000Y-83441410D01*
X137250000Y-82853012D01*
X137307007Y-82885925D01*
X137434174Y-82920000D01*
X137565826Y-82920000D01*
X137692993Y-82885925D01*
X137750000Y-82853012D01*
X137750000Y-83441410D01*
X137903766Y-83394766D01*
X138086166Y-83297271D01*
X138086173Y-83297267D01*
X138246055Y-83166055D01*
X138377267Y-83006173D01*
X138377271Y-83006166D01*
X138474766Y-82823766D01*
X138521410Y-82670000D01*
X137933012Y-82670000D01*
X137965925Y-82612993D01*
X138000000Y-82485826D01*
X138000000Y-82354174D01*
X137965925Y-82227007D01*
X137933012Y-82170000D01*
X138521410Y-82170000D01*
X138474766Y-82016233D01*
X138377271Y-81833833D01*
X138377267Y-81833826D01*
X138246055Y-81673944D01*
X138086173Y-81542732D01*
X138086166Y-81542728D01*
X137903763Y-81445232D01*
X137750000Y-81398587D01*
X137750000Y-81986988D01*
X137692993Y-81954075D01*
X137565826Y-81920000D01*
X137434174Y-81920000D01*
X137307007Y-81954075D01*
X137250000Y-81986988D01*
X137250000Y-81398587D01*
X137096236Y-81445232D01*
X136913833Y-81542728D01*
X136913826Y-81542732D01*
X136753944Y-81673944D01*
X136622732Y-81833826D01*
X136622728Y-81833833D01*
X136525233Y-82016233D01*
X136478590Y-82170000D01*
X132736393Y-82170000D01*
X132526241Y-81959848D01*
X132492756Y-81898525D01*
X132490983Y-81888352D01*
X132490071Y-81881427D01*
X132485044Y-81843238D01*
X132424536Y-81697159D01*
X132328282Y-81571718D01*
X132202841Y-81475464D01*
X132109401Y-81436760D01*
X132056762Y-81414956D01*
X132056760Y-81414955D01*
X131900001Y-81394318D01*
X131899999Y-81394318D01*
X131743239Y-81414955D01*
X131743237Y-81414956D01*
X131597160Y-81475463D01*
X131471718Y-81571718D01*
X131375463Y-81697160D01*
X131314956Y-81843237D01*
X131314955Y-81843239D01*
X131294318Y-81999998D01*
X131294318Y-82000001D01*
X131314955Y-82156760D01*
X131314956Y-82156762D01*
X131375464Y-82302842D01*
X131468826Y-82424514D01*
X131494020Y-82489683D01*
X131479981Y-82558128D01*
X131468826Y-82575486D01*
X131375464Y-82697157D01*
X131314956Y-82843237D01*
X131314955Y-82843239D01*
X131294318Y-82999998D01*
X131294318Y-83000001D01*
X131314955Y-83156760D01*
X131314956Y-83156762D01*
X131341146Y-83219991D01*
X131352768Y-83248047D01*
X131360237Y-83317516D01*
X131328962Y-83379996D01*
X131268873Y-83415648D01*
X131238207Y-83419500D01*
X129184661Y-83419500D01*
X129117622Y-83399815D01*
X129086285Y-83370986D01*
X129044283Y-83316247D01*
X128955403Y-83248047D01*
X128918841Y-83219992D01*
X128772762Y-83159484D01*
X128772760Y-83159483D01*
X128616001Y-83138846D01*
X128615999Y-83138846D01*
X128459239Y-83159483D01*
X128459237Y-83159484D01*
X128313160Y-83219991D01*
X128187718Y-83316246D01*
X128091463Y-83441688D01*
X128030956Y-83587765D01*
X128030955Y-83587767D01*
X128010318Y-83744526D01*
X128010318Y-83744529D01*
X128030955Y-83901288D01*
X128030956Y-83901290D01*
X128052826Y-83954090D01*
X128091464Y-84047369D01*
X128187718Y-84172810D01*
X128313159Y-84269064D01*
X128459238Y-84329572D01*
X128537619Y-84339891D01*
X128615999Y-84350210D01*
X128616000Y-84350210D01*
X128616001Y-84350210D01*
X128668254Y-84343330D01*
X128772762Y-84329572D01*
X128918841Y-84269064D01*
X128948736Y-84246125D01*
X129013905Y-84220930D01*
X129024223Y-84220500D01*
X131937059Y-84220500D01*
X132004098Y-84240185D01*
X132024740Y-84256819D01*
X132963181Y-85195260D01*
X132996666Y-85256583D01*
X132999500Y-85282941D01*
X132999500Y-87133745D01*
X132979815Y-87200784D01*
X132927011Y-87246539D01*
X132857853Y-87256483D01*
X132794297Y-87227458D01*
X132787819Y-87221426D01*
X132641402Y-87075009D01*
X132607917Y-87013686D01*
X132606144Y-87003513D01*
X132605681Y-86999998D01*
X132585044Y-86843238D01*
X132524536Y-86697159D01*
X132428282Y-86571718D01*
X132302841Y-86475464D01*
X132209751Y-86436905D01*
X132156762Y-86414956D01*
X132156760Y-86414955D01*
X132000001Y-86394318D01*
X131999999Y-86394318D01*
X131843239Y-86414955D01*
X131843237Y-86414956D01*
X131697160Y-86475463D01*
X131571718Y-86571718D01*
X131475463Y-86697160D01*
X131414956Y-86843237D01*
X131414955Y-86843239D01*
X131394318Y-86999998D01*
X131394318Y-87000001D01*
X131414955Y-87156760D01*
X131414956Y-87156762D01*
X131463213Y-87273266D01*
X131475464Y-87302841D01*
X131571718Y-87428282D01*
X131697159Y-87524536D01*
X131843238Y-87585044D01*
X132000000Y-87605682D01*
X132000001Y-87605681D01*
X132003513Y-87606144D01*
X132067410Y-87634410D01*
X132075009Y-87641402D01*
X132563181Y-88129573D01*
X132596666Y-88190896D01*
X132599500Y-88217254D01*
X132599500Y-91245688D01*
X132579815Y-91312727D01*
X132563181Y-91333369D01*
X132079522Y-91817027D01*
X132079518Y-91817033D01*
X132026792Y-91908355D01*
X132026793Y-91908356D01*
X131999500Y-92010216D01*
X131999500Y-92507274D01*
X131999500Y-92612728D01*
X132008368Y-92645826D01*
X132026793Y-92714590D01*
X132053156Y-92760251D01*
X132079520Y-92805914D01*
X132079521Y-92805915D01*
X132079522Y-92805916D01*
X132963181Y-93689574D01*
X132996666Y-93750897D01*
X132999500Y-93777255D01*
X132999500Y-94982745D01*
X132979815Y-95049784D01*
X132963181Y-95070426D01*
X130792426Y-97241181D01*
X130731103Y-97274666D01*
X130704745Y-97277500D01*
X130702593Y-97277500D01*
X130635554Y-97257815D01*
X130591593Y-97208771D01*
X130522367Y-97069746D01*
X130393872Y-96899593D01*
X130265682Y-96782732D01*
X130236302Y-96755948D01*
X130055019Y-96643702D01*
X130055017Y-96643701D01*
X129955608Y-96605190D01*
X129856198Y-96566679D01*
X129683456Y-96534387D01*
X129621176Y-96502719D01*
X129585903Y-96442407D01*
X129588837Y-96372599D01*
X129629046Y-96315459D01*
X129693764Y-96289128D01*
X129706233Y-96288499D01*
X130434864Y-96288499D01*
X130434879Y-96288497D01*
X130434882Y-96288497D01*
X130459987Y-96285586D01*
X130459988Y-96285585D01*
X130459991Y-96285585D01*
X130562765Y-96240206D01*
X130642206Y-96160765D01*
X130687585Y-96057991D01*
X130690500Y-96032865D01*
X130690499Y-94540344D01*
X130710184Y-94473306D01*
X130762987Y-94427551D01*
X130832146Y-94417607D01*
X130889984Y-94441969D01*
X130929210Y-94472068D01*
X130971731Y-94504696D01*
X130971732Y-94504696D01*
X130971733Y-94504697D01*
X131117812Y-94565205D01*
X131196193Y-94575524D01*
X131274573Y-94585843D01*
X131274574Y-94585843D01*
X131274575Y-94585843D01*
X131327334Y-94578897D01*
X131431336Y-94565205D01*
X131577415Y-94504697D01*
X131702856Y-94408443D01*
X131799110Y-94283002D01*
X131859618Y-94136923D01*
X131880256Y-93980161D01*
X131878852Y-93969500D01*
X131859618Y-93823400D01*
X131859618Y-93823399D01*
X131799110Y-93677320D01*
X131799109Y-93677319D01*
X131799109Y-93677318D01*
X131700859Y-93549275D01*
X131675665Y-93484106D01*
X131675235Y-93473789D01*
X131675235Y-90574009D01*
X131675234Y-90574005D01*
X131669399Y-90552226D01*
X131647942Y-90472147D01*
X131595215Y-90380822D01*
X130689402Y-89475009D01*
X130655917Y-89413686D01*
X130654144Y-89403513D01*
X130653681Y-89399998D01*
X130633044Y-89243238D01*
X130572536Y-89097159D01*
X130476282Y-88971718D01*
X130350841Y-88875464D01*
X130204762Y-88814956D01*
X130204760Y-88814955D01*
X130048001Y-88794318D01*
X130047999Y-88794318D01*
X129891239Y-88814955D01*
X129891237Y-88814956D01*
X129745160Y-88875463D01*
X129619718Y-88971718D01*
X129523463Y-89097160D01*
X129462956Y-89243237D01*
X129462955Y-89243239D01*
X129442318Y-89399998D01*
X129442318Y-89400001D01*
X129462955Y-89556760D01*
X129462956Y-89556762D01*
X129523464Y-89702841D01*
X129619718Y-89828282D01*
X129745159Y-89924536D01*
X129891238Y-89985044D01*
X130048000Y-90005682D01*
X130048001Y-90005681D01*
X130051513Y-90006144D01*
X130115410Y-90034410D01*
X130123009Y-90041402D01*
X130837916Y-90756309D01*
X130871401Y-90817632D01*
X130874235Y-90843990D01*
X130874235Y-93473369D01*
X130854550Y-93540408D01*
X130848611Y-93548855D01*
X130750038Y-93677318D01*
X130689530Y-93823398D01*
X130689529Y-93823400D01*
X130677745Y-93912915D01*
X130649478Y-93976812D01*
X130591154Y-94015283D01*
X130521289Y-94016114D01*
X130504720Y-94010164D01*
X130459996Y-93990416D01*
X130459991Y-93990415D01*
X130434868Y-93987500D01*
X130434865Y-93987500D01*
X129007255Y-93987500D01*
X128940216Y-93967815D01*
X128919574Y-93951181D01*
X127690819Y-92722426D01*
X127657334Y-92661103D01*
X127654500Y-92634745D01*
X127654500Y-81481272D01*
X127652945Y-81475469D01*
X127652944Y-81475464D01*
X127627207Y-81379412D01*
X127620068Y-81367047D01*
X127603594Y-81299147D01*
X127604516Y-81288854D01*
X127605682Y-81280000D01*
X127605682Y-81279998D01*
X127585044Y-81123239D01*
X127585044Y-81123238D01*
X127524536Y-80977159D01*
X127428282Y-80851718D01*
X127302841Y-80755464D01*
X127156762Y-80694956D01*
X127156760Y-80694955D01*
X127000001Y-80674318D01*
X126999999Y-80674318D01*
X126843239Y-80694955D01*
X126843237Y-80694956D01*
X126697160Y-80755463D01*
X126571718Y-80851718D01*
X126475463Y-80977160D01*
X126414956Y-81123237D01*
X126414955Y-81123239D01*
X126394318Y-81279998D01*
X122720500Y-81279998D01*
X122720500Y-80541158D01*
X122720499Y-80541155D01*
X122702883Y-80452591D01*
X122700500Y-80428400D01*
X122700500Y-79630000D01*
X136478590Y-79630000D01*
X137066988Y-79630000D01*
X137034075Y-79687007D01*
X137000000Y-79814174D01*
X137000000Y-79945826D01*
X137034075Y-80072993D01*
X137066988Y-80130000D01*
X136478590Y-80130000D01*
X136525233Y-80283766D01*
X136622728Y-80466166D01*
X136622732Y-80466173D01*
X136753944Y-80626055D01*
X136913826Y-80757267D01*
X136913833Y-80757271D01*
X137096233Y-80854766D01*
X137250000Y-80901410D01*
X137250000Y-80313012D01*
X137307007Y-80345925D01*
X137434174Y-80380000D01*
X137565826Y-80380000D01*
X137692993Y-80345925D01*
X137750000Y-80313012D01*
X137750000Y-80901410D01*
X137903766Y-80854766D01*
X138086166Y-80757271D01*
X138086173Y-80757267D01*
X138246055Y-80626055D01*
X138377267Y-80466173D01*
X138377271Y-80466166D01*
X138474766Y-80283766D01*
X138521410Y-80130000D01*
X137933012Y-80130000D01*
X137965925Y-80072993D01*
X138000000Y-79945826D01*
X138000000Y-79814174D01*
X137965925Y-79687007D01*
X137933012Y-79630000D01*
X138521410Y-79630000D01*
X138474766Y-79476233D01*
X138377271Y-79293833D01*
X138377267Y-79293826D01*
X138246055Y-79133944D01*
X138086173Y-79002732D01*
X138086166Y-79002728D01*
X137903763Y-78905232D01*
X137750000Y-78858587D01*
X137750000Y-79446988D01*
X137692993Y-79414075D01*
X137565826Y-79380000D01*
X137434174Y-79380000D01*
X137307007Y-79414075D01*
X137250000Y-79446988D01*
X137250000Y-78858587D01*
X137096236Y-78905232D01*
X136913833Y-79002728D01*
X136913826Y-79002732D01*
X136753944Y-79133944D01*
X136622732Y-79293826D01*
X136622728Y-79293833D01*
X136525233Y-79476233D01*
X136478590Y-79630000D01*
X122700500Y-79630000D01*
X122700500Y-78407155D01*
X122700499Y-78407153D01*
X122669738Y-78252510D01*
X122669737Y-78252503D01*
X122655142Y-78217267D01*
X122609397Y-78106827D01*
X122609390Y-78106814D01*
X122521789Y-77975711D01*
X122521786Y-77975707D01*
X122410292Y-77864213D01*
X122410288Y-77864210D01*
X122279185Y-77776609D01*
X122279172Y-77776602D01*
X122133501Y-77716264D01*
X122133489Y-77716261D01*
X121978845Y-77685500D01*
X121978842Y-77685500D01*
X121821158Y-77685500D01*
X121821155Y-77685500D01*
X121666510Y-77716261D01*
X121666498Y-77716264D01*
X121520827Y-77776602D01*
X121520814Y-77776609D01*
X121389711Y-77864210D01*
X121389707Y-77864213D01*
X121278213Y-77975707D01*
X121278210Y-77975711D01*
X121190609Y-78106814D01*
X121190602Y-78106827D01*
X121130264Y-78252498D01*
X121130261Y-78252510D01*
X121099500Y-78407153D01*
X119934500Y-78407153D01*
X119934500Y-74930000D01*
X123514417Y-74930000D01*
X123534699Y-75135932D01*
X123534700Y-75135934D01*
X123594768Y-75333954D01*
X123692315Y-75516450D01*
X123692317Y-75516452D01*
X123823589Y-75676410D01*
X123879205Y-75722052D01*
X123983550Y-75807685D01*
X124166046Y-75905232D01*
X124364066Y-75965300D01*
X124364065Y-75965300D01*
X124382529Y-75967118D01*
X124570000Y-75985583D01*
X124775934Y-75965300D01*
X124973954Y-75905232D01*
X125156450Y-75807685D01*
X125316410Y-75676410D01*
X125447685Y-75516450D01*
X125545232Y-75333954D01*
X125605300Y-75135934D01*
X125625583Y-74930000D01*
X128394417Y-74930000D01*
X128414699Y-75135932D01*
X128414700Y-75135934D01*
X128474768Y-75333954D01*
X128572315Y-75516450D01*
X128572317Y-75516452D01*
X128703589Y-75676410D01*
X128759205Y-75722052D01*
X128863550Y-75807685D01*
X129046046Y-75905232D01*
X129244066Y-75965300D01*
X129244065Y-75965300D01*
X129262529Y-75967118D01*
X129450000Y-75985583D01*
X129655934Y-75965300D01*
X129853954Y-75905232D01*
X130036450Y-75807685D01*
X130196410Y-75676410D01*
X130327685Y-75516450D01*
X130425232Y-75333954D01*
X130485300Y-75135934D01*
X130505583Y-74930000D01*
X130485300Y-74724066D01*
X130425232Y-74526046D01*
X130327685Y-74343550D01*
X130221224Y-74213826D01*
X130196410Y-74183589D01*
X130036452Y-74052317D01*
X130036453Y-74052317D01*
X130036450Y-74052315D01*
X129853954Y-73954768D01*
X129655934Y-73894700D01*
X129655932Y-73894699D01*
X129655934Y-73894699D01*
X129450000Y-73874417D01*
X129244067Y-73894699D01*
X129046043Y-73954769D01*
X128935898Y-74013643D01*
X128863550Y-74052315D01*
X128863548Y-74052316D01*
X128863547Y-74052317D01*
X128703589Y-74183589D01*
X128572317Y-74343547D01*
X128572315Y-74343550D01*
X128533643Y-74415898D01*
X128474769Y-74526043D01*
X128414699Y-74724067D01*
X128394417Y-74930000D01*
X125625583Y-74930000D01*
X125605300Y-74724066D01*
X125545232Y-74526046D01*
X125447685Y-74343550D01*
X125341224Y-74213826D01*
X125316410Y-74183589D01*
X125156452Y-74052317D01*
X125156453Y-74052317D01*
X125156450Y-74052315D01*
X124973954Y-73954768D01*
X124775934Y-73894700D01*
X124775932Y-73894699D01*
X124775934Y-73894699D01*
X124570000Y-73874417D01*
X124364067Y-73894699D01*
X124166043Y-73954769D01*
X124055898Y-74013643D01*
X123983550Y-74052315D01*
X123983548Y-74052316D01*
X123983547Y-74052317D01*
X123823589Y-74183589D01*
X123692317Y-74343547D01*
X123692315Y-74343550D01*
X123653643Y-74415898D01*
X123594769Y-74526043D01*
X123534699Y-74724067D01*
X123514417Y-74930000D01*
X119934500Y-74930000D01*
X119934500Y-69341998D01*
X122330318Y-69341998D01*
X122330318Y-69342001D01*
X122350955Y-69498760D01*
X122350956Y-69498762D01*
X122411464Y-69644841D01*
X122507718Y-69770282D01*
X122507720Y-69770283D01*
X122509876Y-69773093D01*
X122535070Y-69838263D01*
X122535500Y-69848580D01*
X122535500Y-71121419D01*
X122515815Y-71188458D01*
X122509876Y-71196905D01*
X122411464Y-71325157D01*
X122350956Y-71471237D01*
X122350955Y-71471239D01*
X122330318Y-71627998D01*
X122330318Y-71628001D01*
X122350955Y-71784760D01*
X122350956Y-71784762D01*
X122411464Y-71930841D01*
X122507718Y-72056282D01*
X122633159Y-72152536D01*
X122779238Y-72213044D01*
X122857619Y-72223363D01*
X122935999Y-72233682D01*
X122936000Y-72233682D01*
X122936001Y-72233682D01*
X122988254Y-72226802D01*
X123092762Y-72213044D01*
X123238841Y-72152536D01*
X123364282Y-72056282D01*
X123460536Y-71930841D01*
X123521044Y-71784762D01*
X123541682Y-71628000D01*
X123521044Y-71471238D01*
X123460536Y-71325159D01*
X123460535Y-71325158D01*
X123460535Y-71325157D01*
X123362124Y-71196905D01*
X123336930Y-71131736D01*
X123336500Y-71121419D01*
X123336500Y-69848580D01*
X123356185Y-69781541D01*
X123362124Y-69773093D01*
X123364279Y-69770283D01*
X123364282Y-69770282D01*
X123460536Y-69644841D01*
X123521044Y-69498762D01*
X123541682Y-69342000D01*
X123536496Y-69302611D01*
X123521044Y-69185239D01*
X123521044Y-69185238D01*
X123460536Y-69039159D01*
X123364282Y-68913718D01*
X123238841Y-68817464D01*
X123191725Y-68797948D01*
X123092762Y-68756956D01*
X123092760Y-68756955D01*
X122936001Y-68736318D01*
X122935999Y-68736318D01*
X122779239Y-68756955D01*
X122779237Y-68756956D01*
X122633160Y-68817463D01*
X122507718Y-68913718D01*
X122411463Y-69039160D01*
X122350956Y-69185237D01*
X122350955Y-69185239D01*
X122330318Y-69341998D01*
X119934500Y-69341998D01*
X119934500Y-62325733D01*
X132220053Y-62325733D01*
X132220053Y-62325736D01*
X132240690Y-62482495D01*
X132240691Y-62482497D01*
X132287051Y-62594421D01*
X132301199Y-62628576D01*
X132397453Y-62754017D01*
X132522894Y-62850271D01*
X132668973Y-62910779D01*
X132747354Y-62921098D01*
X132825734Y-62931417D01*
X132825735Y-62931417D01*
X132825736Y-62931417D01*
X132877989Y-62924537D01*
X132982497Y-62910779D01*
X133128576Y-62850271D01*
X133254017Y-62754017D01*
X133350271Y-62628576D01*
X133410779Y-62482497D01*
X133431417Y-62325735D01*
X133431416Y-62325732D01*
X133431879Y-62322220D01*
X133460145Y-62258324D01*
X133467124Y-62250737D01*
X134320480Y-61397383D01*
X134324393Y-61390606D01*
X134373207Y-61306057D01*
X134400500Y-61204197D01*
X134400500Y-60006580D01*
X134420185Y-59939541D01*
X134426124Y-59931093D01*
X134428279Y-59928283D01*
X134428282Y-59928282D01*
X134524536Y-59802841D01*
X134585044Y-59656762D01*
X134605682Y-59500000D01*
X134585044Y-59343238D01*
X134524536Y-59197159D01*
X134428282Y-59071718D01*
X134302841Y-58975464D01*
X134298903Y-58973833D01*
X134156762Y-58914956D01*
X134156760Y-58914955D01*
X134000001Y-58894318D01*
X133999999Y-58894318D01*
X133843239Y-58914955D01*
X133843237Y-58914956D01*
X133697160Y-58975463D01*
X133571718Y-59071718D01*
X133475463Y-59197160D01*
X133414956Y-59343237D01*
X133414955Y-59343239D01*
X133394318Y-59499998D01*
X133394318Y-59500001D01*
X133414955Y-59656760D01*
X133414956Y-59656762D01*
X133462817Y-59772310D01*
X133475464Y-59802841D01*
X133571718Y-59928282D01*
X133571720Y-59928283D01*
X133573876Y-59931093D01*
X133599070Y-59996263D01*
X133599500Y-60006580D01*
X133599500Y-60934214D01*
X133579815Y-61001253D01*
X133563181Y-61021895D01*
X132900743Y-61684332D01*
X132839420Y-61717817D01*
X132829248Y-61719590D01*
X132668973Y-61740691D01*
X132668972Y-61740691D01*
X132522895Y-61801198D01*
X132397453Y-61897453D01*
X132301198Y-62022895D01*
X132240691Y-62168972D01*
X132240690Y-62168974D01*
X132220053Y-62325733D01*
X119934500Y-62325733D01*
X119934500Y-56499998D01*
X122894318Y-56499998D01*
X122894318Y-56500001D01*
X122914955Y-56656760D01*
X122914956Y-56656762D01*
X122940061Y-56717370D01*
X122949500Y-56764823D01*
X122949500Y-60580475D01*
X122987016Y-60720485D01*
X123059489Y-60846013D01*
X123059491Y-60846016D01*
X123629478Y-61416003D01*
X123656358Y-61456231D01*
X123681462Y-61516838D01*
X123771420Y-61634075D01*
X123777718Y-61642282D01*
X123903159Y-61738536D01*
X124049238Y-61799044D01*
X124127619Y-61809363D01*
X124205999Y-61819682D01*
X124206000Y-61819682D01*
X124206001Y-61819682D01*
X124258254Y-61812802D01*
X124362762Y-61799044D01*
X124508841Y-61738536D01*
X124634282Y-61642282D01*
X124730536Y-61516841D01*
X124791044Y-61370762D01*
X124804802Y-61266254D01*
X124811682Y-61214001D01*
X124811682Y-61213998D01*
X124791044Y-61057239D01*
X124791044Y-61057238D01*
X124730536Y-60911159D01*
X124634282Y-60785718D01*
X124634280Y-60785717D01*
X124634280Y-60785716D01*
X124549268Y-60720485D01*
X124508841Y-60689464D01*
X124508837Y-60689462D01*
X124508838Y-60689462D01*
X124448231Y-60664358D01*
X124408003Y-60637478D01*
X124086819Y-60316294D01*
X124053334Y-60254971D01*
X124050500Y-60228613D01*
X124050500Y-58570519D01*
X124070185Y-58503480D01*
X124122989Y-58457725D01*
X124192147Y-58447781D01*
X124255703Y-58476806D01*
X124262181Y-58482838D01*
X124357823Y-58578480D01*
X124449148Y-58631207D01*
X124551009Y-58658500D01*
X125985420Y-58658500D01*
X126052459Y-58678185D01*
X126060907Y-58684124D01*
X126063716Y-58686279D01*
X126063718Y-58686282D01*
X126189159Y-58782536D01*
X126335238Y-58843044D01*
X126413619Y-58853363D01*
X126491999Y-58863682D01*
X126492000Y-58863682D01*
X126492001Y-58863682D01*
X126544254Y-58856802D01*
X126648762Y-58843044D01*
X126794841Y-58782536D01*
X126920282Y-58686282D01*
X127016536Y-58560841D01*
X127077044Y-58414762D01*
X127091568Y-58304438D01*
X127119834Y-58240542D01*
X127178159Y-58202071D01*
X127248023Y-58201240D01*
X127261948Y-58206059D01*
X127351238Y-58243044D01*
X127404834Y-58250100D01*
X127507999Y-58263682D01*
X127508000Y-58263682D01*
X127508001Y-58263682D01*
X127560254Y-58256802D01*
X127664762Y-58243044D01*
X127810841Y-58182536D01*
X127936282Y-58086282D01*
X128032536Y-57960841D01*
X128093044Y-57814762D01*
X128113682Y-57658000D01*
X128106858Y-57606170D01*
X128095514Y-57520000D01*
X128093044Y-57501238D01*
X128067781Y-57440249D01*
X128060313Y-57370783D01*
X128091588Y-57308304D01*
X128106853Y-57294426D01*
X128221839Y-57206195D01*
X128318093Y-57080754D01*
X128378601Y-56934675D01*
X128399239Y-56777913D01*
X128394268Y-56740158D01*
X128378601Y-56621152D01*
X128378601Y-56621151D01*
X128318093Y-56475072D01*
X128221839Y-56349631D01*
X128213508Y-56343238D01*
X128193803Y-56328117D01*
X128181610Y-56317424D01*
X127673677Y-55809491D01*
X127673676Y-55809490D01*
X127548146Y-55737016D01*
X127548147Y-55737016D01*
X127513143Y-55727637D01*
X127408136Y-55699500D01*
X123677525Y-55699500D01*
X123572517Y-55727637D01*
X123537514Y-55737016D01*
X123411984Y-55809490D01*
X123297994Y-55923479D01*
X123257768Y-55950357D01*
X123197163Y-55975461D01*
X123197158Y-55975464D01*
X123071719Y-56071716D01*
X122975463Y-56197160D01*
X122914956Y-56343237D01*
X122914955Y-56343239D01*
X122894318Y-56499998D01*
X119934500Y-56499998D01*
X119934500Y-53510500D01*
X119954185Y-53443461D01*
X120006989Y-53397706D01*
X120058500Y-53386500D01*
X136671687Y-53386500D01*
X136738726Y-53406185D01*
G37*
%TD.AperFunction*%
%TD*%
M02*
