M48
; DRILL file {KiCad 8.0.3} date 2024-07-02T23:51:57+0200
; FORMAT={-:-/ absolute / inch / decimal}
; #@! TF.CreationDate,2024-07-02T23:51:57+02:00
; #@! TF.GenerationSoftware,Kicad,Pcbnew,8.0.3
; #@! TF.FileFunction,Plated,1,2,PTH
FMAT,2
INCH
; #@! TA.AperFunction,Plated,PTH,ViaDrill
T1C0.0118
; #@! TA.AperFunction,Plated,PTH,ComponentDrill
T2C0.0315
; #@! TA.AperFunction,Plated,PTH,ComponentDrill
T3C0.0394
%
G90
G05
T1
X4.74Y-2.34
X4.74Y-3.52
X4.75Y-2.13
X4.75Y-3.3
X4.77Y-3.62
X4.79Y-2.27
X4.7992Y-3.1732
X4.8Y-2.77
X4.8Y-3.04
X4.8Y-3.4614
X4.8001Y-3.56
X4.81Y-2.64
X4.84Y-2.91
X4.84Y-3.84
X4.84Y-4.08
X4.84Y-4.56
X4.85Y-2.43
X4.85Y-3.03
X4.85Y-4.19
X4.8622Y-2.2244
X4.88Y-2.73
X4.88Y-3.21
X4.88Y-3.3209
X4.8819Y-3.3858
X4.89Y-2.16
X4.89Y-2.41
X4.89Y-2.87
X4.8961Y-2.3044
X4.93Y-2.57
X4.93Y-3.68
X4.93Y-3.84
X4.94Y-3.03
X4.9402Y-2.2827
X4.9421Y-3.0905
X4.9537Y-2.2441
X4.96Y-2.73
X4.9637Y-2.3259
X4.97Y-2.44
X4.98Y-4.15
X4.99Y-3.3209
X5.0Y-2.2835
X5.0Y-2.83
X5.0Y-2.97
X5.0Y-3.2
X5.0Y-3.27
X5.0Y-3.39
X5.0Y-3.76
X5.0Y-3.94
X5.001Y-2.2441
X5.01Y-2.57
X5.0394Y-2.2244
X5.045Y-4.055
X5.05Y-3.07
X5.0636Y-3.297
X5.065Y-3.39
X5.0787Y-3.2283
X5.09Y-2.29
X5.11Y-2.87
X5.12Y-3.5197
X5.13Y-4.0157
X5.15Y-2.2
X5.16Y-2.91
X5.16Y-3.49
X5.16Y-4.11
X5.1683Y-3.7
X5.17Y-2.56
X5.17Y-2.72
X5.18Y-2.44
X5.18Y-3.05
X5.1929Y-3.2283
X5.1929Y-3.2677
X5.1969Y-3.4252
X5.2Y-3.75
X5.2Y-4.55
X5.22Y-4.06
X5.2232Y-3.4079
X5.2294Y-2.4538
X5.23Y-3.82
X5.23Y-3.96
X5.2362Y-3.6343
X5.2664Y-4.26
X5.27Y-2.56
X5.2756Y-2.3425
X5.28Y-2.2
X5.2912Y-4.2299
X5.31Y-2.3
X5.31Y-2.39
X5.315Y-3.9
X5.32Y-4.4
X5.33Y-2.68
X5.33Y-4.13
X5.33Y-4.31
X5.33Y-4.55
X5.34Y-2.77
T2
X4.9252Y-2.9724
X5.0748Y-2.9724
T3
X5.1Y-3.7456
X5.1Y-3.8456
X5.1Y-3.9456
X5.4134Y-2.1449
X5.4134Y-2.2449
X5.4134Y-2.3449
X5.4134Y-2.4449
X5.4134Y-2.5449
X5.4134Y-2.6449
X5.4134Y-2.7449
X5.4134Y-2.8449
X5.4134Y-2.9449
X5.4134Y-3.0449
X5.4134Y-3.1449
X5.4134Y-3.2449
X5.4134Y-3.3449
X5.4134Y-3.4449
X5.4134Y-3.5449
X5.4134Y-3.6449
X5.4134Y-3.7449
X5.4134Y-3.8449
X5.4134Y-3.9449
X5.4134Y-4.0449
X5.4134Y-4.1449
X5.4134Y-4.2449
X5.4134Y-4.3449
X5.4134Y-4.4449
X5.4134Y-4.5449
X5.5134Y-2.1449
X5.5134Y-2.2449
X5.5134Y-2.3449
X5.5134Y-2.4449
X5.5134Y-2.5449
X5.5134Y-2.6449
X5.5134Y-2.7449
X5.5134Y-2.8449
X5.5134Y-2.9449
X5.5134Y-3.0449
X5.5134Y-3.1449
X5.5134Y-3.2449
X5.5134Y-3.3449
X5.5134Y-3.4449
X5.5134Y-3.5449
X5.5134Y-3.6449
X5.5134Y-3.7449
X5.5134Y-3.8449
X5.5134Y-3.9449
X5.5134Y-4.0449
X5.5134Y-4.1449
X5.5134Y-4.2449
X5.5134Y-4.3449
X5.5134Y-4.4449
X5.5134Y-4.5449
M30
