%TF.GenerationSoftware,KiCad,Pcbnew,8.0.3*%
%TF.CreationDate,2024-07-02T23:51:52+02:00*%
%TF.ProjectId,MacNugget,4d61634e-7567-4676-9574-2e6b69636164,1.0*%
%TF.SameCoordinates,Original*%
%TF.FileFunction,Legend,Top*%
%TF.FilePolarity,Positive*%
%FSLAX46Y46*%
G04 Gerber Fmt 4.6, Leading zero omitted, Abs format (unit mm)*
G04 Created by KiCad (PCBNEW 8.0.3) date 2024-07-02 23:51:52*
%MOMM*%
%LPD*%
G01*
G04 APERTURE LIST*
%ADD10C,0.100000*%
%ADD11C,0.150000*%
%ADD12C,0.120000*%
%ADD13C,0.000000*%
G04 APERTURE END LIST*
D10*
X141478000Y-83058000D02*
X142748000Y-83058000D01*
X142748000Y-86614000D01*
X141478000Y-86614000D01*
X141478000Y-83058000D01*
G36*
X141478000Y-83058000D02*
G01*
X142748000Y-83058000D01*
X142748000Y-86614000D01*
X141478000Y-86614000D01*
X141478000Y-83058000D01*
G37*
G36*
X125798682Y-115378018D02*
G01*
X125795751Y-115387787D01*
X125786226Y-115394138D01*
X125768640Y-115398290D01*
X125741041Y-115400000D01*
X125713685Y-115398290D01*
X125695856Y-115394138D01*
X125686575Y-115387787D01*
X125683888Y-115378018D01*
X125683888Y-114605722D01*
X125682667Y-114605722D01*
X125365884Y-115381437D01*
X125360022Y-115389741D01*
X125349031Y-115395603D01*
X125331934Y-115399023D01*
X125308242Y-115400000D01*
X125283330Y-115398778D01*
X125266233Y-115394870D01*
X125255486Y-115389009D01*
X125250601Y-115381437D01*
X124947496Y-114605722D01*
X124946763Y-114605722D01*
X124946763Y-115378018D01*
X124944076Y-115387787D01*
X124934551Y-115394138D01*
X124916721Y-115398290D01*
X124888389Y-115400000D01*
X124861034Y-115398290D01*
X124843448Y-115394138D01*
X124834411Y-115387787D01*
X124832213Y-115378018D01*
X124832213Y-114562491D01*
X124847356Y-114521458D01*
X124880817Y-114509002D01*
X124952381Y-114509002D01*
X124990727Y-114513154D01*
X125019547Y-114526343D01*
X125040308Y-114548813D01*
X125054718Y-114581053D01*
X125312394Y-115223168D01*
X125315814Y-115223168D01*
X125583748Y-114583007D01*
X125600113Y-114548080D01*
X125619652Y-114525122D01*
X125643344Y-114512909D01*
X125673630Y-114509002D01*
X125748612Y-114509002D01*
X125768152Y-114512177D01*
X125783783Y-114521702D01*
X125794530Y-114538311D01*
X125798682Y-114562491D01*
X125798682Y-115378018D01*
G37*
G36*
X126288701Y-114730342D02*
G01*
X126339184Y-114739437D01*
X126351159Y-114742986D01*
X126395693Y-114763074D01*
X126426630Y-114787438D01*
X126455258Y-114827237D01*
X126468396Y-114860223D01*
X126478687Y-114910292D01*
X126481585Y-114961339D01*
X126481585Y-115379239D01*
X126475967Y-115391695D01*
X126460824Y-115398046D01*
X126432981Y-115400000D01*
X126404160Y-115398046D01*
X126388773Y-115391695D01*
X126384132Y-115379239D01*
X126384132Y-115317445D01*
X126346879Y-115352401D01*
X126306074Y-115381185D01*
X126293762Y-115388276D01*
X126245763Y-115407911D01*
X126195187Y-115415524D01*
X126188249Y-115415631D01*
X126139158Y-115411978D01*
X126100078Y-115402686D01*
X126055198Y-115381926D01*
X126032667Y-115365073D01*
X126000269Y-115325959D01*
X125989436Y-115304745D01*
X125976212Y-115256049D01*
X125974048Y-115223168D01*
X125974282Y-115220969D01*
X126090064Y-115220969D01*
X126100827Y-115271015D01*
X126120594Y-115297418D01*
X126165459Y-115321074D01*
X126206079Y-115325750D01*
X126256831Y-115317828D01*
X126288877Y-115303279D01*
X126330464Y-115272390D01*
X126366367Y-115236807D01*
X126368989Y-115233914D01*
X126368989Y-115103000D01*
X126272025Y-115103000D01*
X126220933Y-115105842D01*
X126190936Y-115111060D01*
X126144514Y-115127894D01*
X126134027Y-115134263D01*
X126100566Y-115171388D01*
X126090074Y-115219220D01*
X126090064Y-115220969D01*
X125974282Y-115220969D01*
X125979361Y-115173220D01*
X125995297Y-115130355D01*
X126025076Y-115090367D01*
X126056358Y-115065143D01*
X126100627Y-115042306D01*
X126150226Y-115026886D01*
X126153811Y-115026064D01*
X126203181Y-115017682D01*
X126252904Y-115013738D01*
X126283748Y-115013119D01*
X126368989Y-115013119D01*
X126368989Y-114965491D01*
X126364368Y-114915456D01*
X126361418Y-114903210D01*
X126338037Y-114859148D01*
X126336993Y-114858025D01*
X126294943Y-114831487D01*
X126293274Y-114830914D01*
X126244073Y-114822077D01*
X126227572Y-114821632D01*
X126178399Y-114825449D01*
X126152101Y-114831402D01*
X126105119Y-114847860D01*
X126093727Y-114852896D01*
X126051962Y-114874389D01*
X126026805Y-114884159D01*
X126017279Y-114881472D01*
X126009952Y-114872923D01*
X126005556Y-114858513D01*
X126004334Y-114838974D01*
X126006533Y-114811130D01*
X126018256Y-114791835D01*
X126050252Y-114771074D01*
X126097039Y-114751872D01*
X126102520Y-114750069D01*
X126149873Y-114737476D01*
X126167000Y-114734193D01*
X126215591Y-114728463D01*
X126237831Y-114727843D01*
X126288701Y-114730342D01*
G37*
G36*
X127130538Y-115292533D02*
G01*
X127129806Y-115313293D01*
X127127363Y-115327704D01*
X127123211Y-115337962D01*
X127112220Y-115350907D01*
X127083155Y-115371667D01*
X127038362Y-115393280D01*
X127036749Y-115393893D01*
X126988316Y-115407945D01*
X126980817Y-115409525D01*
X126932303Y-115415339D01*
X126918291Y-115415631D01*
X126866614Y-115411963D01*
X126816552Y-115399808D01*
X126800078Y-115393405D01*
X126755466Y-115368060D01*
X126718261Y-115333699D01*
X126713860Y-115328436D01*
X126686645Y-115287130D01*
X126666983Y-115242160D01*
X126660859Y-115223168D01*
X126649845Y-115173743D01*
X126644215Y-115123669D01*
X126642785Y-115079309D01*
X126644543Y-115029306D01*
X126650621Y-114978597D01*
X126662320Y-114928713D01*
X126665011Y-114920307D01*
X126684165Y-114873847D01*
X126710109Y-114831113D01*
X126726316Y-114811374D01*
X126762915Y-114778396D01*
X126807937Y-114752400D01*
X126817663Y-114748360D01*
X126865248Y-114734335D01*
X126916104Y-114728164D01*
X126931236Y-114727843D01*
X126981646Y-114732331D01*
X126988633Y-114733705D01*
X127036761Y-114747673D01*
X127039680Y-114748848D01*
X127081201Y-114770341D01*
X127107824Y-114791346D01*
X127119059Y-114805024D01*
X127124188Y-114816748D01*
X127127119Y-114832135D01*
X127127852Y-114853628D01*
X127121501Y-114892707D01*
X127106602Y-114903698D01*
X127082667Y-114891486D01*
X127048717Y-114864619D01*
X127004310Y-114840064D01*
X126998891Y-114837752D01*
X126949249Y-114826304D01*
X126930015Y-114825540D01*
X126878265Y-114833102D01*
X126832080Y-114858598D01*
X126804474Y-114889532D01*
X126781548Y-114934979D01*
X126768174Y-114985467D01*
X126762060Y-115037967D01*
X126760999Y-115074424D01*
X126763149Y-115124740D01*
X126770873Y-115175145D01*
X126772234Y-115180914D01*
X126788471Y-115227582D01*
X126805695Y-115257362D01*
X126840538Y-115292068D01*
X126859429Y-115303035D01*
X126907810Y-115316479D01*
X126932702Y-115317934D01*
X126981933Y-115312162D01*
X127001334Y-115305722D01*
X127045467Y-115283137D01*
X127052381Y-115278611D01*
X127088773Y-115251744D01*
X127111976Y-115239776D01*
X127120280Y-115242707D01*
X127126142Y-115251988D01*
X127129561Y-115268597D01*
X127130538Y-115292533D01*
G37*
G36*
X127962918Y-115349197D02*
G01*
X127958521Y-115372644D01*
X127946798Y-115388520D01*
X127930678Y-115397313D01*
X127912848Y-115400000D01*
X127874990Y-115400000D01*
X127843727Y-115396092D01*
X127818326Y-115381926D01*
X127794390Y-115354082D01*
X127768910Y-115311285D01*
X127768012Y-115309630D01*
X127487621Y-114805024D01*
X127462737Y-114759901D01*
X127443169Y-114723203D01*
X127420450Y-114678409D01*
X127401892Y-114639916D01*
X127400427Y-114639916D01*
X127401648Y-114689802D01*
X127402381Y-114740788D01*
X127402930Y-114791957D01*
X127403113Y-114842882D01*
X127403113Y-115378018D01*
X127400427Y-115387299D01*
X127391145Y-115394138D01*
X127373804Y-115398290D01*
X127346937Y-115400000D01*
X127319582Y-115398290D01*
X127302729Y-115394138D01*
X127293937Y-115387299D01*
X127291250Y-115378018D01*
X127291250Y-114559804D01*
X127306393Y-114520725D01*
X127339366Y-114509002D01*
X127395542Y-114509002D01*
X127429003Y-114512421D01*
X127452939Y-114523900D01*
X127473455Y-114545882D01*
X127495193Y-114581053D01*
X127710859Y-114970376D01*
X127735322Y-115014283D01*
X127749450Y-115039986D01*
X127773182Y-115084124D01*
X127785109Y-115106908D01*
X127808502Y-115151563D01*
X127819059Y-115171632D01*
X127842116Y-115215522D01*
X127852520Y-115235624D01*
X127853009Y-115235624D01*
X127852025Y-115184054D01*
X127851397Y-115134179D01*
X127851299Y-115123272D01*
X127851132Y-115072870D01*
X127851057Y-115020838D01*
X127851055Y-115010676D01*
X127851055Y-114530983D01*
X127853741Y-114521946D01*
X127863023Y-114514863D01*
X127880120Y-114510467D01*
X127907963Y-114509002D01*
X127934097Y-114510467D01*
X127951194Y-114514863D01*
X127960231Y-114521946D01*
X127962918Y-114530983D01*
X127962918Y-115349197D01*
G37*
G36*
X128711522Y-115378750D02*
G01*
X128709080Y-115388032D01*
X128700287Y-115394626D01*
X128684167Y-115398778D01*
X128659987Y-115400000D01*
X128634097Y-115398778D01*
X128618466Y-115394626D01*
X128610406Y-115388032D01*
X128608452Y-115378750D01*
X128608452Y-115297662D01*
X128572187Y-115336052D01*
X128533020Y-115368979D01*
X128503916Y-115387543D01*
X128458589Y-115406744D01*
X128409505Y-115415384D01*
X128399624Y-115415631D01*
X128349295Y-115411704D01*
X128300935Y-115397599D01*
X128295577Y-115395115D01*
X128253141Y-115367122D01*
X128227189Y-115338939D01*
X128202425Y-115295190D01*
X128189575Y-115256140D01*
X128181511Y-115207318D01*
X128178516Y-115157886D01*
X128178340Y-115141346D01*
X128178340Y-114764724D01*
X128180782Y-114755687D01*
X128190064Y-114748604D01*
X128207893Y-114744452D01*
X128235493Y-114743475D01*
X128262848Y-114744452D01*
X128280434Y-114748604D01*
X128289715Y-114755687D01*
X128292401Y-114764968D01*
X128292401Y-115126203D01*
X128294355Y-115175235D01*
X128300217Y-115213398D01*
X128318636Y-115260294D01*
X128324397Y-115269330D01*
X128360636Y-115302760D01*
X128365186Y-115305233D01*
X128412964Y-115317624D01*
X128423071Y-115317934D01*
X128473452Y-115306826D01*
X128507824Y-115286427D01*
X128545778Y-115253201D01*
X128579872Y-115215717D01*
X128597461Y-115193859D01*
X128597461Y-114764724D01*
X128599903Y-114755443D01*
X128609184Y-114748604D01*
X128626526Y-114744452D01*
X128654369Y-114743475D01*
X128681969Y-114744452D01*
X128699066Y-114748604D01*
X128708347Y-114755443D01*
X128711522Y-114764724D01*
X128711522Y-115378750D01*
G37*
G36*
X129175203Y-114731493D02*
G01*
X129178270Y-114731995D01*
X129223944Y-114743475D01*
X129410789Y-114743475D01*
X129428131Y-114755198D01*
X129433993Y-114790614D01*
X129427398Y-114826273D01*
X129410789Y-114837264D01*
X129322129Y-114837264D01*
X129351512Y-114877400D01*
X129355591Y-114887578D01*
X129365122Y-114935717D01*
X129365360Y-114944975D01*
X129361025Y-114994923D01*
X129348019Y-115038764D01*
X129322464Y-115082605D01*
X129298926Y-115107641D01*
X129256916Y-115136346D01*
X129223211Y-115150628D01*
X129173811Y-115162253D01*
X129125758Y-115165526D01*
X129075435Y-115160909D01*
X129053706Y-115155757D01*
X129008696Y-115136259D01*
X129001194Y-115130844D01*
X128980922Y-115160642D01*
X128973106Y-115198988D01*
X128995332Y-115241242D01*
X129041521Y-115258234D01*
X129054928Y-115259316D01*
X129216372Y-115266154D01*
X129265634Y-115270972D01*
X129300636Y-115279099D01*
X129346763Y-115298373D01*
X129367314Y-115311828D01*
X129401481Y-115347421D01*
X129411278Y-115364096D01*
X129425603Y-115411259D01*
X129427154Y-115435903D01*
X129420868Y-115485690D01*
X129409324Y-115517969D01*
X129381435Y-115560931D01*
X129354614Y-115586357D01*
X129312848Y-115612796D01*
X129264376Y-115631926D01*
X129260824Y-115633007D01*
X129211160Y-115644077D01*
X129159233Y-115649286D01*
X129126247Y-115650104D01*
X129073284Y-115648284D01*
X129022885Y-115642203D01*
X128998752Y-115637159D01*
X128950941Y-115622077D01*
X128912534Y-115602233D01*
X128875183Y-115567852D01*
X128863930Y-115549476D01*
X128849984Y-115502462D01*
X128848787Y-115482554D01*
X128850271Y-115470341D01*
X128960161Y-115470341D01*
X128977812Y-115517206D01*
X129005346Y-115537264D01*
X129051922Y-115552958D01*
X129102710Y-115559416D01*
X129131864Y-115560223D01*
X129181864Y-115557397D01*
X129218082Y-115550209D01*
X129264074Y-115530919D01*
X129274013Y-115524075D01*
X129304544Y-115486461D01*
X129313825Y-115442254D01*
X129296917Y-115394937D01*
X129281096Y-115381437D01*
X129234341Y-115362974D01*
X129192925Y-115358478D01*
X129032946Y-115353105D01*
X128996798Y-115385589D01*
X128974572Y-115414654D01*
X128963092Y-115442254D01*
X128960161Y-115470341D01*
X128850271Y-115470341D01*
X128854160Y-115438346D01*
X128871013Y-115397557D01*
X128899345Y-115360432D01*
X128936811Y-115326589D01*
X128938180Y-115325505D01*
X128898813Y-115295207D01*
X128888354Y-115280809D01*
X128872801Y-115233851D01*
X128872234Y-115222191D01*
X128878912Y-115171682D01*
X128889331Y-115144766D01*
X128915347Y-115102937D01*
X128931829Y-115083461D01*
X128904901Y-115042153D01*
X128898124Y-115026796D01*
X128887104Y-114977124D01*
X128885912Y-114950348D01*
X128885956Y-114949860D01*
X128993867Y-114949860D01*
X129001488Y-114999341D01*
X129028549Y-115042184D01*
X129073258Y-115068293D01*
X129121877Y-115075612D01*
X129125758Y-115075645D01*
X129174328Y-115068873D01*
X129183888Y-115065387D01*
X129224921Y-115037055D01*
X129248856Y-114995289D01*
X129256916Y-114945952D01*
X129249296Y-114895069D01*
X129222234Y-114851674D01*
X129180224Y-114826212D01*
X129131444Y-114817857D01*
X129123560Y-114817725D01*
X129074004Y-114825201D01*
X129066163Y-114828227D01*
X129025618Y-114857292D01*
X129001683Y-114899790D01*
X128993875Y-114948229D01*
X128993867Y-114949860D01*
X128885956Y-114949860D01*
X128890369Y-114900828D01*
X128903741Y-114856803D01*
X128928127Y-114814265D01*
X128953078Y-114786950D01*
X128995175Y-114757751D01*
X129029038Y-114743230D01*
X129078474Y-114731224D01*
X129125758Y-114727843D01*
X129175203Y-114731493D01*
G37*
G36*
X129846382Y-114731493D02*
G01*
X129849450Y-114731995D01*
X129895123Y-114743475D01*
X130081969Y-114743475D01*
X130099310Y-114755198D01*
X130105172Y-114790614D01*
X130098577Y-114826273D01*
X130081969Y-114837264D01*
X129993309Y-114837264D01*
X130022691Y-114877400D01*
X130026770Y-114887578D01*
X130036301Y-114935717D01*
X130036540Y-114944975D01*
X130032204Y-114994923D01*
X130019198Y-115038764D01*
X129993643Y-115082605D01*
X129970106Y-115107641D01*
X129928095Y-115136346D01*
X129894390Y-115150628D01*
X129844991Y-115162253D01*
X129796937Y-115165526D01*
X129746615Y-115160909D01*
X129724886Y-115155757D01*
X129679875Y-115136259D01*
X129672374Y-115130844D01*
X129652101Y-115160642D01*
X129644286Y-115198988D01*
X129666512Y-115241242D01*
X129712700Y-115258234D01*
X129726107Y-115259316D01*
X129887551Y-115266154D01*
X129936813Y-115270972D01*
X129971815Y-115279099D01*
X130017942Y-115298373D01*
X130038494Y-115311828D01*
X130072660Y-115347421D01*
X130082457Y-115364096D01*
X130096783Y-115411259D01*
X130098333Y-115435903D01*
X130092047Y-115485690D01*
X130080503Y-115517969D01*
X130052614Y-115560931D01*
X130025793Y-115586357D01*
X129984027Y-115612796D01*
X129935556Y-115631926D01*
X129932004Y-115633007D01*
X129882339Y-115644077D01*
X129830413Y-115649286D01*
X129797426Y-115650104D01*
X129744463Y-115648284D01*
X129694064Y-115642203D01*
X129669931Y-115637159D01*
X129622121Y-115622077D01*
X129583713Y-115602233D01*
X129546362Y-115567852D01*
X129535109Y-115549476D01*
X129521164Y-115502462D01*
X129519966Y-115482554D01*
X129521450Y-115470341D01*
X129631341Y-115470341D01*
X129648991Y-115517206D01*
X129676526Y-115537264D01*
X129723102Y-115552958D01*
X129773889Y-115559416D01*
X129803043Y-115560223D01*
X129853043Y-115557397D01*
X129889261Y-115550209D01*
X129935254Y-115530919D01*
X129945193Y-115524075D01*
X129975723Y-115486461D01*
X129985004Y-115442254D01*
X129968097Y-115394937D01*
X129952276Y-115381437D01*
X129905521Y-115362974D01*
X129864104Y-115358478D01*
X129704125Y-115353105D01*
X129667977Y-115385589D01*
X129645751Y-115414654D01*
X129634272Y-115442254D01*
X129631341Y-115470341D01*
X129521450Y-115470341D01*
X129525339Y-115438346D01*
X129542192Y-115397557D01*
X129570524Y-115360432D01*
X129607990Y-115326589D01*
X129609359Y-115325505D01*
X129569992Y-115295207D01*
X129559533Y-115280809D01*
X129543980Y-115233851D01*
X129543413Y-115222191D01*
X129550092Y-115171682D01*
X129560510Y-115144766D01*
X129586526Y-115102937D01*
X129603009Y-115083461D01*
X129576081Y-115042153D01*
X129569303Y-115026796D01*
X129558284Y-114977124D01*
X129557091Y-114950348D01*
X129557135Y-114949860D01*
X129665046Y-114949860D01*
X129672667Y-114999341D01*
X129699729Y-115042184D01*
X129744437Y-115068293D01*
X129793057Y-115075612D01*
X129796937Y-115075645D01*
X129845507Y-115068873D01*
X129855067Y-115065387D01*
X129896100Y-115037055D01*
X129920036Y-114995289D01*
X129928096Y-114945952D01*
X129920475Y-114895069D01*
X129893413Y-114851674D01*
X129851404Y-114826212D01*
X129802624Y-114817857D01*
X129794739Y-114817725D01*
X129745183Y-114825201D01*
X129737342Y-114828227D01*
X129696798Y-114857292D01*
X129672862Y-114899790D01*
X129665054Y-114948229D01*
X129665046Y-114949860D01*
X129557135Y-114949860D01*
X129561548Y-114900828D01*
X129574921Y-114856803D01*
X129599307Y-114814265D01*
X129624258Y-114786950D01*
X129666354Y-114757751D01*
X129700217Y-114743230D01*
X129749654Y-114731224D01*
X129796937Y-114727843D01*
X129846382Y-114731493D01*
G37*
G36*
X130542607Y-114731106D02*
G01*
X130591534Y-114742005D01*
X130614907Y-114751046D01*
X130658967Y-114776287D01*
X130697092Y-114810901D01*
X130699170Y-114813328D01*
X130727747Y-114855826D01*
X130746552Y-114901880D01*
X130747531Y-114905163D01*
X130758575Y-114956233D01*
X130762783Y-115006802D01*
X130762918Y-115018004D01*
X130762918Y-115038276D01*
X130749484Y-115076133D01*
X130718954Y-115087369D01*
X130313755Y-115087369D01*
X130316320Y-115138415D01*
X130324013Y-115184089D01*
X130341017Y-115230916D01*
X130358207Y-115258094D01*
X130396045Y-115292385D01*
X130420734Y-115305478D01*
X130469557Y-115318710D01*
X130515011Y-115321842D01*
X130566150Y-115319075D01*
X130593169Y-115314759D01*
X130641314Y-115302266D01*
X130652764Y-115298394D01*
X130694041Y-115282274D01*
X130718466Y-115274947D01*
X130726770Y-115277390D01*
X130732632Y-115284717D01*
X130735807Y-115298394D01*
X130736784Y-115319644D01*
X130736051Y-115335519D01*
X130734341Y-115347487D01*
X130730922Y-115356769D01*
X130724816Y-115364829D01*
X130702590Y-115377529D01*
X130656310Y-115393863D01*
X130654474Y-115394382D01*
X130604923Y-115405648D01*
X130586086Y-115409036D01*
X130535539Y-115414704D01*
X130503288Y-115415631D01*
X130453120Y-115413091D01*
X130403460Y-115404528D01*
X130369687Y-115394138D01*
X130322971Y-115371190D01*
X130283267Y-115340389D01*
X130273211Y-115330146D01*
X130242663Y-115288846D01*
X130220828Y-115243129D01*
X130214104Y-115223656D01*
X130202049Y-115172743D01*
X130195885Y-115120943D01*
X130194321Y-115074912D01*
X130196745Y-115021433D01*
X130200255Y-114997487D01*
X130313755Y-114997487D01*
X130648856Y-114997487D01*
X130645961Y-114948505D01*
X130631215Y-114899046D01*
X130609533Y-114865596D01*
X130569146Y-114834601D01*
X130520059Y-114820015D01*
X130486191Y-114817725D01*
X130435576Y-114824141D01*
X130412674Y-114832623D01*
X130371045Y-114860467D01*
X130359673Y-114872191D01*
X130333157Y-114913498D01*
X130326700Y-114929344D01*
X130315372Y-114977680D01*
X130313755Y-114997487D01*
X130200255Y-114997487D01*
X130204018Y-114971822D01*
X130214837Y-114930076D01*
X130232800Y-114884464D01*
X130258074Y-114841252D01*
X130274188Y-114820655D01*
X130311254Y-114785353D01*
X130354490Y-114758091D01*
X130367977Y-114751779D01*
X130414805Y-114736281D01*
X130465985Y-114728685D01*
X130491076Y-114727843D01*
X130542607Y-114731106D01*
G37*
G36*
X131245786Y-115340893D02*
G01*
X131242855Y-115372644D01*
X131234551Y-115389986D01*
X131218187Y-115400244D01*
X131193030Y-115408304D01*
X131163232Y-115413433D01*
X131131725Y-115415631D01*
X131081922Y-115411535D01*
X131049170Y-115402686D01*
X131006325Y-115377489D01*
X130992995Y-115363852D01*
X130968426Y-115321337D01*
X130960999Y-115297662D01*
X130952902Y-115248117D01*
X130950985Y-115203384D01*
X130950985Y-114837264D01*
X130864523Y-114837264D01*
X130847914Y-114826273D01*
X130841808Y-114790614D01*
X130843518Y-114768876D01*
X130847914Y-114754221D01*
X130854997Y-114745917D01*
X130865011Y-114743475D01*
X130950985Y-114743475D01*
X130950985Y-114593998D01*
X130953427Y-114584961D01*
X130962220Y-114577390D01*
X130979806Y-114572993D01*
X131007405Y-114571528D01*
X131035493Y-114572993D01*
X131052590Y-114577390D01*
X131061627Y-114584961D01*
X131064314Y-114593998D01*
X131064314Y-114743475D01*
X131223071Y-114743475D01*
X131232597Y-114745917D01*
X131239680Y-114754221D01*
X131244321Y-114768876D01*
X131245786Y-114790614D01*
X131239436Y-114826273D01*
X131223071Y-114837264D01*
X131064314Y-114837264D01*
X131064314Y-115187020D01*
X131067913Y-115237623D01*
X131083120Y-115284961D01*
X131123284Y-115314714D01*
X131150775Y-115317934D01*
X131178863Y-115315003D01*
X131200845Y-115308408D01*
X131217454Y-115301814D01*
X131229910Y-115298639D01*
X131236260Y-115300593D01*
X131241145Y-115307187D01*
X131244321Y-115320132D01*
X131245786Y-115340893D01*
G37*
D11*
X126523809Y-78328628D02*
X126523809Y-78804819D01*
X126190476Y-77804819D02*
X126523809Y-78328628D01*
X126523809Y-78328628D02*
X126857142Y-77804819D01*
X127714285Y-78804819D02*
X127142857Y-78804819D01*
X127428571Y-78804819D02*
X127428571Y-77804819D01*
X127428571Y-77804819D02*
X127333333Y-77947676D01*
X127333333Y-77947676D02*
X127238095Y-78042914D01*
X127238095Y-78042914D02*
X127142857Y-78090533D01*
X120850819Y-79160666D02*
X120374628Y-79493999D01*
X120850819Y-79732094D02*
X119850819Y-79732094D01*
X119850819Y-79732094D02*
X119850819Y-79351142D01*
X119850819Y-79351142D02*
X119898438Y-79255904D01*
X119898438Y-79255904D02*
X119946057Y-79208285D01*
X119946057Y-79208285D02*
X120041295Y-79160666D01*
X120041295Y-79160666D02*
X120184152Y-79160666D01*
X120184152Y-79160666D02*
X120279390Y-79208285D01*
X120279390Y-79208285D02*
X120327009Y-79255904D01*
X120327009Y-79255904D02*
X120374628Y-79351142D01*
X120374628Y-79351142D02*
X120374628Y-79732094D01*
X119850819Y-78827332D02*
X119850819Y-78208285D01*
X119850819Y-78208285D02*
X120231771Y-78541618D01*
X120231771Y-78541618D02*
X120231771Y-78398761D01*
X120231771Y-78398761D02*
X120279390Y-78303523D01*
X120279390Y-78303523D02*
X120327009Y-78255904D01*
X120327009Y-78255904D02*
X120422247Y-78208285D01*
X120422247Y-78208285D02*
X120660342Y-78208285D01*
X120660342Y-78208285D02*
X120755580Y-78255904D01*
X120755580Y-78255904D02*
X120803200Y-78303523D01*
X120803200Y-78303523D02*
X120850819Y-78398761D01*
X120850819Y-78398761D02*
X120850819Y-78684475D01*
X120850819Y-78684475D02*
X120803200Y-78779713D01*
X120803200Y-78779713D02*
X120755580Y-78827332D01*
X128994819Y-92701333D02*
X129709104Y-92701333D01*
X129709104Y-92701333D02*
X129851961Y-92748952D01*
X129851961Y-92748952D02*
X129947200Y-92844190D01*
X129947200Y-92844190D02*
X129994819Y-92987047D01*
X129994819Y-92987047D02*
X129994819Y-93082285D01*
X129328152Y-91796571D02*
X129994819Y-91796571D01*
X128947200Y-92034666D02*
X129661485Y-92272761D01*
X129661485Y-92272761D02*
X129661485Y-91653714D01*
X121771580Y-105068666D02*
X121819200Y-105116285D01*
X121819200Y-105116285D02*
X121866819Y-105259142D01*
X121866819Y-105259142D02*
X121866819Y-105354380D01*
X121866819Y-105354380D02*
X121819200Y-105497237D01*
X121819200Y-105497237D02*
X121723961Y-105592475D01*
X121723961Y-105592475D02*
X121628723Y-105640094D01*
X121628723Y-105640094D02*
X121438247Y-105687713D01*
X121438247Y-105687713D02*
X121295390Y-105687713D01*
X121295390Y-105687713D02*
X121104914Y-105640094D01*
X121104914Y-105640094D02*
X121009676Y-105592475D01*
X121009676Y-105592475D02*
X120914438Y-105497237D01*
X120914438Y-105497237D02*
X120866819Y-105354380D01*
X120866819Y-105354380D02*
X120866819Y-105259142D01*
X120866819Y-105259142D02*
X120914438Y-105116285D01*
X120914438Y-105116285D02*
X120962057Y-105068666D01*
X120866819Y-104211523D02*
X120866819Y-104401999D01*
X120866819Y-104401999D02*
X120914438Y-104497237D01*
X120914438Y-104497237D02*
X120962057Y-104544856D01*
X120962057Y-104544856D02*
X121104914Y-104640094D01*
X121104914Y-104640094D02*
X121295390Y-104687713D01*
X121295390Y-104687713D02*
X121676342Y-104687713D01*
X121676342Y-104687713D02*
X121771580Y-104640094D01*
X121771580Y-104640094D02*
X121819200Y-104592475D01*
X121819200Y-104592475D02*
X121866819Y-104497237D01*
X121866819Y-104497237D02*
X121866819Y-104306761D01*
X121866819Y-104306761D02*
X121819200Y-104211523D01*
X121819200Y-104211523D02*
X121771580Y-104163904D01*
X121771580Y-104163904D02*
X121676342Y-104116285D01*
X121676342Y-104116285D02*
X121438247Y-104116285D01*
X121438247Y-104116285D02*
X121343009Y-104163904D01*
X121343009Y-104163904D02*
X121295390Y-104211523D01*
X121295390Y-104211523D02*
X121247771Y-104306761D01*
X121247771Y-104306761D02*
X121247771Y-104497237D01*
X121247771Y-104497237D02*
X121295390Y-104592475D01*
X121295390Y-104592475D02*
X121343009Y-104640094D01*
X121343009Y-104640094D02*
X121438247Y-104687713D01*
X125073580Y-93638666D02*
X125121200Y-93686285D01*
X125121200Y-93686285D02*
X125168819Y-93829142D01*
X125168819Y-93829142D02*
X125168819Y-93924380D01*
X125168819Y-93924380D02*
X125121200Y-94067237D01*
X125121200Y-94067237D02*
X125025961Y-94162475D01*
X125025961Y-94162475D02*
X124930723Y-94210094D01*
X124930723Y-94210094D02*
X124740247Y-94257713D01*
X124740247Y-94257713D02*
X124597390Y-94257713D01*
X124597390Y-94257713D02*
X124406914Y-94210094D01*
X124406914Y-94210094D02*
X124311676Y-94162475D01*
X124311676Y-94162475D02*
X124216438Y-94067237D01*
X124216438Y-94067237D02*
X124168819Y-93924380D01*
X124168819Y-93924380D02*
X124168819Y-93829142D01*
X124168819Y-93829142D02*
X124216438Y-93686285D01*
X124216438Y-93686285D02*
X124264057Y-93638666D01*
X124168819Y-92733904D02*
X124168819Y-93210094D01*
X124168819Y-93210094D02*
X124645009Y-93257713D01*
X124645009Y-93257713D02*
X124597390Y-93210094D01*
X124597390Y-93210094D02*
X124549771Y-93114856D01*
X124549771Y-93114856D02*
X124549771Y-92876761D01*
X124549771Y-92876761D02*
X124597390Y-92781523D01*
X124597390Y-92781523D02*
X124645009Y-92733904D01*
X124645009Y-92733904D02*
X124740247Y-92686285D01*
X124740247Y-92686285D02*
X124978342Y-92686285D01*
X124978342Y-92686285D02*
X125073580Y-92733904D01*
X125073580Y-92733904D02*
X125121200Y-92781523D01*
X125121200Y-92781523D02*
X125168819Y-92876761D01*
X125168819Y-92876761D02*
X125168819Y-93114856D01*
X125168819Y-93114856D02*
X125121200Y-93210094D01*
X125121200Y-93210094D02*
X125073580Y-93257713D01*
X132947580Y-79414666D02*
X132995200Y-79462285D01*
X132995200Y-79462285D02*
X133042819Y-79605142D01*
X133042819Y-79605142D02*
X133042819Y-79700380D01*
X133042819Y-79700380D02*
X132995200Y-79843237D01*
X132995200Y-79843237D02*
X132899961Y-79938475D01*
X132899961Y-79938475D02*
X132804723Y-79986094D01*
X132804723Y-79986094D02*
X132614247Y-80033713D01*
X132614247Y-80033713D02*
X132471390Y-80033713D01*
X132471390Y-80033713D02*
X132280914Y-79986094D01*
X132280914Y-79986094D02*
X132185676Y-79938475D01*
X132185676Y-79938475D02*
X132090438Y-79843237D01*
X132090438Y-79843237D02*
X132042819Y-79700380D01*
X132042819Y-79700380D02*
X132042819Y-79605142D01*
X132042819Y-79605142D02*
X132090438Y-79462285D01*
X132090438Y-79462285D02*
X132138057Y-79414666D01*
X132376152Y-78557523D02*
X133042819Y-78557523D01*
X131995200Y-78795618D02*
X132709485Y-79033713D01*
X132709485Y-79033713D02*
X132709485Y-78414666D01*
X121009580Y-54522666D02*
X121057200Y-54570285D01*
X121057200Y-54570285D02*
X121104819Y-54713142D01*
X121104819Y-54713142D02*
X121104819Y-54808380D01*
X121104819Y-54808380D02*
X121057200Y-54951237D01*
X121057200Y-54951237D02*
X120961961Y-55046475D01*
X120961961Y-55046475D02*
X120866723Y-55094094D01*
X120866723Y-55094094D02*
X120676247Y-55141713D01*
X120676247Y-55141713D02*
X120533390Y-55141713D01*
X120533390Y-55141713D02*
X120342914Y-55094094D01*
X120342914Y-55094094D02*
X120247676Y-55046475D01*
X120247676Y-55046475D02*
X120152438Y-54951237D01*
X120152438Y-54951237D02*
X120104819Y-54808380D01*
X120104819Y-54808380D02*
X120104819Y-54713142D01*
X120104819Y-54713142D02*
X120152438Y-54570285D01*
X120152438Y-54570285D02*
X120200057Y-54522666D01*
X120104819Y-54189332D02*
X120104819Y-53570285D01*
X120104819Y-53570285D02*
X120485771Y-53903618D01*
X120485771Y-53903618D02*
X120485771Y-53760761D01*
X120485771Y-53760761D02*
X120533390Y-53665523D01*
X120533390Y-53665523D02*
X120581009Y-53617904D01*
X120581009Y-53617904D02*
X120676247Y-53570285D01*
X120676247Y-53570285D02*
X120914342Y-53570285D01*
X120914342Y-53570285D02*
X121009580Y-53617904D01*
X121009580Y-53617904D02*
X121057200Y-53665523D01*
X121057200Y-53665523D02*
X121104819Y-53760761D01*
X121104819Y-53760761D02*
X121104819Y-54046475D01*
X121104819Y-54046475D02*
X121057200Y-54141713D01*
X121057200Y-54141713D02*
X121009580Y-54189332D01*
X123041580Y-72048666D02*
X123089200Y-72096285D01*
X123089200Y-72096285D02*
X123136819Y-72239142D01*
X123136819Y-72239142D02*
X123136819Y-72334380D01*
X123136819Y-72334380D02*
X123089200Y-72477237D01*
X123089200Y-72477237D02*
X122993961Y-72572475D01*
X122993961Y-72572475D02*
X122898723Y-72620094D01*
X122898723Y-72620094D02*
X122708247Y-72667713D01*
X122708247Y-72667713D02*
X122565390Y-72667713D01*
X122565390Y-72667713D02*
X122374914Y-72620094D01*
X122374914Y-72620094D02*
X122279676Y-72572475D01*
X122279676Y-72572475D02*
X122184438Y-72477237D01*
X122184438Y-72477237D02*
X122136819Y-72334380D01*
X122136819Y-72334380D02*
X122136819Y-72239142D01*
X122136819Y-72239142D02*
X122184438Y-72096285D01*
X122184438Y-72096285D02*
X122232057Y-72048666D01*
X122232057Y-71667713D02*
X122184438Y-71620094D01*
X122184438Y-71620094D02*
X122136819Y-71524856D01*
X122136819Y-71524856D02*
X122136819Y-71286761D01*
X122136819Y-71286761D02*
X122184438Y-71191523D01*
X122184438Y-71191523D02*
X122232057Y-71143904D01*
X122232057Y-71143904D02*
X122327295Y-71096285D01*
X122327295Y-71096285D02*
X122422533Y-71096285D01*
X122422533Y-71096285D02*
X122565390Y-71143904D01*
X122565390Y-71143904D02*
X123136819Y-71715332D01*
X123136819Y-71715332D02*
X123136819Y-71096285D01*
X131677580Y-72048666D02*
X131725200Y-72096285D01*
X131725200Y-72096285D02*
X131772819Y-72239142D01*
X131772819Y-72239142D02*
X131772819Y-72334380D01*
X131772819Y-72334380D02*
X131725200Y-72477237D01*
X131725200Y-72477237D02*
X131629961Y-72572475D01*
X131629961Y-72572475D02*
X131534723Y-72620094D01*
X131534723Y-72620094D02*
X131344247Y-72667713D01*
X131344247Y-72667713D02*
X131201390Y-72667713D01*
X131201390Y-72667713D02*
X131010914Y-72620094D01*
X131010914Y-72620094D02*
X130915676Y-72572475D01*
X130915676Y-72572475D02*
X130820438Y-72477237D01*
X130820438Y-72477237D02*
X130772819Y-72334380D01*
X130772819Y-72334380D02*
X130772819Y-72239142D01*
X130772819Y-72239142D02*
X130820438Y-72096285D01*
X130820438Y-72096285D02*
X130868057Y-72048666D01*
X131772819Y-71096285D02*
X131772819Y-71667713D01*
X131772819Y-71381999D02*
X130772819Y-71381999D01*
X130772819Y-71381999D02*
X130915676Y-71477237D01*
X130915676Y-71477237D02*
X131010914Y-71572475D01*
X131010914Y-71572475D02*
X131058533Y-71667713D01*
X134058819Y-68238666D02*
X133582628Y-68571999D01*
X134058819Y-68810094D02*
X133058819Y-68810094D01*
X133058819Y-68810094D02*
X133058819Y-68429142D01*
X133058819Y-68429142D02*
X133106438Y-68333904D01*
X133106438Y-68333904D02*
X133154057Y-68286285D01*
X133154057Y-68286285D02*
X133249295Y-68238666D01*
X133249295Y-68238666D02*
X133392152Y-68238666D01*
X133392152Y-68238666D02*
X133487390Y-68286285D01*
X133487390Y-68286285D02*
X133535009Y-68333904D01*
X133535009Y-68333904D02*
X133582628Y-68429142D01*
X133582628Y-68429142D02*
X133582628Y-68810094D01*
X134058819Y-67286285D02*
X134058819Y-67857713D01*
X134058819Y-67571999D02*
X133058819Y-67571999D01*
X133058819Y-67571999D02*
X133201676Y-67667237D01*
X133201676Y-67667237D02*
X133296914Y-67762475D01*
X133296914Y-67762475D02*
X133344533Y-67857713D01*
X124660819Y-68810094D02*
X123660819Y-68810094D01*
X123660819Y-68810094D02*
X123660819Y-68571999D01*
X123660819Y-68571999D02*
X123708438Y-68429142D01*
X123708438Y-68429142D02*
X123803676Y-68333904D01*
X123803676Y-68333904D02*
X123898914Y-68286285D01*
X123898914Y-68286285D02*
X124089390Y-68238666D01*
X124089390Y-68238666D02*
X124232247Y-68238666D01*
X124232247Y-68238666D02*
X124422723Y-68286285D01*
X124422723Y-68286285D02*
X124517961Y-68333904D01*
X124517961Y-68333904D02*
X124613200Y-68429142D01*
X124613200Y-68429142D02*
X124660819Y-68571999D01*
X124660819Y-68571999D02*
X124660819Y-68810094D01*
X124660819Y-67286285D02*
X124660819Y-67857713D01*
X124660819Y-67571999D02*
X123660819Y-67571999D01*
X123660819Y-67571999D02*
X123803676Y-67667237D01*
X123803676Y-67667237D02*
X123898914Y-67762475D01*
X123898914Y-67762475D02*
X123946533Y-67857713D01*
X119850819Y-66373333D02*
X120565104Y-66373333D01*
X120565104Y-66373333D02*
X120707961Y-66420952D01*
X120707961Y-66420952D02*
X120803200Y-66516190D01*
X120803200Y-66516190D02*
X120850819Y-66659047D01*
X120850819Y-66659047D02*
X120850819Y-66754285D01*
X120850819Y-65373333D02*
X120850819Y-65944761D01*
X120850819Y-65659047D02*
X119850819Y-65659047D01*
X119850819Y-65659047D02*
X119993676Y-65754285D01*
X119993676Y-65754285D02*
X120088914Y-65849523D01*
X120088914Y-65849523D02*
X120136533Y-65944761D01*
X120612819Y-96773904D02*
X121422342Y-96773904D01*
X121422342Y-96773904D02*
X121517580Y-96726285D01*
X121517580Y-96726285D02*
X121565200Y-96678666D01*
X121565200Y-96678666D02*
X121612819Y-96583428D01*
X121612819Y-96583428D02*
X121612819Y-96392952D01*
X121612819Y-96392952D02*
X121565200Y-96297714D01*
X121565200Y-96297714D02*
X121517580Y-96250095D01*
X121517580Y-96250095D02*
X121422342Y-96202476D01*
X121422342Y-96202476D02*
X120612819Y-96202476D01*
X120708057Y-95773904D02*
X120660438Y-95726285D01*
X120660438Y-95726285D02*
X120612819Y-95631047D01*
X120612819Y-95631047D02*
X120612819Y-95392952D01*
X120612819Y-95392952D02*
X120660438Y-95297714D01*
X120660438Y-95297714D02*
X120708057Y-95250095D01*
X120708057Y-95250095D02*
X120803295Y-95202476D01*
X120803295Y-95202476D02*
X120898533Y-95202476D01*
X120898533Y-95202476D02*
X121041390Y-95250095D01*
X121041390Y-95250095D02*
X121612819Y-95821523D01*
X121612819Y-95821523D02*
X121612819Y-95202476D01*
X134328819Y-103203333D02*
X135043104Y-103203333D01*
X135043104Y-103203333D02*
X135185961Y-103250952D01*
X135185961Y-103250952D02*
X135281200Y-103346190D01*
X135281200Y-103346190D02*
X135328819Y-103489047D01*
X135328819Y-103489047D02*
X135328819Y-103584285D01*
X134424057Y-102774761D02*
X134376438Y-102727142D01*
X134376438Y-102727142D02*
X134328819Y-102631904D01*
X134328819Y-102631904D02*
X134328819Y-102393809D01*
X134328819Y-102393809D02*
X134376438Y-102298571D01*
X134376438Y-102298571D02*
X134424057Y-102250952D01*
X134424057Y-102250952D02*
X134519295Y-102203333D01*
X134519295Y-102203333D02*
X134614533Y-102203333D01*
X134614533Y-102203333D02*
X134757390Y-102250952D01*
X134757390Y-102250952D02*
X135328819Y-102822380D01*
X135328819Y-102822380D02*
X135328819Y-102203333D01*
D12*
%TO.C,Y1*%
X129350000Y-77350000D02*
X124650000Y-77350000D01*
X129350000Y-73650000D02*
X124650000Y-73650000D01*
X129350000Y-73650000D02*
G75*
G02*
X129350000Y-77350000I0J-1850000D01*
G01*
X124650000Y-77350000D02*
G75*
G02*
X124650000Y-73650000I0J1850000D01*
G01*
%TO.C,R3*%
X122442500Y-78756742D02*
X122442500Y-79231258D01*
X121397500Y-78756742D02*
X121397500Y-79231258D01*
%TO.C,J4*%
X128210000Y-96408000D02*
X128210000Y-101548000D01*
X128210000Y-96408000D02*
X130870000Y-96408000D01*
X128210000Y-101548000D02*
X130870000Y-101548000D01*
X129540000Y-93808000D02*
X130870000Y-93808000D01*
X130870000Y-93808000D02*
X130870000Y-95138000D01*
X130870000Y-96408000D02*
X130870000Y-101548000D01*
%TO.C,C6*%
X124213252Y-105637000D02*
X123690748Y-105637000D01*
X124213252Y-104167000D02*
X123690748Y-104167000D01*
%TO.C,C5*%
X122261252Y-94207000D02*
X121738748Y-94207000D01*
X122261252Y-92737000D02*
X121738748Y-92737000D01*
%TO.C,C4*%
X130554000Y-79388580D02*
X130554000Y-79107420D01*
X131574000Y-79388580D02*
X131574000Y-79107420D01*
%TO.C,C3*%
X119990000Y-56859420D02*
X119990000Y-57140580D01*
X121010000Y-56859420D02*
X121010000Y-57140580D01*
%TO.C,C2*%
X125140580Y-72510000D02*
X124859420Y-72510000D01*
X125140580Y-71490000D02*
X124859420Y-71490000D01*
%TO.C,C1*%
X128859420Y-71490000D02*
X129140580Y-71490000D01*
X128859420Y-72510000D02*
X129140580Y-72510000D01*
%TO.C,R1*%
X130762742Y-67477500D02*
X131237258Y-67477500D01*
X130762742Y-68522500D02*
X131237258Y-68522500D01*
%TO.C,D1*%
X128685000Y-68960000D02*
X128685000Y-67040000D01*
X128685000Y-67040000D02*
X126000000Y-67040000D01*
X126000000Y-68960000D02*
X128685000Y-68960000D01*
%TO.C,J1*%
X122065000Y-62075000D02*
X122065000Y-55775000D01*
X122065000Y-65785000D02*
X122065000Y-63975000D01*
X122175000Y-65785000D02*
X122065000Y-65785000D01*
X134935000Y-61375000D02*
X134935000Y-55775000D01*
X134935000Y-64625000D02*
X134935000Y-65785000D01*
X134935000Y-65785000D02*
X123675000Y-65785000D01*
%TO.C,U2*%
X120590000Y-100850000D02*
X120590000Y-97090000D01*
X127410000Y-100850000D02*
X127410000Y-97090000D01*
X120590000Y-97090000D02*
X121850000Y-97090000D01*
X127410000Y-97090000D02*
X126150000Y-97090000D01*
X120690000Y-102130000D02*
X120360000Y-102370000D01*
X120360000Y-101890000D01*
X120690000Y-102130000D01*
G36*
X120690000Y-102130000D02*
G01*
X120360000Y-102370000D01*
X120360000Y-101890000D01*
X120690000Y-102130000D01*
G37*
%TO.C,U1*%
X130130000Y-80140000D02*
X129660000Y-79800000D01*
X130130000Y-79460000D01*
X130130000Y-80140000D01*
G36*
X130130000Y-80140000D02*
G01*
X129660000Y-79800000D01*
X130130000Y-79460000D01*
X130130000Y-80140000D01*
G37*
X122890000Y-87610000D02*
X123340000Y-87610000D01*
X130110000Y-87610000D02*
X129660000Y-87610000D01*
X122890000Y-87160000D02*
X122890000Y-87610000D01*
X130110000Y-87160000D02*
X130110000Y-87610000D01*
X122890000Y-80840000D02*
X122890000Y-80390000D01*
X130110000Y-80840000D02*
X130110000Y-80390000D01*
X122890000Y-80390000D02*
X123340000Y-80390000D01*
X130110000Y-80390000D02*
X129660000Y-80390000D01*
%TO.C,J2*%
X141370000Y-116770000D02*
X140040000Y-116770000D01*
X141370000Y-115440000D02*
X141370000Y-116770000D01*
X141370000Y-114170000D02*
X141370000Y-53150000D01*
X141370000Y-114170000D02*
X138770000Y-114170000D01*
X141370000Y-53150000D02*
X136170000Y-53150000D01*
X138770000Y-116770000D02*
X136170000Y-116770000D01*
X138770000Y-114170000D02*
X138770000Y-116770000D01*
X136170000Y-116770000D02*
X136170000Y-53150000D01*
D13*
%TO.C,G\u002A\u002A\u002A*%
G36*
X129065336Y-106203495D02*
G01*
X129918707Y-106319782D01*
X130473048Y-106613013D01*
X130792770Y-107164529D01*
X130942288Y-108055672D01*
X130986014Y-109367786D01*
X130988340Y-110147844D01*
X130969740Y-111663696D01*
X130871192Y-112721566D01*
X130628575Y-113403665D01*
X130177770Y-113792204D01*
X129454654Y-113969395D01*
X128395109Y-114017448D01*
X127969049Y-114018979D01*
X126841791Y-113990954D01*
X126119700Y-113889173D01*
X125669586Y-113687078D01*
X125490858Y-113524830D01*
X125281439Y-113183042D01*
X125146457Y-112643252D01*
X125072158Y-111801027D01*
X125044788Y-110551934D01*
X125043659Y-110129406D01*
X125048602Y-109441510D01*
X125301454Y-109441510D01*
X125321907Y-110632730D01*
X125376384Y-111763694D01*
X125461521Y-112696990D01*
X125573953Y-113295204D01*
X125638127Y-113424511D01*
X126086496Y-113599899D01*
X126898633Y-113708071D01*
X127902080Y-113749026D01*
X128924376Y-113722764D01*
X129793061Y-113629286D01*
X130335676Y-113468590D01*
X130393872Y-113424511D01*
X130545212Y-113004628D01*
X130651316Y-112186256D01*
X130712184Y-111109433D01*
X130727815Y-109914198D01*
X130698211Y-108740590D01*
X130623371Y-107728649D01*
X130503295Y-107018413D01*
X130393872Y-106777277D01*
X129937135Y-106601897D01*
X129034783Y-106489923D01*
X127855760Y-106453021D01*
X126708054Y-106474042D01*
X125995476Y-106549578D01*
X125613918Y-106698344D01*
X125477888Y-106880440D01*
X125376080Y-107427952D01*
X125318390Y-108327446D01*
X125301454Y-109441510D01*
X125048602Y-109441510D01*
X125054668Y-108597329D01*
X125126373Y-107524036D01*
X125316794Y-106827892D01*
X125683947Y-106427261D01*
X126285853Y-106240508D01*
X127180529Y-106185999D01*
X127848521Y-106182809D01*
X129065336Y-106203495D01*
G37*
G36*
X130312808Y-109965787D02*
G01*
X130312808Y-111992383D01*
X128079292Y-112070933D01*
X126905604Y-112089354D01*
X126176252Y-112036490D01*
X125798450Y-111900690D01*
X125765517Y-111857277D01*
X125854298Y-111857277D01*
X128016000Y-111857277D01*
X130177702Y-111857277D01*
X130177702Y-109965787D01*
X130177702Y-108074298D01*
X128016000Y-108074298D01*
X125854298Y-108074298D01*
X125854298Y-109965787D01*
X125854298Y-111857277D01*
X125765517Y-111857277D01*
X125701022Y-111772260D01*
X125637353Y-111316962D01*
X125616571Y-110509644D01*
X125630229Y-109965787D01*
X125637729Y-109667114D01*
X125719191Y-107939191D01*
X128016000Y-107939191D01*
X130312808Y-107939191D01*
X130312808Y-109965787D01*
G37*
G36*
X128517980Y-110971935D02*
G01*
X128649781Y-111114191D01*
X128306894Y-111285356D01*
X128016000Y-111316851D01*
X127528100Y-111222361D01*
X127382218Y-111114191D01*
X127519454Y-110970197D01*
X128016000Y-110911532D01*
X128517980Y-110971935D01*
G37*
G36*
X128255170Y-109120249D02*
G01*
X128286207Y-109687030D01*
X128286212Y-109695574D01*
X128221447Y-110264940D01*
X128065420Y-110506157D01*
X128062799Y-110506213D01*
X127940928Y-110275385D01*
X127955184Y-109717790D01*
X127958361Y-109695574D01*
X128071897Y-109127321D01*
X128180104Y-108885037D01*
X128181775Y-108884936D01*
X128255170Y-109120249D01*
G37*
G36*
X127115290Y-108975007D02*
G01*
X127147630Y-109295686D01*
X127115290Y-109335291D01*
X126954649Y-109298199D01*
X126935149Y-109155149D01*
X127034015Y-108932733D01*
X127115290Y-108975007D01*
G37*
G36*
X129006780Y-108975007D02*
G01*
X129039119Y-109295686D01*
X129006780Y-109335291D01*
X128846139Y-109298199D01*
X128826638Y-109155149D01*
X128925505Y-108932733D01*
X129006780Y-108975007D01*
G37*
%TD*%
M02*
